<?xml version="1.0" encoding="UTF-8"?><svg id="_レイヤー_2" xmlns="http://www.w3.org/2000/svg" viewBox="0 0 1269.43 719.57"><defs><style>.cls-1{fill:#fff100;}.cls-1,.cls-2,.cls-3{stroke-width:0px;}.cls-2{fill:#fff;}.cls-4{fill:none;stroke:#79d9e4;stroke-miterlimit:10;stroke-width:2px;}.cls-3{fill:#5ccad6;}</style></defs><g id="_レイヤー_1-2"><path class="cls-2" d="M345.85,388.85c-2.29,1.89-3.11,3.89-3.11,6.32s.81,4.43,3.11,6.32l-.36.43c-2.65-1.93-3.74-4.03-3.74-6.75s1.09-4.82,3.74-6.75l.36.43Z"/><path class="cls-2" d="M348.34,391.28q-.43.08-.61-.33c-.12-.29-.26-.53-.46-.75,1.35-.21,2.48-.54,3.3-.9.25-.1.39-.19.58-.32.32.28.58.55.83.83.08.1.11.14.11.23,0,.11-.1.18-.23.18-.12,0-.28.07-.46.14-.28.11-.57.21-.87.3v2c.92,0,1.24-.03,1.32-.03.14,0,.15.01.15.15v.95c0,.15-.01.17-.15.17-.08,0-.36-.01-1.12-.03.44.91.91,1.59,1.53,2.15-.17.25-.36.63-.48,1.01-.04.15-.1.22-.15.22s-.12-.08-.22-.22c-.37-.55-.66-1.05-.92-1.75,0,3.41.08,5.81.08,6.06,0,.12-.01.14-.15.14h-1.09c-.15,0-.17-.01-.17-.14,0-.23.08-2.5.11-5.47-.36,1.06-.86,1.97-1.41,2.76-.1.14-.17.21-.23.21-.06,0-.11-.07-.17-.22-.15-.37-.36-.76-.55-.98.8-.91,1.63-2.11,2.14-3.77h-.33c-1.01,0-1.33.03-1.42.03-.12,0-.14-.01-.14-.17v-.95c0-.14.01-.15.14-.15.1,0,.41.03,1.42.03h.48v-1.6l-.87.21ZM356.03,391.54c.29-.63.51-1.21.7-1.81.06-.22.12-.5.15-.86.48.1,1.04.22,1.37.34.11.04.18.11.18.19,0,.1-.04.15-.12.23-.11.1-.18.23-.25.43-.19.4-.39.87-.69,1.46.98,0,1.37-.03,1.45-.03.14,0,.15.01.15.17,0,.08-.03.4-.03,1.19v1.67c0,.77.03,1.12.03,1.2,0,.14-.01.15-.15.15-.08,0-.5-.03-1.59-.03v3.62c0,.25.03.37.14.46.07.06.23.1.47.1.33,0,.47-.05.57-.17.11-.14.15-.47.17-1.57.23.17.61.35.84.4q.36.11.33.47c-.06,1.15-.25,1.63-.52,1.85-.32.23-.88.33-1.53.33-.72,0-1.16-.07-1.38-.22-.25-.18-.4-.44-.4-1.1v-4.15h-.84c-.07,3.01-.88,4.5-2.59,5.51-.18.1-.28.15-.35.15-.08,0-.14-.08-.29-.29-.22-.29-.5-.57-.73-.73,1.82-.79,2.62-1.99,2.66-4.64-.77.01-1.08.03-1.13.03-.15,0-.17-.01-.17-.15,0-.1.03-.43.03-1.2v-1.67c0-.79-.03-1.1-.03-1.19,0-.15.01-.17.17-.17.07,0,.5.03,1.7.03h1.7ZM353.83,388.98c.18-.08.19-.08.28.04.36.5.73,1.17.98,1.79.04.14.03.17-.15.25l-.84.39c-.17.08-.19.08-.25-.07-.22-.62-.52-1.24-.91-1.82-.07-.12-.06-.15.12-.23l.77-.34ZM357.6,392.78h-3.78v1.82h3.78v-1.82Z"/><path class="cls-2" d="M364.91,398.42c.29.57.57.91,1.13,1.15.48.19,1.35.28,2.55.28,1.78,0,3.88-.1,5.94-.3-.19.29-.32.66-.37,1.08q-.07.44-.51.47c-1.75.1-3.4.14-4.83.14s-2.57-.12-3.23-.4c-.63-.26-1.01-.65-1.35-1.23-.43.41-.91.83-1.42,1.21-.14.11-.22.19-.28.28-.07.1-.12.14-.21.14-.06,0-.14-.07-.19-.18-.19-.36-.37-.8-.57-1.3.36-.17.55-.26.81-.43.4-.25.8-.57,1.16-.88v-3.05h-.68c-.75,0-.94.03-1.01.03-.15,0-.17-.01-.17-.17v-1.06c0-.14.01-.15.17-.15.07,0,.26.03,1.01.03h.88c.73,0,.95-.03,1.04-.03.14,0,.15.01.15.15,0,.08-.03.47-.03,1.31v2.93ZM364.05,392.24c-.1.07-.14.1-.18.1s-.07-.03-.11-.1c-.51-.83-1.08-1.57-1.7-2.15-.11-.1-.08-.14.07-.23l.77-.51c.15-.1.18-.11.29-.01.63.59,1.23,1.27,1.73,2.06.08.12.08.15-.07.26l-.8.59ZM368.94,389.59c.63,0,1.08-.03,1.26-.03.1,0,.14.07.14.15,0,.32-.01,1.09.17,2.03.4,2.29,1.75,4.47,3.88,5.83-.23.26-.54.68-.73,1.08-.11.21-.17.3-.25.3-.07,0-.17-.06-.3-.18-1.68-1.35-2.82-3.17-3.35-5.25-.52,2.1-1.55,3.74-3.15,5.13-.15.12-.23.19-.3.19s-.14-.08-.29-.26c-.29-.39-.58-.63-.86-.81,2.21-1.55,3.45-3.7,3.77-6.85h-1.2c-.86,0-1.1.03-1.19.03-.15,0-.17-.01-.17-.17v-1.08c0-.14.01-.15.17-.15.08,0,.33.03,1.19.03h1.23Z"/><path class="cls-2" d="M376.22,388.42c2.65,1.93,3.74,4.03,3.74,6.75s-1.09,4.82-3.74,6.75l-.36-.43c2.29-1.89,3.11-3.89,3.11-6.32s-.81-4.43-3.11-6.32l.36-.43Z"/><path class="cls-1" d="M467.85,366.46v-5.81h-13.37v-9.4h8.14l-11.63-29.56h12.4l10.08,29.17,11.14-29.17h12.5l-12.79,29.56h8.14v9.4h-13.37v5.81h13.37v9.4h-13.37v12.7h-11.24v-12.7h-13.37v-9.4h13.37Z"/><path class="cls-1" d="M538.08,389.95c-17.9,0-33.78-10.59-33.78-32.85v-44.37c0-22.88,15.88-33,33.78-33s33.78,10.12,33.78,32.85v44.52c0,22.26-15.88,32.85-33.78,32.85ZM538.08,295.46c-9.81,0-15.88,6.69-15.88,18.21v42.34c0,11.52,6.07,18.21,15.88,18.21s15.72-6.69,15.72-18.21v-42.34c0-11.52-6.07-18.21-15.72-18.21Z"/><path class="cls-2" d="M197.7,373.91v-2.49h-5.72v-4.02h3.48l-4.98-12.65h5.31l4.31,12.48,4.77-12.48h5.35l-5.47,12.65h3.48v4.02h-5.72v2.49h5.72v4.02h-5.72v5.43h-4.81v-5.43h-5.72v-4.02h5.72Z"/><path class="cls-2" d="M228.72,383.36h-8.69v-42.33l-7.42,5.09v-8.77l7.94-5.69h8.17v51.7Z"/><path class="cls-2" d="M254.19,383.36h-8.69v-42.33l-7.42,5.09v-8.77l7.94-5.69h8.17v51.7Z"/><path class="cls-2" d="M271.49,387.26l-8.84,7.57v-21.8h8.84v14.23Z"/><path class="cls-2" d="M293.67,384.04c-8.62,0-16.26-5.09-16.26-15.81v-21.35c0-11.01,7.64-15.88,16.26-15.88s16.26,4.87,16.26,15.81v21.43c0,10.71-7.64,15.81-16.26,15.81ZM293.67,338.56c-4.72,0-7.64,3.22-7.64,8.77v20.38c0,5.54,2.92,8.77,7.64,8.77s7.57-3.22,7.57-8.77v-20.38c0-5.54-2.92-8.77-7.57-8.77Z"/><path class="cls-2" d="M332.55,384.04c-8.62,0-16.26-5.09-16.26-15.81v-21.35c0-11.01,7.64-15.88,16.26-15.88s16.26,4.87,16.26,15.81v21.43c0,10.71-7.64,15.81-16.26,15.81ZM332.55,338.56c-4.72,0-7.64,3.22-7.64,8.77v20.38c0,5.54,2.92,8.77,7.64,8.77s7.57-3.22,7.57-8.77v-20.38c0-5.54-2.92-8.77-7.57-8.77Z"/><path class="cls-2" d="M371.42,384.04c-8.62,0-16.26-5.09-16.26-15.81v-21.35c0-11.01,7.64-15.88,16.26-15.88s16.26,4.87,16.26,15.81v21.43c0,10.71-7.64,15.81-16.26,15.81ZM371.42,338.56c-4.72,0-7.64,3.22-7.64,8.77v20.38c0,5.54,2.92,8.77,7.64,8.77s7.57-3.22,7.57-8.77v-20.38c0-5.54-2.92-8.77-7.57-8.77Z"/><path class="cls-2" d="M40.95,338.39c0,10.27,1.34,18.21,4.03,23.81,2.69,5.61,6.97,9.45,12.84,11.51v8.46c-5.22-1.51-9.61-4.1-13.19-7.77-3.22-3.31-5.77-7.46-7.68-12.45-2.13,5.22-5.2,9.54-9.2,12.97-4,3.43-8.86,5.85-14.56,7.26v-8.46c5.97-1.71,10.69-4.73,14.17-9.08,3.48-4.35,5.59-10.06,6.35-17.15l-.1-1.48h-15.06v-7.63h22.39Z"/><path class="cls-2" d="M82.21,337.7h9.59c1.48,2.43,3.77,4.46,6.89,6.1,3.12,1.64,6.66,2.69,10.63,3.15v7.72c-.85-.13-1.49-.24-1.92-.32-.43-.08-.98-.2-1.67-.37v4.28h-37.3v-4.33l-3.74.74v-7.72c4-.49,7.55-1.55,10.65-3.17,3.1-1.62,5.39-3.65,6.86-6.08ZM109.32,362.3v6.54h-28.59l-2.61,5.56c3.81,0,7.18-.12,10.11-.34,2.94-.23,5.65-.61,8.14-1.13l-1.87-4.03h8.61l6.2,13.28h-8.66l-1.33-2.85c-3.05,1.02-6.46,1.66-10.23,1.94-3.77.28-9.63.42-17.57.42h-6.84v-7.23h4.13l2.61-5.61h-6.74v-6.54h44.63ZM75.47,351.78h23.03c-4.76-1.94-8.58-4.56-11.46-7.87-1.44,1.61-3.15,3.08-5.12,4.43-1.97,1.35-4.12,2.49-6.45,3.44Z"/><path class="cls-2" d="M128.68,338.93v-1.23h7.43v1.23h4.82v-1.23h7.43v1.23h11.27v9.55h-11.27v1.82h12.45v5.07c0,.95-.34,1.66-1.03,2.12-.69.46-1.87.69-3.54.69h-5.76v-2.56h1.97c.59,0,.89-.25.89-.74v-.74h-4.97v4.18h-7.43v-4.18h-6c-.95,2.23-2.79,3.99-5.51,5.26h30.26v19.88h-1.97l3.1,2.9h-9l-3-2.9h-19.58c-.92,1.15-1.9,2.12-2.95,2.9h-10.09c1.41-.89,2.67-1.85,3.79-2.9h-2.56v-17.52l-1.23.05v-5.71c2.82,0,5.02-.15,6.59-.44,1.57-.29,2.84-.8,3.79-1.53h-9.2v-9.5h11.32v-1.67h-12.5v-4.04h12.5ZM124.55,350.3h3.94l.2-1.82h-4.13v1.82ZM125.43,364.81h26.23v-1.77h-26.23v1.77ZM125.43,370.18h26.23v-1.67h-26.23v1.67ZM125.43,375.64h26.23v-1.72h-26.23v1.72ZM140.93,348.48h-4.82l-.15,1.82h4.97v-1.82ZM136.11,344.64h4.82v-1.67h-4.82v1.67ZM148.36,344.64h4.18v-1.67h-4.18v1.67Z"/><path class="cls-2" d="M55.89,505.02v36.9c0,1.84-.63,3.44-1.89,4.82-1.26,1.38-2.8,2.07-4.6,2.07h-10.78v-7.18h8.22c.82,0,1.23-.41,1.23-1.23v-4.82h-24.11c-.76,2.92-1.98,5.49-3.67,7.72-1.69,2.23-3.88,4.07-6.57,5.51v-10.53c2.2-1.87,3.3-5.41,3.3-10.63v-22.63h38.87ZM24.84,517.18h23.22v-5.51h-23.22v5.51ZM24.84,528.1v.88h23.22v-5.26h-23.22v4.38Z"/><path class="cls-2" d="M81.68,504.33h9.59c1.48,2.43,3.77,4.46,6.89,6.1,3.12,1.64,6.66,2.69,10.63,3.15v7.72c-.85-.13-1.49-.24-1.92-.32-.43-.08-.98-.2-1.67-.37v4.28h-37.3v-4.33l-3.74.74v-7.72c4-.49,7.55-1.55,10.65-3.17,3.1-1.62,5.39-3.65,6.86-6.08ZM108.79,528.94v6.54h-28.59l-2.61,5.56c3.81,0,7.18-.12,10.11-.34,2.94-.23,5.65-.61,8.14-1.13l-1.87-4.03h8.61l6.2,13.28h-8.66l-1.33-2.85c-3.05,1.02-6.46,1.66-10.23,1.94-3.77.28-9.63.42-17.57.42h-6.84v-7.23h4.13l2.61-5.61h-6.74v-6.54h44.63ZM74.94,518.41h23.03c-4.76-1.94-8.58-4.56-11.46-7.87-1.44,1.61-3.15,3.08-5.12,4.43-1.97,1.35-4.12,2.49-6.45,3.44Z"/><path class="cls-2" d="M128.15,505.56v-1.23h7.43v1.23h4.82v-1.23h7.43v1.23h11.27v9.55h-11.27v1.82h12.45v5.07c0,.95-.34,1.66-1.03,2.12-.69.46-1.87.69-3.54.69h-5.76v-2.56h1.97c.59,0,.89-.25.89-.74v-.74h-4.97v4.18h-7.43v-4.18h-6c-.95,2.23-2.79,3.99-5.51,5.26h30.26v19.88h-1.97l3.1,2.9h-9l-3-2.9h-19.58c-.92,1.15-1.9,2.12-2.95,2.9h-10.09c1.41-.89,2.67-1.85,3.79-2.9h-2.56v-17.52l-1.23.05v-5.71c2.82,0,5.02-.15,6.59-.44,1.57-.29,2.84-.8,3.79-1.53h-9.2v-9.5h11.32v-1.67h-12.5v-4.04h12.5ZM124.02,516.93h3.94l.2-1.82h-4.13v1.82ZM124.91,531.45h26.23v-1.77h-26.23v1.77ZM124.91,536.81h26.23v-1.67h-26.23v1.67ZM124.91,542.27h26.23v-1.72h-26.23v1.72ZM140.41,515.11h-4.82l-.15,1.82h4.97v-1.82ZM135.58,511.27h4.82v-1.67h-4.82v1.67ZM147.84,511.27h4.18v-1.67h-4.18v1.67Z"/><path class="cls-1" d="M459.93,485.29c-.28,1.34-.76,2.67-1.45,4.01h42.04v8.57h-2.63v9.13h4.29v8.57h-4.29v9.06h2.63v8.58h-59.4v-8.58h2.63v-9.06h-4.29v-8.57h4.29v-4.29c-.69.32-1.35.57-1.97.73-.62.16-1.4.33-2.32.52v-10.03c2.4-.51,4.52-1.64,6.36-3.39,1.7-1.57,2.81-3.32,3.32-5.26h10.79ZM454.33,536.11c-.32,1.94-.85,4.04-1.59,6.33-.74,2.28-1.45,4.07-2.14,5.36h-11.13c.97-1.29,1.9-3.09,2.8-5.39s1.51-4.4,1.83-6.29h10.23ZM458.75,497.87h-5.81v9.13h5.81v-9.13ZM452.94,524.63h5.81v-9.06h-5.81v9.06ZM468.29,536.11l2.07,11.69h-10.1l-2.01-11.69h10.03ZM473.62,497.87h-5.53v9.13h5.53v-9.13ZM468.09,524.63h5.53v-9.06h-5.53v9.06ZM483.65,536.11l2.7,11.69h-10.23l-2.42-11.69h9.96ZM488.69,497.87h-5.74v9.13h5.74v-9.13ZM482.95,524.63h5.74v-9.06h-5.74v9.06ZM499.07,536.11l3.11,11.69h-10.1l-2.9-11.69h9.89Z"/><path class="cls-1" d="M531.28,485.29v20.47h10.03v10.03h-10.03v1.73l10.03,8.3v12.72l-10.03-9.68v18.95h-9.89v-13.83c-1.48,1.98-3,3.72-4.56,5.22-1.57,1.5-3.39,2.87-5.46,4.11v-13c2.21-1.47,4.21-3.54,5.98-6.19,1.77-2.65,2.94-5.43,3.49-8.33h-9.47v-10.03h10.03v-20.47h9.89ZM518.07,487.29c1.15,5.39,1.73,10.72,1.73,15.97h-6.78c0-2.72-.14-5.39-.42-8.02-.28-2.63-.69-5.28-1.24-7.95h6.71ZM541.79,487.29l-2.21,15.97h-6.78l1.94-15.97h7.05ZM559.77,525.6v-40.31h11v38.59l3.39-.48v10.58l-3.39.55v13.28h-11v-11.48l-16.32,2.63v-11l16.32-2.35ZM556.59,493.38v10.58l-11.76-6.09v-10.17l11.76,5.67ZM556.59,511.42v10.72l-11.76-6.22v-10.17l11.76,5.67Z"/><path class="cls-2" d="M208.48,454.5l5.66,2.18v4l-5.66-2.36v-3.82ZM208.48,463.54h5.66v8.46c.09.6.32,1.06.72,1.37s.97.47,1.74.47h15.12v3.51h-15.56c-1.18,0-2.05-.14-2.61-.42s-1.07-.74-1.51-1.37l-3.56,2.08v-4.23l1.95-1.15v-4.84h-1.95v-3.87ZM215.5,454.83h15.61v2.41l-2.36,2.15h2.36v11.41c0,.75-.2,1.32-.6,1.69s-.92.56-1.55.56h-2.87v-2.15h.92c.32,0,.49-.18.49-.54v-.69h-2.56v3.38h-3.26v-3.38h-2.54v3.38h-3.64v-13.66h3.02l-.82-1.18h3.97l.79,1.18h1.74l1.95-1.82h-10.66v-2.74ZM219.14,463.36h2.54v-1.59h-2.54v1.59ZM219.14,467.34h2.54v-1.64h-2.54v1.64ZM224.93,463.36h2.56v-1.59h-2.56v1.59ZM224.93,467.34h2.56v-1.64h-2.56v1.64Z"/><path class="cls-2" d="M241.1,454.47c.19.32.35.65.47.97.13.33.23.68.32,1.08h2.84v-2.05h4.15v2.05h3.05l.69-2.05h4.28l-.85,2.05h2.26v5.74h-2v5.51h-7.56v1.18h9.07v5.46c0,.92-.26,1.64-.77,2.17-.51.52-1.26.78-2.23.78h-3.69v-3.31h2.28c.12,0,.23-.05.35-.14.11-.09.17-.21.17-.35v-1.38h-5.18v5.46h-3.92v-5.46h-5.13v5.18h-3.9v-8.41h9.02v-1.18h-7.56v-5.51h-2v-5.74h2.49c-.17-.75-.42-1.44-.74-2.05h4.08ZM239.23,460.83h15.15v-1.05h-15.15v1.05ZM241.15,465.08h11.3v-1.56h-11.3v1.56Z"/><rect class="cls-3" x="0" y="270.82" width="174.06" height="44.47" rx="22.24" ry="22.24"/><path class="cls-2" d="M49.54,283.77l-.07,2.9h.83v-3.21h3.26v3.21h1.48v2.79h4.13v-1.84h-3.5v-3.03h3.5v-1.12h3.55v1.12h3.57v3.03h-3.57v1.84h4.11v3.03h-1.12v1.75h1.12v3.01h-1.12v3.77c0,1.02-.28,1.75-.85,2.2-.48.36-1.19.54-2.13.54h-2.7v-3.39h1.66c.36,0,.54-.17.54-.52v-2.61h-7.19v.22c-.24.12-.5.24-.77.35-.28.11-.51.2-.71.26v5.68h-3.26v-4.74c-.99.21-1.76.37-2.3.47-.55.1-1.06.16-1.54.16v-3.57c.55,0,1.14-.05,1.76-.15.62-.1,1.31-.24,2.08-.44v-5.41h-1.06c0,.43-.02.79-.06,1.08-.04.29-.16.81-.37,1.57h-2.56c.25-1.2.44-2.45.55-3.76.11-1.31.17-3.04.17-5.2h2.56ZM53.56,294.49c.55-.19,1.05-.42,1.48-.67v.43h7.19v-1.75h-7.19v-2.4h-1.48v4.4ZM58.64,298.26l.85,4.43h-3.08l-.83-4.43h3.06Z"/><path class="cls-2" d="M76.04,285.12v-1.66h3.32v1.66h1.84v-1.66h3.3v1.66h5.23v12.6h.72v3.08h-2.04l2.04,2.96h-4.07l-1.93-2.96h-8.06c-.58,1.17-1.23,2.16-1.93,2.96h-4.38c.87-.87,1.65-1.86,2.34-2.96h-2.34v-3.08h.74v-12.6h5.21ZM74.19,291.39h1.91v-3.17h-1.91v3.17ZM74.19,297.72h1.91v-3.3h-1.91v3.3ZM79.36,291.39h1.84v-3.17h-1.84v3.17ZM79.36,297.72h1.84v-3.3h-1.84v3.3ZM84.44,291.39h1.91v-3.17h-1.91v3.17ZM84.44,297.72h1.91v-3.3h-1.91v3.3Z"/><path class="cls-2" d="M109.29,294.67c0,2.59-.55,4.52-1.66,5.77-1.15,1.3-2.97,1.95-5.46,1.95h-1.48c-2.47,0-4.28-.64-5.41-1.93-1.14-1.29-1.71-3.22-1.71-5.8v-3.28c0-2.59.6-4.53,1.81-5.82,1.21-1.29,2.98-1.93,5.31-1.93h1.48c2.32,0,4.09.64,5.3,1.93,1.21,1.29,1.82,3.23,1.82,5.82v3.28ZM105.33,294.67v-3.28c0-1.41-.29-2.41-.88-3.01-.51-.52-1.27-.79-2.29-.79h-1.48c-1.03,0-1.79.25-2.27.76-.58.6-.88,1.61-.88,3.03v3.28c0,1.32.26,2.28.79,2.89.52.61,1.31.91,2.36.91h1.48c1.03,0,1.82-.3,2.36-.91s.81-1.57.81-2.89Z"/><path class="cls-2" d="M123.51,302.24h-3.95v-14.33l-7.05,1.55v-4l7.28-1.66h3.73v18.44Z"/><path class="cls-2" d="M564.58,107.9h12.08c18.11,0,27.92-9.84,27.92-26.66,0-12.94-9.81-23.55-24.65-23.55s-23.4,9.58-24.65,22h-26.67c.75-28.73,24.4-47.63,52.33-47.63,30.44,0,52.58,21.48,52.58,48.4,0,19.41-11.07,32.87-24.65,39.86,15.85,7.25,27.17,21.22,27.17,43.23,0,28.21-19.62,51.77-53.08,51.77-35.22,0-55.09-20.71-56.6-48.92h26.67c2.01,12.94,10.82,22.78,28.68,22.78,15.09,0,25.41-11.39,25.41-26.4,0-18.12-10.31-28.99-30.44-28.99h-12.08v-25.88Z"/><path class="cls-2" d="M709.43,215.32c-28.93,0-54.59-17.6-54.59-54.61v-73.77c0-38.05,25.66-54.87,54.59-54.87s54.59,16.82,54.59,54.61v74.03c0,37.01-25.66,54.61-54.59,54.61ZM709.43,58.21c-15.85,0-25.66,11.13-25.66,30.28v70.4c0,19.15,9.81,30.28,25.66,30.28s25.41-11.13,25.41-30.28v-70.4c0-19.15-9.81-30.28-25.41-30.28Z"/><path class="cls-2" d="M839.96,215.32c-28.93,0-54.59-17.6-54.59-54.61v-73.77c0-38.05,25.66-54.87,54.59-54.87s54.59,16.82,54.59,54.61v74.03c0,37.01-25.66,54.61-54.59,54.61ZM839.96,58.21c-15.85,0-25.66,11.13-25.66,30.28v70.4c0,19.15,9.81,30.28,25.66,30.28s25.41-11.13,25.41-30.28v-70.4c0-19.15-9.81-30.28-25.41-30.28Z"/><path class="cls-2" d="M289.66,115.59l-.49,8.5h17.83v-10.09h20.76v10.09h39.44v16.66h-39.44v17.23h42.38v16.66h-30.9v19.61c0,2.57,1.22,3.85,3.66,3.85h13.43c2.6,0,5.05-.32,7.33-.96,2.28-.64,4.44-1.72,6.47-3.23v17.46c-1.95,1.21-4.11,2.15-6.47,2.83-2.36.68-4.72,1.02-7.08,1.02h-20.52c-5.7,0-9.83-1.25-12.4-3.74-2.56-2.49-3.85-6.54-3.85-12.13v-24.71h-12.46c-1.55,12.09-6.19,21.91-13.92,29.47-8.55,8.23-19.91,12.35-34.07,12.35v-18.47c8.79-1.13,15.39-3.53,19.78-7.2,4.4-3.66,7.12-9.05,8.18-16.15h-27.97v-16.66h47.63v-17.23h-21.37c-.73,2.19-1.3,3.7-1.71,4.53-1.14,2.57-2.4,4.91-3.79,7.03h-21.25c3.66-5.59,6.51-11.5,8.55-17.74,2.03-6.23,3.05-12.56,3.05-18.99h19.17Z"/><path class="cls-2" d="M415.49,114.23l2.93,5.33h35.29l2.2-5.33h19.42l-2.32,5.33h17.83v10.77h-45.67v4.99h42.74v10.77h-42.74v4.87h45.67v10.88h-70.83c-.41.83-.71,1.55-.92,2.15-.2.61-.63,1.44-1.28,2.49h70.1v48.28h-97.08v-23.46c-3.42,1.44-7,2.53-10.75,3.29v-20.17c9.61-1.51,16.28-5.7,20.03-12.58h-20.03v-10.88h45.67v-4.87h-42.74v-10.77h42.74v-4.99h-45.67v-10.77h19.91l-3.05-5.33h18.56ZM409.75,177.81v1.81h59.23v-4.76h-56.66l-2.56,2.95ZM409.75,192.77h59.23v-4.76h-59.23v4.76ZM409.75,205.92h59.23v-4.65h-59.23v4.65Z"/><path class="cls-2" d="M1003.29,190.18v19.17c-10.15-2.51-19.32-6.97-27.51-13.36-8.19-6.39-14.56-14.13-19.11-23.21-4.9,8.8-11.6,16.38-20.11,22.74-8.51,6.36-18.01,10.96-28.51,13.83v-19.17c11.62-3.63,20.86-9.67,27.72-18.13,7.14-8.87,10.71-19.1,10.71-30.7v-26.72h17.85v24.94c0,11.8,3.59,22.37,10.76,31.69,7.17,9.32,16.57,15.63,28.2,18.91Z"/><path class="cls-3" d="M277.09,50.98h-14.7V0h52.38v14.86h-36.55v19.9c2.94-2.86,7.42-5.45,14.84-5.45,16.11,0,25.49,12.13,25.49,33.94,0,20.58-10.08,32.03-29.41,32.03-15.69,0-28.01-9.54-29.41-24.54h15.97c1.68,6.82,6.16,10.77,13.16,10.77,8.26,0,13.44-5.32,13.44-17.72s-3.92-19.76-13.44-19.76c-5.74,0-9.38,3-11.76,6.95Z"/><path class="cls-3" d="M363.29,57.9v-4.98h8.46v4.98h19.43v7.58h-19.43v6.3h16.92v7.58h-12.53c1.39,2.34,3.44,4.47,6.14,6.41,2.7,1.93,5.67,3.39,8.91,4.37v8.74c-3.69-.81-7.27-2.47-10.73-4.96-3.47-2.49-6.36-5.43-8.7-8.82v13.78h-8.46v-13.88c-2.37,3.42-5.27,6.39-8.72,8.9-3.45,2.51-7.03,4.17-10.76,4.98v-8.74c3.27-.98,6.24-2.42,8.9-4.32,2.66-1.9,4.73-4.05,6.19-6.46h-12.53v-7.58h16.92v-6.3h-19.48v-7.58h19.48Z"/><path class="cls-3" d="M440.41,74.78h-11.8v5.8c2.26.58,4.29,1.17,6.08,1.78,1.79.61,3.53,1.29,5.2,2.03v9.2c-3.06-1.8-6.82-3.54-11.28-5.24-.28,3.15-1.75,5.57-4.41,7.24s-6.75,2.52-12.25,2.52c-4.84,0-8.6-.83-11.28-2.49-2.86-1.76-4.28-4.34-4.28-7.73,0-3.08,1.31-5.46,3.92-7.12,2.61-1.66,6.41-2.49,11.39-2.49,2.75,0,5.55.2,8.41.61v-4.12h-24.81v-7.07h24.81v-4.42h-24.81v-7.12h24.81v-3.15h8.51v3.15h11.8v7.12h-11.8v4.42h11.8v7.07ZM420.1,85.76c-1.36-.3-2.79-.56-4.28-.76-1.5-.2-2.79-.3-3.86-.3-2.23,0-3.86.27-4.91.81-1.04.54-1.57,1.34-1.57,2.39,0,1.12.49,1.91,1.46,2.36.97.46,2.65.69,5.01.69,2.99,0,5.1-.44,6.32-1.32,1.22-.88,1.83-2.17,1.83-3.86Z"/><path class="cls-3" d="M488.42,63.44h-2.35c-8.08,0-14.8,1.93-20.16,5.8-4.63,3.39-6.95,6.96-6.95,10.73,0,2.71,1.08,4.86,3.24,6.46,2.65,2.03,6.84,3.05,12.59,3.05h12.69v8.59h-15.41c-7.94,0-13.93-1.8-17.97-5.39-3.34-3.02-5.01-6.88-5.01-11.59,0-3.36,1.23-6.62,3.68-9.79,2.45-3.17,5.88-5.79,10.26-7.85h-18.96v-8.18h33.74v7.17h10.6v1.02ZM484.61,60.54h-4.54v-8.44h4.54v8.44ZM491.55,60.54h-4.54v-8.44h4.54v8.44Z"/><line class="cls-4" x1="318.82" y1="94.05" x2="340.85" y2="50.45"/><rect class="cls-2" x="419.71" y="356.18" width="2.4" height="26.52" transform="translate(457.31 928.31) rotate(-135)"/><rect class="cls-2" x="419.71" y="339.13" width="2.4" height="26.52" transform="translate(967.72 303.93) rotate(135)"/><rect class="cls-2" x="410.29" y="343.79" width="2.4" height="34.25" transform="translate(772.41 -50.58) rotate(90)"/><path class="cls-2" d="M1028.87,388.85c-2.29,1.89-3.11,3.89-3.11,6.32s.81,4.43,3.11,6.32l-.36.43c-2.65-1.93-3.74-4.03-3.74-6.75s1.09-4.82,3.74-6.75l.36.43Z"/><path class="cls-2" d="M1031.36,391.28q-.43.08-.61-.33c-.12-.29-.26-.53-.46-.75,1.35-.21,2.48-.54,3.3-.9.25-.1.39-.19.58-.32.32.28.58.55.83.83.08.1.11.14.11.23,0,.11-.1.18-.24.18-.12,0-.28.07-.46.14-.28.11-.57.21-.87.3v2c.92,0,1.24-.03,1.32-.03.14,0,.15.01.15.15v.95c0,.15-.01.17-.15.17-.08,0-.36-.01-1.12-.03.44.91.91,1.59,1.53,2.15-.17.25-.36.63-.48,1.01-.04.15-.1.22-.15.22s-.12-.08-.22-.22c-.37-.55-.66-1.05-.92-1.75,0,3.41.08,5.81.08,6.06,0,.12-.01.14-.15.14h-1.09c-.15,0-.17-.01-.17-.14,0-.23.08-2.5.11-5.47-.36,1.06-.86,1.97-1.41,2.76-.1.14-.17.21-.23.21-.05,0-.11-.07-.17-.22-.15-.37-.36-.76-.55-.98.8-.91,1.63-2.11,2.14-3.77h-.33c-1.01,0-1.32.03-1.42.03-.12,0-.14-.01-.14-.17v-.95c0-.14.01-.15.14-.15.1,0,.41.03,1.42.03h.48v-1.6l-.87.21ZM1039.04,391.54c.29-.63.51-1.21.7-1.81.05-.22.12-.5.15-.86.48.1,1.04.22,1.37.34.11.04.18.11.18.19,0,.1-.04.15-.12.23-.11.1-.18.23-.25.43-.19.4-.39.87-.69,1.46.98,0,1.37-.03,1.45-.03.14,0,.15.01.15.17,0,.08-.03.4-.03,1.19v1.67c0,.77.03,1.12.03,1.2,0,.14-.01.15-.15.15-.08,0-.5-.03-1.59-.03v3.62c0,.25.03.37.14.46.07.06.23.1.47.1.33,0,.47-.05.57-.17.11-.14.15-.47.17-1.57.23.17.61.35.84.4q.36.11.33.47c-.06,1.15-.25,1.63-.52,1.85-.32.23-.88.33-1.53.33-.72,0-1.16-.07-1.38-.22-.25-.18-.4-.44-.4-1.1v-4.15h-.84c-.07,3.01-.88,4.5-2.6,5.51-.18.1-.28.15-.34.15-.08,0-.14-.08-.29-.29-.22-.29-.5-.57-.73-.73,1.82-.79,2.62-1.99,2.66-4.64-.77.01-1.08.03-1.13.03-.15,0-.17-.01-.17-.15,0-.1.03-.43.03-1.2v-1.67c0-.79-.03-1.1-.03-1.19,0-.15.01-.17.17-.17.07,0,.5.03,1.7.03h1.7ZM1036.85,388.98c.18-.08.19-.08.28.04.36.5.73,1.17.98,1.79.04.14.03.17-.15.25l-.84.39c-.17.08-.19.08-.25-.07-.22-.62-.52-1.24-.91-1.82-.07-.12-.06-.15.12-.23l.77-.34ZM1040.62,392.78h-3.78v1.82h3.78v-1.82Z"/><path class="cls-2" d="M1047.92,398.42c.29.57.57.91,1.13,1.15.48.19,1.35.28,2.55.28,1.78,0,3.88-.1,5.94-.3-.19.29-.32.66-.37,1.08q-.07.44-.51.47c-1.75.1-3.4.14-4.83.14s-2.57-.12-3.23-.4c-.63-.26-1.01-.65-1.35-1.23-.43.41-.91.83-1.42,1.21-.14.11-.22.19-.28.28-.07.1-.12.14-.21.14-.06,0-.14-.07-.19-.18-.19-.36-.37-.8-.57-1.3.36-.17.55-.26.81-.43.4-.25.8-.57,1.16-.88v-3.05h-.68c-.74,0-.94.03-1.01.03-.15,0-.17-.01-.17-.17v-1.06c0-.14.01-.15.17-.15.07,0,.26.03,1.01.03h.88c.73,0,.95-.03,1.04-.03.14,0,.15.01.15.15,0,.08-.03.47-.03,1.31v2.93ZM1047.07,392.24c-.1.07-.14.1-.18.1s-.07-.03-.11-.1c-.51-.83-1.08-1.57-1.7-2.15-.11-.1-.08-.14.07-.23l.77-.51c.15-.1.18-.11.29-.01.63.59,1.23,1.27,1.72,2.06.08.12.08.15-.07.26l-.8.59ZM1051.95,389.59c.63,0,1.08-.03,1.26-.03.1,0,.14.07.14.15,0,.32-.01,1.09.17,2.03.4,2.29,1.75,4.47,3.88,5.83-.23.26-.54.68-.73,1.08-.11.21-.17.3-.25.3-.07,0-.17-.06-.3-.18-1.68-1.35-2.82-3.17-3.35-5.25-.52,2.1-1.55,3.74-3.15,5.13-.15.12-.23.19-.3.19s-.14-.08-.29-.26c-.29-.39-.58-.63-.86-.81,2.21-1.55,3.45-3.7,3.77-6.85h-1.2c-.86,0-1.1.03-1.19.03-.15,0-.17-.01-.17-.17v-1.08c0-.14.01-.15.17-.15.08,0,.33.03,1.19.03h1.23Z"/><path class="cls-2" d="M1059.24,388.42c2.65,1.93,3.74,4.03,3.74,6.75s-1.09,4.82-3.74,6.75l-.36-.43c2.29-1.89,3.11-3.89,3.11-6.32s-.81-4.43-3.11-6.32l.36-.43Z"/><path class="cls-1" d="M1156.51,366.46v-5.82h-13.37v-9.4h8.14l-11.63-29.56h12.4l10.08,29.17,11.14-29.17h12.5l-12.79,29.56h8.14v9.4h-13.37v5.82h13.37v9.4h-13.37v12.7h-11.24v-12.7h-13.37v-9.4h13.37Z"/><path class="cls-1" d="M1226.74,389.95c-17.9,0-33.78-10.59-33.78-32.85v-44.37c0-22.88,15.88-33,33.78-33s33.78,10.12,33.78,32.85v44.52c0,22.26-15.88,32.85-33.78,32.85ZM1226.74,295.46c-9.81,0-15.88,6.69-15.88,18.21v42.34c0,11.52,6.07,18.21,15.88,18.21s15.72-6.69,15.72-18.21v-42.34c0-11.52-6.07-18.21-15.72-18.21Z"/><path class="cls-2" d="M886.36,373.91v-2.49h-5.72v-4.02h3.48l-4.98-12.65h5.31l4.31,12.48,4.77-12.48h5.35l-5.47,12.65h3.48v4.02h-5.72v2.49h5.72v4.02h-5.72v5.43h-4.81v-5.43h-5.72v-4.02h5.72Z"/><path class="cls-2" d="M911.32,359.69h-7.87v-28.02h28.02v8.17h-19.55v10.94c1.57-1.57,3.97-3,7.94-3,8.62,0,13.64,6.67,13.64,18.66,0,11.31-5.39,17.61-15.73,17.61-8.39,0-14.98-5.24-15.73-13.49h8.54c.9,3.75,3.3,5.92,7.04,5.92,4.42,0,7.19-2.92,7.19-9.74s-2.1-10.86-7.19-10.86c-3.07,0-5.02,1.65-6.29,3.82Z"/><path class="cls-2" d="M948.52,387.26l-8.84,7.57v-21.8h8.84v14.23Z"/><path class="cls-2" d="M964.19,359.69h-7.87v-28.02h28.02v8.17h-19.55v10.94c1.57-1.57,3.97-3,7.94-3,8.62,0,13.64,6.67,13.64,18.66,0,11.31-5.39,17.61-15.73,17.61-8.39,0-14.98-5.24-15.73-13.49h8.54c.9,3.75,3.3,5.92,7.04,5.92,4.42,0,7.19-2.92,7.19-9.74s-2.1-10.86-7.19-10.86c-3.07,0-5.02,1.65-6.29,3.82Z"/><path class="cls-2" d="M1008.26,384.04c-8.62,0-16.26-5.09-16.26-15.81v-21.35c0-11.01,7.64-15.88,16.26-15.88s16.26,4.87,16.26,15.81v21.43c0,10.71-7.64,15.81-16.26,15.81ZM1008.26,338.56c-4.72,0-7.64,3.22-7.64,8.77v20.38c0,5.54,2.92,8.77,7.64,8.77s7.57-3.22,7.57-8.77v-20.38c0-5.54-2.92-8.77-7.57-8.77Z"/><path class="cls-2" d="M1047.14,384.04c-8.62,0-16.26-5.09-16.26-15.81v-21.35c0-11.01,7.64-15.88,16.26-15.88s16.26,4.87,16.26,15.81v21.43c0,10.71-7.64,15.81-16.26,15.81ZM1047.14,338.56c-4.72,0-7.64,3.22-7.64,8.77v20.38c0,5.54,2.92,8.77,7.64,8.77s7.57-3.22,7.57-8.77v-20.38c0-5.54-2.92-8.77-7.57-8.77Z"/><path class="cls-2" d="M714.48,360.28c0,2.16-.79,3.88-2.35,5.14-1.57,1.27-3.6,1.9-6.1,1.9h-.58v-4.21h.5c1.41,0,2.42-.22,3.04-.66.62-.44.93-1.08.93-1.91v-.38h-9.95v6.32c0,1.38.32,2.33.97,2.87.65.54,1.75.8,3.3.8h9.78v4.06h-10.07c-2.63,0-4.63-.63-6.01-1.89s-2.07-3.14-2.07-5.63v-6.54h-2.38v-4.08h2.38v-2.69h4.08v2.69h14.51v4.2Z"/><path class="cls-2" d="M739.14,370.56h-7.01c.14.77.26,1.4.36,1.9s.22,1.09.38,1.78h-4.23c-.08-.38-.19-.95-.32-1.69-.14-.74-.25-1.41-.35-1.98h-10.11v-4.08h9.42c-.24-1.62-.42-2.81-.53-3.58-.18-1.3-.32-2.43-.43-3.41h-8.17v-4.11h7.66c-.05-.51-.09-.99-.12-1.43-.03-.44-.05-.77-.05-1h4.18c0,.26.02.68.07,1.27s.07.98.07,1.15h8.89v4.11h-8.48c.14,1.23.29,2.37.43,3.41.27,1.59.47,2.78.6,3.58h7.74v4.08Z"/><path class="cls-2" d="M759.8,374.05h-17.25v-3.41h11.1v-8.55h-9.66v-3.51h13.33v12.06h2.47v3.41Z"/><path class="cls-2" d="M766.41,365.95h-4.08v-12.54h4.08v12.54ZM782.38,362.42c0,4.16-1.18,7.22-3.55,9.15-2.21,1.78-5.47,2.67-9.78,2.67h-4.01v-4.06h4.11c3.12,0,5.42-.64,6.91-1.93s2.22-3.25,2.22-5.87v-8.96h4.11v9.01Z"/><path class="cls-2" d="M807.43,364.46h-4.88v.53c0,2.75-.88,4.96-2.64,6.61-1.94,1.81-4.72,2.71-8.34,2.71h-4.49v-4.08h4.49c2.21,0,3.84-.45,4.9-1.36,1.06-.9,1.59-2.2,1.59-3.88v-.53h-11.92v-3.94h21.29v3.94ZM806.97,357.88h-20.37v-3.96h20.37v3.96Z"/><path class="cls-2" d="M828.11,357.5c0,1.89-.43,3.49-1.3,4.8-.87,1.31-2.1,2.34-3.7,3.08v9.25h-3.72v-8.12l-8.55,1.68v-3.7l7.71-1.44c2.05-.4,3.52-1.03,4.42-1.89.9-.86,1.34-2.08,1.34-3.66h3.8Z"/><path class="cls-2" d="M837.38,353.51v-.6h3.63v.6h2.35v-.6h3.63v.6h5.5v4.66h-5.5v.89h6.08v2.47c0,.46-.17.81-.5,1.03-.34.22-.91.34-1.73.34h-2.81v-1.25h.96c.29,0,.43-.12.43-.36v-.36h-2.43v2.04h-3.63v-2.04h-2.93c-.46,1.09-1.36,1.95-2.69,2.57h14.78v9.71h-.96l1.51,1.42h-4.4l-1.46-1.42h-9.56c-.45.56-.93,1.03-1.44,1.42h-4.92c.69-.43,1.3-.9,1.85-1.42h-1.25v-8.55l-.6.02v-2.79c1.38,0,2.45-.07,3.22-.22.77-.14,1.38-.39,1.85-.74h-4.49v-4.64h5.53v-.82h-6.1v-1.97h6.1ZM835.37,359.06h1.92l.1-.89h-2.02v.89ZM835.8,366.14h12.81v-.87h-12.81v.87ZM835.8,368.76h12.81v-.82h-12.81v.82ZM835.8,371.43h12.81v-.84h-12.81v.84ZM843.37,358.17h-2.35l-.07.89h2.43v-.89ZM841.01,356.29h2.35v-.82h-2.35v.82ZM846.99,356.29h2.04v-.82h-2.04v.82Z"/><rect class="cls-3" x="688.66" y="282.93" width="174.06" height="44.47" rx="22.24" ry="22.24"/><path class="cls-2" d="M738.09,295.88l-.07,2.9h.83v-3.21h3.26v3.21h1.48v2.79h4.13v-1.84h-3.5v-3.03h3.5v-1.12h3.55v1.12h3.57v3.03h-3.57v1.84h4.11v3.03h-1.12v1.75h1.12v3.01h-1.12v3.77c0,1.02-.29,1.75-.85,2.2-.48.36-1.19.54-2.13.54h-2.7v-3.39h1.66c.36,0,.54-.17.54-.52v-2.61h-7.19v.22c-.24.12-.5.24-.77.35-.28.11-.51.2-.71.26v5.68h-3.26v-4.74c-.99.21-1.76.37-2.3.47-.55.1-1.06.16-1.54.16v-3.57c.55,0,1.14-.05,1.76-.15.62-.1,1.31-.24,2.08-.44v-5.41h-1.06c0,.43-.02.79-.06,1.08-.04.29-.16.81-.37,1.57h-2.56c.26-1.2.44-2.45.55-3.76.11-1.31.17-3.04.17-5.2h2.56ZM742.11,306.6c.55-.19,1.05-.42,1.48-.67v.43h7.19v-1.75h-7.19v-2.4h-1.48v4.4ZM747.19,310.37l.85,4.43h-3.08l-.83-4.43h3.06Z"/><path class="cls-2" d="M764.59,297.23v-1.66h3.33v1.66h1.84v-1.66h3.3v1.66h5.23v12.6h.72v3.08h-2.04l2.04,2.96h-4.07l-1.93-2.96h-8.07c-.58,1.17-1.23,2.16-1.93,2.96h-4.38c.87-.87,1.65-1.86,2.34-2.96h-2.34v-3.08h.74v-12.6h5.21ZM762.75,303.5h1.91v-3.17h-1.91v3.17ZM762.75,309.83h1.91v-3.3h-1.91v3.3ZM767.91,303.5h1.84v-3.17h-1.84v3.17ZM767.91,309.83h1.84v-3.3h-1.84v3.3ZM772.99,303.5h1.91v-3.17h-1.91v3.17ZM772.99,309.83h1.91v-3.3h-1.91v3.3Z"/><path class="cls-2" d="M797.84,306.78c0,2.59-.55,4.52-1.66,5.77-1.15,1.3-2.97,1.95-5.46,1.95h-1.48c-2.47,0-4.28-.64-5.41-1.93s-1.71-3.22-1.71-5.8v-3.28c0-2.59.6-4.53,1.81-5.82,1.21-1.29,2.98-1.93,5.31-1.93h1.48c2.32,0,4.09.64,5.3,1.93,1.21,1.29,1.82,3.23,1.82,5.82v3.28ZM793.88,306.78v-3.28c0-1.41-.29-2.41-.88-3.01-.51-.52-1.27-.79-2.29-.79h-1.48c-1.03,0-1.79.25-2.27.76-.58.6-.88,1.61-.88,3.03v3.28c0,1.32.26,2.28.79,2.89.52.61,1.31.91,2.36.91h1.48c1.03,0,1.82-.3,2.36-.91s.81-1.57.81-2.89Z"/><path class="cls-2" d="M816.61,302.06c0,1.44-.43,2.56-1.28,3.37-.72.69-1.96,1.29-3.73,1.82-1.87.61-3.29,1.17-4.27,1.65s-1.64.99-2,1.52h11.23v3.93h-15.57v-2.22c0-2.47.97-4.34,2.92-5.62.76-.49,2.56-1.22,5.39-2.18,1.96-.66,2.94-1.46,2.94-2.4v-.31c0-.51-.17-.91-.49-1.21-.39-.36-.99-.54-1.8-.54h-1.93c-.88,0-1.59.26-2.12.77-.53.52-.8,1.16-.8,1.92v.76h-4.16v-1.17c0-1.92.55-3.44,1.65-4.56,1.1-1.12,2.67-1.68,4.71-1.68h2.83c2.16,0,3.79.5,4.9,1.5,1.05.93,1.57,2.19,1.57,3.8v.85Z"/><rect class="cls-2" x="1108.37" y="356.18" width="2.4" height="26.52" transform="translate(1632.92 1415.26) rotate(-135)"/><rect class="cls-2" x="1108.37" y="339.13" width="2.4" height="26.52" transform="translate(2143.33 -183.02) rotate(135)"/><rect class="cls-2" x="1098.95" y="343.79" width="2.4" height="34.25" transform="translate(1461.07 -739.24) rotate(90)"/><path class="cls-2" d="M325.47,546.95c-2.29,1.89-3.11,3.89-3.11,6.32s.81,4.43,3.11,6.32l-.36.43c-2.65-1.93-3.74-4.03-3.74-6.75s1.09-4.82,3.74-6.75l.36.43Z"/><path class="cls-2" d="M327.95,549.38q-.43.08-.61-.33c-.12-.29-.26-.53-.46-.75,1.35-.21,2.48-.54,3.3-.9.25-.1.39-.19.58-.32.32.28.58.55.83.83.08.1.11.14.11.23,0,.11-.1.18-.23.18-.12,0-.28.07-.46.14-.28.11-.57.21-.87.3v2c.92,0,1.24-.03,1.32-.03.14,0,.15.01.15.15v.95c0,.15-.01.17-.15.17-.08,0-.36-.01-1.12-.03.44.91.91,1.59,1.53,2.15-.17.25-.36.63-.48,1.01-.04.15-.1.22-.15.22s-.12-.08-.22-.22c-.37-.55-.66-1.05-.92-1.75,0,3.41.08,5.81.08,6.06,0,.12-.01.14-.15.14h-1.09c-.15,0-.17-.01-.17-.14,0-.23.08-2.5.11-5.47-.36,1.06-.86,1.97-1.41,2.76-.1.14-.17.21-.23.21-.06,0-.11-.07-.17-.22-.15-.37-.36-.76-.55-.98.8-.91,1.63-2.11,2.14-3.77h-.33c-1.01,0-1.33.03-1.42.03-.12,0-.14-.01-.14-.17v-.95c0-.14.01-.15.14-.15.1,0,.41.03,1.42.03h.48v-1.6l-.87.21ZM335.64,549.64c.29-.63.51-1.21.7-1.81.06-.22.12-.5.15-.86.48.1,1.04.22,1.37.34.11.04.18.11.18.19,0,.1-.04.15-.12.23-.11.1-.18.23-.25.43-.19.4-.39.87-.69,1.46.98,0,1.37-.03,1.45-.03.14,0,.15.01.15.17,0,.08-.03.4-.03,1.19v1.67c0,.77.03,1.12.03,1.2,0,.14-.01.15-.15.15-.08,0-.5-.03-1.59-.03v3.62c0,.25.03.37.14.46.07.06.23.1.47.1.33,0,.47-.05.57-.17.11-.14.15-.47.17-1.57.23.17.61.35.84.4q.36.11.33.47c-.06,1.15-.25,1.63-.52,1.85-.32.23-.88.33-1.53.33-.72,0-1.16-.07-1.38-.22-.25-.18-.4-.44-.4-1.1v-4.15h-.84c-.07,3.01-.88,4.5-2.59,5.51-.18.1-.28.15-.35.15-.08,0-.14-.08-.29-.29-.22-.29-.5-.57-.73-.73,1.82-.79,2.62-1.99,2.66-4.64-.77.01-1.08.03-1.13.03-.15,0-.17-.01-.17-.15,0-.1.03-.43.03-1.2v-1.67c0-.79-.03-1.1-.03-1.19,0-.15.01-.17.17-.17.07,0,.5.03,1.7.03h1.7ZM333.45,547.09c.18-.08.19-.08.28.04.36.5.73,1.17.98,1.79.04.14.03.17-.15.25l-.84.39c-.17.08-.19.08-.25-.07-.22-.62-.52-1.24-.91-1.82-.07-.12-.06-.15.12-.23l.77-.34ZM337.21,550.89h-3.78v1.82h3.78v-1.82Z"/><path class="cls-2" d="M344.52,556.53c.29.57.57.91,1.13,1.15.48.19,1.35.28,2.55.28,1.78,0,3.88-.1,5.94-.3-.19.29-.32.66-.37,1.08q-.07.44-.51.47c-1.75.1-3.4.14-4.83.14s-2.57-.12-3.23-.4c-.63-.26-1.01-.65-1.35-1.23-.43.41-.91.83-1.42,1.21-.14.11-.22.19-.28.28-.07.1-.12.14-.21.14-.06,0-.14-.07-.19-.18-.19-.36-.37-.8-.57-1.3.36-.17.55-.26.81-.43.4-.25.8-.57,1.16-.88v-3.05h-.68c-.75,0-.94.03-1.01.03-.15,0-.17-.01-.17-.17v-1.06c0-.14.01-.15.17-.15.07,0,.26.03,1.01.03h.88c.73,0,.95-.03,1.04-.03.14,0,.15.01.15.15,0,.08-.03.47-.03,1.31v2.93ZM343.66,550.35c-.1.07-.14.1-.18.1s-.07-.03-.11-.1c-.51-.83-1.08-1.57-1.7-2.15-.11-.1-.08-.14.07-.23l.77-.51c.15-.1.18-.11.29-.01.63.59,1.23,1.27,1.73,2.06.08.12.08.15-.07.26l-.8.59ZM348.55,547.7c.63,0,1.08-.03,1.26-.03.1,0,.14.07.14.15,0,.32-.01,1.09.17,2.03.4,2.29,1.75,4.47,3.88,5.83-.23.26-.54.68-.73,1.08-.11.21-.17.3-.25.3-.07,0-.17-.06-.3-.18-1.68-1.35-2.82-3.17-3.35-5.25-.52,2.1-1.55,3.74-3.15,5.13-.15.12-.23.19-.3.19s-.14-.08-.29-.26c-.29-.39-.58-.63-.86-.81,2.21-1.55,3.45-3.7,3.77-6.85h-1.2c-.86,0-1.1.03-1.19.03-.15,0-.17-.01-.17-.17v-1.08c0-.14.01-.15.17-.15.08,0,.33.03,1.19.03h1.23Z"/><path class="cls-2" d="M355.84,546.53c2.65,1.93,3.74,4.03,3.74,6.75s-1.09,4.82-3.74,6.75l-.36-.43c2.29-1.89,3.11-3.89,3.11-6.32s-.81-4.43-3.11-6.32l.36-.43Z"/><path class="cls-2" d="M200.83,532.01v-2.49h-5.72v-4.02h3.48l-4.98-12.65h5.31l4.31,12.48,4.77-12.48h5.35l-5.47,12.65h3.48v4.02h-5.72v2.49h5.72v4.02h-5.72v5.43h-4.81v-5.43h-5.72v-4.02h5.72Z"/><path class="cls-2" d="M213.95,505.81v-16.03h30.42v6.67l-15.51,45.03h-9.07l15.58-44.13h-13.94v8.47h-7.49Z"/><path class="cls-2" d="M253.77,545.37l-8.84,7.57v-21.8h8.84v14.23Z"/><path class="cls-2" d="M276.05,541.47h-8.69v-42.33l-7.42,5.09v-8.77l7.94-5.69h8.17v51.7Z"/><path class="cls-2" d="M296.29,517.8h-7.87v-28.02h28.02v8.17h-19.55v10.94c1.57-1.57,3.97-3,7.94-3,8.62,0,13.64,6.67,13.64,18.66,0,11.31-5.39,17.61-15.73,17.61-8.39,0-14.98-5.24-15.73-13.49h8.54c.9,3.75,3.3,5.92,7.04,5.92,4.42,0,7.19-2.92,7.19-9.74s-2.1-10.86-7.19-10.86c-3.07,0-5.02,1.65-6.29,3.82Z"/><path class="cls-2" d="M340.36,542.14c-8.62,0-16.26-5.09-16.26-15.81v-21.35c0-11.01,7.64-15.88,16.26-15.88s16.26,4.87,16.26,15.81v21.43c0,10.71-7.64,15.81-16.26,15.81ZM340.36,496.67c-4.72,0-7.64,3.22-7.64,8.77v20.38c0,5.54,2.92,8.77,7.64,8.77s7.57-3.22,7.57-8.77v-20.38c0-5.54-2.92-8.77-7.57-8.77Z"/><rect class="cls-3" x="0" y="441.04" width="174.06" height="44.47" rx="22.24" ry="22.24"/><path class="cls-2" d="M49.38,453.99l-.07,2.9h.83v-3.21h3.26v3.21h1.48v2.79h4.13v-1.84h-3.5v-3.03h3.5v-1.12h3.55v1.12h3.57v3.03h-3.57v1.84h4.11v3.03h-1.12v1.75h1.12v3.01h-1.12v3.77c0,1.02-.28,1.75-.85,2.2-.48.36-1.19.54-2.13.54h-2.7v-3.39h1.66c.36,0,.54-.17.54-.52v-2.61h-7.19v.22c-.24.12-.5.24-.77.35-.28.11-.51.2-.71.26v5.68h-3.26v-4.74c-.99.21-1.76.37-2.3.47-.55.1-1.06.16-1.54.16v-3.57c.55,0,1.14-.05,1.76-.15.62-.1,1.31-.24,2.08-.44v-5.41h-1.06c0,.43-.02.79-.06,1.08-.04.29-.16.81-.37,1.57h-2.56c.25-1.2.44-2.45.55-3.76.11-1.31.17-3.04.17-5.2h2.56ZM53.4,464.7c.55-.19,1.05-.42,1.48-.67v.43h7.19v-1.75h-7.19v-2.4h-1.48v4.4ZM58.47,468.48l.85,4.43h-3.08l-.83-4.43h3.06Z"/><path class="cls-2" d="M75.87,455.33v-1.66h3.32v1.66h1.84v-1.66h3.3v1.66h5.23v12.6h.72v3.08h-2.04l2.04,2.96h-4.07l-1.93-2.96h-8.06c-.58,1.17-1.23,2.16-1.93,2.96h-4.38c.87-.87,1.65-1.86,2.34-2.96h-2.34v-3.08h.74v-12.6h5.21ZM74.03,461.6h1.91v-3.17h-1.91v3.17ZM74.03,467.94h1.91v-3.3h-1.91v3.3ZM79.2,461.6h1.84v-3.17h-1.84v3.17ZM79.2,467.94h1.84v-3.3h-1.84v3.3ZM84.27,461.6h1.91v-3.17h-1.91v3.17ZM84.27,467.94h1.91v-3.3h-1.91v3.3Z"/><path class="cls-2" d="M109.12,464.88c0,2.59-.55,4.52-1.66,5.77-1.15,1.3-2.97,1.95-5.46,1.95h-1.48c-2.47,0-4.28-.64-5.41-1.93-1.14-1.29-1.71-3.22-1.71-5.8v-3.28c0-2.59.6-4.53,1.81-5.82,1.21-1.29,2.98-1.93,5.31-1.93h1.48c2.32,0,4.09.64,5.3,1.93,1.21,1.29,1.82,3.23,1.82,5.82v3.28ZM105.17,464.88v-3.28c0-1.41-.29-2.41-.88-3.01-.51-.52-1.27-.79-2.29-.79h-1.48c-1.03,0-1.79.25-2.27.76-.58.6-.88,1.61-.88,3.03v3.28c0,1.32.26,2.28.79,2.89.52.61,1.31.91,2.36.91h1.48c1.03,0,1.82-.3,2.36-.91s.81-1.57.81-2.89Z"/><path class="cls-2" d="M128.23,467.62c0,1.71-.57,2.97-1.71,3.77-1.14.81-2.84,1.21-5.1,1.21h-3.21c-2.01,0-3.53-.52-4.56-1.56-1.03-1.04-1.55-2.44-1.55-4.19v-1.03h3.98v.72c0,.69.23,1.22.7,1.58.46.37,1.18.55,2.16.55h2.07c.9,0,1.56-.15,2-.46.43-.31.65-.71.65-1.2v-.58c0-.52-.19-.92-.56-1.19-.46-.34-1.19-.52-2.18-.52h-2.79v-3.24h2.76c.9,0,1.55-.14,1.97-.42.41-.28.62-.66.62-1.13v-.54c0-1.08-.81-1.62-2.43-1.62h-2.25c-.9,0-1.56.2-1.99.59-.43.4-.64.95-.64,1.65v.58h-4v-.81c0-1.74.56-3.16,1.67-4.28,1.12-1.12,2.63-1.67,4.55-1.67h3.08c2.01,0,3.59.44,4.75,1.31,1.16.88,1.74,2.15,1.74,3.81v.72c0,1.57-.73,2.73-2.18,3.46.82.4,1.44.91,1.84,1.53s.61,1.31.61,2.09v.85Z"/><path class="cls-2" d="M477.69,469.08c0,1.59-.49,2.83-1.46,3.73-1.05.96-2.55,1.44-4.52,1.44h-3.82c-2.11,0-3.71-.49-4.81-1.48-1.03-.93-1.55-2.25-1.55-3.98v-6.9c0-2.17.53-3.77,1.58-4.81,1.06-1.03,2.66-1.55,4.82-1.55h3.8c2.02,0,3.52.49,4.49,1.48.88.9,1.33,2.19,1.33,3.86v.56h-4.09v-.18c0-.61-.19-1.06-.58-1.35-.39-.28-1.05-.43-1.98-.43h-2.45c-.99,0-1.71.24-2.16.71s-.67,1.13-.67,1.99v1.33c.88-.48,1.94-.72,3.17-.72h3.26c1.99,0,3.44.4,4.36,1.19.85.75,1.28,1.92,1.28,3.53v1.57ZM473.73,468.45v-.58c0-.63-.19-1.09-.56-1.37-.37-.28-1-.43-1.86-.43h-3.32c-.75,0-1.33.15-1.74.45-.41.3-.62.77-.62,1.42v.52c0,1.26.78,1.89,2.34,1.89h3.3c.9,0,1.54-.17,1.91-.5.37-.33.56-.79.56-1.39Z"/><path class="cls-2" d="M499.98,455.63v16.85c0,.84-.29,1.57-.86,2.2-.58.63-1.28.94-2.1.94h-4.92v-3.28h3.75c.37,0,.56-.19.56-.56v-2.2h-11.01c-.34,1.33-.9,2.51-1.67,3.53s-1.77,1.86-3,2.52v-4.81c1-.85,1.51-2.47,1.51-4.85v-10.33h17.75ZM485.8,461.18h10.6v-2.52h-10.6v2.52ZM485.8,466.16v.4h10.6v-2.4h-10.6v2Z"/><path class="cls-2" d="M512.79,455.33c-.3,1.44-.91,2.82-1.83,4.13-.92,1.32-2.03,2.43-3.34,3.32h12.87c-1.27-.88-2.38-2-3.32-3.34-.94-1.34-1.56-2.71-1.84-4.12h3.93c.25,1.21.84,2.31,1.75,3.28.91.97,1.99,1.63,3.23,1.98v3.8c-.48-.11-1.01-.25-1.6-.45v7.28c0,1.32-.35,2.38-1.06,3.19-.7.81-1.67,1.21-2.9,1.21h-4.27v-3.53h3.66c.31,0,.58-.12.79-.35.21-.23.31-.53.31-.89v-4.74h-5.95c-.45,2.5-1.42,4.61-2.9,6.33-1.62,1.84-3.59,2.9-5.93,3.17v-3.55c1.47-.39,2.64-1.09,3.52-2.11.88-1.02,1.44-2.3,1.7-3.84h-4.4v-2.09c-.33.1-.6.19-.81.25-.08.01-.25.05-.54.11v-3.8c1.23-.34,2.3-1,3.22-1.98.92-.97,1.51-2.07,1.76-3.28h3.93Z"/><path class="cls-2" d="M532.16,455.45c-.28,1.68-.51,3.43-.66,5.26s-.24,3.65-.24,5.48c0,1.32.06,2.76.18,4.32.12,1.57.28,3.1.47,4.62h-3.68c-.15-1.3-.29-2.83-.42-4.57-.13-1.74-.19-3.19-.19-4.32,0-1.99.07-3.86.2-5.61.14-1.74.34-3.47.63-5.18h3.71ZM547.34,471.78c-.28-.21-.6-.43-.94-.65-.34-.22-.73-.45-1.17-.67-.15,1.6-.77,2.83-1.88,3.67-1.1.85-2.74,1.27-4.93,1.27-1.86,0-3.25-.45-4.18-1.36-.93-.91-1.39-2.18-1.39-3.83,0-1.42.43-2.58,1.3-3.46,1-1.05,2.48-1.57,4.43-1.57.91,0,1.9.1,2.97.29v-4.18h-8.09v-3.66h8.09v-2.16h3.75v2.16h2.04v3.66h-2.04v5.19c.52.18.91.32,1.16.43s.54.25.89.45v4.43ZM541.55,469.11v-.09c-1.08-.3-2.07-.45-2.99-.45-.67,0-1.21.14-1.62.43-.4.29-.61.67-.61,1.17,0,1.08.72,1.62,2.16,1.62,1.15,0,1.98-.25,2.47-.76.39-.4.58-1.04.58-1.91Z"/><rect class="cls-2" x="410.45" y="514.29" width="2.4" height="26.52" transform="translate(329.7 1191.66) rotate(-135)"/><rect class="cls-2" x="410.45" y="497.24" width="2.4" height="26.52" transform="translate(1063.7 580.39) rotate(135)"/><rect class="cls-2" x="401.03" y="501.9" width="2.4" height="34.25" transform="translate(921.26 116.79) rotate(90)"/><path class="cls-1" d="M1011.69,543.07v-2.89h-6.66v-4.68h4.05l-5.79-14.71h6.17l5.02,14.52,5.55-14.52h6.22l-6.37,14.71h4.05v4.68h-6.66v2.89h6.66v4.68h-6.66v6.32h-5.6v-6.32h-6.66v-4.68h6.66Z"/><path class="cls-1" d="M1040.6,526.54h-9.15v-32.58h32.58v9.5h-22.74v12.72c1.83-1.83,4.62-3.48,9.23-3.48,10.02,0,15.85,7.75,15.85,21.69,0,13.15-6.27,20.47-18.29,20.47-9.76,0-17.42-6.1-18.29-15.68h9.93c1.05,4.36,3.83,6.88,8.19,6.88,5.14,0,8.36-3.4,8.36-11.32s-2.44-12.63-8.36-12.63c-3.57,0-5.84,1.92-7.32,4.44Z"/><path class="cls-1" d="M1083.85,558.6l-10.28,8.8v-25.35h10.28v16.55Z"/><path class="cls-1" d="M1121.75,493.96l-19.25,42.25h14.11v-16.38h10.11v16.38h5.49v8.8h-5.49v9.06h-10.11v-9.06h-26.39v-7.14l20.82-43.9h10.71Z"/><path class="cls-1" d="M1133.3,512.6v-18.64h35.37v7.75l-18.03,52.35h-10.54l18.12-51.31h-16.2v9.84h-8.71Z"/><path class="cls-1" d="M1183.14,522.88c-4.79-2.44-8.19-7.49-8.19-13.15,0-10.37,8.89-16.55,18.55-16.55s18.56,6.18,18.56,16.55c0,5.66-3.4,10.71-8.19,13.15,4.88,2.09,9.06,7.58,9.06,14.37,0,10.98-9.06,17.6-19.43,17.6s-19.43-6.62-19.43-17.6c0-6.79,4.36-12.28,9.06-14.37ZM1193.51,546.14c5.23,0,9.41-4.27,9.41-9.5,0-5.84-4.97-9.41-9.41-9.41s-9.32,3.57-9.32,9.41c0,5.23,3.92,9.5,9.32,9.5ZM1193.51,519.05c4.7,0,8.54-3.83,8.54-8.62s-3.83-8.45-8.54-8.45-8.54,3.75-8.54,8.45,3.75,8.62,8.54,8.62Z"/><path class="cls-2" d="M742.25,506.95v36.9c0,1.84-.63,3.44-1.89,4.82s-2.8,2.07-4.6,2.07h-10.78v-7.18h8.22c.82,0,1.23-.41,1.23-1.23v-4.82h-24.11c-.76,2.92-1.98,5.49-3.67,7.72-1.69,2.23-3.88,4.07-6.57,5.51v-10.53c2.2-1.87,3.3-5.41,3.3-10.63v-22.63h38.87ZM711.2,519.1h23.22v-5.51h-23.22v5.51ZM711.2,530.02v.88h23.22v-5.26h-23.22v4.38Z"/><path class="cls-2" d="M768.03,506.26h9.6c1.48,2.43,3.77,4.46,6.89,6.1,3.12,1.64,6.66,2.69,10.63,3.15v7.72c-.85-.13-1.49-.24-1.92-.32-.43-.08-.98-.2-1.67-.37v4.28h-37.3v-4.33l-3.74.74v-7.72c4-.49,7.55-1.55,10.65-3.17,3.1-1.62,5.39-3.65,6.86-6.08ZM795.15,530.86v6.54h-28.59l-2.61,5.56c3.81,0,7.18-.12,10.11-.34s5.65-.61,8.14-1.13l-1.87-4.03h8.61l6.2,13.28h-8.66l-1.33-2.85c-3.05,1.02-6.46,1.66-10.23,1.94-3.77.28-9.63.42-17.57.42h-6.84v-7.23h4.13l2.61-5.61h-6.74v-6.54h44.63ZM761.29,520.33h23.03c-4.76-1.94-8.58-4.56-11.46-7.87-1.44,1.61-3.15,3.08-5.12,4.43-1.97,1.35-4.12,2.49-6.45,3.44Z"/><path class="cls-2" d="M814.51,507.49v-1.23h7.43v1.23h4.82v-1.23h7.43v1.23h11.27v9.55h-11.27v1.82h12.45v5.07c0,.95-.34,1.66-1.03,2.12-.69.46-1.87.69-3.54.69h-5.76v-2.56h1.97c.59,0,.88-.25.88-.74v-.74h-4.97v4.18h-7.43v-4.18h-6c-.95,2.23-2.79,3.99-5.51,5.26h30.26v19.88h-1.97l3.1,2.9h-9l-3-2.9h-19.58c-.92,1.15-1.9,2.12-2.95,2.9h-10.09c1.41-.89,2.67-1.85,3.79-2.9h-2.56v-17.52l-1.23.05v-5.71c2.82,0,5.02-.15,6.59-.44s2.84-.8,3.79-1.53h-9.2v-9.5h11.32v-1.67h-12.5v-4.04h12.5ZM810.38,518.85h3.94l.2-1.82h-4.13v1.82ZM811.26,533.37h26.23v-1.77h-26.23v1.77ZM811.26,538.73h26.23v-1.67h-26.23v1.67ZM811.26,544.19h26.23v-1.72h-26.23v1.72ZM826.76,517.03h-4.82l-.15,1.82h4.97v-1.82ZM821.94,513.2h4.82v-1.67h-4.82v1.67ZM834.19,513.2h4.18v-1.67h-4.18v1.67Z"/><path class="cls-2" d="M919.95,512.43c-2.1,1.18-3.76,3.04-4.98,5.58-.97,2.06-1.67,4.53-2.1,7.41h-3.81c.27-2.87.91-5.46,1.92-7.76.89-2.07,2.04-3.85,3.46-5.33h-8.98v-3.81h14.49v3.91Z"/><path class="cls-2" d="M939.82,508.5v15.44c0,.77-.26,1.44-.79,2.02-.53.58-1.17.87-1.92.87h-4.51v-3.01h3.44c.34,0,.52-.17.52-.51v-2.02h-10.09c-.32,1.22-.83,2.3-1.53,3.23-.71.93-1.62,1.7-2.75,2.31v-4.41c.92-.78,1.38-2.27,1.38-4.45v-9.47h16.27ZM926.83,513.58h9.72v-2.31h-9.72v2.31ZM926.83,518.15v.37h9.72v-2.2h-9.72v1.83Z"/><path class="cls-2" d="M956.51,520.54c0,2.25-.42,3.81-1.26,4.66-.84.86-2.3,1.29-4.39,1.29h-1.81v-3.56h1.77c.82,0,1.38-.16,1.68-.48.29-.32.44-.95.44-1.88v-4.34c0-1.07-.17-1.77-.5-2.09-.34-.32-1.11-.48-2.32-.48h-.78c-.33,2.33-.73,4.65-1.21,6.94-.48,2.29-.95,4.12-1.42,5.48h-3.54c.48-1.26.97-3.04,1.47-5.32.5-2.29.93-4.65,1.29-7.09h-2.43v-3.4h2.8l.12-1.92h3.48l-.14,1.92h.87c2.03,0,3.44.29,4.22.86,1.11.82,1.67,2.48,1.67,4.96v4.47ZM961.97,522.13h-3.4c0-2.28-.14-4.71-.43-7.29-.29-2.58-.6-4.48-.93-5.7h3.38c.36,1.46.68,3.4.96,5.83s.42,4.82.42,7.17Z"/><path class="cls-2" d="M982.54,520.09c0,2.17-.73,3.76-2.18,4.78-1.67,1.15-4.53,1.73-8.56,1.73h-4.51v-3.38h4.28c2.83,0,4.78-.27,5.87-.8.97-.48,1.46-1.29,1.46-2.43,0-1.51-1.1-2.27-3.29-2.27-1.7,0-3.15.23-4.34.69-1.2.46-2.26,1.2-3.19,2.23h-3.29v-12h3.38v8.09c1.07-.77,2.16-1.34,3.27-1.71,1.28-.44,2.68-.66,4.22-.66,2.28,0,4,.47,5.16,1.41s1.74,2.38,1.74,4.31ZM981.45,511.93h-7.27c-.77,0-1.54-.03-2.3-.1-.76-.07-1.38-.16-1.84-.27v-3.27c.44.12,1.05.22,1.82.29.78.07,1.56.1,2.36.1h7.23v3.25Z"/><path class="cls-2" d="M920.81,545c0,1.63-.45,2.84-1.36,3.61s-2.25,1.16-4.04,1.16h-3.81c-1.92,0-3.31-.42-4.17-1.26-.86-.84-1.29-2.22-1.29-4.16h3.66c0,.67.2,1.16.59,1.46.39.3,1.03.45,1.92.45h2.18c.93,0,1.6-.17,2-.5.4-.34.6-.83.6-1.49v-.66c0-.7-.2-1.21-.6-1.54-.4-.33-1.06-.49-2-.49h-2.35c-.63,0-1.13.12-1.5.37-.3.18-.52.45-.66.8h-3.71v-10.03h14v3.52h-10.36v2.74c.82-.38,1.74-.58,2.76-.58h2.64c1.74,0,3.09.39,4.05,1.17s1.43,1.94,1.43,3.48v1.94Z"/><path class="cls-2" d="M939.21,541.17h-2.16v1.79c0,2.54-.74,4.49-2.22,5.85-1.63,1.48-4.14,2.22-7.54,2.22h-2.18v-2.88h2.18c2.48,0,4.27-.47,5.35-1.42.96-.82,1.44-2.08,1.44-3.77v-1.79h-6.4c-.48.69-1.06,1.3-1.74,1.84-.68.54-1.44,1.02-2.29,1.43v-3.4c.75-.41,1.39-.99,1.89-1.73.59-.88.88-1.86.88-2.94h3.01c-.04.3-.09.61-.15.94-.06.32-.13.64-.22.96h10.15v2.9Z"/><path class="cls-2" d="M959.16,532.71v15.44c0,.77-.26,1.44-.79,2.02-.53.58-1.17.87-1.93.87h-4.51v-3.01h3.44c.34,0,.52-.17.52-.51v-2.02h-10.09c-.32,1.22-.83,2.3-1.53,3.23-.71.93-1.62,1.7-2.75,2.31v-4.41c.92-.78,1.38-2.27,1.38-4.45v-9.47h16.27ZM946.17,537.79h9.72v-2.31h-9.72v2.31ZM946.17,542.37v.37h9.72v-2.2h-9.72v1.83Z"/><path class="cls-2" d="M971.53,532.71v8.71h-5.17v9.62h-3.17v-18.33h8.34ZM966.36,536.19h2.26v-1.15h-2.26v1.15ZM966.36,539.17h2.26v-1.19h-2.26v1.19ZM976.14,542.51v7.91h-8.2v-7.91h8.2ZM970.77,545.66h2.53v-1.05h-2.53v1.05ZM970.77,548.36h2.53v-1.09h-2.53v1.09ZM980.88,532.71v15.79c0,.77-.23,1.38-.7,1.84s-1.09.69-1.87.69h-2.04v-3.05h1.01c.29,0,.43-.14.43-.43v-6.14h-5.15v-8.71h8.32ZM975.49,536.19h2.22v-1.15h-2.22v1.15ZM975.49,539.17h2.22v-1.19h-2.22v1.19Z"/><path class="cls-2" d="M1229.28,542.5c-2.29,1.89-3.11,3.89-3.11,6.32s.81,4.43,3.11,6.32l-.36.43c-2.65-1.93-3.74-4.03-3.74-6.75s1.09-4.82,3.74-6.75l.36.43Z"/><path class="cls-2" d="M1231.77,544.93q-.43.08-.61-.33c-.12-.29-.26-.53-.46-.75,1.35-.21,2.48-.54,3.3-.9.25-.1.39-.19.58-.32.32.28.58.55.83.83.08.1.11.14.11.23,0,.11-.1.18-.24.18-.12,0-.28.07-.46.14-.28.11-.56.21-.87.3v2c.93,0,1.24-.03,1.33-.03.14,0,.15.01.15.15v.95c0,.15-.01.17-.15.17-.08,0-.36-.01-1.12-.03.44.91.91,1.59,1.53,2.15-.17.25-.36.63-.48,1.01-.04.15-.1.22-.15.22s-.12-.08-.22-.22c-.37-.55-.66-1.05-.92-1.75,0,3.41.08,5.81.08,6.06,0,.12-.01.14-.15.14h-1.09c-.15,0-.17-.01-.17-.14,0-.23.08-2.5.11-5.47-.36,1.06-.86,1.97-1.41,2.76-.1.14-.17.21-.23.21-.05,0-.11-.07-.17-.22-.15-.37-.36-.76-.55-.98.8-.91,1.63-2.11,2.14-3.77h-.33c-1.01,0-1.33.03-1.42.03-.12,0-.14-.01-.14-.17v-.95c0-.14.01-.15.14-.15.1,0,.41.03,1.42.03h.48v-1.6l-.87.21ZM1239.46,545.19c.29-.63.51-1.21.7-1.81.05-.22.12-.5.15-.86.48.1,1.04.22,1.37.34.11.04.18.11.18.19,0,.1-.04.15-.12.23-.11.1-.18.23-.25.43-.19.4-.39.87-.69,1.46.98,0,1.37-.03,1.45-.03.14,0,.15.01.15.17,0,.08-.03.4-.03,1.19v1.67c0,.77.03,1.12.03,1.2,0,.14-.01.15-.15.15-.08,0-.5-.03-1.59-.03v3.62c0,.25.03.37.14.46.07.06.23.1.47.1.33,0,.47-.05.57-.17.11-.14.15-.47.17-1.57.23.17.61.35.84.4q.36.11.33.47c-.06,1.15-.25,1.63-.53,1.85-.32.23-.88.33-1.53.33-.72,0-1.16-.07-1.38-.22-.25-.18-.4-.44-.4-1.1v-4.15h-.84c-.07,3.01-.88,4.5-2.59,5.51-.18.1-.28.15-.34.15-.08,0-.14-.08-.29-.29-.22-.29-.5-.57-.73-.73,1.82-.79,2.62-1.99,2.66-4.64-.77.01-1.08.03-1.13.03-.15,0-.17-.01-.17-.15,0-.1.03-.43.03-1.2v-1.67c0-.79-.03-1.1-.03-1.19,0-.15.01-.17.17-.17.07,0,.5.03,1.7.03h1.7ZM1237.26,542.64c.18-.08.19-.08.28.04.36.5.73,1.17.98,1.79.04.14.03.17-.15.25l-.84.39c-.17.08-.19.08-.25-.07-.22-.62-.52-1.24-.91-1.82-.07-.12-.06-.15.12-.23l.77-.34ZM1241.03,546.43h-3.78v1.82h3.78v-1.82Z"/><path class="cls-2" d="M1248.34,552.08c.29.57.57.91,1.13,1.15.48.19,1.35.28,2.55.28,1.78,0,3.88-.1,5.94-.3-.19.29-.32.66-.37,1.08q-.07.44-.51.47c-1.75.1-3.4.14-4.83.14s-2.57-.12-3.23-.4c-.63-.26-1.01-.65-1.35-1.23-.43.41-.91.83-1.42,1.21-.14.11-.22.19-.28.28-.07.1-.12.14-.21.14-.05,0-.14-.07-.19-.18-.19-.36-.37-.8-.57-1.3.36-.17.55-.26.81-.43.4-.25.8-.57,1.16-.88v-3.05h-.68c-.75,0-.94.03-1.01.03-.15,0-.17-.01-.17-.17v-1.06c0-.14.01-.15.17-.15.07,0,.26.03,1.01.03h.88c.73,0,.95-.03,1.04-.03.14,0,.15.01.15.15,0,.08-.03.47-.03,1.31v2.93ZM1247.48,545.9c-.1.07-.14.1-.18.1s-.07-.03-.11-.1c-.51-.83-1.08-1.57-1.7-2.15-.11-.1-.08-.14.07-.23l.77-.51c.15-.1.18-.11.29-.01.63.59,1.23,1.27,1.73,2.06.08.12.08.15-.07.26l-.8.59ZM1252.37,543.25c.63,0,1.08-.03,1.26-.03.1,0,.14.07.14.15,0,.32-.01,1.09.17,2.03.4,2.29,1.75,4.47,3.88,5.83-.23.26-.54.68-.73,1.08-.11.21-.17.3-.25.3-.07,0-.17-.06-.3-.18-1.68-1.35-2.82-3.17-3.35-5.25-.53,2.1-1.55,3.74-3.15,5.13-.15.12-.23.19-.3.19s-.14-.08-.29-.26c-.29-.39-.58-.63-.86-.81,2.21-1.55,3.45-3.7,3.77-6.85h-1.2c-.86,0-1.1.03-1.19.03-.15,0-.17-.01-.17-.17v-1.08c0-.14.01-.15.17-.15.08,0,.33.03,1.19.03h1.23Z"/><path class="cls-2" d="M1259.65,542.07c2.65,1.93,3.74,4.03,3.74,6.75s-1.09,4.82-3.74,6.75l-.36-.43c2.29-1.89,3.11-3.89,3.11-6.32s-.81-4.43-3.11-6.32l.36-.43Z"/><rect class="cls-3" x="688.66" y="441.04" width="174.06" height="44.47" rx="22.24" ry="22.24"/><path class="cls-2" d="M738.04,453.99l-.07,2.9h.83v-3.21h3.26v3.21h1.48v2.79h4.13v-1.84h-3.5v-3.03h3.5v-1.12h3.55v1.12h3.57v3.03h-3.57v1.84h4.11v3.03h-1.12v1.75h1.12v3.01h-1.12v3.77c0,1.02-.28,1.75-.85,2.2-.48.36-1.19.54-2.13.54h-2.7v-3.39h1.66c.36,0,.54-.17.54-.52v-2.61h-7.19v.22c-.24.12-.5.24-.77.35-.28.11-.51.2-.71.26v5.68h-3.26v-4.74c-.99.21-1.76.37-2.3.47-.55.1-1.06.16-1.54.16v-3.57c.55,0,1.14-.05,1.76-.15.62-.1,1.31-.24,2.08-.44v-5.41h-1.06c0,.43-.02.79-.06,1.08-.04.29-.16.81-.37,1.57h-2.56c.25-1.2.44-2.45.55-3.76.11-1.31.17-3.04.17-5.2h2.56ZM742.07,464.7c.55-.19,1.05-.42,1.48-.67v.43h7.19v-1.75h-7.19v-2.4h-1.48v4.4ZM747.14,468.48l.85,4.43h-3.08l-.83-4.43h3.06Z"/><path class="cls-2" d="M764.54,455.33v-1.66h3.32v1.66h1.84v-1.66h3.3v1.66h5.23v12.6h.72v3.08h-2.04l2.04,2.96h-4.07l-1.93-2.96h-8.06c-.58,1.17-1.23,2.16-1.93,2.96h-4.38c.87-.87,1.65-1.86,2.34-2.96h-2.34v-3.08h.74v-12.6h5.21ZM762.7,461.6h1.91v-3.17h-1.91v3.17ZM762.7,467.94h1.91v-3.3h-1.91v3.3ZM767.86,461.6h1.84v-3.17h-1.84v3.17ZM767.86,467.94h1.84v-3.3h-1.84v3.3ZM772.94,461.6h1.91v-3.17h-1.91v3.17ZM772.94,467.94h1.91v-3.3h-1.91v3.3Z"/><path class="cls-2" d="M797.79,464.88c0,2.59-.55,4.52-1.66,5.77-1.15,1.3-2.97,1.95-5.46,1.95h-1.48c-2.47,0-4.28-.64-5.41-1.93-1.14-1.29-1.71-3.22-1.71-5.8v-3.28c0-2.59.6-4.53,1.81-5.82,1.21-1.29,2.98-1.93,5.31-1.93h1.48c2.32,0,4.09.64,5.3,1.93,1.21,1.29,1.82,3.23,1.82,5.82v3.28ZM793.84,464.88v-3.28c0-1.41-.29-2.41-.88-3.01-.51-.52-1.27-.79-2.29-.79h-1.48c-1.03,0-1.79.25-2.27.76-.58.6-.88,1.61-.88,3.03v3.28c0,1.32.26,2.28.79,2.89s1.31.91,2.36.91h1.48c1.03,0,1.82-.3,2.36-.91s.81-1.57.81-2.89Z"/><path class="cls-2" d="M816.83,470.23h-1.82v2.22h-3.96v-2.22h-10.29v-4.18l7.5-12.04h6.74v12.29h1.82v3.93ZM811.06,466.3v-9.3l-5.77,9.3h5.77Z"/><path class="cls-2" d="M419.53,686.46c-2.5-3.07-4.26-6.07-4.26-9.76,0-5.95,4.76-9.83,11.33-9.83,7.82,0,11.14,4.32,11.14,8.57,0,4.82-4.57,8.13-9.14,11.45l9.64,10.64c.88-2.07,1.31-4.51,1.31-7.07h6.76c0,4.38-1.13,8.7-3.38,12.26l7.2,7.88h-8.7l-2.88-3.13c-3.07,2.32-7.07,3.69-12.01,3.69-9.51,0-14.39-5.95-14.39-12.08,0-5.76,3.44-9.57,7.38-12.64ZM434.17,702.73l-10.76-11.89c-2.5,2.19-4.25,4.57-4.25,7.51,0,4,3.07,6.51,7.57,6.51,3.07,0,5.51-.81,7.45-2.13ZM424.97,682.71c3.25-2.19,5.94-4.25,5.94-6.82,0-1.63-1.38-3.44-4.26-3.44-2.57,0-4.32,1.5-4.32,4.26,0,2.13,1.25,4.19,2.63,6.01Z"/><path class="cls-1" d="M212.06,708.59h-30.53v-6l17.35-20.35c3.29-3.81,5.12-7.1,5.12-10.62,0-4.61-3.44-6.96-7.17-6.96-3.95,0-6.96,2.42-7.17,6.96h-7.76c0-8.57,6.88-14.2,15.23-14.2s15.3,5.86,15.3,14.35c0,6.37-4.39,11.35-7.61,15.23l-11.93,14.28h19.18v7.32Z"/><path class="cls-2" d="M3.19,671.82h15.48v8.01c0,5.63-1.38,10.85-4.13,15.65-2.75,4.8-6.54,8.41-11.35,10.82v-9.72c2.28-1.4,4.13-3.5,5.57-6.3,1.56-3.06,2.34-6.54,2.34-10.45H3.19v-8.01ZM29.32,663.18v36.19c0,5.31-2.43,7.96-7.28,7.96h-7.67v-7.67h5.18c1.17,0,1.76-.59,1.76-1.76v-34.72h8.01ZM38.84,669.57c0,.65,0,1.27.02,1.86.02.59.09,1.69.22,3.32l8.4-8.01v9.82l-7.13,6.69c.68,3,1.64,5.62,2.86,7.86,1.22,2.25,2.64,3.97,4.27,5.18v10.5c-5.4-3.06-9.46-7.88-12.16-14.46-2.57-6.25-3.86-13.84-3.86-22.76h7.37Z"/><path class="cls-2" d="M80.3,663.18v1.42h18.31v4.93h-18.31v1.95h17.14v4.98h-17.14v2h18.31v4.93h-26.37l-5.27,3.66h7.13l3.42-2.49h9.82l-11.62,8.99h4.44c3.58,0,6.46-.37,8.64-1.12l-1.71-5.37h7.52l4.05,12.99h-7.37l-.68-2c-2.44,1.11-5.91,1.66-10.4,1.66v7.62h-8.06v-7.62h-17.83v-6.15h11.09l2.88-2.1h-11.28v-4.2l5.62-3.86h-8.3v-4.93h18.31v-2h-17.14v-4.98h17.14v-1.95h-18.31v-4.93h18.31v-1.42h7.67ZM66.92,700.98c-.52,1.33-1.06,2.51-1.61,3.52-.65,1.27-1.3,2.21-1.95,2.83h-8.89c.65-.55,1.38-1.51,2.2-2.88.81-1.37,1.37-2.52,1.66-3.47h8.6ZM94.65,700.98l3.96,6.35h-8.5l-3.81-6.35h8.35Z"/><path class="cls-2" d="M105.46,671.82h15.48v8.01c0,5.63-1.38,10.85-4.13,15.65-2.75,4.8-6.54,8.41-11.35,10.82v-9.72c2.28-1.4,4.13-3.5,5.57-6.3,1.56-3.06,2.34-6.54,2.34-10.45h-7.91v-8.01ZM131.59,663.18v36.19c0,5.31-2.43,7.96-7.28,7.96h-7.67v-7.67h5.18c1.17,0,1.76-.59,1.76-1.76v-34.72h8.01ZM141.12,669.57c0,.65,0,1.27.02,1.86.02.59.09,1.69.22,3.32l8.4-8.01v9.82l-7.13,6.69c.68,3,1.64,5.62,2.86,7.86,1.22,2.25,2.64,3.97,4.27,5.18v10.5c-5.4-3.06-9.46-7.88-12.16-14.46-2.57-6.25-3.86-13.84-3.86-22.76h7.37Z"/><path class="cls-2" d="M459.29,666.47h6.22v3.22c0,2.26-.55,4.36-1.66,6.29s-2.63,3.38-4.56,4.35v-3.91c.92-.56,1.66-1.41,2.24-2.53.63-1.23.94-2.63.94-4.2h-3.18v-3.22ZM469.79,663v14.54c0,2.13-.97,3.2-2.92,3.2h-3.08v-3.08h2.08c.47,0,.71-.24.71-.71v-13.95h3.22ZM473.61,665.57c0,.26,0,.51,0,.75,0,.24.04.68.09,1.33l3.38-3.22v3.94l-2.87,2.69c.27,1.2.66,2.26,1.15,3.16.49.9,1.06,1.6,1.72,2.08v4.22c-2.17-1.23-3.8-3.17-4.89-5.81-1.03-2.51-1.55-5.56-1.55-9.15h2.96Z"/><path class="cls-2" d="M490.47,663v.57h7.36v1.98h-7.36v.79h6.89v2h-6.89v.8h7.36v1.98h-10.6l-2.12,1.47h2.87l1.37-1h3.94l-4.67,3.61h1.79c1.44,0,2.6-.15,3.47-.45l-.69-2.16h3.02l1.63,5.22h-2.96l-.27-.8c-.98.44-2.37.67-4.18.67v3.06h-3.24v-3.06h-7.16v-2.47h4.45l1.16-.84h-4.53v-1.69l2.26-1.55h-3.34v-1.98h7.36v-.8h-6.89v-2h6.89v-.79h-7.36v-1.98h7.36v-.57h3.08ZM485.1,678.18c-.21.54-.43,1.01-.65,1.41-.26.51-.52.89-.79,1.14h-3.57c.26-.22.56-.61.88-1.16s.55-1.01.67-1.39h3.45ZM496.24,678.18l1.59,2.55h-3.41l-1.53-2.55h3.36Z"/><path class="cls-2" d="M500.79,666.47h6.22v3.22c0,2.26-.55,4.36-1.66,6.29s-2.63,3.38-4.56,4.35v-3.91c.92-.56,1.66-1.41,2.24-2.53.63-1.23.94-2.63.94-4.2h-3.18v-3.22ZM511.29,663v14.54c0,2.13-.97,3.2-2.92,3.2h-3.08v-3.08h2.08c.47,0,.71-.24.71-.71v-13.95h3.22ZM515.12,665.57c0,.26,0,.51,0,.75,0,.24.04.68.09,1.33l3.38-3.22v3.94l-2.87,2.69c.27,1.2.66,2.26,1.15,3.16.49.9,1.06,1.6,1.72,2.08v4.22c-2.17-1.23-3.8-3.17-4.89-5.81-1.03-2.51-1.55-5.56-1.55-9.15h2.96Z"/><path class="cls-2" d="M538.86,668.31h-6.97v12.13h-3.34v-12.13h-7.08v-3.36h7.08v-1.94h3.34v1.94h2.39v1.77h4.57v1.59ZM526.42,670.24c0,1.27-.15,2.88-.44,4.85-.29,1.96-.68,3.65-1.15,5.06h-3.36c.5-1.48.92-3.24,1.27-5.3.35-2.05.52-3.59.52-4.61h3.16ZM538.9,680.17h-3.16c0-1.03-.18-2.55-.53-4.55s-.77-3.79-1.26-5.36h3.36c.42,1.33.8,3.11,1.14,5.32.3,1.96.45,3.49.45,4.59ZM536.82,665.9h-1.71v-3.18h1.71v3.18ZM539.41,665.9h-1.71v-3.18h1.71v3.18Z"/><path class="cls-2" d="M557.7,674.32c-2.28,0-4.48-.2-6.6-.59-2.13-.39-3.87-.91-5.23-1.55v8.28h-3.36v-17.41h3.36v5.51c1.39.75,3.27,1.33,5.65,1.77,2.13.38,4.19.57,6.18.57v3.42Z"/><path class="cls-2" d="M564.52,672.57c0,1.92-.11,3.57-.33,4.94-.22,1.37-.48,2.34-.79,2.91h-3.36c.33-.64.6-1.62.81-2.93.22-1.31.32-2.92.32-4.82v-9.3h3.34v9.2ZM577.14,671.43c0,2.98-.58,5.22-1.74,6.7-1.16,1.48-2.91,2.23-5.27,2.23h-3.49v-17.01h3.36v13.68h.82c.89,0,1.59-.46,2.1-1.39.58-1.05.86-2.6.86-4.65v-4.65h3.36v5.1Z"/><path class="cls-1" d="M480.72,697.12c0,4.5-1.29,7.88-3.86,10.15-2.58,2.26-6.39,3.4-11.44,3.4h-4.52v-4.16h4.6c3.91,0,6.75-.78,8.51-2.35,1.69-1.48,2.54-3.78,2.54-6.89v-3.15h-16.53v-4.16h15.67c-.05.13-.1.32-.15.56-.05.24-.07.49-.07.73,0,1.08.37,1.96,1.12,2.64.75.68,1.6,1.03,2.57,1.03.59,0,1.11-.13,1.56-.39v2.59ZM481.82,691.2c0,.73-.27,1.36-.79,1.87-.53.51-1.16.77-1.89.77s-1.39-.25-1.91-.76c-.52-.5-.78-1.13-.78-1.88s.26-1.39.79-1.92c.53-.53,1.16-.79,1.89-.79s1.39.26,1.91.78.78,1.17.78,1.93ZM480.23,691.2c0-.29-.11-.55-.33-.77-.22-.22-.48-.33-.77-.33s-.55.11-.77.33c-.22.22-.33.48-.33.77,0,.28.11.53.33.75.22.22.48.33.77.33s.55-.11.77-.33c.22-.22.33-.47.33-.75Z"/><path class="cls-1" d="M506.42,694.4c0,5.31-1.56,9.41-4.67,12.3-2.9,2.69-6.81,4.03-11.73,4.03h-4.38v-21.17h4.18v16.79h1c3.21,0,5.82-.91,7.82-2.74,2.31-2.1,3.47-5.15,3.47-9.14v-.49h4.3v.42Z"/><path class="cls-1" d="M531.18,696.53c0,2.22-.8,3.97-2.4,5.26-1.6,1.29-3.67,1.93-6.21,1.93h-.54v-4.3h.49c1.47,0,2.51-.23,3.13-.68.62-.46.93-1.12.93-2v-.32h-10.12v6.43c0,1.4.33,2.38.99,2.92.66.55,1.78.82,3.36.82h9.93v4.13h-10.24c-2.67,0-4.71-.64-6.1-1.93s-2.09-3.19-2.09-5.72v-6.65h-2.44v-4.16h2.44v-2.74h4.16v2.74h9.17v1.69h5.55v2.59ZM528.81,692.91h-2.15v-4.06h2.15v4.06ZM532.03,692.91h-2.13v-4.06h2.13v4.06Z"/><path class="cls-1" d="M556.48,695.97c0,2.62-.35,4.9-1.05,6.82-.88,2.44-2.31,4.33-4.3,5.65-2.33,1.53-5.42,2.3-9.27,2.3h-6.65v-4.18h6.85c3.67,0,6.34-.96,8.02-2.88,1.48-1.7,2.22-4.19,2.22-7.48v-5.7h4.18v5.48ZM546.58,696.43c-1.56-.64-3.35-1.18-5.37-1.63-2.01-.45-3.92-.67-5.71-.67v-4.23c1.96,0,4,.2,6.14.59,2.13.39,3.78.87,4.94,1.44v4.5Z"/><path class="cls-1" d="M579.59,703.11c-2.84,0-5.58-.24-8.23-.73-2.65-.49-4.82-1.13-6.52-1.93v10.32h-4.18v-21.68h4.18v6.87c1.73.93,4.07,1.66,7.04,2.2,2.66.47,5.22.71,7.7.71v4.25Z"/><path class="cls-1" d="M255.59,686.04h-4.89v4.05c0,5.74-1.68,10.14-5.03,13.21-3.69,3.35-9.37,5.03-17.03,5.03h-4.93v-6.51h4.93c5.61,0,9.65-1.07,12.1-3.21,2.17-1.86,3.26-4.7,3.26-8.51v-4.05h-14.47c-1.09,1.55-2.4,2.94-3.93,4.17-1.54,1.23-3.27,2.3-5.19,3.23v-7.68c1.71-.93,3.13-2.23,4.28-3.91,1.33-1.99,2-4.2,2-6.65h6.79c-.09.68-.21,1.39-.35,2.12-.14.73-.3,1.45-.49,2.16h22.94v6.56Z"/><path class="cls-1" d="M300.2,666.92v34.9c0,1.74-.6,3.26-1.79,4.56-1.19,1.3-2.65,1.96-4.35,1.96h-10.19v-6.79h7.77c.78,0,1.16-.39,1.16-1.16v-4.56h-22.8c-.71,2.76-1.87,5.2-3.47,7.31-1.6,2.11-3.67,3.85-6.21,5.21v-9.96c2.08-1.77,3.12-5.12,3.12-10.05v-21.4h36.76ZM270.84,678.41h21.96v-5.21h-21.96v5.21ZM270.84,688.74v.84h21.96v-4.98h-21.96v4.14Z"/><path class="cls-1" d="M321.74,666.26c-.19.9-.51,1.8-.98,2.7h28.29v5.77h-1.77v6.14h2.89v5.77h-2.89v6.1h1.77v5.77h-39.97v-5.77h1.77v-6.1h-2.89v-5.77h2.89v-2.88c-.47.22-.91.38-1.33.49-.42.11-.94.23-1.56.35v-6.75c1.61-.34,3.04-1.1,4.28-2.28,1.15-1.05,1.89-2.23,2.23-3.54h7.26ZM317.97,700.46c-.22,1.3-.57,2.72-1.07,4.26-.5,1.54-.98,2.74-1.44,3.61h-7.49c.65-.87,1.28-2.08,1.88-3.63s1.02-2.96,1.23-4.23h6.89ZM320.95,674.73h-3.91v6.14h3.91v-6.14ZM317.04,692.74h3.91v-6.1h-3.91v6.1ZM327.37,700.46l1.4,7.86h-6.79l-1.35-7.86h6.75ZM330.96,674.73h-3.72v6.14h3.72v-6.14ZM327.23,692.74h3.72v-6.1h-3.72v6.1ZM337.7,700.46l1.81,7.86h-6.89l-1.63-7.86h6.7ZM341.1,674.73h-3.86v6.14h3.86v-6.14ZM337.24,692.74h3.86v-6.1h-3.86v6.1ZM348.08,700.46l2.09,7.86h-6.79l-1.95-7.86h6.65Z"/><path class="cls-1" d="M370.12,666.26v13.77h6.75v6.75h-6.75v1.16l6.75,5.58v8.56l-6.75-6.51v12.75h-6.65v-9.31c-.99,1.33-2.02,2.51-3.07,3.51-1.06,1.01-2.28,1.93-3.68,2.77v-8.75c1.49-.99,2.83-2.38,4.02-4.17,1.19-1.78,1.98-3.65,2.35-5.61h-6.38v-6.75h6.75v-13.77h6.65ZM361.23,667.61c.77,3.63,1.16,7.21,1.16,10.75h-4.56c0-1.83-.09-3.63-.28-5.4-.19-1.77-.46-3.55-.84-5.35h4.51ZM377.19,667.61l-1.49,10.75h-4.56l1.3-10.75h4.75ZM389.29,693.39v-27.13h7.4v25.96l2.28-.33v7.12l-2.28.37v8.93h-7.4v-7.72l-10.98,1.77v-7.4l10.98-1.58ZM387.15,671.71v7.12l-7.91-4.09v-6.84l7.91,3.82ZM387.15,683.85v7.21l-7.91-4.19v-6.84l7.91,3.82Z"/><rect class="cls-3" x="0" y="596.53" width="174.06" height="44.47" rx="22.24" ry="22.24"/><path class="cls-2" d="M49.41,609.47l-.07,2.9h.83v-3.21h3.26v3.21h1.48v2.79h4.13v-1.84h-3.5v-3.03h3.5v-1.12h3.55v1.12h3.57v3.03h-3.57v1.84h4.11v3.03h-1.12v1.75h1.12v3.01h-1.12v3.77c0,1.02-.28,1.75-.85,2.2-.48.36-1.19.54-2.13.54h-2.7v-3.39h1.66c.36,0,.54-.17.54-.52v-2.61h-7.19v.22c-.24.12-.5.24-.77.35-.28.11-.51.2-.71.26v5.68h-3.26v-4.74c-.99.21-1.76.37-2.3.47-.55.1-1.06.16-1.54.16v-3.57c.55,0,1.14-.05,1.76-.15.62-.1,1.31-.24,2.08-.44v-5.41h-1.06c0,.43-.02.79-.06,1.08-.04.29-.16.81-.37,1.57h-2.56c.25-1.2.44-2.45.55-3.76.11-1.31.17-3.04.17-5.2h2.56ZM53.43,620.19c.55-.19,1.05-.42,1.48-.67v.43h7.19v-1.75h-7.19v-2.4h-1.48v4.4ZM58.5,623.96l.85,4.43h-3.08l-.83-4.43h3.06Z"/><path class="cls-2" d="M75.9,610.82v-1.66h3.32v1.66h1.84v-1.66h3.3v1.66h5.23v12.6h.72v3.08h-2.04l2.04,2.96h-4.07l-1.93-2.96h-8.06c-.58,1.17-1.23,2.16-1.93,2.96h-4.38c.87-.87,1.65-1.86,2.34-2.96h-2.34v-3.08h.74v-12.6h5.21ZM74.06,617.09h1.91v-3.17h-1.91v3.17ZM74.06,623.42h1.91v-3.3h-1.91v3.3ZM79.23,617.09h1.84v-3.17h-1.84v3.17ZM79.23,623.42h1.84v-3.3h-1.84v3.3ZM84.3,617.09h1.91v-3.17h-1.91v3.17ZM84.3,623.42h1.91v-3.3h-1.91v3.3Z"/><path class="cls-2" d="M109.15,620.37c0,2.59-.55,4.52-1.66,5.77-1.15,1.3-2.97,1.95-5.46,1.95h-1.48c-2.47,0-4.28-.64-5.41-1.93-1.14-1.29-1.71-3.22-1.71-5.8v-3.28c0-2.59.6-4.53,1.81-5.82,1.21-1.29,2.98-1.93,5.31-1.93h1.48c2.32,0,4.09.64,5.3,1.93,1.21,1.29,1.82,3.23,1.82,5.82v3.28ZM105.2,620.37v-3.28c0-1.41-.29-2.41-.88-3.01-.51-.52-1.27-.79-2.29-.79h-1.48c-1.03,0-1.79.25-2.27.76-.58.6-.88,1.61-.88,3.03v3.28c0,1.32.26,2.28.79,2.89.52.61,1.31.91,2.36.91h1.48c1.03,0,1.82-.3,2.36-.91s.81-1.57.81-2.89Z"/><path class="cls-2" d="M128.11,622.89c0,1.78-.49,3.1-1.48,3.94-.99.85-2.46,1.27-4.4,1.27h-4.16c-2.1,0-3.61-.46-4.55-1.37-.94-.91-1.4-2.43-1.4-4.54h4c0,.73.21,1.27.64,1.59.43.33,1.13.5,2.1.5h2.38c1.02,0,1.74-.18,2.18-.55.43-.37.65-.91.65-1.63v-.72c0-.76-.22-1.33-.65-1.68-.43-.36-1.16-.54-2.18-.54h-2.56c-.69,0-1.24.13-1.64.4-.33.19-.57.49-.72.88h-4.04v-10.94h15.28v3.84h-11.3v2.99c.9-.42,1.9-.63,3.01-.63h2.88c1.9,0,3.37.43,4.41,1.28,1.04.85,1.56,2.12,1.56,3.8v2.11Z"/><path class="cls-2" d="M754.29,685.2h-7.18c.78,2.04,1.65,4,2.61,5.89s2.03,3.73,3.21,5.52h-7.44c-.96-1.61-1.89-3.38-2.79-5.29-.91-1.91-1.73-3.95-2.46-6.12h-18.55v-6.31h16.77l-.68-3.97h6.69c.05.48.16,1.15.32,2.02.16.87.28,1.52.36,1.95h9.14v6.31ZM751.01,707.79h-15.07c-4.61,0-7.95-.74-10.01-2.21-2.07-1.47-3.1-3.75-3.1-6.82,0-1.11.26-2.35.79-3.74.53-1.38,1.21-2.56,2.04-3.51h6.95c-.96.83-1.71,1.81-2.25,2.95-.54,1.13-.81,2.23-.81,3.29,0,1.44.6,2.48,1.79,3.14,1.2.66,3.29.98,6.29.98l13.37-.04v5.97Z"/><path class="cls-2" d="M791.84,696.23c0,3.98-1.33,6.9-4,8.76-3.07,2.12-8.31,3.17-15.72,3.17h-8.27v-6.2h7.86c5.19,0,8.78-.49,10.77-1.47,1.79-.88,2.68-2.37,2.68-4.46,0-2.77-2.02-4.16-6.04-4.16-3.12,0-5.78.42-7.97,1.27-2.19.84-4.14,2.21-5.86,4.1h-6.04v-22.03h6.2v14.85c1.96-1.41,3.97-2.46,6.01-3.13,2.34-.81,4.92-1.21,7.74-1.21,4.18,0,7.34.86,9.46,2.59,2.13,1.72,3.19,4.36,3.19,7.91ZM789.83,681.27h-13.34c-1.41,0-2.81-.06-4.21-.19-1.4-.12-2.53-.29-3.38-.49v-6.01c.81.23,1.92.4,3.34.53,1.42.13,2.87.19,4.33.19h13.26v5.97Z"/><path class="cls-2" d="M804.59,674.74c-.5,3.17-.88,6.16-1.12,8.95-.24,2.79-.36,5.83-.36,9.1,0,2.12.1,4.49.3,7.12s.45,5.28.76,7.95h-6.2c-.25-2.22-.49-4.79-.7-7.73-.21-2.93-.32-5.37-.32-7.31,0-6.47.48-12.5,1.44-18.1h6.2ZM828.84,707.11h-11.79c-3.58,0-6.23-.74-7.97-2.23-1.54-1.36-2.3-3.31-2.3-5.86,0-1.11.16-2.25.49-3.44.33-1.18.76-2.27,1.29-3.25h6.54c-.5.88-.91,1.68-1.21,2.38-.35.96-.53,1.84-.53,2.64,0,2.37,1.69,3.55,5.06,3.55h10.43v6.2ZM828.73,681.2l-2.72,3.97h-6.69l2.38-3.21h-13.22v-6.04h20.25v5.29Z"/><path class="cls-2" d="M866.31,674.96v28.33c0,1.41-.49,2.64-1.45,3.7-.97,1.06-2.15,1.59-3.53,1.59h-8.27v-5.52h6.31c.63,0,.95-.31.95-.94v-3.7h-18.51c-.58,2.24-1.52,4.22-2.81,5.93-1.3,1.71-2.98,3.12-5.04,4.23v-8.08c1.69-1.44,2.53-4.16,2.53-8.16v-17.38h29.84ZM842.47,684.3h17.83v-4.23h-17.83v4.23ZM842.47,692.68v.68h17.83v-4.04h-17.83v3.36Z"/><path class="cls-2" d="M886.27,674.44h7.37c1.13,1.86,2.9,3.42,5.29,4.68s5.11,2.07,8.16,2.42v5.93c-.66-.1-1.15-.18-1.47-.25-.33-.06-.76-.16-1.29-.28v3.29h-28.64v-3.32l-2.87.57v-5.93c3.07-.38,5.8-1.19,8.18-2.44,2.38-1.25,4.14-2.8,5.27-4.67ZM907.09,693.32v5.02h-21.95l-2,4.27c2.92,0,5.51-.09,7.76-.26,2.25-.18,4.34-.47,6.25-.87l-1.44-3.1h6.61l4.76,10.2h-6.65l-1.02-2.19c-2.34.78-4.96,1.28-7.86,1.49s-7.39.32-13.49.32h-5.25v-5.55h3.17l2-4.31h-5.18v-5.02h34.27ZM881.1,685.24h17.68c-3.65-1.49-6.59-3.5-8.8-6.04-1.11,1.23-2.42,2.37-3.93,3.4-1.51,1.03-3.16,1.91-4.95,2.64Z"/><path class="cls-2" d="M922.11,675.38v-.94h5.71v.94h3.7v-.94h5.7v.94h8.65v7.33h-8.65v1.4h9.56v3.89c0,.73-.27,1.27-.79,1.62-.53.35-1.44.53-2.72.53h-4.42v-1.96h1.51c.45,0,.68-.19.68-.57v-.57h-3.82v3.21h-5.7v-3.21h-4.61c-.73,1.71-2.14,3.06-4.23,4.04h23.23v15.26h-1.51l2.38,2.23h-6.91l-2.3-2.23h-15.04c-.71.88-1.46,1.62-2.27,2.23h-7.74c1.08-.68,2.05-1.42,2.91-2.23h-1.96v-13.45l-.95.04v-4.38c2.17,0,3.85-.11,5.06-.34s2.18-.62,2.91-1.17h-7.07v-7.29h8.69v-1.28h-9.6v-3.1h9.6ZM918.93,684.11h3.02l.15-1.4h-3.17v1.4ZM919.61,695.25h20.14v-1.36h-20.14v1.36ZM919.61,699.37h20.14v-1.28h-20.14v1.28ZM919.61,703.56h20.14v-1.32h-20.14v1.32ZM931.51,682.71h-3.7l-.11,1.4h3.82v-1.4ZM927.81,679.76h3.7v-1.28h-3.7v1.28ZM937.22,679.76h3.21v-1.28h-3.21v1.28Z"/><path class="cls-1" d="M985.89,719.57h-10.79v-52.53l-9.2,6.32v-10.88l9.85-7.07h10.13v64.15Z"/><path class="cls-1" d="M1047.47,690.93h-6.2v5.14c0,7.29-2.13,12.88-6.38,16.78-4.69,4.25-11.9,6.38-21.62,6.38h-6.26v-8.27h6.26c7.13,0,12.25-1.36,15.36-4.08,2.76-2.36,4.14-5.97,4.14-10.81v-5.14h-18.38c-1.38,1.97-3.04,3.73-4.99,5.29-1.95,1.56-4.15,2.93-6.59,4.11v-9.75c2.17-1.18,3.98-2.84,5.44-4.96,1.69-2.52,2.54-5.34,2.54-8.45h8.63c-.12.87-.27,1.76-.44,2.69-.18.93-.38,1.84-.62,2.75h29.13v8.33Z"/><path class="cls-1" d="M1103.83,666.65v44.32c0,2.21-.76,4.14-2.27,5.79s-3.36,2.48-5.52,2.48h-12.94v-8.63h9.87c.98,0,1.48-.49,1.48-1.48v-5.79h-28.95c-.91,3.51-2.37,6.6-4.4,9.28s-4.66,4.88-7.89,6.62v-12.65c2.64-2.25,3.96-6.5,3.96-12.76v-27.18h46.68ZM1066.55,681.24h27.89v-6.62h-27.89v6.62ZM1066.55,694.36v1.06h27.89v-6.32h-27.89v5.26Z"/><path class="cls-1" d="M1130.9,665.82c-.24,1.14-.65,2.29-1.24,3.43h35.93v7.33h-2.25v7.8h3.66v7.33h-3.66v7.74h2.25v7.33h-50.76v-7.33h2.24v-7.74h-3.66v-7.33h3.66v-3.66c-.59.28-1.15.48-1.68.62-.53.14-1.19.29-1.98.44v-8.57c2.05-.43,3.86-1.4,5.44-2.89,1.46-1.34,2.4-2.84,2.84-4.49h9.22ZM1126.11,709.25c-.28,1.65-.73,3.46-1.36,5.41-.63,1.95-1.24,3.48-1.83,4.58h-9.51c.83-1.1,1.62-2.64,2.39-4.61.77-1.97,1.29-3.76,1.57-5.38h8.75ZM1129.89,676.58h-4.96v7.8h4.96v-7.8ZM1124.93,699.44h4.96v-7.74h-4.96v7.74ZM1138.05,709.25l1.77,9.99h-8.63l-1.71-9.99h8.57ZM1142.6,676.58h-4.73v7.8h4.73v-7.8ZM1137.87,699.44h4.73v-7.74h-4.73v7.74ZM1151.17,709.25l2.3,9.99h-8.74l-2.07-9.99h8.51ZM1155.48,676.58h-4.9v7.8h4.9v-7.8ZM1150.58,699.44h4.9v-7.74h-4.9v7.74ZM1164.34,709.25l2.66,9.99h-8.63l-2.48-9.99h8.45Z"/><path class="cls-1" d="M1192.08,665.82v17.49h8.57v8.57h-8.57v1.48l8.57,7.09v10.87l-8.57-8.27v16.19h-8.45v-11.82c-1.26,1.69-2.56,3.18-3.9,4.46-1.34,1.28-2.89,2.45-4.67,3.52v-11.11c1.89-1.26,3.59-3.02,5.11-5.29,1.52-2.26,2.51-4.64,2.98-7.12h-8.1v-8.57h8.57v-17.49h8.45ZM1180.79,667.54c.98,4.61,1.48,9.16,1.48,13.65h-5.79c0-2.32-.12-4.61-.35-6.85s-.59-4.51-1.06-6.79h5.73ZM1201.06,667.54l-1.89,13.65h-5.79l1.66-13.65h6.03ZM1216.42,700.27v-34.45h9.4v32.97l2.9-.41v9.04l-2.9.47v11.35h-9.4v-9.81l-13.94,2.25v-9.4l13.94-2.01ZM1213.7,672.73v9.04l-10.04-5.2v-8.69l10.04,4.84ZM1213.7,688.16v9.16l-10.04-5.32v-8.69l10.04,4.84Z"/><rect class="cls-3" x="688.66" y="596.53" width="580.78" height="44.47" rx="22.24" ry="22.24"/><path class="cls-2" d="M794.5,615.56h-4.27c.46,1.21.98,2.38,1.55,3.5.57,1.12,1.21,2.22,1.91,3.28h-4.43c-.57-.96-1.12-2.01-1.66-3.14-.54-1.14-1.03-2.35-1.46-3.64h-11.03v-3.75h9.97l-.4-2.36h3.98c.03.29.09.69.19,1.2s.17.9.21,1.16h5.44v3.75ZM792.54,629h-8.96c-2.74,0-4.72-.44-5.95-1.31-1.23-.88-1.84-2.23-1.84-4.06,0-.66.16-1.4.47-2.22.31-.82.72-1.52,1.21-2.09h4.13c-.57.49-1.02,1.08-1.34,1.75-.32.67-.48,1.33-.48,1.95,0,.85.36,1.48,1.07,1.87s1.96.58,3.74.58l7.95-.02v3.55Z"/><path class="cls-2" d="M816.94,622.12c0,2.37-.79,4.1-2.38,5.21-1.83,1.26-4.94,1.89-9.34,1.89h-4.92v-3.68h4.67c3.09,0,5.22-.29,6.4-.88,1.06-.52,1.6-1.41,1.6-2.65,0-1.65-1.2-2.47-3.59-2.47-1.86,0-3.44.25-4.74.75-1.3.5-2.46,1.31-3.48,2.44h-3.59v-13.1h3.68v8.83c1.17-.84,2.36-1.46,3.57-1.87,1.39-.48,2.93-.72,4.6-.72,2.49,0,4.36.51,5.63,1.54,1.26,1.03,1.9,2.59,1.9,4.71ZM815.75,613.23h-7.93c-.84,0-1.67-.04-2.5-.11s-1.5-.17-2.01-.29v-3.57c.48.13,1.14.24,1.99.31.85.08,1.7.11,2.57.11h7.88v3.55Z"/><path class="cls-2" d="M824.65,609.34c-.3,1.89-.52,3.66-.66,5.32-.14,1.66-.21,3.47-.21,5.41,0,1.26.06,2.67.18,4.23.12,1.57.27,3.14.45,4.73h-3.68c-.15-1.32-.29-2.85-.42-4.59-.13-1.74-.19-3.19-.19-4.35,0-3.85.29-7.44.85-10.76h3.68ZM839.07,628.59h-7.01c-2.13,0-3.71-.44-4.74-1.33-.91-.81-1.37-1.97-1.37-3.48,0-.66.1-1.34.29-2.04.2-.7.45-1.35.76-1.93h3.89c-.3.52-.54,1-.72,1.42-.21.57-.31,1.09-.31,1.57,0,1.41,1,2.11,3.01,2.11h6.2v3.68ZM839,613.18l-1.62,2.36h-3.98l1.42-1.91h-7.86v-3.59h12.04v3.15Z"/><path class="cls-2" d="M847.68,606.76c0,3.64-.42,6.61-1.27,8.9h.48v14.08h-3.61v-9.38c-.22.19-.5.38-.84.58-.25.15-.57.32-.94.51v-5.46c.75-.56,1.3-1.6,1.68-3.11.37-1.52.56-3.55.56-6.11h3.94ZM864.55,628.78c-.41.25-.97.43-1.69.53-.72.1-1.6.15-2.63.15h-7.52c-1.32,0-2.3-.33-2.92-.98s-.94-1.54-.94-2.66v-8.97l-1.17.38v-4.09l1.17-.38v-5.36h3.86v4.14l1.93-.56v-4.22h3.51v3.08l3.66-1.14h2.19v11.08c0,1.02-.42,1.86-1.25,2.52-.73.59-1.58.89-2.54.89h-1.47v-3.96h.61c.24,0,.43-.09.59-.28.15-.19.23-.4.23-.63v-5.08l-2.01.61v10.37h-3.51v-9.25l-1.93.63v9.35c0,.27.09.48.27.64s.44.23.78.23h6.48c.96,0,1.79-.06,2.46-.19s1.3-.37,1.86-.72v3.89Z"/><path class="cls-2" d="M890.23,616.73c0,3.68-1.09,6.61-3.28,8.79-2.58,2.56-6.51,3.84-11.79,3.84h-5.62v-4.32h5.59c3.61,0,6.3-.69,8.08-2.07s2.67-3.55,2.67-6.52v-4.29h-10.29c-.34,1.59-1.07,3.01-2.19,4.24-1.41,1.53-3.23,2.5-5.46,2.92v-4.55c1.34-.39,2.35-1.19,3.04-2.4s1.03-2.73,1.03-4.56h18.23v8.92Z"/><path class="cls-2" d="M916.37,619.01c-.27,3-1.42,5.36-3.46,7.09-2.51,2.12-6.3,3.18-11.39,3.18h-5.69v-4.3h5.67c3.46,0,5.98-.5,7.58-1.5,1.41-.88,2.21-2.27,2.41-4.17v-.58h-17.41v-4.25h22.29v4.52ZM915.81,612.07h-21.12v-4.32h21.12v4.32Z"/><path class="cls-2" d="M941.5,615.25c0,4.8-1.42,8.38-4.27,10.75-2.71,2.22-6.7,3.33-11.97,3.33h-4.42v-4.32h4.5c3.76,0,6.57-.64,8.44-1.93,2.25-1.54,3.38-4.13,3.38-7.78v-3.18h-17.23v-4.35h16.12v4.04h5.46v3.43ZM939.34,610.75h-2.21v-4.22h2.21v4.22ZM942.72,610.75h-2.21v-4.22h2.21v4.22Z"/><path class="cls-2" d="M962.42,621.99c0,2.78-.52,4.7-1.55,5.76-1.03,1.06-2.84,1.59-5.41,1.59h-2.24v-4.4h2.19c1.02,0,1.71-.2,2.07-.6.36-.4.55-1.17.55-2.33v-5.36c0-1.32-.21-2.18-.62-2.58-.42-.4-1.37-.6-2.86-.6h-.97c-.41,2.88-.91,5.74-1.5,8.57-.59,2.83-1.18,5.08-1.75,6.76h-4.37c.59-1.56,1.2-3.75,1.82-6.57.62-2.82,1.15-5.74,1.59-8.76h-3v-4.19h3.46l.15-2.36h4.3l-.18,2.36h1.07c2.51,0,4.25.36,5.21,1.07,1.37,1.02,2.06,3.06,2.06,6.13v5.52ZM969.16,623.95h-4.19c0-2.81-.18-5.81-.53-9-.36-3.19-.74-5.53-1.14-7.04h4.17c.44,1.8.83,4.19,1.18,7.19.35,3,.52,5.95.52,8.85Z"/><path class="cls-2" d="M994.52,621.43c0,2.68-.9,4.64-2.69,5.9-2.07,1.42-5.59,2.13-10.57,2.13h-5.57v-4.17h5.29c3.49,0,5.9-.33,7.24-.99,1.2-.59,1.8-1.59,1.8-3,0-1.86-1.36-2.8-4.07-2.8-2.1,0-3.89.28-5.36.85-1.47.57-2.79,1.49-3.94,2.76h-4.07v-14.82h4.17v9.99c1.32-.95,2.67-1.65,4.04-2.11,1.58-.54,3.31-.81,5.21-.81,2.81,0,4.93.58,6.37,1.74,1.43,1.16,2.15,2.94,2.15,5.33ZM993.17,611.36h-8.97c-.95,0-1.89-.04-2.83-.13-.94-.08-1.7-.19-2.27-.33v-4.04c.54.15,1.29.27,2.25.36.96.08,1.93.13,2.91.13h8.92v4.02Z"/><path class="cls-2" d="M1007.71,606.76v3.64c-.39.17-.8.32-1.23.46-.43.14-.96.23-1.59.28v2.08h3.08v3.41h-3.08v.99l3.08,2.03v3.92l-3.08-2.47v8.64h-3.63v-6.23c-.44.66-.93,1.3-1.47,1.91-.46.53-1.03,1.09-1.73,1.7v-5.29c.71-.46,1.36-1.2,1.94-2.21s.98-2.02,1.18-3h-3.13v-3.41h3.2v-1.88l-3.2.03v-3.46c3.19,0,5.32-.06,6.39-.18,1.08-.12,2.16-.44,3.27-.97ZM1021.11,607.12v2.97c-.49,2.12-1.45,3.84-2.87,5.17-1.42,1.33-3.3,2.28-5.62,2.86h8.49v2.97c-.58,2.64-2,4.75-4.28,6.3s-5,2.34-8.17,2.34v-3.58c.66,0,1.3-.07,1.93-.2.63-.13,1.25-.31,1.88-.53l-1.35-2.01c-.49.24-.91.42-1.27.56-.36.14-.75.25-1.19.36v-3.86c.71-.17,1.33-.44,1.86-.83.53-.38.89-.79,1.09-1.23-.61.12-1.15.21-1.61.27-.47.06-.91.09-1.33.09v-3.61c.69,0,1.33-.06,1.91-.19s1.22-.31,1.93-.55l-1.35-2.01c-.76.37-1.59.67-2.49.89v-3.89c.75-.17,1.4-.47,1.96-.89.56-.42.92-.89,1.07-1.4h9.43ZM1012.26,622.78h2.03l.89,1.19c.44-.36.83-.76,1.18-1.21.35-.45.67-.96.98-1.54h-3.36c-.25.3-.5.57-.75.79-.25.22-.57.47-.98.76ZM1012.31,611.74h2.03l.84,1.17c.39-.3.79-.71,1.19-1.22.34-.42.66-.92.97-1.47h-3.2c-.19.2-.4.42-.63.64-.31.27-.7.57-1.2.89Z"/><path class="cls-2" d="M1030.69,606.79l-.15.71h5.44v2.82h-1.86l.38,2.21h-2.49v.94h3.25v2.57h-3.25v1.25h2.64v2.62h-2.64v1.17h3.25v2.67h-3.25v.18l3.25,1.88v3.36l-3.25-2.16v2.75h-3.89v-2.75c-.42.64-.91,1.2-1.45,1.68-.54.47-1.14.83-1.81,1.07v-3.53c.54-.19,1.02-.5,1.42-.95s.69-.95.86-1.51h-2.29v-2.67h3.25v-1.17h-2.64v-2.62h2.64v-1.25h-3.25v-2.57h3.25v-.94h2.67l-.33-2.21h-.81c-.25.61-.55,1.13-.89,1.55h-4.04c.36-.44.77-1.22,1.25-2.35s.76-2.04.87-2.73h3.86ZM1042.18,606.79l-.15.71h5.9v2.82h-2.31l.38,2.21h.38v1.19h.94v2.49h-.94v1.68h1.55v2.49h-12.28v-2.49h1.53v-1.68h-.94v-2.49h.94v-1.19h3.3v1.19h2.59v-1.19h-.76l-.33-2.21h-.89c-.2.58-.48,1.09-.84,1.55h-4.09c.37-.44.8-1.24,1.27-2.39.47-1.15.75-2.05.84-2.69h3.92ZM1047.31,621.15v8.31h-11.08v-8.31h11.08ZM1039.97,624.38h3.61v-1.17h-3.61v1.17ZM1039.97,627.45h3.61v-1.19h-3.61v1.19ZM1040.48,617.9h2.59v-1.68h-2.59v1.68Z"/><path class="cls-2" d="M1074.31,618.23c0,3.86-.97,6.79-2.92,8.77-1.73,1.71-4.03,2.57-6.91,2.57v-4.5c3.69,0,5.54-2.33,5.54-6.99,0-2.19-.53-3.9-1.6-5.13-1.14-1.36-2.85-2.03-5.13-2.03-2.63,0-4.6.75-5.92,2.26-1.22,1.41-1.83,3.42-1.83,6.05,0,1.56.22,2.73.65,3.52.43.79,1,1.18,1.69,1.18.86,0,1.62-1.08,2.26-3.24.64-2.16.97-5.02.97-8.58h4.12c0,5.13-.67,9.19-2.01,12.15-1.34,2.97-3.2,4.45-5.57,4.45-1.83,0-3.3-.78-4.4-2.34-1.19-1.69-1.78-4.08-1.78-7.14,0-3.73.93-6.68,2.8-8.85,2.07-2.41,5.16-3.61,9.28-3.61,3.51,0,6.21,1.08,8.11,3.25,1.78,2.03,2.67,4.77,2.67,8.21Z"/><path class="cls-2" d="M1082.9,606.76v4.78h1.6v3.61h-1.6v9.2c.7-.29,1.25-.59,1.65-.92v3.86c-.64.41-1.7.82-3.16,1.25-1.47.42-2.69.64-3.67.64v-3.51c.22,0,.45-.02.67-.06s.55-.11.95-.19v-10.27h-1.63v-3.61h1.63v-4.78h3.56ZM1085.24,616.88h15.53v2.82h-9.38l-.51,1.02h9.91v5.64c0,1.03-.26,1.86-.78,2.47-.52.61-1.23.92-2.15.92h-2.67v-2.75h1.58c.53,0,.79-.29.79-.86v-2.67h-.71c-.47,1.71-1.33,3.14-2.57,4.28-1.24,1.14-2.67,1.81-4.3,2v-2.77c1-.17,1.87-.56,2.61-1.16.74-.6,1.28-1.38,1.64-2.35h-1.3c-.63,1.32-1.7,2.51-3.23,3.56-1.53,1.05-3.01,1.58-4.45,1.58v-2.9c.96,0,1.89-.22,2.78-.65.89-.43,1.56-.96,2.02-1.59h-1.7c-.9.56-1.93.94-3.1,1.14v-3.25c.68-.08,1.25-.27,1.73-.56.47-.29.84-.65,1.09-1.09h-2.85v-2.82ZM1100.16,607.12v8.77h-14.36v-8.77h14.36ZM1089.61,610.4h6.74v-1.12h-6.74v1.12ZM1089.61,613.65h6.74v-1.07h-6.74v1.07Z"/><path class="cls-2" d="M1113.32,606.76h4.86c.91,1.2,2.18,2.22,3.79,3.06,1.61.84,3.38,1.42,5.31,1.74v4.25c-.86-.17-1.42-.29-1.68-.36-.47-.12-1.01-.29-1.6-.51v2.8h-16.5v-2.8c-.44.17-.97.33-1.59.48-.62.15-1.18.28-1.69.38v-4.25c1.91-.32,3.68-.9,5.3-1.74s2.88-1.86,3.8-3.06ZM1126.29,619.65v9.81h-21.07v-9.81h21.07ZM1109.15,626h13.19v-2.85h-13.19v2.85ZM1109.74,614.11h12.02c-2.42-1.14-4.42-2.63-6-4.5-1.59,1.86-3.6,3.36-6.02,4.5Z"/><path class="cls-2" d="M1136.19,606.92c-.32,1.9-.57,3.88-.75,5.95-.18,2.07-.27,4.14-.27,6.2,0,1.49.07,3.12.2,4.89.14,1.77.31,3.51.53,5.22h-4.17c-.17-1.47-.33-3.2-.47-5.17-.14-1.97-.22-3.61-.22-4.89,0-2.25.08-4.37.23-6.34.15-1.97.39-3.93.71-5.86h4.19ZM1153.37,625.39c-.32-.24-.68-.48-1.07-.74-.39-.25-.83-.51-1.32-.76-.17,1.81-.88,3.2-2.12,4.16-1.25.96-3.11,1.44-5.58,1.44-2.1,0-3.68-.51-4.73-1.54-1.05-1.03-1.58-2.47-1.58-4.33,0-1.61.49-2.92,1.47-3.92,1.14-1.19,2.8-1.78,5.01-1.78,1.03,0,2.15.11,3.36.33v-4.73h-9.15v-4.14h9.15v-2.44h4.25v2.44h2.31v4.14h-2.31v5.87c.59.2,1.03.36,1.31.48.28.12.61.29,1,.51v5.01ZM1146.81,622.37v-.1c-1.22-.34-2.35-.51-3.38-.51-.76,0-1.37.16-1.83.48-.46.32-.69.76-.69,1.32,0,1.22.81,1.83,2.44,1.83,1.3,0,2.24-.29,2.8-.86.44-.46.66-1.18.66-2.16Z"/></g></svg>