<?xml version="1.0" encoding="UTF-8"?><svg id="_レイヤー_2" xmlns="http://www.w3.org/2000/svg" viewBox="0 0 335.77 580.9"><defs><style>.cls-1{fill:#fff100;}.cls-1,.cls-2,.cls-3{stroke-width:0px;}.cls-2{fill:#fff;}.cls-4{fill:none;stroke:#79d9e4;stroke-miterlimit:10;stroke-width:2px;}.cls-3{fill:#5ccad6;}</style></defs><g id="_レイヤー_1-2"><path class="cls-1" d="M186.76,408.83v-1.67h-3.85v-2.71h2.34l-3.35-8.51h3.57l2.9,8.4,3.21-8.4h3.6l-3.68,8.51h2.34v2.71h-3.85v1.67h3.85v2.71h-3.85v3.65h-3.24v-3.65h-3.85v-2.71h3.85Z"/><path class="cls-1" d="M203.69,399.28h-5.29v-18.84h18.84v5.49h-13.15v7.35c1.06-1.06,2.67-2.01,5.34-2.01,5.79,0,9.17,4.48,9.17,12.54,0,7.61-3.63,11.84-10.58,11.84-5.64,0-10.07-3.53-10.58-9.07h5.74c.6,2.52,2.22,3.98,4.73,3.98,2.97,0,4.84-1.96,4.84-6.55s-1.41-7.3-4.84-7.3c-2.07,0-3.38,1.11-4.23,2.57Z"/><path class="cls-1" d="M229.03,417.81l-5.94,5.09v-14.66h5.94v9.57Z"/><path class="cls-1" d="M251.23,380.44l-11.13,24.43h8.16v-9.47h5.84v9.47h3.17v5.09h-3.17v5.24h-5.84v-5.24h-15.26v-4.13l12.04-25.39h6.2Z"/><path class="cls-1" d="M258.33,391.22v-10.78h20.45v4.48l-10.43,30.27h-6.09l10.48-29.67h-9.37v5.69h-5.04Z"/><path class="cls-1" d="M287.49,397.16c-2.77-1.41-4.73-4.33-4.73-7.61,0-5.99,5.14-9.57,10.73-9.57s10.73,3.58,10.73,9.57c0,3.27-1.96,6.2-4.73,7.61,2.82,1.21,5.24,4.38,5.24,8.31,0,6.35-5.24,10.17-11.23,10.17s-11.23-3.83-11.23-10.17c0-3.93,2.52-7.1,5.24-8.31ZM293.48,410.61c3.02,0,5.44-2.47,5.44-5.49,0-3.38-2.87-5.44-5.44-5.44s-5.39,2.06-5.39,5.44c0,3.02,2.27,5.49,5.39,5.49ZM293.48,394.94c2.72,0,4.94-2.22,4.94-4.99s-2.22-4.89-4.94-4.89-4.94,2.17-4.94,4.89,2.17,4.99,4.94,4.99Z"/><path class="cls-2" d="M199.72,182.46c-1.32,1.09-1.79,2.25-1.79,3.65s.47,2.56,1.79,3.66l-.21.25c-1.53-1.12-2.16-2.33-2.16-3.9s.63-2.79,2.16-3.9l.21.25Z"/><path class="cls-2" d="M201.33,183.86q-.25.05-.35-.19c-.07-.17-.15-.3-.26-.43.78-.12,1.44-.31,1.91-.52.14-.06.22-.11.33-.18.18.16.33.32.48.48.05.06.06.08.06.14,0,.06-.06.1-.14.1-.07,0-.16.04-.26.08-.16.06-.33.12-.5.18v1.16c.54,0,.72-.02.77-.02.08,0,.09,0,.09.09v.55c0,.09,0,.1-.09.1-.05,0-.21,0-.65-.02.25.53.53.92.89,1.25-.1.14-.21.37-.28.58-.02.09-.06.13-.09.13s-.07-.05-.13-.13c-.21-.32-.38-.61-.53-1.01,0,1.97.05,3.36.05,3.5,0,.07,0,.08-.09.08h-.63c-.09,0-.1,0-.1-.08,0-.13.05-1.44.06-3.16-.21.61-.5,1.14-.81,1.6-.06.08-.1.12-.14.12-.03,0-.06-.04-.1-.13-.09-.22-.21-.44-.32-.57.46-.53.94-1.22,1.24-2.18h-.19c-.58,0-.77.02-.82.02-.07,0-.08,0-.08-.1v-.55c0-.08,0-.09.08-.09.06,0,.24.02.82.02h.28v-.92l-.5.12ZM205.77,184.01c.17-.37.3-.7.41-1.04.03-.13.07-.29.09-.5.28.06.6.13.79.2.06.02.1.06.1.11,0,.06-.02.09-.07.14-.06.06-.1.14-.14.25-.11.23-.22.5-.4.85.57,0,.79-.02.84-.02.08,0,.09,0,.09.1,0,.05-.02.23-.02.69v.97c0,.45.02.65.02.69,0,.08,0,.09-.09.09-.05,0-.29-.02-.92-.02v2.09c0,.14.02.22.08.26.04.03.14.06.27.06.19,0,.27-.03.33-.1.06-.08.09-.27.1-.91.14.1.35.2.49.23q.21.06.19.27c-.03.66-.14.94-.3,1.07-.18.14-.51.19-.89.19-.42,0-.67-.04-.8-.13-.14-.1-.23-.26-.23-.64v-2.4h-.49c-.04,1.74-.51,2.6-1.5,3.18-.1.06-.16.09-.2.09-.05,0-.08-.05-.17-.17-.13-.17-.29-.33-.42-.42,1.05-.46,1.52-1.15,1.54-2.68-.45,0-.62.02-.65.02-.09,0-.1,0-.1-.09,0-.06.02-.25.02-.69v-.97c0-.45-.02-.64-.02-.69,0-.09,0-.1.1-.1.04,0,.29.02.98.02h.98ZM204.5,182.54c.1-.05.11-.05.16.02.21.29.42.68.57,1.04.02.08.02.1-.09.14l-.49.22c-.1.05-.11.05-.14-.04-.13-.36-.3-.72-.53-1.05-.04-.07-.03-.09.07-.14l.45-.2ZM206.68,184.73h-2.19v1.05h2.19v-1.05Z"/><path class="cls-2" d="M211.05,187.99c.17.33.33.53.65.66.28.11.78.16,1.48.16,1.03,0,2.24-.06,3.43-.18-.11.17-.18.38-.22.62q-.04.25-.29.27c-1.01.06-1.96.08-2.79.08s-1.48-.07-1.87-.23c-.37-.15-.58-.38-.78-.71-.25.24-.53.48-.82.7-.08.06-.13.11-.16.16-.04.06-.07.08-.12.08-.03,0-.08-.04-.11-.1-.11-.21-.21-.46-.33-.75.21-.1.32-.15.47-.25.23-.14.46-.33.67-.51v-1.76h-.39c-.43,0-.54.02-.58.02-.09,0-.1,0-.1-.1v-.61c0-.08,0-.09.1-.09.04,0,.15.02.58.02h.51c.42,0,.55-.02.6-.02.08,0,.09,0,.09.09,0,.05-.02.27-.02.76v1.69ZM210.56,184.42c-.06.04-.08.06-.1.06s-.04-.02-.06-.06c-.29-.48-.62-.91-.98-1.25-.06-.06-.05-.08.04-.14l.45-.29c.09-.06.1-.06.17,0,.37.34.71.73,1,1.19.05.07.05.09-.04.15l-.46.34ZM213.38,182.89c.37,0,.62-.02.73-.02.06,0,.08.04.08.09,0,.18,0,.63.1,1.17.23,1.32,1.01,2.58,2.24,3.37-.14.15-.31.39-.42.62-.06.12-.1.18-.14.18-.04,0-.1-.03-.18-.1-.97-.78-1.63-1.83-1.94-3.03-.3,1.21-.89,2.16-1.82,2.97-.09.07-.14.11-.18.11s-.08-.05-.17-.15c-.17-.22-.33-.37-.49-.47,1.28-.89,1.99-2.14,2.18-3.96h-.69c-.49,0-.64.02-.69.02-.09,0-.1,0-.1-.1v-.62c0-.08,0-.09.1-.09.05,0,.19.02.69.02h.71Z"/><path class="cls-2" d="M217.75,182.21c1.53,1.12,2.16,2.33,2.16,3.9s-.63,2.79-2.16,3.9l-.21-.25c1.33-1.09,1.8-2.25,1.8-3.66s-.47-2.56-1.8-3.65l.21-.25Z"/><path class="cls-1" d="M270.37,169.51v-3.36h-7.73v-5.44h4.71l-6.72-17.09h7.17l5.83,16.87,6.44-16.87h7.23l-7.4,17.09h4.71v5.44h-7.73v3.36h7.73v5.44h-7.73v7.34h-6.5v-7.34h-7.73v-5.44h7.73Z"/><path class="cls-1" d="M311.21,183.1c-10.35,0-19.53-6.12-19.53-18.99v-25.65c0-13.23,9.18-19.08,19.53-19.08s19.53,5.85,19.53,18.99v25.74c0,12.87-9.18,18.99-19.53,18.99ZM311.21,128.47c-5.67,0-9.18,3.87-9.18,10.53v24.48c0,6.66,3.51,10.53,9.18,10.53s9.09-3.87,9.09-10.53v-24.48c0-6.66-3.51-10.53-9.09-10.53Z"/><path class="cls-2" d="M114.3,173.82v-1.44h-3.31v-2.33h2.01l-2.88-7.32h3.07l2.49,7.22,2.76-7.22h3.09l-3.17,7.32h2.02v2.33h-3.31v1.44h3.31v2.33h-3.31v3.14h-2.78v-3.14h-3.31v-2.33h3.31Z"/><path class="cls-2" d="M132.53,179.29h-5.03v-24.48l-4.29,2.95v-5.07l4.59-3.29h4.72v29.89Z"/><path class="cls-2" d="M147.25,179.29h-5.03v-24.48l-4.29,2.95v-5.07l4.59-3.29h4.72v29.89Z"/><path class="cls-2" d="M157.26,181.54l-5.11,4.38v-12.61h5.11v8.23Z"/><path class="cls-2" d="M170.47,179.67c-4.98,0-9.4-2.95-9.4-9.14v-12.35c0-6.37,4.42-9.18,9.4-9.18s9.4,2.82,9.4,9.14v12.39c0,6.19-4.42,9.14-9.4,9.14ZM170.47,153.38c-2.73,0-4.42,1.86-4.42,5.07v11.78c0,3.21,1.69,5.07,4.42,5.07s4.38-1.86,4.38-5.07v-11.78c0-3.21-1.69-5.07-4.38-5.07Z"/><path class="cls-2" d="M193.3,179.67c-4.98,0-9.4-2.95-9.4-9.14v-12.35c0-6.37,4.42-9.18,9.4-9.18s9.4,2.82,9.4,9.14v12.39c0,6.19-4.42,9.14-9.4,9.14ZM193.3,153.38c-2.73,0-4.42,1.86-4.42,5.07v11.78c0,3.21,1.69,5.07,4.42,5.07s4.38-1.86,4.38-5.07v-11.78c0-3.21-1.69-5.07-4.38-5.07Z"/><path class="cls-2" d="M216.13,179.67c-4.98,0-9.4-2.95-9.4-9.14v-12.35c0-6.37,4.42-9.18,9.4-9.18s9.4,2.82,9.4,9.14v12.39c0,6.19-4.42,9.14-9.4,9.14ZM216.13,153.38c-2.73,0-4.42,1.86-4.42,5.07v11.78c0,3.21,1.69,5.07,4.42,5.07s4.38-1.86,4.38-5.07v-11.78c0-3.21-1.69-5.07-4.38-5.07Z"/><path class="cls-2" d="M23.47,153.29c0,5.94.78,10.53,2.33,13.77,1.55,3.24,4.03,5.46,7.42,6.66v4.89c-3.02-.87-5.56-2.37-7.62-4.49-1.86-1.92-3.34-4.31-4.44-7.2-1.23,3.02-3.01,5.51-5.32,7.5-2.31,1.98-5.12,3.38-8.42,4.2v-4.89c3.45-.99,6.18-2.74,8.19-5.25,2.01-2.51,3.23-5.82,3.67-9.91l-.06-.85h-8.71v-4.41h12.94Z"/><path class="cls-2" d="M47.53,152.89h5.55c.85,1.4,2.18,2.58,3.98,3.53s3.85,1.56,6.14,1.82v4.47c-.49-.08-.86-.14-1.11-.19-.25-.05-.57-.12-.97-.21v2.48h-21.56v-2.5l-2.16.43v-4.47c2.31-.28,4.37-.9,6.16-1.83,1.79-.94,3.12-2.11,3.97-3.51ZM63.2,167.11v3.78h-16.53l-1.51,3.21c2.2,0,4.15-.07,5.85-.2,1.7-.13,3.27-.35,4.71-.65l-1.08-2.33h4.98l3.58,7.68h-5.01l-.77-1.65c-1.76.59-3.74.96-5.92,1.12-2.18.16-5.57.24-10.16.24h-3.95v-4.18h2.39l1.51-3.24h-3.9v-3.78h25.8ZM43.63,161.02h13.31c-2.75-1.12-4.96-2.64-6.63-4.55-.83.93-1.82,1.78-2.96,2.56-1.14.78-2.38,1.44-3.73,1.99Z"/><path class="cls-2" d="M74.61,153.6v-.71h4.3v.71h2.79v-.71h4.29v.71h6.51v5.52h-6.51v1.05h7.2v2.93c0,.55-.2.96-.6,1.22-.4.27-1.08.4-2.05.4h-3.33v-1.48h1.14c.34,0,.51-.14.51-.43v-.43h-2.87v2.42h-4.29v-2.42h-3.47c-.55,1.29-1.61,2.3-3.19,3.04h17.5v11.49h-1.14l1.79,1.68h-5.21l-1.73-1.68h-11.32c-.53.66-1.1,1.22-1.71,1.68h-5.83c.81-.51,1.54-1.07,2.19-1.68h-1.48v-10.13l-.71.03v-3.3c1.63,0,2.9-.08,3.81-.26s1.64-.46,2.19-.88h-5.32v-5.49h6.54v-.97h-7.22v-2.33h7.22ZM72.22,160.17h2.28l.11-1.05h-2.39v1.05ZM72.73,168.56h15.16v-1.02h-15.16v1.02ZM72.73,171.66h15.16v-.97h-15.16v.97ZM72.73,174.82h15.16v-1h-15.16v1ZM81.69,159.12h-2.79l-.08,1.05h2.87v-1.05ZM78.9,156.9h2.79v-.97h-2.79v.97ZM85.99,156.9h2.42v-.97h-2.42v.97Z"/><path class="cls-2" d="M32.1,308.82v21.34c0,1.06-.37,1.99-1.1,2.79s-1.62,1.19-2.66,1.19h-6.23v-4.15h4.75c.47,0,.71-.24.71-.71v-2.79h-13.94c-.44,1.69-1.14,3.18-2.12,4.47-.98,1.29-2.24,2.35-3.8,3.19v-6.09c1.27-1.08,1.91-3.13,1.91-6.14v-13.09h22.47ZM14.15,315.84h13.43v-3.19h-13.43v3.19ZM14.15,322.16v.51h13.43v-3.04h-13.43v2.53Z"/><path class="cls-2" d="M47.23,308.42h5.55c.85,1.4,2.18,2.58,3.98,3.53s3.85,1.56,6.14,1.82v4.47c-.49-.08-.86-.14-1.11-.19-.25-.05-.57-.12-.97-.21v2.48h-21.56v-2.5l-2.16.43v-4.47c2.31-.28,4.37-.9,6.16-1.83,1.79-.94,3.12-2.11,3.97-3.51ZM62.91,322.64v3.78h-16.53l-1.51,3.21c2.2,0,4.15-.07,5.85-.2,1.7-.13,3.27-.35,4.71-.65l-1.08-2.33h4.98l3.58,7.68h-5.01l-.77-1.65c-1.76.59-3.74.96-5.92,1.12-2.18.16-5.57.24-10.16.24h-3.95v-4.18h2.39l1.51-3.24h-3.9v-3.78h25.8ZM43.34,316.55h13.31c-2.75-1.12-4.96-2.64-6.63-4.55-.83.93-1.82,1.78-2.96,2.56-1.14.78-2.38,1.44-3.73,1.99Z"/><path class="cls-2" d="M74.31,309.13v-.71h4.3v.71h2.79v-.71h4.29v.71h6.51v5.52h-6.51v1.05h7.2v2.93c0,.55-.2.96-.6,1.22-.4.27-1.08.4-2.05.4h-3.33v-1.48h1.14c.34,0,.51-.14.51-.43v-.43h-2.87v2.42h-4.29v-2.42h-3.47c-.55,1.29-1.61,2.3-3.19,3.04h17.5v11.49h-1.14l1.79,1.68h-5.21l-1.73-1.68h-11.32c-.53.66-1.1,1.22-1.71,1.68h-5.83c.81-.51,1.54-1.07,2.19-1.68h-1.48v-10.13l-.71.03v-3.3c1.63,0,2.9-.08,3.81-.26s1.64-.46,2.19-.88h-5.32v-5.49h6.54v-.97h-7.22v-2.33h7.22ZM71.92,315.7h2.28l.11-1.05h-2.39v1.05ZM72.43,324.09h15.16v-1.02h-15.16v1.02ZM72.43,327.19h15.16v-.97h-15.16v.97ZM72.43,330.35h15.16v-1h-15.16v1ZM81.4,314.65h-2.79l-.08,1.05h2.87v-1.05ZM78.61,312.43h2.79v-.97h-2.79v.97ZM85.69,312.43h2.42v-.97h-2.42v.97Z"/><path class="cls-1" d="M265.71,297.41c-.16.77-.44,1.55-.84,2.32h24.31v4.96h-1.52v5.28h2.48v4.96h-2.48v5.24h1.52v4.96h-34.34v-4.96h1.52v-5.24h-2.48v-4.96h2.48v-2.48c-.4.19-.78.33-1.14.42-.36.09-.81.19-1.34.3v-5.8c1.39-.29,2.61-.95,3.68-1.96.99-.91,1.62-1.92,1.92-3.04h6.24ZM262.47,326.79c-.19,1.12-.49,2.34-.92,3.66-.43,1.32-.84,2.35-1.24,3.1h-6.44c.56-.75,1.1-1.79,1.62-3.12.52-1.33.87-2.54,1.06-3.64h5.92ZM265.03,304.68h-3.36v5.28h3.36v-5.28ZM261.67,320.15h3.36v-5.24h-3.36v5.24ZM270.54,326.79l1.2,6.76h-5.84l-1.16-6.76h5.8ZM273.62,304.68h-3.2v5.28h3.2v-5.28ZM270.42,320.15h3.2v-5.24h-3.2v5.24ZM279.42,326.79l1.56,6.76h-5.92l-1.4-6.76h5.76ZM282.34,304.68h-3.32v5.28h3.32v-5.28ZM279.02,320.15h3.32v-5.24h-3.32v5.24ZM288.33,326.79l1.8,6.76h-5.84l-1.68-6.76h5.72Z"/><path class="cls-1" d="M307.36,297.41v11.83h5.8v5.8h-5.8v1l5.8,4.8v7.36l-5.8-5.6v10.95h-5.72v-8c-.85,1.15-1.73,2.15-2.64,3.02-.91.87-1.96,1.66-3.16,2.38v-7.52c1.28-.85,2.43-2.05,3.46-3.58,1.03-1.53,1.7-3.14,2.02-4.82h-5.48v-5.8h5.8v-11.83h5.72ZM299.72,298.56c.67,3.12,1,6.2,1,9.23h-3.92c0-1.57-.08-3.12-.24-4.64-.16-1.52-.4-3.05-.72-4.6h3.88ZM313.44,298.56l-1.28,9.23h-3.92l1.12-9.23h4.08ZM323.83,320.71v-23.31h6.36v22.31l1.96-.28v6.12l-1.96.32v7.68h-6.36v-6.64l-9.43,1.52v-6.36l9.43-1.36ZM321.99,302.08v6.12l-6.8-3.52v-5.88l6.8,3.28ZM321.99,312.52v6.2l-6.8-3.6v-5.88l6.8,3.28Z"/><path class="cls-2" d="M120.5,279.6l3.28,1.26v2.31l-3.28-1.36v-2.21ZM120.5,284.83h3.28v4.89c.05.35.19.61.41.79.23.18.56.27,1.01.27h8.74v2.03h-9c-.68,0-1.19-.08-1.51-.24-.33-.16-.62-.43-.87-.79l-2.06,1.2v-2.45l1.13-.67v-2.8h-1.13v-2.24ZM124.56,279.8h9.02v1.39l-1.36,1.24h1.36v6.59c0,.43-.12.76-.35.98s-.53.33-.9.33h-1.66v-1.25h.53c.19,0,.28-.1.28-.31v-.4h-1.48v1.96h-1.88v-1.96h-1.47v1.96h-2.1v-7.9h1.75l-.47-.68h2.3l.46.68h1.01l1.13-1.05h-6.17v-1.59ZM126.66,284.73h1.47v-.92h-1.47v.92ZM126.66,287.03h1.47v-.95h-1.47v.95ZM130.01,284.73h1.48v-.92h-1.48v.92ZM130.01,287.03h1.48v-.95h-1.48v.95Z"/><path class="cls-2" d="M139.42,279.59c.11.19.2.38.27.56.07.19.14.4.19.62h1.65v-1.19h2.4v1.19h1.76l.4-1.19h2.47l-.49,1.19h1.3v3.32h-1.16v3.19h-4.37v.68h5.25v3.16c0,.53-.15.95-.44,1.25-.3.3-.73.45-1.29.45h-2.13v-1.91h1.32c.07,0,.14-.03.2-.08.06-.05.1-.12.1-.2v-.8h-2.99v3.16h-2.27v-3.16h-2.96v2.99h-2.25v-4.86h5.22v-.68h-4.37v-3.19h-1.16v-3.32h1.44c-.1-.43-.24-.83-.43-1.19h2.36ZM138.34,283.26h8.76v-.61h-8.76v.61ZM139.45,285.72h6.54v-.9h-6.54v.9Z"/><path class="cls-2" d="M37.64,561.03h-4.15c.45,1.18.95,2.31,1.51,3.41.55,1.09,1.17,2.15,1.86,3.19h-4.3c-.55-.93-1.09-1.95-1.62-3.06-.52-1.11-1-2.29-1.42-3.54h-10.72v-3.65h9.7l-.39-2.29h3.87c.03.28.09.67.19,1.17.09.5.16.88.21,1.12h5.29v3.65ZM35.74,574.09h-8.71c-2.66,0-4.59-.43-5.79-1.28-1.19-.85-1.79-2.17-1.79-3.94,0-.64.15-1.36.46-2.16.31-.8.7-1.48,1.18-2.03h4.02c-.55.48-.99,1.05-1.3,1.7s-.47,1.29-.47,1.9c0,.83.35,1.43,1.04,1.81.69.38,1.9.57,3.64.57l7.73-.02v3.45Z"/><path class="cls-2" d="M59.46,567.41c0,2.3-.77,3.99-2.31,5.07-1.78,1.22-4.81,1.83-9.09,1.83h-4.78v-3.58h4.54c3,0,5.07-.28,6.22-.85,1.03-.51,1.55-1.37,1.55-2.58,0-1.6-1.17-2.4-3.49-2.4-1.81,0-3.34.24-4.61.73-1.27.49-2.4,1.28-3.39,2.37h-3.49v-12.73h3.58v8.58c1.14-.82,2.29-1.42,3.47-1.81,1.35-.47,2.85-.7,4.48-.7,2.42,0,4.24.5,5.47,1.5,1.23,1,1.85,2.52,1.85,4.58ZM58.3,558.76h-7.71c-.82,0-1.63-.04-2.44-.11s-1.46-.17-1.96-.28v-3.47c.47.13,1.11.23,1.93.31.82.07,1.66.11,2.5.11h7.67v3.45Z"/><path class="cls-2" d="M66.95,554.98c-.29,1.83-.51,3.56-.64,5.18-.14,1.62-.21,3.37-.21,5.26,0,1.22.06,2.6.17,4.12.12,1.52.26,3.05.44,4.6h-3.58c-.15-1.28-.28-2.77-.4-4.47-.12-1.7-.19-3.1-.19-4.23,0-3.74.28-7.23.83-10.46h3.58ZM80.98,573.7h-6.81c-2.07,0-3.6-.43-4.61-1.29-.89-.79-1.33-1.91-1.33-3.39,0-.64.09-1.3.28-1.99.19-.68.44-1.31.74-1.88h3.78c-.29.51-.52.97-.7,1.38-.2.55-.31,1.06-.31,1.53,0,1.37.98,2.05,2.93,2.05h6.03v3.58ZM80.91,558.72l-1.57,2.29h-3.87l1.38-1.86h-7.64v-3.49h11.71v3.06Z"/><path class="cls-2" d="M102.76,555.11v16.38c0,.82-.28,1.53-.84,2.14-.56.61-1.24.92-2.04.92h-4.78v-3.19h3.65c.36,0,.55-.18.55-.55v-2.14h-10.7c-.34,1.3-.88,2.44-1.63,3.43-.75.99-1.72,1.81-2.92,2.45v-4.67c.98-.83,1.46-2.4,1.46-4.72v-10.05h17.25ZM88.97,560.51h10.31v-2.45h-10.31v2.45ZM88.97,565.35v.39h10.31v-2.34h-10.31v1.94Z"/><path class="cls-2" d="M114.43,554.81h4.26c.66,1.08,1.67,1.98,3.06,2.71,1.38.73,2.96,1.19,4.72,1.4v3.43c-.38-.06-.66-.11-.85-.14-.19-.04-.44-.09-.74-.16v1.9h-16.56v-1.92l-1.66.33v-3.43c1.78-.22,3.35-.69,4.73-1.41,1.38-.72,2.39-1.62,3.05-2.7ZM126.47,565.73v2.9h-12.69l-1.16,2.47c1.69,0,3.19-.05,4.49-.15s2.51-.27,3.62-.5l-.83-1.79h3.82l2.75,5.9h-3.84l-.59-1.27c-1.35.45-2.87.74-4.54.86-1.67.12-4.27.19-7.8.19h-3.04v-3.21h1.83l1.16-2.49h-2.99v-2.9h19.81ZM111.44,561.05h10.22c-2.11-.86-3.81-2.02-5.09-3.49-.64.71-1.4,1.37-2.27,1.97-.87.6-1.83,1.11-2.86,1.53Z"/><path class="cls-2" d="M135.27,555.35v-.55h3.3v.55h2.14v-.55h3.3v.55h5v4.24h-5v.81h5.53v2.25c0,.42-.15.74-.46.94-.31.2-.83.31-1.57.31h-2.56v-1.14h.87c.26,0,.39-.11.39-.33v-.33h-2.21v1.86h-3.3v-1.86h-2.66c-.42.99-1.24,1.77-2.45,2.34h13.43v8.82h-.87l1.38,1.29h-4l-1.33-1.29h-8.69c-.41.51-.84.94-1.31,1.29h-4.48c.63-.39,1.19-.82,1.68-1.29h-1.14v-7.78l-.55.02v-2.53c1.25,0,2.23-.07,2.93-.2.7-.13,1.26-.36,1.68-.68h-4.08v-4.22h5.02v-.74h-5.55v-1.79h5.55ZM133.44,560.4h1.75l.09-.81h-1.83v.81ZM133.83,566.84h11.64v-.79h-11.64v.79ZM133.83,569.22h11.64v-.74h-11.64v.74ZM133.83,571.65h11.64v-.76h-11.64v.76ZM140.71,559.59h-2.14l-.07.81h2.21v-.81ZM138.57,557.89h2.14v-.74h-2.14v.74ZM144.01,557.89h1.86v-.74h-1.86v.74Z"/><rect class="cls-3" x="0" y="114.22" width="100.63" height="25.71" rx="12.86" ry="12.86"/><path class="cls-2" d="M28.58,121.71l-.04,1.68h.48v-1.86h1.88v1.86h.86v1.61h2.39v-1.07h-2.03v-1.75h2.03v-.65h2.05v.65h2.07v1.75h-2.07v1.07h2.38v1.75h-.65v1.01h.65v1.74h-.65v2.18c0,.59-.16,1.01-.49,1.27-.28.21-.69.31-1.23.31h-1.56v-1.96h.96c.21,0,.31-.1.31-.3v-1.51h-4.16v.13c-.14.07-.29.14-.45.2s-.3.11-.41.15v3.29h-1.88v-2.74c-.57.12-1.02.21-1.33.27-.32.06-.61.09-.89.09v-2.07c.32,0,.66-.03,1.02-.08.36-.06.76-.14,1.2-.25v-3.13h-.61c0,.25-.01.46-.03.62-.02.16-.09.47-.21.91h-1.48c.15-.69.25-1.42.32-2.18s.1-1.76.1-3.01h1.48ZM30.9,127.9c.32-.11.61-.24.86-.39v.25h4.16v-1.01h-4.16v-1.39h-.86v2.55ZM33.83,130.08l.49,2.56h-1.78l-.48-2.56h1.77Z"/><path class="cls-2" d="M43.94,122.49v-.96h1.92v.96h1.06v-.96h1.91v.96h3.03v7.29h.42v1.78h-1.18l1.18,1.71h-2.35l-1.12-1.71h-4.66c-.34.68-.71,1.25-1.12,1.71h-2.53c.5-.5.95-1.07,1.35-1.71h-1.35v-1.78h.43v-7.29h3.01ZM42.87,126.11h1.1v-1.83h-1.1v1.83ZM42.87,129.77h1.1v-1.91h-1.1v1.91ZM45.86,126.11h1.06v-1.83h-1.06v1.83ZM45.86,129.77h1.06v-1.91h-1.06v1.91ZM48.8,126.11h1.1v-1.83h-1.1v1.83ZM48.8,129.77h1.1v-1.91h-1.1v1.91Z"/><path class="cls-2" d="M63.21,128.01c0,1.5-.32,2.61-.96,3.34-.67.75-1.72,1.13-3.16,1.13h-.86c-1.43,0-2.47-.37-3.13-1.12-.66-.74-.99-1.86-.99-3.35v-1.9c0-1.5.35-2.62,1.05-3.36.7-.74,1.72-1.12,3.07-1.12h.86c1.34,0,2.36.37,3.06,1.12s1.05,1.87,1.05,3.36v1.9ZM60.92,128.01v-1.9c0-.81-.17-1.39-.51-1.74-.29-.3-.74-.45-1.32-.45h-.86c-.6,0-1.03.15-1.31.44-.34.35-.51.93-.51,1.75v1.9c0,.76.15,1.32.45,1.67.3.35.76.53,1.36.53h.86c.6,0,1.05-.18,1.36-.53.31-.35.47-.91.47-1.67Z"/><path class="cls-2" d="M71.47,132.38h-2.29v-8.29l-4.08.9v-2.31l4.21-.96h2.16v10.66Z"/><path class="cls-2" d="M242.55,481.76c-1.45-1.77-2.46-3.51-2.46-5.64,0-3.44,2.75-5.68,6.55-5.68,4.52,0,6.44,2.5,6.44,4.96,0,2.79-2.64,4.7-5.28,6.62l5.57,6.15c.51-1.19.76-2.6.76-4.09h3.91c0,2.53-.65,5.03-1.95,7.09l4.16,4.56h-5.03l-1.66-1.81c-1.77,1.34-4.09,2.13-6.95,2.13-5.5,0-8.32-3.44-8.32-6.98,0-3.33,1.99-5.54,4.27-7.31ZM251.02,491.17l-6.22-6.87c-1.45,1.27-2.46,2.64-2.46,4.34,0,2.32,1.77,3.76,4.38,3.76,1.77,0,3.18-.47,4.3-1.23ZM245.7,479.59c1.88-1.27,3.44-2.46,3.44-3.94,0-.94-.8-1.99-2.46-1.99-1.48,0-2.5.87-2.5,2.46,0,1.23.72,2.42,1.52,3.47Z"/><path class="cls-2" d="M138.2,47.7h5.34c8.01,0,12.34-4.35,12.34-11.78,0-5.72-4.34-10.41-10.9-10.41s-10.34,4.23-10.9,9.72h-11.79c.33-12.7,10.79-21.05,23.13-21.05,13.45,0,23.24,9.5,23.24,21.39,0,8.58-4.89,14.53-10.9,17.62,7,3.2,12.01,9.38,12.01,19.11,0,12.47-8.67,22.88-23.46,22.88-15.57,0-24.35-9.15-25.02-21.62h11.79c.89,5.72,4.78,10.07,12.68,10.07,6.67,0,11.23-5.03,11.23-11.67,0-8.01-4.56-12.81-13.45-12.81h-5.34v-11.44Z"/><path class="cls-2" d="M202.23,95.18c-12.79,0-24.13-7.78-24.13-24.14v-32.61c0-16.82,11.34-24.25,24.13-24.25s24.13,7.44,24.13,24.14v32.72c0,16.36-11.34,24.14-24.13,24.14ZM202.23,25.73c-7,0-11.34,4.92-11.34,13.39v31.12c0,8.47,4.34,13.39,11.34,13.39s11.23-4.92,11.23-13.39v-31.12c0-8.47-4.34-13.39-11.23-13.39Z"/><path class="cls-2" d="M259.92,95.18c-12.79,0-24.13-7.78-24.13-24.14v-32.61c0-16.82,11.34-24.25,24.13-24.25s24.13,7.44,24.13,24.14v32.72c0,16.36-11.34,24.14-24.13,24.14ZM259.92,25.73c-7,0-11.34,4.92-11.34,13.39v31.12c0,8.47,4.34,13.39,11.34,13.39s11.23-4.92,11.23-13.39v-31.12c0-8.47-4.34-13.39-11.23-13.39Z"/><path class="cls-2" d="M16.54,51.1l-.22,3.76h7.88v-4.46h9.18v4.46h17.43v7.36h-17.43v7.61h18.73v7.36h-13.66v8.67c0,1.14.54,1.7,1.62,1.7h5.94c1.15,0,2.23-.14,3.24-.43,1.01-.28,1.96-.76,2.86-1.43v7.71c-.86.53-1.82.95-2.86,1.25-1.04.3-2.09.45-3.13.45h-9.07c-2.52,0-4.35-.55-5.48-1.65-1.13-1.1-1.7-2.89-1.7-5.36v-10.92h-5.51c-.68,5.34-2.74,9.69-6.15,13.03-3.78,3.64-8.8,5.46-15.06,5.46v-8.17c3.89-.5,6.8-1.56,8.74-3.18,1.94-1.62,3.15-4,3.62-7.14H3.16v-7.36h21.05v-7.61h-9.45c-.32.97-.58,1.64-.76,2-.5,1.14-1.06,2.17-1.67,3.11H2.94c1.62-2.47,2.88-5.08,3.78-7.84.9-2.76,1.35-5.55,1.35-8.39h8.47Z"/><path class="cls-2" d="M72.46,50.5l1.3,2.35h15.6l.97-2.35h8.58l-1.03,2.35h7.88v4.76h-20.19v2.2h18.89v4.76h-18.89v2.15h20.19v4.81h-31.31c-.18.37-.32.69-.4.95-.09.27-.28.63-.57,1.1h30.98v21.34h-42.91v-10.37c-1.51.63-3.1,1.12-4.75,1.45v-8.92c4.25-.67,7.2-2.52,8.85-5.56h-8.85v-4.81h20.19v-2.15h-18.89v-4.76h18.89v-2.2h-20.19v-4.76h8.8l-1.35-2.35h8.2ZM69.92,78.6v.8h26.18v-2.1h-25.05l-1.13,1.3ZM69.92,85.21h26.18v-2.1h-26.18v2.1ZM69.92,91.02h26.18v-2.05h-26.18v2.05Z"/><path class="cls-2" d="M332.12,84.07v8.47c-4.49-1.11-8.54-3.08-12.16-5.9-3.62-2.82-6.44-6.24-8.45-10.26-2.17,3.89-5.13,7.24-8.89,10.05-3.76,2.81-7.96,4.85-12.6,6.11v-8.47c5.14-1.6,9.22-4.28,12.25-8.01,3.16-3.92,4.73-8.44,4.73-13.57v-11.81h7.89v11.02c0,5.22,1.58,9.89,4.76,14.01,3.17,4.12,7.33,6.91,12.46,8.36Z"/><path class="cls-3" d="M11.13,22.54h-6.5V0h23.15v6.57H11.63v8.8c1.3-1.27,3.28-2.41,6.56-2.41,7.12,0,11.26,5.36,11.26,15,0,9.1-4.46,14.16-13,14.16-6.93,0-12.38-4.22-13-10.85h7.06c.74,3.01,2.72,4.76,5.82,4.76,3.65,0,5.94-2.35,5.94-7.83s-1.73-8.74-5.94-8.74c-2.54,0-4.15,1.33-5.2,3.07Z"/><path class="cls-3" d="M49.01,25.6v-2.2h3.74v2.2h8.59v3.35h-8.59v2.79h7.48v3.35h-5.54c.62,1.03,1.52,1.98,2.71,2.83,1.19.85,2.5,1.5,3.94,1.93v3.87c-1.63-.36-3.21-1.09-4.74-2.19s-2.81-2.4-3.84-3.9v6.09h-3.74v-6.13c-1.05,1.51-2.33,2.82-3.86,3.93-1.52,1.11-3.11,1.84-4.76,2.2v-3.87c1.45-.43,2.76-1.07,3.94-1.91s2.09-1.79,2.74-2.85h-5.54v-3.35h7.48v-2.79h-8.61v-3.35h8.61Z"/><path class="cls-3" d="M83.33,33.06h-5.22v2.56c1,.25,1.9.52,2.69.79.79.27,1.56.57,2.3.9v4.07c-1.35-.79-3.02-1.57-4.99-2.31-.12,1.39-.77,2.46-1.95,3.2-1.18.74-2.98,1.11-5.41,1.11-2.14,0-3.8-.37-4.99-1.1-1.26-.78-1.89-1.92-1.89-3.42,0-1.36.58-2.41,1.73-3.15s2.83-1.1,5.03-1.1c1.22,0,2.45.09,3.72.27v-1.82h-10.97v-3.12h10.97v-1.96h-10.97v-3.15h10.97v-1.39h3.76v1.39h5.22v3.15h-5.22v1.96h5.22v3.12ZM74.35,37.91c-.6-.13-1.23-.25-1.89-.34s-1.23-.13-1.71-.13c-.99,0-1.71.12-2.17.36-.46.24-.69.59-.69,1.06,0,.49.22.84.65,1.04.43.2,1.17.3,2.22.3,1.32,0,2.25-.19,2.79-.58.54-.39.81-.96.81-1.71Z"/><path class="cls-3" d="M104.76,28.05h-1.04c-3.57,0-6.54.85-8.91,2.56-2.05,1.5-3.07,3.08-3.07,4.74,0,1.2.48,2.15,1.43,2.85,1.17.9,3.02,1.35,5.56,1.35h5.61v3.8h-6.81c-3.51,0-6.16-.79-7.94-2.38-1.48-1.33-2.22-3.04-2.22-5.12,0-1.48.54-2.92,1.63-4.33,1.08-1.4,2.6-2.56,4.54-3.47h-8.38v-3.62h14.91v3.17h4.69v.45ZM103.08,26.77h-2.01v-3.73h2.01v3.73ZM106.15,26.77h-2.01v-3.73h2.01v3.73Z"/><line class="cls-4" x1="29.58" y1="41.58" x2="39.32" y2="22.31"/><rect class="cls-2" x="242.65" y="163.57" width="1.39" height="15.33" transform="translate(294.34 464.39) rotate(-135)"/><rect class="cls-2" x="242.65" y="153.71" width="1.39" height="15.33" transform="translate(529.54 103.41) rotate(135)"/><rect class="cls-2" x="237.21" y="156.41" width="1.39" height="19.8" transform="translate(404.21 -71.6) rotate(90)"/><path class="cls-2" d="M196.46,261c-1.32,1.09-1.79,2.25-1.79,3.65s.47,2.56,1.79,3.65l-.21.25c-1.53-1.12-2.16-2.33-2.16-3.9s.63-2.79,2.16-3.9l.21.25Z"/><path class="cls-2" d="M198.07,262.4q-.25.05-.35-.19c-.07-.17-.15-.3-.26-.43.78-.12,1.44-.31,1.91-.52.14-.06.22-.11.33-.18.18.16.33.32.48.48.05.06.06.08.06.14,0,.06-.06.1-.14.1-.07,0-.16.04-.26.08-.16.06-.33.12-.5.18v1.16c.54,0,.72-.02.77-.02.08,0,.09,0,.09.09v.55c0,.09,0,.1-.09.1-.05,0-.21,0-.65-.02.25.53.53.92.89,1.24-.1.14-.21.37-.28.58-.02.09-.06.13-.09.13s-.07-.05-.13-.13c-.21-.32-.38-.61-.53-1.01,0,1.97.05,3.36.05,3.5,0,.07,0,.08-.09.08h-.63c-.09,0-.1,0-.1-.08,0-.14.05-1.44.06-3.16-.21.61-.5,1.14-.81,1.6-.06.08-.1.12-.14.12-.03,0-.06-.04-.1-.13-.09-.22-.21-.44-.32-.57.46-.53.94-1.22,1.24-2.18h-.19c-.58,0-.77.02-.82.02-.07,0-.08,0-.08-.1v-.55c0-.08,0-.09.08-.09.06,0,.24.02.82.02h.28v-.93l-.5.12ZM202.51,262.55c.17-.37.3-.7.41-1.04.03-.13.07-.29.09-.5.28.06.6.13.79.2.06.02.1.06.1.11,0,.06-.02.09-.07.14-.06.06-.1.14-.14.25-.11.23-.22.5-.4.85.57,0,.79-.02.84-.02.08,0,.09,0,.09.1,0,.05-.02.23-.02.69v.97c0,.45.02.65.02.69,0,.08,0,.09-.09.09-.05,0-.29-.02-.92-.02v2.09c0,.14.02.22.08.26.04.03.14.06.27.06.19,0,.27-.03.33-.1.06-.08.09-.27.1-.91.14.1.35.2.49.23q.21.06.19.27c-.03.66-.14.94-.3,1.07-.18.14-.51.19-.89.19-.42,0-.67-.04-.8-.13-.14-.1-.23-.26-.23-.64v-2.4h-.49c-.04,1.74-.51,2.6-1.5,3.18-.1.06-.16.09-.2.09-.05,0-.08-.05-.17-.17-.13-.17-.29-.33-.42-.42,1.05-.45,1.52-1.15,1.54-2.68-.45,0-.62.02-.65.02-.09,0-.1,0-.1-.09,0-.06.02-.25.02-.69v-.97c0-.45-.02-.64-.02-.69,0-.09,0-.1.1-.1.04,0,.29.02.98.02h.98ZM201.24,261.08c.1-.05.11-.05.16.02.21.29.42.68.57,1.04.02.08.02.1-.09.14l-.49.22c-.1.05-.11.05-.14-.04-.13-.36-.3-.72-.53-1.05-.04-.07-.03-.09.07-.14l.45-.2ZM203.42,263.27h-2.19v1.05h2.19v-1.05Z"/><path class="cls-2" d="M207.79,266.53c.17.33.33.53.65.66.28.11.78.16,1.48.16,1.03,0,2.24-.06,3.43-.18-.11.17-.18.38-.22.62q-.04.26-.29.27c-1.01.06-1.96.08-2.79.08s-1.48-.07-1.87-.23c-.37-.15-.58-.38-.78-.71-.25.24-.53.48-.82.7-.08.06-.13.11-.16.16-.04.06-.07.08-.12.08-.03,0-.08-.04-.11-.1-.11-.21-.21-.46-.33-.75.21-.1.32-.15.47-.25.23-.14.46-.33.67-.51v-1.76h-.39c-.43,0-.54.02-.58.02-.09,0-.1,0-.1-.1v-.61c0-.08,0-.09.1-.09.04,0,.15.02.58.02h.51c.42,0,.55-.02.6-.02.08,0,.09,0,.09.09,0,.05-.02.27-.02.76v1.69ZM207.29,262.96c-.06.04-.08.06-.1.06s-.04-.02-.06-.06c-.29-.48-.62-.91-.98-1.24-.06-.06-.05-.08.04-.14l.45-.3c.09-.06.1-.06.17,0,.37.34.71.73,1,1.19.05.07.05.09-.04.15l-.46.34ZM210.12,261.43c.37,0,.62-.02.73-.02.06,0,.08.04.08.09,0,.18,0,.63.1,1.17.23,1.32,1.01,2.59,2.24,3.37-.14.15-.31.39-.42.62-.06.12-.1.18-.14.18-.04,0-.1-.03-.18-.1-.97-.78-1.63-1.83-1.94-3.03-.3,1.21-.89,2.16-1.82,2.97-.09.07-.14.11-.18.11s-.08-.05-.17-.15c-.17-.22-.33-.37-.49-.47,1.28-.89,1.99-2.14,2.18-3.96h-.69c-.49,0-.64.02-.69.02-.09,0-.1,0-.1-.1v-.62c0-.08,0-.09.1-.09.05,0,.19.02.69.02h.71Z"/><path class="cls-2" d="M214.48,260.75c1.53,1.12,2.16,2.33,2.16,3.9s-.63,2.78-2.16,3.9l-.21-.25c1.33-1.09,1.8-2.25,1.8-3.65s-.47-2.56-1.8-3.65l.21-.25Z"/><path class="cls-1" d="M270.37,248.05v-3.36h-7.73v-5.44h4.71l-6.72-17.09h7.17l5.83,16.87,6.44-16.87h7.23l-7.4,17.09h4.71v5.44h-7.73v3.36h7.73v5.44h-7.73v7.34h-6.5v-7.34h-7.73v-5.44h7.73Z"/><path class="cls-1" d="M311.21,261.64c-10.35,0-19.53-6.12-19.53-18.99v-25.65c0-13.23,9.18-19.08,19.53-19.08s19.53,5.85,19.53,18.99v25.74c0,12.87-9.18,18.99-19.53,18.99ZM311.21,207.01c-5.67,0-9.18,3.87-9.18,10.53v24.48c0,6.66,3.51,10.53,9.18,10.53s9.09-3.87,9.09-10.53v-24.48c0-6.66-3.51-10.53-9.09-10.53Z"/><path class="cls-2" d="M114.3,252.36v-1.44h-3.31v-2.33h2.01l-2.88-7.32h3.07l2.49,7.22,2.76-7.22h3.09l-3.17,7.32h2.02v2.33h-3.31v1.44h3.31v2.33h-3.31v3.14h-2.78v-3.14h-3.31v-2.33h3.31Z"/><path class="cls-2" d="M128.91,244.14h-4.55v-16.2h16.2v4.72h-11.31v6.32c.91-.91,2.3-1.73,4.59-1.73,4.98,0,7.88,3.86,7.88,10.79,0,6.54-3.12,10.18-9.1,10.18-4.85,0-8.66-3.03-9.1-7.8h4.94c.52,2.17,1.91,3.42,4.07,3.42,2.56,0,4.16-1.69,4.16-5.63s-1.21-6.28-4.16-6.28c-1.78,0-2.9.95-3.64,2.21Z"/><path class="cls-2" d="M150.8,260.08l-5.11,4.38v-12.61h5.11v8.23Z"/><path class="cls-2" d="M160.26,244.14h-4.55v-16.2h16.2v4.72h-11.31v6.32c.91-.91,2.3-1.73,4.59-1.73,4.98,0,7.88,3.86,7.88,10.79,0,6.54-3.12,10.18-9.1,10.18-4.85,0-8.66-3.03-9.1-7.8h4.94c.52,2.17,1.91,3.42,4.07,3.42,2.56,0,4.16-1.69,4.16-5.63s-1.21-6.28-4.16-6.28c-1.78,0-2.9.95-3.64,2.21Z"/><path class="cls-2" d="M186.11,258.22c-4.98,0-9.4-2.95-9.4-9.14v-12.35c0-6.37,4.42-9.18,9.4-9.18s9.4,2.82,9.4,9.14v12.39c0,6.19-4.42,9.14-9.4,9.14ZM186.11,231.92c-2.73,0-4.42,1.86-4.42,5.07v11.78c0,3.21,1.69,5.07,4.42,5.07s4.38-1.86,4.38-5.07v-11.78c0-3.21-1.69-5.07-4.38-5.07Z"/><path class="cls-2" d="M208.94,258.22c-4.98,0-9.4-2.95-9.4-9.14v-12.35c0-6.37,4.42-9.18,9.4-9.18s9.4,2.82,9.4,9.14v12.39c0,6.19-4.42,9.14-9.4,9.14ZM208.94,231.92c-2.73,0-4.42,1.86-4.42,5.07v11.78c0,3.21,1.69,5.07,4.42,5.07s4.38-1.86,4.38-5.07v-11.78c0-3.21-1.69-5.07-4.38-5.07Z"/><path class="cls-2" d="M14.77,244.48c0,1.25-.45,2.24-1.36,2.97-.91.73-2.08,1.1-3.53,1.1h-.33v-2.43h.29c.81,0,1.4-.13,1.76-.38.36-.25.54-.62.54-1.1v-.22h-5.75v3.65c0,.8.19,1.35.56,1.66.38.31,1.01.47,1.91.47h5.65v2.35h-5.82c-1.52,0-2.68-.36-3.47-1.09-.8-.73-1.19-1.81-1.19-3.26v-3.78h-1.38v-2.36h1.38v-1.56h2.36v1.56h8.39v2.43Z"/><path class="cls-2" d="M29.08,250.43h-4.06c.08.44.15.81.21,1.1.06.29.13.63.22,1.03h-2.44c-.05-.22-.11-.55-.19-.98-.08-.43-.15-.81-.2-1.15h-5.85v-2.36h5.44c-.14-.94-.24-1.62-.31-2.07-.1-.75-.19-1.41-.25-1.97h-4.72v-2.38h4.43c-.03-.3-.05-.57-.07-.83-.02-.25-.03-.45-.03-.58h2.42c0,.15.01.39.04.74.03.34.04.56.04.67h5.14v2.38h-4.9c.08.71.17,1.37.25,1.97.16.92.27,1.61.35,2.07h4.47v2.36Z"/><path class="cls-2" d="M41.07,252.44h-9.97v-1.97h6.42v-4.94h-5.58v-2.03h7.71v6.97h1.43v1.97Z"/><path class="cls-2" d="M44.96,247.76h-2.36v-7.25h2.36v7.25ZM54.19,245.72c0,2.41-.69,4.17-2.06,5.29-1.28,1.03-3.16,1.54-5.65,1.54h-2.32v-2.35h2.38c1.81,0,3.14-.37,3.99-1.12.86-.75,1.29-1.88,1.29-3.4v-5.18h2.38v5.21Z"/><path class="cls-2" d="M68.73,246.9h-2.82v.31c0,1.59-.51,2.87-1.53,3.82-1.12,1.05-2.73,1.57-4.82,1.57h-2.6v-2.36h2.6c1.28,0,2.22-.26,2.83-.78.61-.52.92-1.27.92-2.24v-.31h-6.89v-2.28h12.31v2.28ZM68.46,243.09h-11.78v-2.29h11.78v2.29Z"/><path class="cls-2" d="M80.73,242.87c0,1.09-.25,2.02-.75,2.78s-1.21,1.35-2.14,1.78v5.35h-2.15v-4.69l-4.94.97v-2.14l4.46-.83c1.19-.23,2.04-.59,2.56-1.09.52-.5.78-1.2.78-2.12h2.19Z"/><path class="cls-2" d="M86.15,240.57v-.35h2.1v.35h1.36v-.35h2.1v.35h3.18v2.69h-3.18v.51h3.51v1.43c0,.27-.1.47-.29.6-.19.13-.53.19-1,.19h-1.62v-.72h.56c.17,0,.25-.07.25-.21v-.21h-1.4v1.18h-2.1v-1.18h-1.69c-.27.63-.79,1.12-1.56,1.49h8.54v5.61h-.56l.88.82h-2.54l-.85-.82h-5.53c-.26.32-.54.6-.83.82h-2.85c.4-.25.75-.52,1.07-.82h-.72v-4.94h-.35s0-1.6,0-1.6c.8,0,1.42-.04,1.86-.13.44-.08.8-.23,1.07-.43h-2.6v-2.68h3.19v-.47h-3.53v-1.14h3.53ZM84.98,243.77h1.11l.06-.51h-1.17v.51ZM85.23,247.87h7.4v-.5h-7.4v.5ZM85.23,249.39h7.4v-.47h-7.4v.47ZM85.23,250.93h7.4v-.49h-7.4v.49ZM89.6,243.26h-1.36l-.04.51h1.4v-.51ZM88.24,242.18h1.36v-.47h-1.36v.47ZM91.7,242.18h1.18v-.47h-1.18v.47Z"/><rect class="cls-3" x="0" y="199.76" width="100.63" height="25.71" rx="12.86" ry="12.86"/><path class="cls-2" d="M28.52,207.25l-.04,1.68h.48v-1.86h1.88v1.86h.86v1.61h2.39v-1.07h-2.03v-1.75h2.03v-.65h2.05v.65h2.07v1.75h-2.07v1.07h2.38v1.75h-.65v1.01h.65v1.74h-.65v2.18c0,.59-.16,1.01-.49,1.27-.28.21-.69.31-1.23.31h-1.56v-1.96h.96c.21,0,.31-.1.31-.3v-1.51h-4.16v.13c-.14.07-.29.14-.45.2s-.3.11-.41.15v3.29h-1.88v-2.74c-.57.12-1.02.21-1.33.27-.32.06-.61.09-.89.09v-2.07c.32,0,.66-.03,1.02-.08.36-.06.76-.14,1.2-.25v-3.13h-.61c0,.25-.01.46-.03.62-.02.16-.09.47-.21.91h-1.48c.15-.69.25-1.42.32-2.18s.1-1.76.1-3.01h1.48ZM30.84,213.44c.32-.11.61-.24.86-.39v.25h4.16v-1.01h-4.16v-1.39h-.86v2.55ZM33.77,215.63l.49,2.56h-1.78l-.48-2.56h1.77Z"/><path class="cls-2" d="M43.88,208.03v-.96h1.92v.96h1.06v-.96h1.91v.96h3.03v7.29h.42v1.78h-1.18l1.18,1.71h-2.35l-1.12-1.71h-4.66c-.34.68-.71,1.25-1.12,1.71h-2.53c.5-.5.95-1.07,1.35-1.71h-1.35v-1.78h.43v-7.29h3.01ZM42.81,211.65h1.1v-1.83h-1.1v1.83ZM42.81,215.31h1.1v-1.91h-1.1v1.91ZM45.8,211.65h1.06v-1.83h-1.06v1.83ZM45.8,215.31h1.06v-1.91h-1.06v1.91ZM48.74,211.65h1.1v-1.83h-1.1v1.83ZM48.74,215.31h1.1v-1.91h-1.1v1.91Z"/><path class="cls-2" d="M63.15,213.55c0,1.5-.32,2.61-.96,3.34-.67.75-1.72,1.13-3.16,1.13h-.86c-1.43,0-2.47-.37-3.13-1.12-.66-.74-.99-1.86-.99-3.35v-1.9c0-1.5.35-2.62,1.05-3.36.7-.74,1.72-1.12,3.07-1.12h.86c1.34,0,2.36.37,3.06,1.12s1.05,1.87,1.05,3.36v1.9ZM60.86,213.55v-1.9c0-.81-.17-1.39-.51-1.74-.29-.3-.74-.45-1.32-.45h-.86c-.6,0-1.03.15-1.31.44-.34.35-.51.93-.51,1.75v1.9c0,.76.15,1.32.45,1.67.3.35.76.53,1.36.53h.86c.6,0,1.05-.18,1.36-.53.31-.35.47-.91.47-1.67Z"/><path class="cls-2" d="M74.04,210.82c0,.83-.25,1.48-.74,1.95-.42.4-1.13.75-2.16,1.05-1.08.35-1.9.67-2.47.95-.56.28-.95.57-1.16.88h6.49v2.27h-9v-1.29c0-1.43.56-2.51,1.69-3.25.44-.29,1.48-.71,3.12-1.26,1.13-.38,1.7-.84,1.7-1.39v-.18c0-.29-.1-.53-.29-.7-.23-.21-.57-.31-1.04-.31h-1.12c-.51,0-.92.15-1.23.45-.31.3-.46.67-.46,1.11v.44h-2.4v-.68c0-1.11.32-1.99.95-2.64.64-.65,1.54-.97,2.72-.97h1.64c1.25,0,2.19.29,2.83.87.61.54.91,1.27.91,2.19v.49Z"/><rect class="cls-2" x="242.65" y="242.11" width="1.39" height="15.33" transform="translate(238.8 598.47) rotate(-135)"/><rect class="cls-2" x="242.65" y="232.25" width="1.39" height="15.33" transform="translate(585.07 237.49) rotate(135)"/><rect class="cls-2" x="237.21" y="234.95" width="1.39" height="19.8" transform="translate(482.75 6.94) rotate(90)"/><path class="cls-2" d="M187.93,333.06c-1.32,1.09-1.8,2.25-1.8,3.65s.47,2.56,1.8,3.65l-.21.25c-1.53-1.12-2.16-2.33-2.16-3.9s.63-2.79,2.16-3.9l.21.25Z"/><path class="cls-2" d="M189.54,334.46q-.25.05-.35-.19c-.07-.17-.15-.3-.26-.43.78-.12,1.44-.31,1.91-.52.14-.06.22-.11.34-.18.18.16.33.32.48.48.05.06.06.08.06.14,0,.06-.06.1-.13.1-.07,0-.16.04-.26.08-.16.06-.33.12-.5.18v1.16c.53,0,.72-.02.77-.02.08,0,.09,0,.09.09v.55c0,.09,0,.1-.09.1-.05,0-.21,0-.65-.02.26.53.53.92.89,1.24-.1.14-.21.37-.28.58-.02.09-.06.13-.09.13s-.07-.05-.13-.13c-.22-.32-.38-.61-.54-1.01,0,1.97.05,3.36.05,3.5,0,.07,0,.08-.09.08h-.63c-.09,0-.1,0-.1-.08,0-.14.05-1.44.06-3.16-.21.61-.5,1.14-.81,1.6-.06.08-.1.12-.14.12-.03,0-.06-.04-.1-.13-.09-.22-.21-.44-.32-.57.46-.53.94-1.22,1.24-2.18h-.19c-.58,0-.77.02-.82.02-.07,0-.08,0-.08-.1v-.55c0-.08,0-.09.08-.09.06,0,.24.02.82.02h.28v-.93l-.5.12ZM193.99,334.61c.17-.37.29-.7.41-1.04.03-.13.07-.29.09-.5.28.06.6.13.79.2.06.02.1.06.1.11,0,.06-.02.09-.07.14-.06.06-.1.14-.14.25-.11.23-.22.5-.4.85.57,0,.79-.02.84-.02.08,0,.09,0,.09.1,0,.05-.02.23-.02.69v.97c0,.45.02.65.02.69,0,.08,0,.09-.09.09-.05,0-.29-.02-.92-.02v2.09c0,.14.02.22.08.26.04.03.14.06.27.06.19,0,.27-.03.33-.1.06-.08.09-.27.1-.91.14.1.35.2.49.23q.21.06.19.27c-.03.66-.14.94-.3,1.07-.18.14-.51.19-.89.19-.42,0-.67-.04-.8-.13-.14-.1-.23-.26-.23-.64v-2.4h-.49c-.04,1.74-.51,2.6-1.5,3.18-.1.06-.16.09-.2.09-.05,0-.08-.05-.17-.17-.13-.17-.29-.33-.42-.42,1.05-.45,1.52-1.15,1.54-2.68-.45,0-.62.02-.65.02-.09,0-.1,0-.1-.09,0-.06.02-.25.02-.69v-.97c0-.45-.02-.64-.02-.69,0-.09,0-.1.1-.1.04,0,.29.02.98.02h.98ZM192.72,333.14c.1-.05.11-.05.16.02.21.29.42.68.57,1.04.02.08.02.1-.09.14l-.49.22c-.1.05-.11.05-.14-.04-.13-.36-.3-.72-.53-1.05-.04-.07-.03-.09.07-.14l.45-.2ZM194.9,335.33h-2.19v1.05h2.19v-1.05Z"/><path class="cls-2" d="M199.26,338.6c.17.33.33.53.65.66.28.11.78.16,1.48.16,1.03,0,2.24-.06,3.43-.18-.11.17-.18.38-.21.62q-.04.26-.29.27c-1.01.06-1.96.08-2.79.08s-1.48-.07-1.87-.23c-.37-.15-.58-.38-.78-.71-.25.24-.53.48-.82.7-.08.06-.13.11-.16.16-.04.06-.07.08-.12.08-.03,0-.08-.04-.11-.1-.11-.21-.22-.46-.33-.75.21-.1.32-.15.47-.25.23-.14.46-.33.67-.51v-1.76h-.39c-.43,0-.54.02-.58.02-.09,0-.1,0-.1-.1v-.61c0-.08,0-.09.1-.09.04,0,.15.02.58.02h.51c.42,0,.55-.02.6-.02.08,0,.09,0,.09.09,0,.05-.02.27-.02.76v1.69ZM198.77,335.02c-.06.04-.08.06-.1.06s-.04-.02-.06-.06c-.29-.48-.62-.91-.98-1.24-.06-.06-.05-.08.04-.14l.45-.3c.09-.06.1-.06.17,0,.37.34.71.73,1,1.19.05.07.05.09-.04.15l-.46.34ZM201.59,333.49c.37,0,.62-.02.73-.02.06,0,.08.04.08.09,0,.18,0,.63.1,1.17.23,1.32,1.01,2.59,2.24,3.37-.14.15-.31.39-.42.62-.06.12-.1.18-.14.18-.04,0-.1-.03-.17-.1-.97-.78-1.63-1.83-1.94-3.03-.3,1.21-.89,2.16-1.82,2.97-.09.07-.14.11-.18.11s-.08-.05-.17-.15c-.17-.22-.34-.37-.5-.47,1.28-.89,2-2.14,2.18-3.96h-.69c-.5,0-.64.02-.69.02-.09,0-.1,0-.1-.1v-.62c0-.08,0-.09.1-.09.05,0,.19.02.69.02h.71Z"/><path class="cls-2" d="M205.96,332.81c1.53,1.12,2.16,2.33,2.16,3.9s-.63,2.78-2.16,3.9l-.21-.25c1.32-1.09,1.79-2.25,1.79-3.65s-.47-2.56-1.79-3.65l.21-.25Z"/><path class="cls-2" d="M116.11,324.42v-1.44h-3.31v-2.33h2.01l-2.88-7.32h3.07l2.49,7.22,2.76-7.22h3.09l-3.17,7.32h2.02v2.33h-3.31v1.44h3.31v2.33h-3.31v3.14h-2.78v-3.14h-3.31v-2.33h3.31Z"/><path class="cls-2" d="M123.94,309.27v-9.27h17.59v3.86l-8.97,26.04h-5.24l9.01-25.52h-8.06v4.9h-4.33Z"/><path class="cls-2" d="M147.5,332.14l-5.11,4.38v-12.61h5.11v8.23Z"/><path class="cls-2" d="M160.92,329.89h-5.03v-24.48l-4.29,2.95v-5.07l4.59-3.29h4.72v29.89Z"/><path class="cls-2" d="M173.13,316.2h-4.55v-16.2h16.2v4.72h-11.31v6.32c.91-.91,2.3-1.73,4.59-1.73,4.98,0,7.88,3.86,7.88,10.79,0,6.54-3.12,10.18-9.1,10.18-4.85,0-8.66-3.03-9.1-7.8h4.94c.52,2.17,1.91,3.42,4.07,3.42,2.56,0,4.16-1.69,4.16-5.63s-1.21-6.28-4.16-6.28c-1.78,0-2.9.95-3.64,2.21Z"/><path class="cls-2" d="M198.99,330.28c-4.98,0-9.4-2.95-9.4-9.14v-12.35c0-6.37,4.42-9.18,9.4-9.18s9.4,2.82,9.4,9.14v12.39c0,6.19-4.42,9.14-9.4,9.14ZM198.99,303.98c-2.73,0-4.42,1.86-4.42,5.07v11.78c0,3.21,1.69,5.07,4.42,5.07s4.38-1.86,4.38-5.07v-11.78c0-3.21-1.69-5.07-4.38-5.07Z"/><rect class="cls-3" x="0" y="271.82" width="100.63" height="25.71" rx="12.86" ry="12.86"/><path class="cls-2" d="M28.48,279.31l-.04,1.68h.48v-1.86h1.88v1.86h.86v1.61h2.39v-1.07h-2.03v-1.75h2.03v-.65h2.05v.65h2.07v1.75h-2.07v1.07h2.38v1.75h-.65v1.01h.65v1.74h-.65v2.18c0,.59-.16,1.01-.49,1.27-.28.21-.69.31-1.23.31h-1.56v-1.96h.96c.21,0,.31-.1.31-.3v-1.51h-4.16v.13c-.14.07-.29.14-.45.2s-.3.11-.41.15v3.29h-1.88v-2.74c-.57.12-1.02.21-1.33.27-.32.06-.61.09-.89.09v-2.07c.32,0,.66-.03,1.02-.08.36-.06.76-.14,1.2-.25v-3.13h-.61c0,.25-.01.46-.03.62-.02.16-.09.47-.21.91h-1.48c.15-.69.25-1.42.32-2.18s.1-1.76.1-3.01h1.48ZM30.81,285.5c.32-.11.61-.24.86-.39v.25h4.16v-1.01h-4.16v-1.39h-.86v2.55ZM33.74,287.69l.49,2.56h-1.78l-.48-2.56h1.77Z"/><path class="cls-2" d="M43.85,280.09v-.96h1.92v.96h1.06v-.96h1.91v.96h3.03v7.29h.42v1.78h-1.18l1.18,1.71h-2.35l-1.12-1.71h-4.66c-.34.68-.71,1.25-1.12,1.71h-2.53c.5-.5.95-1.07,1.35-1.71h-1.35v-1.78h.43v-7.29h3.01ZM42.78,283.71h1.1v-1.83h-1.1v1.83ZM42.78,287.38h1.1v-1.91h-1.1v1.91ZM45.77,283.71h1.06v-1.83h-1.06v1.83ZM45.77,287.38h1.06v-1.91h-1.06v1.91ZM48.7,283.71h1.1v-1.83h-1.1v1.83ZM48.7,287.38h1.1v-1.91h-1.1v1.91Z"/><path class="cls-2" d="M63.11,285.61c0,1.5-.32,2.61-.96,3.34-.67.75-1.72,1.13-3.16,1.13h-.86c-1.43,0-2.47-.37-3.13-1.12-.66-.74-.99-1.86-.99-3.35v-1.9c0-1.5.35-2.62,1.05-3.36.7-.74,1.72-1.12,3.07-1.12h.86c1.34,0,2.36.37,3.06,1.12s1.05,1.87,1.05,3.36v1.9ZM60.83,285.61v-1.9c0-.81-.17-1.39-.51-1.74-.29-.3-.74-.45-1.32-.45h-.86c-.6,0-1.03.15-1.31.44-.34.35-.51.93-.51,1.75v1.9c0,.76.15,1.32.45,1.67.3.35.76.53,1.36.53h.86c.6,0,1.05-.18,1.36-.53.31-.35.47-.91.47-1.67Z"/><path class="cls-2" d="M74.2,287.19c0,.99-.33,1.71-.99,2.18-.66.47-1.64.7-2.95.7h-1.86c-1.16,0-2.04-.3-2.64-.9-.6-.6-.9-1.41-.9-2.42v-.6h2.3v.42c0,.4.13.7.4.92.27.21.68.32,1.25.32h1.19c.52,0,.9-.09,1.16-.27.25-.18.38-.41.38-.69v-.34c0-.3-.11-.53-.32-.69-.27-.2-.69-.3-1.26-.3h-1.61v-1.87h1.6c.52,0,.9-.08,1.14-.24s.36-.38.36-.66v-.31c0-.62-.47-.94-1.4-.94h-1.3c-.52,0-.9.12-1.15.34-.25.23-.37.55-.37.95v.34h-2.31v-.47c0-1,.32-1.83.97-2.47s1.52-.97,2.63-.97h1.78c1.16,0,2.08.25,2.75.76.67.51,1.01,1.24,1.01,2.2v.42c0,.91-.42,1.58-1.26,2,.48.23.83.53,1.07.88.23.35.35.76.35,1.21v.49Z"/><path class="cls-2" d="M276.1,288.04c0,.92-.28,1.64-.84,2.16-.61.55-1.48.83-2.61.83h-2.21c-1.22,0-2.15-.29-2.78-.86-.6-.54-.9-1.3-.9-2.3v-3.99c0-1.26.3-2.18.92-2.78.61-.6,1.54-.9,2.79-.9h2.2c1.17,0,2.03.29,2.6.86.51.52.77,1.26.77,2.23v.32h-2.36v-.1c0-.35-.11-.61-.34-.78-.23-.16-.61-.25-1.14-.25h-1.42c-.57,0-.99.14-1.25.41s-.39.66-.39,1.15v.77c.51-.28,1.12-.42,1.83-.42h1.88c1.15,0,1.99.23,2.52.69.49.43.74,1.11.74,2.04v.91ZM273.82,287.67v-.34c0-.36-.11-.63-.32-.79-.22-.16-.58-.25-1.08-.25h-1.92c-.43,0-.77.09-1.01.26-.24.17-.36.45-.36.82v.3c0,.73.45,1.09,1.35,1.09h1.91c.52,0,.89-.1,1.1-.29.22-.19.32-.46.32-.81Z"/><path class="cls-2" d="M289.03,280.26v9.74c0,.49-.17.91-.5,1.27-.33.36-.74.55-1.21.55h-2.84v-1.9h2.17c.22,0,.32-.11.32-.32v-1.27h-6.36c-.2.77-.52,1.45-.97,2.04-.45.59-1.02,1.07-1.73,1.45v-2.78c.58-.49.87-1.43.87-2.81v-5.97h10.26ZM280.84,283.47h6.13v-1.45h-6.13v1.45ZM280.84,286.35v.23h6.13v-1.39h-6.13v1.16Z"/><path class="cls-2" d="M296.49,280.09c-.17.83-.53,1.63-1.06,2.39-.53.76-1.18,1.4-1.93,1.92h7.44c-.74-.51-1.38-1.15-1.92-1.93-.55-.77-.9-1.57-1.07-2.38h2.27c.15.7.48,1.33,1.01,1.9s1.15.94,1.87,1.14v2.2c-.28-.06-.58-.15-.92-.26v4.21c0,.76-.2,1.38-.61,1.84-.41.47-.97.7-1.68.7h-2.47v-2.04h2.12c.18,0,.33-.07.46-.2.12-.13.18-.31.18-.51v-2.74h-3.44c-.26,1.45-.82,2.67-1.67,3.66-.94,1.06-2.08,1.68-3.43,1.83v-2.05c.85-.22,1.53-.63,2.03-1.22s.83-1.33.98-2.22h-2.54v-1.21c-.19.06-.35.11-.47.14-.04,0-.15.03-.31.06v-2.2c.71-.2,1.33-.58,1.86-1.14s.87-1.19,1.02-1.9h2.27Z"/><path class="cls-2" d="M307.73,280.15c-.17.97-.29,1.98-.38,3.04-.09,1.06-.14,2.11-.14,3.17,0,.76.03,1.6.1,2.5s.16,1.79.27,2.67h-2.13c-.09-.75-.17-1.63-.24-2.64-.07-1.01-.11-1.84-.11-2.5,0-1.15.04-2.23.12-3.24.08-1.01.2-2.01.36-2.99h2.14ZM316.51,289.6c-.16-.12-.35-.25-.54-.38s-.42-.26-.68-.39c-.09.93-.45,1.63-1.08,2.12-.64.49-1.59.73-2.85.73-1.07,0-1.88-.26-2.42-.79-.54-.52-.81-1.26-.81-2.21,0-.82.25-1.49.75-2,.58-.61,1.43-.91,2.56-.91.53,0,1.1.06,1.71.17v-2.42h-4.68v-2.12h4.68v-1.25h2.17v1.25h1.18v2.12h-1.18v3c.3.1.53.19.67.25s.31.15.51.26v2.56ZM313.16,288.05v-.05c-.62-.17-1.2-.26-1.73-.26-.39,0-.7.08-.93.25-.23.16-.35.39-.35.68,0,.62.42.94,1.25.94.67,0,1.14-.15,1.43-.44.23-.23.34-.6.34-1.1Z"/><rect class="cls-2" x="237.3" y="314.17" width="1.39" height="15.33" transform="translate(178.71 717.7) rotate(-135)"/><rect class="cls-2" x="237.3" y="304.31" width="1.39" height="15.33" transform="translate(626.89 364.3) rotate(135)"/><rect class="cls-2" x="231.86" y="307.01" width="1.39" height="19.8" transform="translate(549.46 84.36) rotate(90)"/><path class="cls-2" d="M30.76,387.95v21.34c0,1.06-.37,1.99-1.1,2.79s-1.62,1.19-2.66,1.19h-6.23v-4.15h4.75c.47,0,.71-.24.71-.71v-2.79h-13.94c-.44,1.69-1.14,3.18-2.12,4.47-.98,1.29-2.24,2.35-3.8,3.19v-6.09c1.27-1.08,1.91-3.13,1.91-6.14v-13.09h22.47ZM12.81,394.98h13.43v-3.19h-13.43v3.19ZM12.81,401.29v.51h13.43v-3.04h-13.43v2.53Z"/><path class="cls-2" d="M45.9,387.55h5.55c.85,1.4,2.18,2.58,3.98,3.53s3.85,1.56,6.14,1.82v4.47c-.49-.08-.86-.14-1.11-.19-.25-.05-.57-.12-.97-.21v2.48h-21.56v-2.5l-2.16.43v-4.47c2.31-.28,4.37-.9,6.16-1.83,1.79-.94,3.12-2.11,3.97-3.51ZM61.58,401.78v3.78h-16.53l-1.51,3.21c2.2,0,4.15-.07,5.85-.2,1.7-.13,3.27-.35,4.71-.65l-1.08-2.33h4.98l3.58,7.68h-5.01l-.77-1.65c-1.76.59-3.74.96-5.92,1.12-2.18.16-5.57.24-10.16.24h-3.95v-4.18h2.39l1.51-3.24h-3.9v-3.78h25.8ZM42,395.69h13.31c-2.75-1.12-4.96-2.64-6.63-4.55-.83.93-1.82,1.78-2.96,2.56-1.14.78-2.38,1.44-3.73,1.99Z"/><path class="cls-2" d="M72.98,388.26v-.71h4.3v.71h2.79v-.71h4.29v.71h6.51v5.52h-6.51v1.05h7.2v2.93c0,.55-.2.96-.6,1.22-.4.27-1.08.4-2.05.4h-3.33v-1.48h1.14c.34,0,.51-.14.51-.43v-.43h-2.87v2.42h-4.29v-2.42h-3.47c-.55,1.29-1.61,2.3-3.19,3.04h17.5v11.49h-1.14l1.79,1.68h-5.21l-1.73-1.68h-11.32c-.53.66-1.1,1.22-1.71,1.68h-5.83c.81-.51,1.54-1.07,2.19-1.68h-1.48v-10.13l-.71.03v-3.3c1.63,0,2.9-.08,3.81-.26s1.64-.46,2.19-.88h-5.32v-5.49h6.54v-.97h-7.22v-2.33h7.22ZM70.59,394.84h2.28l.11-1.05h-2.39v1.05ZM71.1,403.23h15.16v-1.02h-15.16v1.02ZM71.1,406.33h15.16v-.97h-15.16v.97ZM71.1,409.49h15.16v-1h-15.16v1ZM80.06,393.78h-2.79l-.08,1.05h2.87v-1.05ZM77.28,391.56h2.79v-.97h-2.79v.97ZM84.36,391.56h2.42v-.97h-2.42v.97Z"/><path class="cls-2" d="M133.66,391.12c-1.21.68-2.17,1.76-2.88,3.23-.56,1.19-.97,2.62-1.21,4.29h-2.2c.16-1.66.53-3.15,1.11-4.49.52-1.2,1.18-2.23,2-3.08h-5.19v-2.2h8.38v2.26Z"/><path class="cls-2" d="M145.19,388.85v8.93c0,.44-.15.83-.46,1.17-.31.33-.68.5-1.11.5h-2.61v-1.74h1.99c.2,0,.3-.1.3-.3v-1.17h-5.83c-.18.71-.48,1.33-.89,1.87-.41.54-.94.98-1.59,1.33v-2.55c.53-.45.8-1.31.8-2.57v-5.48h9.4ZM137.68,391.79h5.62v-1.33h-5.62v1.33ZM137.68,394.43v.21h5.62v-1.27h-5.62v1.06Z"/><path class="cls-2" d="M154.89,395.81c0,1.3-.24,2.2-.73,2.7-.48.5-1.33.74-2.54.74h-1.05v-2.06h1.02c.48,0,.8-.09.97-.28.17-.19.26-.55.26-1.09v-2.51c0-.62-.1-1.02-.29-1.21-.19-.19-.64-.28-1.34-.28h-.45c-.19,1.35-.42,2.69-.7,4.01s-.55,2.38-.82,3.17h-2.05c.28-.73.56-1.76.85-3.08.29-1.32.54-2.69.74-4.1h-1.4v-1.96h1.62l.07-1.11h2.01l-.08,1.11h.5c1.17,0,1.99.17,2.44.5.64.48.96,1.43.96,2.87v2.58ZM158.04,396.73h-1.96c0-1.32-.08-2.72-.25-4.21-.17-1.49-.35-2.59-.54-3.3h1.95c.21.84.39,1.96.55,3.37s.24,2.79.24,4.14Z"/><path class="cls-2" d="M169.97,395.55c0,1.25-.42,2.17-1.26,2.76-.97.67-2.62,1-4.95,1h-2.61v-1.95h2.48c1.63,0,2.77-.15,3.39-.46.56-.28.85-.75.85-1.4,0-.87-.64-1.31-1.9-1.31-.98,0-1.82.13-2.51.4s-1.31.7-1.85,1.29h-1.9v-6.94h1.95v4.68c.62-.44,1.25-.77,1.89-.99.74-.25,1.55-.38,2.44-.38,1.32,0,2.31.27,2.98.82.67.54,1.01,1.38,1.01,2.49ZM169.34,390.83h-4.2c-.44,0-.89-.02-1.33-.06-.44-.04-.8-.09-1.07-.15v-1.89c.25.07.61.13,1.05.17.45.04.9.06,1.36.06h4.18v1.88Z"/><path class="cls-2" d="M134.16,409.95c0,.94-.26,1.64-.79,2.09-.52.45-1.3.67-2.33.67h-2.2c-1.11,0-1.91-.24-2.41-.73-.5-.48-.74-1.29-.74-2.4h2.12c0,.39.11.67.34.85.23.17.6.26,1.11.26h1.26c.54,0,.92-.1,1.15-.29s.35-.48.35-.86v-.38c0-.4-.12-.7-.35-.89s-.62-.29-1.15-.29h-1.36c-.37,0-.65.07-.87.21-.17.1-.3.26-.38.46h-2.14v-5.8h8.09v2.04h-5.99v1.58c.48-.22,1.01-.33,1.6-.33h1.52c1.01,0,1.79.23,2.34.68.55.45.83,1.12.83,2.01v1.12Z"/><path class="cls-2" d="M144.83,407.74h-1.25v1.04c0,1.47-.43,2.6-1.29,3.38-.94.86-2.4,1.29-4.36,1.29h-1.26v-1.67h1.26c1.44,0,2.47-.27,3.09-.82.56-.48.83-1.2.83-2.18v-1.04h-3.7c-.28.4-.61.75-1.01,1.07-.39.31-.84.59-1.33.83v-1.96c.44-.24.8-.57,1.1-1,.34-.51.51-1.08.51-1.7h1.74c-.02.17-.05.35-.09.54s-.08.37-.12.55h5.87v1.68Z"/><path class="cls-2" d="M156.41,402.85v8.93c0,.44-.15.83-.46,1.17-.31.33-.68.5-1.11.5h-2.61v-1.74h1.99c.2,0,.3-.1.3-.3v-1.17h-5.83c-.18.71-.48,1.33-.89,1.87-.41.54-.94.98-1.59,1.33v-2.55c.53-.45.8-1.31.8-2.57v-5.48h9.4ZM148.9,405.79h5.62v-1.33h-5.62v1.33ZM148.9,408.43v.21h5.62v-1.27h-5.62v1.06Z"/><path class="cls-2" d="M163.61,402.85v5.04h-2.99v5.56h-1.83v-10.59h4.82ZM160.62,404.86h1.31v-.67h-1.31v.67ZM160.62,406.58h1.31v-.69h-1.31v.69ZM166.27,408.51v4.57h-4.74v-4.57h4.74ZM163.17,410.33h1.46v-.61h-1.46v.61ZM163.17,411.89h1.46v-.63h-1.46v.63ZM169.01,402.85v9.13c0,.44-.14.8-.41,1.07s-.63.4-1.08.4h-1.18v-1.76h.58c.17,0,.25-.08.25-.25v-3.55h-2.98v-5.04h4.81ZM165.89,404.86h1.29v-.67h-1.29v.67ZM165.89,406.58h1.29v-.69h-1.29v.69Z"/><path class="cls-2" d="M312.33,408.51c-1.32,1.09-1.79,2.25-1.79,3.65s.47,2.56,1.79,3.65l-.21.25c-1.53-1.12-2.16-2.33-2.16-3.9s.63-2.79,2.16-3.9l.21.25Z"/><path class="cls-2" d="M313.94,409.91q-.25.05-.35-.19c-.07-.17-.15-.3-.26-.43.78-.12,1.44-.31,1.91-.52.14-.06.22-.11.33-.18.18.16.33.32.48.48.05.06.06.08.06.14,0,.06-.06.1-.14.1-.07,0-.16.04-.26.08-.16.06-.33.12-.5.18v1.16c.54,0,.72-.02.77-.02.08,0,.09,0,.09.09v.55c0,.09,0,.1-.09.1-.05,0-.21,0-.65-.02.25.53.53.92.89,1.24-.1.14-.21.37-.28.58-.02.09-.06.13-.09.13s-.07-.05-.13-.13c-.21-.32-.38-.61-.53-1.01,0,1.97.05,3.36.05,3.5,0,.07,0,.08-.09.08h-.63c-.09,0-.1,0-.1-.08,0-.14.05-1.44.06-3.16-.21.61-.5,1.14-.81,1.6-.06.08-.1.12-.14.12-.03,0-.06-.04-.1-.13-.09-.22-.21-.44-.32-.57.46-.53.94-1.22,1.24-2.18h-.19c-.58,0-.77.02-.82.02-.07,0-.08,0-.08-.1v-.55c0-.08,0-.09.08-.09.06,0,.24.02.82.02h.28v-.93l-.5.12ZM318.38,410.06c.17-.37.3-.7.41-1.04.03-.13.07-.29.09-.5.28.06.6.13.79.2.06.02.1.06.1.11,0,.06-.02.09-.07.14-.06.06-.1.14-.14.25-.11.23-.22.5-.4.85.57,0,.79-.02.84-.02.08,0,.09,0,.09.1,0,.05-.02.23-.02.69v.97c0,.45.02.65.02.69,0,.08,0,.09-.09.09-.05,0-.29-.02-.92-.02v2.09c0,.14.02.22.08.26.04.03.14.06.27.06.19,0,.27-.03.33-.1.06-.08.09-.27.1-.91.14.1.35.2.49.23q.21.06.19.27c-.03.66-.14.94-.3,1.07-.18.14-.51.19-.89.19-.42,0-.67-.04-.8-.13-.14-.1-.23-.26-.23-.64v-2.4h-.49c-.04,1.74-.51,2.6-1.5,3.18-.1.06-.16.09-.2.09-.05,0-.08-.05-.17-.17-.13-.17-.29-.33-.42-.42,1.05-.45,1.52-1.15,1.54-2.68-.45,0-.62.02-.65.02-.09,0-.1,0-.1-.09,0-.06.02-.25.02-.69v-.97c0-.45-.02-.64-.02-.69,0-.09,0-.1.1-.1.04,0,.29.02.98.02h.98ZM317.11,408.59c.1-.05.11-.05.16.02.21.29.42.68.57,1.04.02.08.02.1-.09.14l-.49.22c-.1.05-.11.05-.14-.04-.13-.36-.3-.72-.53-1.05-.04-.07-.03-.09.07-.14l.45-.2ZM319.29,410.78h-2.19v1.05h2.19v-1.05Z"/><path class="cls-2" d="M323.66,414.04c.17.33.33.53.65.66.28.11.78.16,1.48.16,1.03,0,2.24-.06,3.43-.18-.11.17-.18.38-.22.62q-.04.26-.29.27c-1.01.06-1.96.08-2.79.08s-1.48-.07-1.87-.23c-.37-.15-.58-.38-.78-.71-.25.24-.53.48-.82.7-.08.06-.13.11-.16.16-.04.06-.07.08-.12.08-.03,0-.08-.04-.11-.1-.11-.21-.21-.46-.33-.75.21-.1.32-.15.47-.25.23-.14.46-.33.67-.51v-1.76h-.39c-.43,0-.54.02-.58.02-.09,0-.1,0-.1-.1v-.61c0-.08,0-.09.1-.09.04,0,.15.02.58.02h.51c.42,0,.55-.02.6-.02.08,0,.09,0,.09.09,0,.05-.02.27-.02.76v1.69ZM323.16,410.47c-.06.04-.08.06-.1.06s-.04-.02-.06-.06c-.29-.48-.62-.91-.98-1.24-.06-.06-.05-.08.04-.14l.45-.3c.09-.06.1-.06.17,0,.37.34.71.73,1,1.19.05.07.05.09-.04.15l-.46.34ZM325.99,408.94c.37,0,.62-.02.73-.02.06,0,.08.04.08.09,0,.18,0,.63.1,1.17.23,1.32,1.01,2.59,2.24,3.37-.14.15-.31.39-.42.62-.06.12-.1.18-.14.18-.04,0-.1-.03-.18-.1-.97-.78-1.63-1.83-1.94-3.03-.3,1.21-.89,2.16-1.82,2.97-.09.07-.14.11-.18.11s-.08-.05-.17-.15c-.17-.22-.33-.37-.49-.47,1.28-.89,1.99-2.14,2.18-3.96h-.69c-.49,0-.64.02-.69.02-.09,0-.1,0-.1-.1v-.62c0-.08,0-.09.1-.09.05,0,.19.02.69.02h.71Z"/><path class="cls-2" d="M330.35,408.26c1.53,1.12,2.16,2.33,2.16,3.9s-.63,2.78-2.16,3.9l-.21-.25c1.33-1.09,1.8-2.25,1.8-3.65s-.47-2.56-1.8-3.65l.21-.25Z"/><rect class="cls-3" x="0" y="349.85" width="100.63" height="25.71" rx="12.86" ry="12.86"/><path class="cls-2" d="M28.49,357.33l-.04,1.68h.48v-1.86h1.88v1.86h.86v1.61h2.39v-1.07h-2.03v-1.75h2.03v-.65h2.05v.65h2.07v1.75h-2.07v1.07h2.38v1.75h-.65v1.01h.65v1.74h-.65v2.18c0,.59-.16,1.01-.49,1.27-.28.21-.69.31-1.23.31h-1.56v-1.96h.96c.21,0,.31-.1.31-.3v-1.51h-4.16v.13c-.14.07-.29.14-.45.2s-.3.11-.41.15v3.29h-1.88v-2.74c-.57.12-1.02.21-1.33.27-.32.06-.61.09-.89.09v-2.07c.32,0,.66-.03,1.02-.08.36-.06.76-.14,1.2-.25v-3.13h-.61c0,.25-.01.46-.03.62-.02.16-.09.47-.21.91h-1.48c.15-.69.25-1.42.32-2.18s.1-1.76.1-3.01h1.48ZM30.81,363.53c.32-.11.61-.24.86-.39v.25h4.16v-1.01h-4.16v-1.39h-.86v2.55ZM33.75,365.71l.49,2.56h-1.78l-.48-2.56h1.77Z"/><path class="cls-2" d="M43.85,358.11v-.96h1.92v.96h1.06v-.96h1.91v.96h3.03v7.29h.42v1.78h-1.18l1.18,1.71h-2.35l-1.12-1.71h-4.66c-.34.68-.71,1.25-1.12,1.71h-2.53c.5-.5.95-1.07,1.35-1.71h-1.35v-1.78h.43v-7.29h3.01ZM42.79,361.74h1.1v-1.83h-1.1v1.83ZM42.79,365.4h1.1v-1.91h-1.1v1.91ZM45.77,361.74h1.06v-1.83h-1.06v1.83ZM45.77,365.4h1.06v-1.91h-1.06v1.91ZM48.71,361.74h1.1v-1.83h-1.1v1.83ZM48.71,365.4h1.1v-1.91h-1.1v1.91Z"/><path class="cls-2" d="M63.12,363.63c0,1.5-.32,2.61-.96,3.34-.67.75-1.72,1.13-3.16,1.13h-.86c-1.43,0-2.47-.37-3.13-1.12-.66-.74-.99-1.86-.99-3.35v-1.9c0-1.5.35-2.62,1.05-3.36.7-.74,1.72-1.12,3.07-1.12h.86c1.34,0,2.36.37,3.06,1.12s1.05,1.87,1.05,3.36v1.9ZM60.83,363.63v-1.9c0-.81-.17-1.39-.51-1.74-.29-.3-.74-.45-1.32-.45h-.86c-.6,0-1.03.15-1.31.44-.34.35-.51.93-.51,1.75v1.9c0,.76.15,1.32.45,1.67.3.35.76.53,1.36.53h.86c.6,0,1.05-.18,1.36-.53.31-.35.47-.91.47-1.67Z"/><path class="cls-2" d="M74.17,366.72h-1.05v1.29h-2.29v-1.29h-5.95v-2.42l4.34-6.96h3.9v7.1h1.05v2.27ZM70.83,364.45v-5.38l-3.34,5.38h3.34Z"/><path class="cls-1" d="M122.6,494.55h-17.65v-3.47l10.03-11.77c1.9-2.2,2.96-4.11,2.96-6.14,0-2.67-1.99-4.02-4.15-4.02-2.29,0-4.02,1.4-4.15,4.02h-4.49c0-4.95,3.98-8.21,8.8-8.21s8.85,3.39,8.85,8.3c0,3.68-2.54,6.56-4.4,8.8l-6.9,8.25h11.09v4.23Z"/><path class="cls-2" d="M1.65,473.29h8.95v4.63c0,3.26-.8,6.27-2.39,9.05-1.59,2.78-3.78,4.86-6.56,6.25v-5.62c1.32-.81,2.39-2.02,3.22-3.64.9-1.77,1.36-3.78,1.36-6.04H1.65v-4.63ZM16.75,468.3v20.92c0,3.07-1.4,4.6-4.21,4.6h-4.43v-4.43h2.99c.68,0,1.02-.34,1.02-1.02v-20.08h4.63ZM22.26,472c0,.38,0,.73.01,1.07,0,.34.05.98.13,1.92l4.86-4.63v5.68l-4.12,3.87c.4,1.73.95,3.25,1.65,4.55.71,1.3,1.53,2.3,2.47,2.99v6.07c-3.12-1.77-5.47-4.56-7.03-8.36-1.49-3.61-2.23-8-2.23-13.16h4.26Z"/><path class="cls-2" d="M46.42,468.3v.82h10.59v2.85h-10.59v1.13h9.91v2.88h-9.91v1.16h10.59v2.85h-15.25l-3.05,2.12h4.12l1.98-1.44h5.68l-6.72,5.2h2.57c2.07,0,3.74-.22,5-.65l-.99-3.11h4.35l2.34,7.51h-4.26l-.4-1.16c-1.41.64-3.42.96-6.01.96v4.4h-4.66v-4.4h-10.31v-3.56h6.41l1.67-1.21h-6.52v-2.43l3.25-2.23h-4.8v-2.85h10.59v-1.16h-9.91v-2.88h9.91v-1.13h-10.59v-2.85h10.59v-.82h4.43ZM38.69,490.15c-.3.77-.61,1.45-.93,2.03-.38.73-.75,1.28-1.13,1.64h-5.14c.38-.32.8-.88,1.27-1.67s.79-1.46.96-2h4.97ZM54.73,490.15l2.29,3.67h-4.91l-2.2-3.67h4.83Z"/><path class="cls-2" d="M61.17,473.29h8.95v4.63c0,3.26-.8,6.27-2.39,9.05-1.59,2.78-3.78,4.86-6.56,6.25v-5.62c1.32-.81,2.39-2.02,3.22-3.64.9-1.77,1.36-3.78,1.36-6.04h-4.57v-4.63ZM76.28,468.3v20.92c0,3.07-1.4,4.6-4.21,4.6h-4.43v-4.43h2.99c.68,0,1.02-.34,1.02-1.02v-20.08h4.63ZM81.79,472c0,.38,0,.73.01,1.07,0,.34.05.98.13,1.92l4.86-4.63v5.68l-4.12,3.87c.4,1.73.95,3.25,1.65,4.55.71,1.3,1.53,2.3,2.47,2.99v6.07c-3.12-1.77-5.47-4.56-7.03-8.36-1.49-3.61-2.23-8-2.23-13.16h4.26Z"/><path class="cls-2" d="M265.4,470.2h3.6v1.86c0,1.31-.32,2.52-.96,3.64-.64,1.12-1.52,1.95-2.64,2.51v-2.26c.53-.33.96-.81,1.29-1.46.36-.71.54-1.52.54-2.43h-1.84v-1.86ZM271.47,468.19v8.41c0,1.23-.56,1.85-1.69,1.85h-1.78v-1.78h1.2c.27,0,.41-.14.41-.41v-8.07h1.86ZM273.68,469.68c0,.15,0,.29,0,.43s.02.39.05.77l1.95-1.86v2.28l-1.66,1.55c.16.7.38,1.3.66,1.83.28.52.61.92.99,1.2v2.44c-1.25-.71-2.2-1.83-2.82-3.36-.6-1.45-.9-3.21-.9-5.29h1.71Z"/><path class="cls-2" d="M283.49,468.19v.33h4.25v1.15h-4.25v.45h3.98v1.16h-3.98v.46h4.25v1.15h-6.13l-1.23.85h1.66l.79-.58h2.28l-2.7,2.09h1.03c.83,0,1.5-.09,2.01-.26l-.4-1.25h1.75l.94,3.02h-1.71l-.16-.47c-.57.26-1.37.39-2.42.39v1.77h-1.87v-1.77h-4.14v-1.43h2.58l.67-.49h-2.62v-.98l1.3-.9h-1.93v-1.15h4.25v-.46h-3.98v-1.16h3.98v-.45h-4.25v-1.15h4.25v-.33h1.78ZM280.38,476.97c-.12.31-.25.58-.37.82-.15.29-.3.51-.45.66h-2.06c.15-.13.32-.35.51-.67.19-.32.32-.59.39-.81h2ZM286.82,476.97l.92,1.48h-1.97l-.88-1.48h1.94Z"/><path class="cls-2" d="M289.5,470.2h3.6v1.86c0,1.31-.32,2.52-.96,3.64-.64,1.12-1.52,1.95-2.64,2.51v-2.26c.53-.33.96-.81,1.29-1.46.36-.71.54-1.52.54-2.43h-1.84v-1.86ZM295.57,468.19v8.41c0,1.23-.56,1.85-1.69,1.85h-1.78v-1.78h1.2c.27,0,.41-.14.41-.41v-8.07h1.86ZM297.79,469.68c0,.15,0,.29,0,.43s.02.39.05.77l1.95-1.86v2.28l-1.66,1.55c.16.7.38,1.3.66,1.83.28.52.61.92.99,1.2v2.44c-1.25-.71-2.2-1.83-2.82-3.36-.6-1.45-.9-3.21-.9-5.29h1.71Z"/><path class="cls-2" d="M311.56,471.27h-4.03v7.01h-1.93v-7.01h-4.1v-1.94h4.1v-1.12h1.93v1.12h1.38v1.02h2.64v.92ZM304.37,472.38c0,.73-.08,1.67-.25,2.8-.17,1.13-.39,2.11-.66,2.93h-1.94c.29-.85.53-1.88.73-3.06s.3-2.08.3-2.67h1.83ZM311.59,478.12h-1.83c0-.6-.1-1.48-.31-2.63s-.45-2.19-.73-3.1h1.94c.24.77.46,1.8.66,3.07.17,1.13.26,2.02.26,2.65ZM310.38,469.87h-.99v-1.84h.99v1.84ZM311.88,469.87h-.99v-1.84h.99v1.84Z"/><path class="cls-2" d="M322.51,474.74c-1.32,0-2.59-.11-3.82-.34-1.23-.23-2.24-.53-3.02-.9v4.79h-1.94v-10.06h1.94v3.19c.8.43,1.89.77,3.27,1.02,1.23.22,2.42.33,3.57.33v1.97Z"/><path class="cls-2" d="M326.51,473.73c0,1.11-.06,2.06-.19,2.85-.13.79-.28,1.35-.45,1.69h-1.94c.19-.37.35-.94.47-1.7s.19-1.69.19-2.79v-5.38h1.93v5.32ZM333.81,473.07c0,1.72-.33,3.02-1,3.87s-1.68,1.29-3.05,1.29h-2.02v-9.84h1.94v7.91h.48c.51,0,.92-.27,1.21-.81.33-.6.5-1.5.5-2.69v-2.69h1.94v2.95Z"/><path class="cls-1" d="M277.82,487.92c0,2.6-.74,4.56-2.23,5.87-1.49,1.31-3.69,1.96-6.61,1.96h-2.62v-2.4h2.66c2.26,0,3.9-.45,4.92-1.36.98-.86,1.47-2.19,1.47-3.99v-1.82h-9.55v-2.4h9.06c-.03.08-.06.18-.08.32-.03.14-.04.28-.04.42,0,.62.22,1.13.65,1.53.43.4.93.59,1.48.59.34,0,.64-.08.9-.23v1.5ZM278.46,484.5c0,.42-.15.78-.46,1.08-.31.3-.67.45-1.1.45s-.8-.15-1.1-.44-.45-.65-.45-1.09.15-.8.46-1.11c.31-.31.67-.46,1.1-.46s.8.15,1.1.45c.3.3.45.67.45,1.12ZM277.54,484.5c0-.17-.06-.32-.19-.45s-.28-.19-.45-.19-.32.06-.45.19-.19.28-.19.45c0,.16.06.3.19.43.13.13.28.19.45.19s.32-.06.45-.19c.13-.13.19-.27.19-.43Z"/><path class="cls-1" d="M292.73,486.35c0,3.07-.9,5.44-2.7,7.11-1.68,1.55-3.94,2.33-6.78,2.33h-2.53v-12.24h2.42v9.71h.58c1.86,0,3.36-.53,4.52-1.58,1.34-1.22,2.01-2.98,2.01-5.29v-.28h2.49v.24Z"/><path class="cls-1" d="M307.1,487.58c0,1.28-.46,2.29-1.39,3.04-.92.74-2.12,1.12-3.59,1.12h-.31v-2.49h.28c.85,0,1.45-.13,1.81-.4.36-.26.54-.65.54-1.16v-.18h-5.85v3.72c0,.81.19,1.37.57,1.69.38.32,1.03.47,1.94.47h5.74v2.39h-5.92c-1.55,0-2.72-.37-3.53-1.12s-1.21-1.85-1.21-3.31v-3.84h-1.41v-2.4h1.41v-1.58h2.4v1.58h5.3v.98h3.21v1.5ZM305.73,485.49h-1.24v-2.35h1.24v2.35ZM307.59,485.49h-1.23v-2.35h1.23v2.35Z"/><path class="cls-1" d="M321.78,487.26c0,1.52-.2,2.83-.61,3.94-.51,1.41-1.34,2.5-2.49,3.27-1.35.89-3.13,1.33-5.36,1.33h-3.84v-2.42h3.96c2.12,0,3.67-.56,4.64-1.67.86-.98,1.29-2.42,1.29-4.32v-3.29h2.42v3.17ZM316.05,487.52c-.9-.37-1.94-.68-3.1-.94-1.16-.26-2.26-.39-3.3-.39v-2.44c1.13,0,2.31.11,3.55.34,1.23.23,2.19.5,2.85.83v2.6Z"/><path class="cls-1" d="M335.19,491.38c-1.64,0-3.23-.14-4.76-.42-1.53-.28-2.79-.65-3.77-1.12v5.96h-2.42v-12.54h2.42v3.97c1,.54,2.36.96,4.07,1.27,1.54.27,3.02.41,4.45.41v2.46Z"/><path class="cls-1" d="M147.47,481.52h-2.82v2.34c0,3.32-.97,5.86-2.91,7.64-2.13,1.94-5.42,2.91-9.85,2.91h-2.85v-3.77h2.85c3.25,0,5.58-.62,6.99-1.86,1.25-1.08,1.88-2.72,1.88-4.92v-2.34h-8.37c-.63.9-1.39,1.7-2.27,2.41-.89.71-1.89,1.33-3,1.87v-4.44c.99-.54,1.81-1.29,2.48-2.26.77-1.15,1.16-2.43,1.16-3.85h3.93c-.05.39-.12.8-.2,1.22-.08.42-.17.84-.28,1.25h13.26v3.79Z"/><path class="cls-1" d="M173.47,470.46v20.18c0,1-.35,1.88-1.04,2.64-.69.75-1.53,1.13-2.52,1.13h-5.89v-3.93h4.49c.45,0,.67-.22.67-.67v-2.64h-13.18c-.41,1.6-1.08,3-2,4.22-.92,1.22-2.12,2.22-3.59,3.01v-5.76c1.2-1.02,1.8-2.96,1.8-5.81v-12.38h21.25ZM156.5,477.1h12.7v-3.01h-12.7v3.01ZM156.5,483.08v.48h12.7v-2.88h-12.7v2.39Z"/><path class="cls-1" d="M186.13,470.08c-.11.52-.3,1.04-.57,1.56h16.36v3.34h-1.02v3.55h1.67v3.34h-1.67v3.52h1.02v3.34h-23.11v-3.34h1.02v-3.52h-1.67v-3.34h1.67v-1.67c-.27.13-.52.22-.77.28-.24.06-.54.13-.9.2v-3.9c.93-.2,1.76-.64,2.47-1.32.66-.61,1.09-1.29,1.29-2.04h4.2ZM183.95,489.85c-.13.75-.33,1.57-.62,2.46-.29.89-.57,1.58-.83,2.08h-4.33c.38-.5.74-1.2,1.09-2.1.35-.9.59-1.71.71-2.45h3.98ZM185.67,474.98h-2.26v3.55h2.26v-3.55ZM183.41,485.39h2.26v-3.52h-2.26v3.52ZM189.39,489.85l.81,4.55h-3.93l-.78-4.55h3.9ZM191.46,474.98h-2.15v3.55h2.15v-3.55ZM189.3,485.39h2.15v-3.52h-2.15v3.52ZM195.36,489.85l1.05,4.55h-3.98l-.94-4.55h3.87ZM197.32,474.98h-2.23v3.55h2.23v-3.55ZM195.09,485.39h2.23v-3.52h-2.23v3.52ZM201.36,489.85l1.21,4.55h-3.93l-1.13-4.55h3.85Z"/><path class="cls-1" d="M214.28,470.08v7.96h3.9v3.9h-3.9v.67l3.9,3.23v4.95l-3.9-3.77v7.37h-3.85v-5.38c-.57.77-1.17,1.45-1.78,2.03-.61.58-1.32,1.12-2.12,1.6v-5.06c.86-.57,1.64-1.38,2.33-2.41.69-1.03,1.14-2.11,1.36-3.24h-3.69v-3.9h3.9v-7.96h3.85ZM209.14,470.86c.45,2.1.67,4.17.67,6.21h-2.64c0-1.06-.05-2.1-.16-3.12-.11-1.02-.27-2.05-.48-3.09h2.61ZM218.37,470.86l-.86,6.21h-2.64l.75-6.21h2.74ZM225.37,485.77v-15.68h4.28v15.01l1.32-.19v4.12l-1.32.21v5.17h-4.28v-4.47l-6.35,1.02v-4.28l6.35-.91ZM224.13,473.23v4.12l-4.57-2.37v-3.95l4.57,2.21ZM224.13,480.25v4.17l-4.57-2.42v-3.95l4.57,2.21Z"/><path class="cls-1" d="M171.85,580.9h-6.24v-30.37l-5.32,3.66v-6.29l5.7-4.09h5.86v37.09Z"/><path class="cls-1" d="M206.97,564.34h-3.59v2.97c0,4.21-1.23,7.45-3.69,9.7-2.71,2.46-6.88,3.69-12.5,3.69h-3.62v-4.78h3.62c4.12,0,7.08-.79,8.88-2.36,1.59-1.37,2.39-3.45,2.39-6.25v-2.97h-10.62c-.8,1.14-1.76,2.16-2.89,3.06-1.13.9-2.4,1.69-3.81,2.37v-5.64c1.25-.68,2.3-1.64,3.14-2.87.98-1.46,1.47-3.09,1.47-4.89h4.99c-.07.5-.15,1.02-.26,1.55-.1.54-.22,1.06-.36,1.59h16.84v4.82Z"/><path class="cls-1" d="M239.89,550.3v25.62c0,1.28-.44,2.39-1.32,3.35s-1.94,1.44-3.19,1.44h-7.48v-4.99h5.7c.57,0,.86-.28.86-.85v-3.35h-16.74c-.52,2.03-1.37,3.81-2.54,5.36-1.17,1.55-2.69,2.82-4.56,3.83v-7.31c1.53-1.3,2.29-3.76,2.29-7.38v-15.71h26.99ZM218.33,558.74h16.12v-3.83h-16.12v3.83ZM218.33,566.33v.62h16.12v-3.66h-16.12v3.04Z"/><path class="cls-1" d="M255.87,549.83c-.14.66-.38,1.32-.72,1.98h20.77v4.24h-1.3v4.51h2.12v4.24h-2.12v4.48h1.3v4.24h-29.35v-4.24h1.3v-4.48h-2.12v-4.24h2.12v-2.12c-.34.16-.67.28-.97.36-.31.08-.69.17-1.14.26v-4.95c1.18-.25,2.23-.81,3.14-1.67.84-.77,1.39-1.64,1.64-2.6h5.33ZM253.1,574.93c-.16.96-.42,2-.79,3.13-.36,1.13-.72,2.01-1.06,2.65h-5.5c.48-.64.94-1.53,1.38-2.67.44-1.14.75-2.17.91-3.11h5.06ZM255.29,556.04h-2.87v4.51h2.87v-4.51ZM252.42,569.26h2.87v-4.48h-2.87v4.48ZM260,574.93l1.03,5.77h-4.99l-.99-5.77h4.95ZM262.63,556.04h-2.73v4.51h2.73v-4.51ZM259.9,569.26h2.73v-4.48h-2.73v4.48ZM267.58,574.93l1.33,5.77h-5.06l-1.2-5.77h4.92ZM270.08,556.04h-2.84v4.51h2.84v-4.51ZM267.24,569.26h2.84v-4.48h-2.84v4.48ZM275.2,574.93l1.54,5.77h-4.99l-1.43-5.77h4.88Z"/><path class="cls-1" d="M291.53,549.83v10.11h4.95v4.95h-4.95v.85l4.95,4.1v6.29l-4.95-4.78v9.36h-4.89v-6.83c-.73.98-1.48,1.84-2.25,2.58-.77.74-1.67,1.42-2.7,2.03v-6.42c1.09-.73,2.08-1.75,2.96-3.06.88-1.31,1.45-2.68,1.72-4.12h-4.68v-4.95h4.95v-10.11h4.89ZM285,550.82c.57,2.66.85,5.29.85,7.89h-3.35c0-1.34-.07-2.66-.2-3.96-.14-1.3-.34-2.61-.62-3.93h3.31ZM296.72,550.82l-1.09,7.89h-3.35l.96-7.89h3.48ZM305.6,569.74v-19.92h5.43v19.06l1.67-.24v5.23l-1.67.27v6.56h-5.43v-5.67l-8.06,1.3v-5.43l8.06-1.16ZM304.03,553.82v5.23l-5.81-3.01v-5.02l5.81,2.8ZM304.03,562.74v5.29l-5.81-3.07v-5.02l5.81,2.8Z"/><rect class="cls-3" x="0" y="429.76" width="100.63" height="25.71" rx="12.86" ry="12.86"/><path class="cls-2" d="M28.5,437.25l-.04,1.68h.48v-1.86h1.88v1.86h.86v1.61h2.39v-1.07h-2.03v-1.75h2.03v-.65h2.05v.65h2.07v1.75h-2.07v1.07h2.38v1.75h-.65v1.01h.65v1.74h-.65v2.18c0,.59-.16,1.01-.49,1.27-.28.21-.69.31-1.23.31h-1.56v-1.96h.96c.21,0,.31-.1.31-.3v-1.51h-4.16v.13c-.14.07-.29.14-.45.2s-.3.11-.41.15v3.29h-1.88v-2.74c-.57.12-1.02.21-1.33.27-.32.06-.61.09-.89.09v-2.07c.32,0,.66-.03,1.02-.08.36-.06.76-.14,1.2-.25v-3.13h-.61c0,.25-.01.46-.03.62-.02.16-.09.47-.21.91h-1.48c.15-.69.25-1.42.32-2.18s.1-1.76.1-3.01h1.48ZM30.82,443.44c.32-.11.61-.24.86-.39v.25h4.16v-1.01h-4.16v-1.39h-.86v2.55ZM33.76,445.63l.49,2.56h-1.78l-.48-2.56h1.77Z"/><path class="cls-2" d="M43.86,438.03v-.96h1.92v.96h1.06v-.96h1.91v.96h3.03v7.29h.42v1.78h-1.18l1.18,1.71h-2.35l-1.12-1.71h-4.66c-.34.68-.71,1.25-1.12,1.71h-2.53c.5-.5.95-1.07,1.35-1.71h-1.35v-1.78h.43v-7.29h3.01ZM42.8,441.65h1.1v-1.83h-1.1v1.83ZM42.8,445.31h1.1v-1.91h-1.1v1.91ZM45.78,441.65h1.06v-1.83h-1.06v1.83ZM45.78,445.31h1.06v-1.91h-1.06v1.91ZM48.72,441.65h1.1v-1.83h-1.1v1.83ZM48.72,445.31h1.1v-1.91h-1.1v1.91Z"/><path class="cls-2" d="M63.13,443.55c0,1.5-.32,2.61-.96,3.34-.67.75-1.72,1.13-3.16,1.13h-.86c-1.43,0-2.47-.37-3.13-1.12-.66-.74-.99-1.86-.99-3.35v-1.9c0-1.5.35-2.62,1.05-3.36.7-.74,1.72-1.12,3.07-1.12h.86c1.34,0,2.36.37,3.06,1.12s1.05,1.87,1.05,3.36v1.9ZM60.84,443.55v-1.9c0-.81-.17-1.39-.51-1.74-.29-.3-.74-.45-1.32-.45h-.86c-.6,0-1.03.15-1.31.44-.34.35-.51.93-.51,1.75v1.9c0,.76.15,1.32.45,1.67.3.35.76.53,1.36.53h.86c.6,0,1.05-.18,1.36-.53.31-.35.47-.91.47-1.67Z"/><path class="cls-2" d="M74.13,445c0,1.03-.29,1.79-.86,2.28-.57.49-1.42.73-2.55.73h-2.4c-1.21,0-2.09-.26-2.63-.79s-.81-1.4-.81-2.62h2.31c0,.42.12.73.37.92.25.19.65.29,1.21.29h1.38c.59,0,1.01-.11,1.26-.32.25-.21.38-.53.38-.94v-.42c0-.44-.13-.77-.38-.97-.25-.21-.67-.31-1.26-.31h-1.48c-.4,0-.71.08-.95.23-.19.11-.33.28-.42.51h-2.34v-6.32h8.83v2.22h-6.53v1.73c.52-.24,1.1-.36,1.74-.36h1.66c1.1,0,1.95.25,2.55.74.6.49.9,1.23.9,2.19v1.22Z"/><rect class="cls-3" x="0" y="509.76" width="335.77" height="25.71" rx="12.86" ry="12.86"/><path class="cls-2" d="M60.81,520.77h-2.47c.27.7.57,1.38.9,2.03s.7,1.28,1.1,1.9h-2.56c-.33-.55-.65-1.16-.96-1.82-.31-.66-.59-1.36-.84-2.1h-6.38v-2.17h5.77l-.23-1.36h2.3c.02.17.05.4.11.7.06.3.1.52.12.67h3.14v2.17ZM59.68,528.54h-5.18c-1.58,0-2.73-.25-3.44-.76-.71-.51-1.06-1.29-1.06-2.34,0-.38.09-.81.27-1.29.18-.48.42-.88.7-1.21h2.39c-.33.29-.59.62-.77,1.01-.19.39-.28.77-.28,1.13,0,.49.21.85.62,1.08.41.23,1.13.34,2.16.34h4.6s0,2.04,0,2.04Z"/><path class="cls-2" d="M73.82,524.56c0,1.37-.46,2.37-1.38,3.01-1.06.73-2.86,1.09-5.4,1.09h-2.84v-2.13h2.7c1.78,0,3.02-.17,3.7-.51.61-.3.92-.81.92-1.53,0-.95-.69-1.43-2.08-1.43-1.07,0-1.99.15-2.74.44-.75.29-1.42.76-2.01,1.41h-2.08v-7.57h2.13v5.1c.68-.48,1.36-.84,2.06-1.08.81-.28,1.69-.42,2.66-.42,1.44,0,2.52.3,3.25.89s1.1,1.5,1.1,2.72ZM73.14,519.42h-4.58c-.49,0-.97-.02-1.45-.06-.48-.04-.87-.1-1.16-.17v-2.06c.28.08.66.14,1.15.18.49.04.98.06,1.49.06h4.56v2.05Z"/><path class="cls-2" d="M78.32,517.17c-.17,1.09-.3,2.12-.38,3.08-.08.96-.12,2-.12,3.13,0,.73.03,1.54.1,2.45s.16,1.82.26,2.73h-2.13c-.09-.76-.17-1.65-.24-2.66-.07-1.01-.11-1.85-.11-2.51,0-2.23.16-4.3.49-6.22h2.13ZM86.66,528.3h-4.05c-1.23,0-2.14-.26-2.74-.77-.53-.47-.79-1.14-.79-2.01,0-.38.06-.77.17-1.18.11-.41.26-.78.44-1.12h2.25c-.17.3-.31.58-.42.82-.12.33-.18.63-.18.91,0,.81.58,1.22,1.74,1.22h3.58v2.13ZM86.62,519.39l-.94,1.36h-2.3l.82-1.1h-4.55v-2.08h6.96v1.82Z"/><path class="cls-2" d="M91.69,515.68c0,2.11-.24,3.82-.73,5.14h.28v8.14h-2.09v-5.42c-.13.11-.29.22-.48.34-.15.09-.33.19-.54.29v-3.16c.43-.32.75-.92.97-1.8.22-.88.32-2.05.32-3.53h2.28ZM101.45,528.41c-.24.15-.56.25-.98.31-.42.06-.92.09-1.52.09h-4.35c-.76,0-1.33-.19-1.69-.57-.36-.38-.54-.89-.54-1.54v-5.19l-.68.22v-2.37l.68-.22v-3.1h2.23v2.4l1.12-.32v-2.44h2.03v1.78l2.12-.66h1.26v6.41c0,.59-.24,1.07-.72,1.45-.42.34-.91.51-1.47.51h-.85v-2.29h.35c.14,0,.25-.05.34-.16.09-.11.13-.23.13-.37v-2.94l-1.16.35v6h-2.03v-5.35l-1.12.37v5.41c0,.16.05.28.15.37.1.09.25.13.45.13h3.75c.56,0,1.03-.04,1.43-.11.39-.07.75-.21,1.07-.42v2.25Z"/><path class="cls-2" d="M116.35,521.44c0,2.13-.63,3.82-1.9,5.08-1.49,1.48-3.76,2.22-6.82,2.22h-3.25v-2.5h3.23c2.09,0,3.64-.4,4.67-1.2,1.03-.8,1.54-2.05,1.54-3.77v-2.48h-5.95c-.2.92-.62,1.74-1.26,2.45-.81.88-1.87,1.45-3.16,1.69v-2.63c.77-.23,1.36-.69,1.76-1.39.4-.7.6-1.58.6-2.64h10.54v5.16Z"/><path class="cls-2" d="M131.52,522.76c-.16,1.73-.82,3.1-2,4.1-1.45,1.22-3.64,1.84-6.58,1.84h-3.29v-2.48h3.28c2,0,3.46-.29,4.38-.87.81-.51,1.28-1.31,1.4-2.41v-.34h-10.07v-2.45h12.89v2.62ZM131.2,518.75h-12.21v-2.5h12.21v2.5Z"/><path class="cls-2" d="M146.11,520.59c0,2.77-.82,4.85-2.47,6.22-1.57,1.28-3.88,1.92-6.92,1.92h-2.56v-2.5h2.6c2.17,0,3.8-.37,4.88-1.12,1.3-.89,1.95-2.39,1.95-4.5v-1.84h-9.96v-2.51h9.32v2.34h3.16v1.98ZM144.86,517.99h-1.28v-2.44h1.28v2.44ZM146.81,517.99h-1.28v-2.44h1.28v2.44Z"/><path class="cls-2" d="M158.27,524.48c0,1.61-.3,2.72-.9,3.33-.6.61-1.64.92-3.13.92h-1.29v-2.54h1.26c.59,0,.99-.12,1.2-.35.21-.23.32-.68.32-1.34v-3.1c0-.76-.12-1.26-.36-1.49-.24-.23-.79-.35-1.65-.35h-.56c-.23,1.67-.52,3.32-.87,4.95-.34,1.64-.68,2.94-1.01,3.91h-2.53c.34-.9.69-2.17,1.05-3.8.36-1.63.66-3.32.92-5.06h-1.73v-2.42h2l.09-1.37h2.48l-.1,1.37h.62c1.45,0,2.45.21,3.01.62.79.59,1.19,1.77,1.19,3.54v3.19ZM162.16,525.62h-2.42c0-1.63-.1-3.36-.31-5.2-.21-1.84-.43-3.2-.66-4.07h2.41c.25,1.04.48,2.42.68,4.16.2,1.73.3,3.44.3,5.11Z"/><path class="cls-2" d="M176.87,524.16c0,1.55-.52,2.68-1.56,3.41-1.2.82-3.23,1.23-6.11,1.23h-3.22v-2.41h3.06c2.02,0,3.42-.19,4.19-.57.7-.34,1.04-.92,1.04-1.73,0-1.08-.78-1.62-2.35-1.62-1.21,0-2.25.16-3.1.49-.85.33-1.61.86-2.28,1.59h-2.35v-8.57h2.41v5.78c.76-.55,1.54-.96,2.34-1.22.91-.31,1.92-.47,3.01-.47,1.63,0,2.85.34,3.68,1.01.83.67,1.24,1.7,1.24,3.08ZM176.09,518.34h-5.19c-.55,0-1.09-.02-1.64-.07-.54-.05-.98-.11-1.32-.19v-2.34c.31.09.75.16,1.3.21.55.05,1.12.07,1.68.07h5.16v2.32Z"/><path class="cls-2" d="M184.56,515.68v2.1c-.23.1-.46.19-.71.26-.25.08-.56.13-.92.16v1.21h1.78v1.97h-1.78v.57l1.78,1.18v2.26l-1.78-1.43v5h-2.1v-3.6c-.25.38-.54.75-.85,1.1-.26.3-.6.63-1,.98v-3.06c.41-.26.79-.69,1.12-1.28s.57-1.17.68-1.73h-1.81v-1.97h1.85v-1.09l-1.85.02v-2c1.84,0,3.07-.03,3.7-.1.62-.07,1.25-.25,1.89-.56ZM192.3,515.89v1.72c-.28,1.22-.84,2.22-1.66,2.99-.82.77-1.91,1.32-3.25,1.65h4.91v1.72c-.33,1.53-1.16,2.74-2.48,3.64s-2.89,1.35-4.72,1.35v-2.07c.38,0,.75-.04,1.12-.12.36-.08.72-.18,1.09-.31l-.78-1.16c-.28.14-.53.24-.74.32s-.44.15-.69.21v-2.23c.41-.1.77-.26,1.07-.48.3-.22.51-.46.63-.71-.35.07-.66.12-.93.15-.27.03-.53.05-.77.05v-2.09c.4,0,.77-.04,1.1-.11.33-.07.71-.18,1.12-.32l-.78-1.16c-.44.22-.92.39-1.44.51v-2.25c.43-.1.81-.27,1.13-.51.32-.25.53-.51.62-.81h5.45ZM187.19,524.94h1.18l.51.69c.25-.21.48-.44.68-.7.2-.26.39-.56.57-.89h-1.94c-.15.18-.29.33-.43.46-.14.13-.33.27-.57.44ZM187.22,518.56h1.18l.48.68c.23-.18.46-.41.69-.71.2-.25.38-.53.56-.85h-1.85c-.11.12-.23.24-.37.37-.18.16-.41.33-.69.51Z"/><path class="cls-2" d="M197.9,515.7l-.09.41h3.14v1.63h-1.07l.22,1.28h-1.44v.54h1.88v1.48h-1.88v.72h1.53v1.51h-1.53v.68h1.88v1.54h-1.88v.1l1.88,1.09v1.94l-1.88-1.25v1.59h-2.25v-1.59c-.25.37-.52.7-.84.97-.31.27-.66.48-1.04.62v-2.04c.31-.11.59-.29.82-.55s.4-.55.5-.87h-1.32v-1.54h1.88v-.68h-1.53v-1.51h1.53v-.72h-1.88v-1.48h1.88v-.54h1.54l-.19-1.28h-.47c-.15.35-.32.65-.51.9h-2.34c.21-.25.45-.71.72-1.36.27-.65.44-1.18.5-1.58h2.23ZM204.54,515.7l-.09.41h3.41v1.63h-1.34l.22,1.28h.22v.69h.54v1.44h-.54v.97h.9v1.44h-7.1v-1.44h.88v-.97h-.54v-1.44h.54v-.69h1.91v.69h1.5v-.69h-.44l-.19-1.28h-.51c-.12.33-.28.63-.48.9h-2.37c.21-.25.46-.71.73-1.38.27-.67.44-1.19.49-1.56h2.26ZM207.51,524v4.81h-6.41v-4.81h6.41ZM203.26,525.86h2.09v-.68h-2.09v.68ZM203.26,527.64h2.09v-.69h-2.09v.69ZM203.56,522.12h1.5v-.97h-1.5v.97Z"/><path class="cls-2" d="M223.17,522.31c0,2.23-.56,3.92-1.69,5.07-1,.99-2.33,1.48-4,1.48v-2.6c2.14,0,3.2-1.35,3.2-4.04,0-1.26-.31-2.25-.93-2.97-.66-.78-1.65-1.18-2.97-1.18-1.52,0-2.66.44-3.42,1.31-.71.81-1.06,1.98-1.06,3.5,0,.9.12,1.58.37,2.04s.58.68.98.68c.5,0,.94-.62,1.31-1.87.37-1.25.56-2.9.56-4.96h2.38c0,2.97-.39,5.31-1.16,7.02-.77,1.71-1.85,2.57-3.22,2.57-1.06,0-1.91-.45-2.54-1.35-.69-.98-1.03-2.36-1.03-4.13,0-2.16.54-3.86,1.62-5.11,1.19-1.39,2.98-2.09,5.36-2.09,2.03,0,3.59.63,4.69,1.88,1.03,1.18,1.54,2.76,1.54,4.75Z"/><path class="cls-2" d="M228.2,515.68v2.76h.93v2.09h-.93v5.32c.4-.17.72-.34.96-.53v2.23c-.37.23-.98.48-1.83.72-.85.25-1.56.37-2.12.37v-2.03c.13,0,.26-.01.39-.04.13-.02.32-.06.55-.11v-5.94h-.94v-2.09h.94v-2.76h2.06ZM229.55,521.53h8.98v1.63h-5.42l-.29.59h5.73v3.26c0,.6-.15,1.07-.45,1.43-.3.35-.71.53-1.24.53h-1.54v-1.59h.91c.3,0,.46-.17.46-.5v-1.54h-.41c-.27.99-.77,1.81-1.48,2.48-.71.66-1.54,1.05-2.48,1.15v-1.6c.58-.1,1.08-.32,1.51-.67.43-.35.74-.8.95-1.36h-.75c-.36.76-.99,1.45-1.87,2.06-.88.61-1.74.91-2.57.91v-1.68c.56,0,1.09-.12,1.61-.37s.9-.56,1.17-.92h-.98c-.52.32-1.12.54-1.79.66v-1.88c.39-.05.72-.16,1-.32s.49-.38.63-.63h-1.65v-1.63ZM238.18,515.89v5.07h-8.3v-5.07h8.3ZM232.08,517.78h3.89v-.65h-3.89v.65ZM232.08,519.66h3.89v-.62h-3.89v.62Z"/><path class="cls-2" d="M245.85,515.68h2.81c.53.7,1.26,1.29,2.19,1.77.93.48,1.95.82,3.07,1.01v2.45c-.5-.1-.82-.17-.97-.21-.27-.07-.58-.17-.93-.29v1.62h-9.54v-1.62c-.25.1-.56.19-.92.28-.36.09-.68.16-.98.22v-2.45c1.11-.19,2.13-.52,3.06-1.01.94-.49,1.67-1.08,2.2-1.77ZM253.34,523.13v5.67h-12.18v-5.67h12.18ZM243.44,526.81h7.63v-1.65h-7.63v1.65ZM243.77,519.93h6.95c-1.4-.66-2.56-1.52-3.47-2.6-.92,1.08-2.08,1.94-3.48,2.6Z"/><path class="cls-2" d="M259.12,515.77c-.19,1.1-.33,2.24-.43,3.44-.1,1.2-.15,2.39-.15,3.59,0,.86.04,1.81.12,2.83s.18,2.03.31,3.02h-2.41c-.1-.85-.19-1.85-.27-2.99-.08-1.14-.12-2.08-.12-2.83,0-1.3.04-2.52.13-3.67.09-1.14.23-2.27.41-3.39h2.42ZM269.06,526.45c-.19-.14-.39-.28-.62-.43-.22-.15-.48-.29-.76-.44-.1,1.05-.51,1.85-1.23,2.4-.72.55-1.79.83-3.23.83-1.21,0-2.13-.3-2.73-.89s-.91-1.43-.91-2.51c0-.93.28-1.68.85-2.26.66-.69,1.62-1.03,2.89-1.03.6,0,1.24.06,1.94.19v-2.73h-5.29v-2.4h5.29v-1.41h2.45v1.41h1.34v2.4h-1.34v3.39c.34.12.6.21.76.28.16.07.36.17.58.29v2.9ZM265.27,524.7v-.06c-.71-.2-1.36-.29-1.96-.29-.44,0-.79.09-1.06.28-.26.19-.4.44-.4.76,0,.71.47,1.06,1.41,1.06.75,0,1.29-.17,1.62-.5.25-.26.38-.68.38-1.25Z"/></g></svg>