<?xml version="1.0" encoding="UTF-8"?><svg id="_レイヤー_2" xmlns="http://www.w3.org/2000/svg" viewBox="0 0 59.64 11.25"><defs><style>.cls-1{fill:#000;stroke-width:0px;}</style></defs><g id="_レイヤー_1-2"><path class="cls-1" d="M2.79,8.24l-1.31,1.91c.18.53-.72,1.1-1.13,1.1-.18,0-.35-.12-.35-.32,0-.29.11-.5.26-.75l1.42-2.33c-.24-.06-.79-.26-.73-.56.14-.79.93-1.53,2.35-1.57l2.26-3.27c-1.11.18-2.24.38-3.28.79v.03c.96.09,1.27.03,1.27.26,0,.12-.21.17-.29.17l-1.19.12c-.43.05-.98.15-1.42.15-.23,0-.55-.08-.55-.37,0-.49.47-1.46.78-1.85C1.59.9,4.88.09,7.97.09c1.4,0,4.38.14,4.38,2.09,0,.78-.49,1.95-1.1,2.44-1.25,1.01-2.01.99-7.51,2.01v.03l4.12,1.31c2.62.84,2.56,1.24,2.64,1.36.29.53.35,1.68-.17,1.68-.4,0-1.48-.53-1.89-.69l-5.65-2.09ZM4.76,5.36l3.8-.99c.63-.17,2.67-1.04,2.67-1.79,0-.47-1.65-.49-1.98-.46l-2.82.2c.01.53-.26.89-.53,1.31l-1.13,1.72Z"/><path class="cls-1" d="M17.08,8.24c-.93,1.08-2.61,2.52-4.12,2.52-1.11,0-1.63-.99-1.66-2-.06-2,2.15-4.04,4.13-4.03.49,0,1.1.12,1.1.73,0,.75-.75,1.88-3.68,2.84l-.03.34c-.04.58.46.78.95.78,1.08,0,2.37-1.11,3.17-1.75l.14.58ZM15.18,5.78c0-.11-.08-.2-.18-.17-.76.2-1.65.93-2.06,1.94,1.34-.46,2.26-1.51,2.24-1.77Z"/><path class="cls-1" d="M19.49,9.48c-.29.23-1.27,1.02-1.62,1.02-.43,0-1.31-1.01-1.34-1.8-.06-1.91,3.91-3.86,5.68-3.91.7-.02.99.55.99.73s-.4.33-.53.38c.29.12.44.29.44.63,0,.49-1.33,1.56-1.33,2.27,0,.26.23.37.47.37.64,0,1.51-.78,2.17-1.22l.12.56c-.66.75-2.7,2.38-3.45,2.38-.5,0-.73-.37-.73-.81,0-.49.37-1.3.56-1.71l-.03-.03-1.4,1.13ZM17.64,9.08c.02.08.08.35.31.31.3-.06.78-.02,3.8-3.07l-.03-.03c-3.63,1.11-4.07,2.04-4.07,2.79Z"/><path class="cls-1" d="M30.45,5.8c-.5.79-1.24,1.79-1.24,2.76,0,.24.02.76.35.76.52,0,1.92-1.24,2.41-1.56l.11.5c-.72.79-2.29,2.4-3.4,2.4-.58,0-.81-.61-.81-1.1,0-.38.06-.78.12-1.16-.53.46-1.95,1.94-2.64,1.94s-1.11-1.46-1.11-2c0-1.8,3.04-3.33,4.33-3.4.32-.02.44.2.64.43.5-.87,1.85-4.03,2.96-4.03.3,0,.49.31.49.58,0,.46-.41,1.08-.66,1.46l-1.56,2.41ZM25.58,8.67c-.02.14.06.26.23.29.18.05,2.64-1.79,2.88-2.69-2.69.87-3.02,1.39-3.11,2.4Z"/><path class="cls-1" d="M42.33,9.6c-.35.34-.9.96-1.42.96-.37,0-.66-.27-.67-.64-.02-.44.35-1.14,1.34-2.66.03-.03.09-.15.09-.2,0-.06-.04-.11-.11-.11-.15,0-.49.37-.59.47-.79.84-1.65,1.75-2.37,2.64-.17.2-.38.43-.66.43-.73,0-.95-1.19-.95-1.74.02-1.5,1.63-3.54,2.55-3.42.23.03.69.03.69.35s-.43.76-.61.98c-.28.32-.61.6-.84.93-.17.23-.44.47-.44.79,0,.03.05.14.11.14.08,0,.26-.2.3-.24.75-.78,3.46-3.49,4.46-3.49.41,0,.63.3.63.7,0,.67-1.08,1.91-1.42,2.5l.03.03,3.39-2.67c.15-.12.53-.43.72-.43.12,0,.28.37.32.43.11.17.28.4.28.61,0,.26-.31.59-.47.78-1.19,1.31-1.28,1.56-1.3,1.91-.01.18.18.43.37.38.32-.08.49-.08,2.37-1.36l.09.72c-.72.56-2.91,2.37-3.77,2.37-.46,0-.78-.44-.78-.88,0-.76.75-1.85,1.13-2.47l-.03-.03-2.43,2.23Z"/><path class="cls-1" d="M53.68,8.24c-.93,1.08-2.61,2.52-4.12,2.52-1.11,0-1.63-.99-1.66-2-.06-2,2.15-4.04,4.13-4.03.49,0,1.1.12,1.1.73,0,.75-.75,1.88-3.68,2.84l-.03.34c-.04.58.46.78.95.78,1.08,0,2.37-1.11,3.17-1.75l.14.58ZM51.79,5.78c0-.11-.08-.2-.18-.17-.76.2-1.65.93-2.06,1.94,1.34-.46,2.26-1.51,2.24-1.77Z"/><path class="cls-1" d="M54.23,9.95c0-.53.34-1.86.89-1.86s.95.46.95.98-.3,1.62-1.01,1.62c-.4,0-.82-.34-.82-.73ZM57.73.78c.14-.3.28-.78.67-.78.17,0,.49.11.64.14.15.05.6.11.6.35,0,.26-.32.85-.44,1.1l-2.73,5.33c.04.09.08.17.08.26,0,.27-.2.67-.5.67-.35,0-.92-.46-.92-.82s.32-1.01.46-1.33l2.15-4.91Z"/></g></svg>