<?xml version="1.0" encoding="UTF-8"?><svg id="_レイヤー_2" xmlns="http://www.w3.org/2000/svg" viewBox="0 0 68.45 55.43"><defs><style>.cls-1{stroke-width:0px;}.cls-1,.cls-2{fill:#000;}</style></defs><g id="_レイヤー_1-2"><path class="cls-2" d="M47.48,7.38c-.33-.84-.72-1.44-1.35-2.07-.63-.63-1.23-1.02-2.07-1.35-.63-.25-1.59-.54-3.34-.62-1.9-.09-2.47-.11-7.27-.11s-5.38.02-7.27.11c-1.76.08-2.71.37-3.34.62-.84.33-1.44.72-2.07,1.35-.63.63-1.02,1.23-1.35,2.07-.25.63-.54,1.59-.62,3.34-.09,1.9-.1,2.47-.1,7.27s.02,5.38.1,7.27c.08,1.76.37,2.71.62,3.34.33.84.72,1.44,1.35,2.07.63.63,1.23,1.02,2.07,1.35.63.25,1.59.54,3.34.62,1.9.09,2.47.11,7.27.11s5.38-.02,7.27-.11c1.76-.08,2.71-.37,3.34-.62.84-.33,1.44-.72,2.07-1.35.63-.63,1.02-1.23,1.35-2.07.25-.63.54-1.59.62-3.34.09-1.9.11-2.47.11-7.27s-.02-5.38-.11-7.27c-.08-1.76-.37-2.71-.62-3.34ZM33.45,27.24c-5.11,0-9.24-4.14-9.24-9.24s4.14-9.24,9.24-9.24,9.24,4.14,9.24,9.24-4.14,9.24-9.24,9.24ZM43.06,10.55c-1.19,0-2.16-.97-2.16-2.16s.97-2.16,2.16-2.16,2.16.97,2.16,2.16-.97,2.16-2.16,2.16ZM33.45,12c-3.31,0-6,2.69-6,6s2.69,6,6,6,6-2.69,6-6-2.69-6-6-6ZM51.34,25.42c-.09,1.92-.39,3.22-.84,4.37-.46,1.18-1.08,2.19-2.08,3.19-1,1-2,1.62-3.19,2.08-1.14.44-2.45.75-4.37.84-1.92.09-2.53.11-7.42.11s-5.5-.02-7.42-.11c-1.92-.09-3.22-.39-4.37-.84-1.18-.46-2.19-1.08-3.19-2.08-1-1-1.62-2-2.08-3.19-.44-1.14-.75-2.45-.84-4.37-.09-1.92-.11-2.53-.11-7.42s.02-5.5.11-7.42c.09-1.92.39-3.22.84-4.37.46-1.18,1.08-2.19,2.08-3.19,1-1,2-1.62,3.19-2.08,1.14-.44,2.45-.75,4.37-.84,1.92-.09,2.53-.11,7.42-.11s5.5.02,7.42.11c1.92.09,3.22.39,4.37.84,1.18.46,2.19,1.08,3.19,2.08,1,1,1.62,2,2.08,3.19.44,1.14.75,2.45.84,4.37.09,1.92.11,2.53.11,7.42s-.02,5.5-.11,7.42Z"/><path class="cls-1" d="M4.84,53.18c-.52.55-2.38,2.24-3.08,2.24-.21,0-.37-.17-.37-.38,0-.43.64-1.22.93-1.53.47-.53.92-.78,1.59-.96l1.79-1.89-2.27.18c-.11.02-.75.02-.78-.2-.06-.43,0-.79.4-1.05.47-.31,1.48-.63,2.06-.73l2.33-.44c.5-.67,1.74-2.78,1.74-3.53,0-.3-.23-.29-.49-.29-.03,0-.11-.06-1.27.12-1.75.29-3.51.73-5.13,1.43l.03.03h.79c.11-.01.29-.03.29.12,0,.18-.34.23-.46.26l-1.77.55c-1.04.32-1.17.14-1.17-.14,0-.44.87-1.97,1.17-2.33.6-.75,1.42-.92,2.3-1.11,4-.92,5.14-.96,6.04-.96.55,0,1.57.06,1.57.81,0,1.13-1.71,4.12-2.4,5.13l1.02.17-.61.98c-.12.2-.21.4-.41.49-.34.15-.9.21-1.25.29l-2.61,2.75Z"/><path class="cls-1" d="M16.05,50.76c-.69.87-1.36,1.24-2.47,1.24-.64.66-1.39,1.14-2.35,1.14-.79,0-1.53-.79-1.59-2.18-.03-1.14.53-1.91,1.39-2.56.82-.67,1.92-1.08,2.85-1.13.34-.02.84.14.84.55,0,.23-.18.32-.35.41.46.12.55.44.55.9,0,.67-.31,1.21-.6,1.8.67.12,1.1-.46,1.57-.81l.15.64ZM11.39,50.04c-.33.34-.62.93-.62,1.4,0,.44.29.58.67.58.5,0,.82-.29,1.17-.61-.11-.24-.18-.44-.18-.7,0-.79.72-1.75.66-1.79-.52.31-1.24.67-1.69,1.11Z"/><path class="cls-1" d="M20.78,50.79c-.84.87-2.27,2.41-3.59,2.41-1.11,0-1.36-1.08-1.36-1.98,0-1.6.69-3.33,1.68-4.55,1.34-1.66,2.79-3.08,3.28-3.08.26,0,.32.37.31.57-.11,1.45-.5,2.79-3.81,6-.14.26-.18.69-.11,1.05.14.35.35.66.76.66.84,0,2.01-.98,2.62-1.53l.21.46ZM17.62,48.74c1.08-1.01,2.03-2.47,2.3-3.34-.75.37-1.62,1.74-2.33,3.31l.03.03Z"/><path class="cls-1" d="M25.36,50.79c-.84.87-2.27,2.41-3.59,2.41-1.11,0-1.36-1.08-1.36-1.98,0-1.6.69-3.33,1.68-4.55,1.34-1.66,2.79-3.08,3.28-3.08.26,0,.32.37.31.57-.11,1.45-.5,2.79-3.81,6-.14.26-.18.69-.11,1.05.14.35.35.66.76.66.84,0,2.01-.98,2.62-1.53l.21.46ZM22.2,48.74c1.08-1.01,2.03-2.47,2.3-3.34-.75.37-1.62,1.74-2.33,3.31l.03.03Z"/><path class="cls-1" d="M31.33,50.76c-.69.87-1.36,1.24-2.47,1.24-.64.66-1.39,1.14-2.35,1.14-.79,0-1.53-.79-1.59-2.18-.03-1.14.53-1.91,1.39-2.56.82-.67,1.92-1.08,2.85-1.13.34-.02.84.14.84.55,0,.23-.18.32-.35.41.46.12.55.44.55.9,0,.67-.31,1.21-.6,1.8.67.12,1.1-.46,1.57-.81l.15.64ZM26.68,50.04c-.33.34-.62.93-.62,1.4,0,.44.29.58.67.58.5,0,.82-.29,1.17-.61-.11-.24-.18-.44-.18-.7,0-.79.72-1.75.66-1.79-.52.31-1.24.67-1.69,1.11Z"/><path class="cls-1" d="M36.14,48.36c.12-.15.66-.84.87-.84.15,0,.73.14.73.32,0,.2-.24.59-.35.76-.34.52-1.37,2.29-1.37,2.85,0,.17.11.31.29.31.43,0,1.16-.86,1.48-1.13-.08-.58-.09-.85.7-1.88.24-.32.85-1.07,1.3-1.07.37,0,.49.49.49.76,0,.84-.53,1.54-1.04,2.15.2.12.3.21.53.21.38,0,.92-.46,1.21-.69l.03.67c-.46.47-.98.92-1.68.92-.4,0-.58-.11-.92-.31-.66.49-1.85,1.89-2.69,1.89-.23,0-.4-.12-.55-.29-.17-.21-.37-.34-.27-1.79-.56.5-1.59,1.88-2.33,1.83-.85-.05-1.63-.82-1.6-2.04.03-1.13.5-1.79,1.27-2.55,1.3-1.31,1.57-1.37,1.89-1.36.69.03.9.24.9.49,0,.78-1.97,2.43-2.59,2.91-.05.09-.12.55-.12.87,0,.12.03.34.17.34.24,0,1.28-.92,1.5-1.13l2.17-2.23Z"/><path class="cls-1" d="M51.15,52.13c-.35.34-.9.96-1.42.96-.37,0-.66-.27-.67-.64-.02-.44.35-1.14,1.34-2.66.03-.03.09-.15.09-.2,0-.06-.05-.11-.11-.11-.15,0-.49.37-.59.47-.79.84-1.65,1.75-2.37,2.64-.17.2-.38.43-.66.43-.73,0-.95-1.19-.95-1.74.02-1.5,1.63-3.54,2.55-3.42.23.03.69.03.69.35s-.43.76-.61.98c-.28.32-.61.6-.84.93-.17.23-.44.47-.44.79,0,.03.05.14.11.14.08,0,.26-.2.31-.24.75-.78,3.46-3.49,4.46-3.49.41,0,.62.3.62.7,0,.67-1.08,1.91-1.42,2.5l.03.03,3.39-2.67c.15-.12.53-.43.72-.43.12,0,.28.37.32.43.11.17.27.4.27.61,0,.26-.31.59-.47.78-1.19,1.31-1.28,1.56-1.3,1.91-.01.18.18.43.37.38.32-.08.49-.08,2.37-1.36l.09.72c-.72.56-2.92,2.37-3.77,2.37-.46,0-.78-.44-.78-.88,0-.76.75-1.85,1.13-2.47l-.03-.03-2.43,2.23Z"/><path class="cls-1" d="M62.5,50.77c-.93,1.08-2.61,2.52-4.12,2.52-1.11,0-1.63-.99-1.66-2-.06-2,2.15-4.04,4.13-4.03.49,0,1.1.12,1.1.73,0,.75-.75,1.88-3.68,2.84l-.03.34c-.04.58.46.78.95.78,1.08,0,2.37-1.11,3.17-1.75l.14.58ZM60.6,48.31c0-.11-.08-.2-.18-.17-.76.2-1.65.93-2.06,1.94,1.34-.46,2.26-1.51,2.24-1.77Z"/><path class="cls-1" d="M63.05,52.48c0-.53.34-1.86.89-1.86s.95.46.95.98-.3,1.62-1.01,1.62c-.4,0-.82-.34-.82-.73ZM66.55,43.31c.14-.3.27-.78.67-.78.17,0,.49.11.64.14.15.05.6.11.6.35,0,.26-.32.85-.44,1.1l-2.73,5.33c.05.09.08.17.08.26,0,.27-.2.67-.5.67-.35,0-.92-.46-.92-.82s.32-1.01.46-1.33l2.15-4.91Z"/></g></svg>