<?xml version="1.0" encoding="UTF-8"?><svg id="_レイヤー_2" xmlns="http://www.w3.org/2000/svg" viewBox="0 0 336 132.36"><defs><style>.cls-1{fill:#00b900;}.cls-1,.cls-2{stroke-width:0px;}.cls-3{fill:none;stroke:#00b900;stroke-miterlimit:10;}.cls-2{fill:#fff;}</style></defs><g id="_レイヤー_1-2"><rect class="cls-1" x=".5" y=".5" width="335" height="131.36" rx="11.46" ry="11.46"/><path class="cls-2" d="M120.32,33.25c-1.45,0-2.74-.34-3.87-1.03-1.13-.69-2.02-1.66-2.66-2.91-.64-1.26-.96-2.73-.96-4.42s.32-3.19.96-4.44c.64-1.26,1.53-2.23,2.66-2.92,1.13-.69,2.43-1.04,3.87-1.04s2.73.35,3.85,1.04c1.12.69,2,1.67,2.65,2.92s.97,2.74.97,4.44-.32,3.16-.97,4.42c-.65,1.26-1.53,2.23-2.65,2.91-1.12.68-2.4,1.03-3.85,1.03ZM120.32,30.69c.96,0,1.79-.24,2.49-.72.7-.48,1.25-1.16,1.63-2.03.39-.88.58-1.89.58-3.05s-.19-2.2-.58-3.07c-.39-.88-.93-1.55-1.63-2.03-.7-.48-1.53-.72-2.49-.72s-1.77.24-2.49.72c-.72.48-1.27,1.16-1.66,2.03-.39.88-.58,1.9-.58,3.07s.19,2.17.58,3.05c.39.88.94,1.55,1.66,2.03.72.48,1.55.72,2.49.72Z"/><path class="cls-2" d="M132.56,32.88c-.87,0-1.3-.45-1.3-1.35v-13.3c0-.9.45-1.35,1.35-1.35h5.96c1.49,0,2.68.35,3.55,1.05.88.7,1.31,1.88,1.31,3.54s-.44,2.85-1.31,3.56c-.88.72-2.06,1.07-3.55,1.07h-4.68v5.42c0,.9-.44,1.35-1.33,1.35ZM133.89,23.65h4.32c.78,0,1.38-.17,1.8-.5.43-.33.64-.89.64-1.67s-.21-1.31-.64-1.64c-.43-.33-1.03-.5-1.8-.5h-4.32v4.32Z"/><path class="cls-2" d="M147.79,32.88c-.9,0-1.35-.45-1.35-1.35v-13.3c0-.9.45-1.35,1.35-1.35h8c.9,0,1.35.41,1.35,1.23s-.45,1.21-1.35,1.21h-6.72v4.16h6.01c.9,0,1.35.41,1.35,1.23s-.45,1.23-1.35,1.23h-6.01v4.48h6.97c.9,0,1.35.4,1.35,1.21s-.45,1.23-1.35,1.23h-8.25Z"/><path class="cls-2" d="M161.9,32.88c-.87,0-1.3-.45-1.3-1.35v-13.3c0-.9.43-1.35,1.3-1.35h.3c.69,0,1.23.3,1.62.89l6.94,10.46v-10.01c0-.44.12-.78.36-1s.57-.34.99-.34c.88,0,1.32.45,1.32,1.35v13.3c0,.9-.42,1.35-1.26,1.35h-.23c-.7,0-1.24-.3-1.62-.89l-7.1-10.78v10.33c0,.9-.44,1.35-1.33,1.35Z"/><path class="cls-2" d="M177.77,19.63c-.32,0-.59-.11-.82-.34-.23-.23-.34-.5-.34-.82s.11-.62.34-.84.5-.34.82-.34h4.89c-.08-.14-.18-.32-.32-.56s-.27-.47-.41-.7c-.14-.23-.24-.4-.32-.5-.18-.3-.22-.63-.11-.97s.32-.6.64-.76c.37-.17.73-.22,1.09-.15.36.07.64.28.86.63.06.11.17.29.32.54.15.25.3.51.46.76.15.26.26.44.32.55.24.4.27.78.09,1.17h3.22c.14-.24.32-.58.55-.99s.45-.83.67-1.22c.22-.4.37-.67.45-.82.2-.38.49-.62.87-.72.38-.1.75-.06,1.12.13.33.18.56.44.67.78s.08.67-.1,1c-.11.17-.27.43-.5.79-.23.36-.46.71-.69,1.06h5.21c.33,0,.62.11.85.34s.34.51.34.84-.11.59-.34.82c-.23.23-.51.34-.85.34h-18.96ZM179.58,34.87c-.35,0-.66-.12-.91-.35-.26-.24-.39-.55-.39-.95v-9.16c0-.91.11-1.63.34-2.14.23-.51.65-.87,1.27-1.08.62-.21,1.49-.32,2.62-.32s2.02.11,2.63.32c.61.21,1.03.58,1.27,1.08.24.51.35,1.22.35,2.14v7.15c0,1.16-.25,1.97-.74,2.44-.5.47-1.31.72-2.46.75-.38,0-.71-.11-.99-.33s-.44-.53-.47-.92c-.02-.38.09-.69.32-.94.23-.24.52-.37.87-.39.38-.05.63-.12.74-.22.11-.1.17-.32.17-.65v-1.46h-3.31v3.72c0,.4-.13.71-.38.95-.25.24-.56.35-.93.35ZM180.88,24.43h3.31v-.02c0-.59-.1-.97-.31-1.14-.21-.17-.65-.25-1.34-.25s-1.15.08-1.36.25c-.21.17-.31.55-.31,1.14v.02ZM180.88,27.81h3.31v-1.35h-3.31v1.35ZM189.86,30.89c-.37,0-.68-.12-.94-.37-.26-.24-.39-.56-.39-.96v-7.22c0-.4.13-.72.39-.96.26-.24.57-.37.94-.37s.68.12.94.37c.26.24.39.56.39.96v7.22c0,.4-.13.72-.39.96-.26.24-.57.37-.94.37ZM192.44,34.75c-.44,0-.8-.11-1.07-.34-.27-.23-.43-.55-.48-.96-.03-.4.08-.73.32-1,.24-.27.59-.44,1.05-.5.49-.06.8-.16.95-.3.14-.14.22-.4.22-.78v-9.02c0-.4.13-.72.39-.96.26-.24.57-.37.94-.37s.68.12.94.37c.26.24.39.56.39.96v9.39c0,1.22-.29,2.11-.87,2.67-.58.56-1.5.84-2.76.84Z"/><path class="cls-2" d="M204.56,33.02c-1.45,0-2.69-.5-3.72-1.51-.33-.32-.48-.64-.43-.97.05-.33.24-.59.57-.79.35-.21.66-.29.94-.22s.58.23.91.49c.24.2.51.36.8.48s.6.18.94.18c.85,0,1.5-.25,1.93-.77.43-.51.65-1.22.65-2.14,0-.99-.19-1.71-.56-2.16-.37-.45-.9-.67-1.57-.67-.23,0-.45.03-.65.1-.21.07-.39.16-.56.26-.3.17-.57.33-.8.49-.23.16-.52.24-.87.24-.84,0-1.26-.45-1.26-1.35v-6.47c0-.9.46-1.35,1.37-1.35h5.41c.9,0,1.35.37,1.35,1.12s-.45,1.12-1.35,1.12h-4.34v4.2c.26-.18.54-.33.85-.45s.61-.17.91-.17c.85,0,1.62.19,2.3.57.68.38,1.22.95,1.62,1.69.4.75.61,1.68.61,2.81,0,1.66-.46,2.95-1.39,3.86-.93.91-2.15,1.37-3.66,1.37Z"/><path class="cls-2" d="M213.53,32.79c-.41.82-.86,1.1-1.35.85-.47-.26-.51-.79-.11-1.6l7.68-15.1c.2-.4.42-.66.65-.8.24-.14.47-.14.7-.02.49.26.53.78.14,1.58l-7.7,15.1Z"/><path class="cls-2" d="M228.61,32.88c-.82,0-1.23-.45-1.23-1.35v-11.54l-1.64,1.07c-.76.52-1.36.43-1.78-.27-.44-.7-.28-1.29.48-1.76l2.74-1.71c.27-.17.54-.29.8-.35.26-.07.56-.1.89-.1.64,0,.96.45.96,1.35v13.32c0,.9-.4,1.35-1.21,1.35Z"/><path class="cls-2" d="M238.86,33.11c-.94,0-1.77-.21-2.49-.62s-1.28-.99-1.68-1.74c-.4-.75-.61-1.61-.61-2.58,0-.81.21-1.54.63-2.21.42-.66.93-1.16,1.54-1.5-.52-.35-.94-.8-1.28-1.36-.33-.56-.5-1.21-.5-1.95,0-.9.19-1.69.56-2.36.37-.68.89-1.21,1.55-1.59.66-.38,1.42-.57,2.27-.57s1.63.19,2.3.57c.66.38,1.18.91,1.55,1.59s.56,1.47.56,2.36c0,.75-.17,1.4-.51,1.95-.34.56-.76,1.01-1.25,1.36.61.33,1.12.83,1.53,1.5.41.66.62,1.4.62,2.21,0,.99-.21,1.85-.62,2.59-.41.74-.97,1.31-1.69,1.72s-1.55.62-2.49.62ZM238.86,30.78c.76,0,1.34-.22,1.75-.65.4-.43.61-1.09.61-1.98,0-.82-.2-1.47-.61-1.95-.4-.48-.99-.72-1.75-.72s-1.32.24-1.72.72c-.4.48-.61,1.13-.61,1.95,0,1.75.78,2.63,2.33,2.63ZM238.86,23.54c.64,0,1.12-.21,1.45-.62.33-.41.49-.99.49-1.74s-.18-1.3-.55-1.67c-.37-.37-.83-.55-1.39-.55s-1.03.18-1.39.55c-.37.37-.55.92-.55,1.67s.16,1.33.49,1.74c.33.41.81.62,1.45.62Z"/><path class="cls-2" d="M252.07,34c-1.33,0-2.35-.34-3.07-1.02s-1.08-1.54-1.08-2.59.38-1.87,1.13-2.55,1.87-1.02,3.35-1.02c.26,0,.53.01.8.03.27.02.56.05.84.08-.04-.85-.1-1.78-.17-2.78-.07-1-.14-2-.21-3.02-.07-1.01-.12-1.97-.16-2.88-.04-.91-.06-1.69-.06-2.36,0-.38.13-.7.4-.96.27-.26.59-.39.97-.39s.7.13.97.39.4.58.4.96c0,.44.01.98.04,1.61.02.63.06,1.31.1,2.04.44-.06.93-.14,1.47-.24.54-.1,1.08-.21,1.61-.32s1-.22,1.42-.33c.38-.11.74-.06,1.06.14.33.2.54.48.63.85.11.37.06.72-.13,1.06s-.48.55-.86.63c-.75.17-1.58.33-2.51.48-.93.15-1.78.27-2.56.34.06.94.12,1.88.18,2.81s.11,1.77.16,2.54c1.04.29,2.06.65,3.06,1.07s1.89.9,2.65,1.42c.3.21.49.51.56.89s0,.73-.22,1.05c-.21.3-.51.49-.89.56s-.72,0-1.03-.22c-1.19-.81-2.54-1.49-4.04-2.03-.06,1.16-.5,2.07-1.31,2.74-.82.67-1.98,1-3.51,1ZM252.07,31.37c.7,0,1.22-.12,1.56-.37.34-.24.51-.63.51-1.17v-.3c-.3-.06-.61-.1-.91-.12-.31-.02-.61-.03-.91-.03-.58,0-1,.09-1.27.29s-.4.43-.4.72.12.51.35.7c.24.19.59.29,1.06.29Z"/><path class="cls-2" d="M274.05,33.96c-.27-.26-.42-.58-.45-.96-.02-.38.1-.71.38-.98,1.16-1.17,2.07-2.65,2.73-4.43.66-1.78.99-3.72.99-5.83,0-1.19-.19-2.05-.57-2.58-.38-.53-.95-.8-1.69-.8-.61,0-1.17.25-1.69.74s-.91,1.23-1.17,2.21-.33,2.2-.21,3.68c.03.35-.07.67-.29.95s-.51.44-.86.47c-.37.03-.68-.06-.95-.27s-.43-.5-.49-.85c-.11-.79-.17-1.66-.21-2.62-.03-.95-.03-1.9-.01-2.86.02-.95.06-1.83.13-2.65.06-.82.12-1.49.18-2.02.05-.37.21-.66.5-.89s.62-.32.98-.27c.38.05.68.21.9.48.22.27.3.61.24,1.01-.03.27-.07.62-.13,1.05-.05.43-.09.83-.12,1.21.35-.59.82-1.09,1.42-1.5.59-.4,1.21-.61,1.85-.61,1.63,0,2.85.53,3.66,1.59.81,1.06,1.21,2.57,1.21,4.54,0,1.57-.16,3.1-.49,4.58-.33,1.48-.81,2.87-1.46,4.16-.65,1.29-1.46,2.43-2.43,3.42-.26.27-.58.41-.97.42-.39,0-.72-.12-.99-.38Z"/><path class="cls-2" d="M131.97,58.01c-.32,0-.59-.11-.81-.33-.22-.22-.33-.48-.33-.79s.11-.59.33-.81c.22-.22.49-.33.81-.33h1.87v-3.08h-2.72c-.3,0-.57-.11-.8-.33s-.34-.48-.34-.79c0-.32.11-.59.34-.81.23-.22.49-.33.8-.33h2.72v-2.44c-.18.21-.36.42-.54.62-.18.2-.35.38-.51.55-.27.27-.6.44-.97.49-.37.05-.71-.06-1.02-.33-.26-.21-.39-.5-.4-.87,0-.37.11-.66.35-.89.37-.37.77-.81,1.2-1.33s.85-1.04,1.23-1.58c.39-.53.7-.99.93-1.37.21-.37.5-.58.86-.65s.69,0,.99.19c.32.2.52.46.59.78.08.32.02.63-.16.94-.06.11-.13.21-.21.32s-.15.22-.23.34h13.07c.3,0,.57.11.79.33.22.22.33.48.33.79,0,.32-.11.59-.33.81-.22.22-.48.33-.79.33h-1.51v2.97h2.63c.32,0,.59.11.81.33.22.22.33.49.33.81s-.11.57-.33.79c-.22.22-.49.33-.81.33h-2.63v3.08h1.94c.3,0,.57.11.8.33s.34.49.34.81-.11.57-.34.79c-.23.22-.5.33-.8.33h-17.5ZM131.06,63.66c-.29-.21-.45-.5-.48-.87-.03-.37.08-.68.32-.94.2-.21.43-.5.7-.85.27-.35.53-.71.79-1.07.26-.37.47-.68.64-.94.18-.3.45-.5.79-.58s.66-.04.95.13c.32.17.53.42.62.76s.05.67-.14.97c-.17.27-.38.61-.64,1.01-.26.4-.53.78-.8,1.17-.27.38-.52.69-.73.94-.24.29-.56.47-.94.54-.38.07-.74-.02-1.07-.26ZM136.18,50.41h1.46v-2.97h-1.46v2.97ZM136.18,55.75h1.46v-3.08h-1.46v3.08ZM139.01,64.02c-.37.08-.7.02-1-.16-.31-.18-.48-.45-.53-.8-.03-.21-.08-.51-.15-.9-.07-.39-.14-.77-.21-1.15-.07-.38-.13-.68-.17-.89-.06-.37,0-.69.19-.96s.45-.44.79-.5c.37-.08.69-.03.98.13.29.16.48.44.57.83.06.2.13.5.21.89.08.4.15.79.22,1.18.07.39.12.69.15.9.06.38,0,.7-.21.95-.2.25-.48.42-.85.49ZM139.97,50.41h1.44v-2.97h-1.44v2.97ZM139.97,55.75h1.44v-3.08h-1.44v3.08ZM143.78,63.82c-.38.09-.72.05-1.03-.13-.31-.18-.5-.43-.57-.77-.05-.24-.11-.55-.21-.92s-.18-.75-.27-1.12c-.09-.37-.18-.67-.25-.9-.11-.37-.07-.69.11-.97.18-.28.44-.47.78-.56.35-.09.68-.06.98.08s.51.41.62.79c.08.21.16.51.26.9.1.39.2.77.31,1.15.11.38.18.69.23.91.08.37.03.69-.15.98-.18.29-.45.47-.81.55ZM143.74,50.41h1.46v-2.97h-1.46v2.97ZM143.74,55.75h1.46v-3.08h-1.46v3.08ZM150.04,63.61c-.32.2-.66.25-1.02.16-.36-.09-.63-.29-.81-.59-.15-.26-.37-.59-.64-.99-.27-.4-.55-.8-.83-1.2-.28-.4-.52-.72-.72-.98s-.27-.54-.22-.86c.05-.31.21-.57.47-.76.27-.2.58-.29.91-.26.33.02.62.16.85.42s.49.59.8.99c.3.4.6.81.89,1.21.29.4.52.74.69.99.21.32.29.66.22,1.02-.07.36-.26.64-.58.86Z"/><path class="cls-2" d="M159.54,64.07c-.33,0-.63-.11-.88-.33-.25-.22-.38-.52-.38-.9v-6.47c-.38.56-.77,1.11-1.18,1.64-.4.53-.78.98-1.13,1.35-.24.24-.54.38-.88.41s-.64-.08-.9-.32c-.24-.23-.37-.5-.38-.82,0-.32.1-.59.33-.82.37-.37.79-.86,1.27-1.47.48-.62.95-1.26,1.42-1.92.46-.66.85-1.25,1.15-1.77h-2.76c-.32,0-.59-.11-.82-.34s-.34-.51-.34-.85.11-.59.34-.82.5-.34.82-.34h3.06v-6.19c0-.38.13-.68.38-.91.25-.23.54-.34.88-.34s.64.11.88.34.35.53.35.91v6.19h2.47c.32,0,.59.11.82.34s.34.5.34.82c0,.34-.11.62-.34.85s-.5.34-.82.34h-2.47v.14c.27.29.6.64.98,1.04.38.4.76.79,1.14,1.17.38.37.69.66.91.86.2.2.32.43.37.69.17-.12.36-.19.57-.21.72-.11,1.56-.25,2.52-.42.97-.17,1.94-.36,2.91-.56v-11.22c0-.4.13-.71.38-.94.25-.23.55-.34.9-.34s.66.11.91.34c.26.23.39.54.39.94v10.71c.26-.06.5-.12.73-.17.23-.05.44-.1.64-.15.35-.08.67-.02.95.16.28.18.45.44.52.78.06.35.01.66-.14.94-.15.27-.4.45-.75.53-.29.06-.6.13-.92.21-.33.08-.67.15-1.02.23v5.44c0,.38-.13.69-.39.92-.26.24-.56.35-.91.35s-.65-.12-.9-.35c-.25-.24-.38-.54-.38-.92v-4.89c-.88.18-1.77.35-2.65.51s-1.68.3-2.4.42c-.38.06-.72,0-1-.19-.29-.19-.46-.48-.5-.86l-.02-.07c-.21.15-.45.21-.72.18-.27-.03-.5-.14-.7-.34-.18-.17-.4-.39-.65-.66s-.51-.56-.77-.87v6.81c0,.38-.12.68-.35.9-.24.22-.53.33-.88.33ZM156.98,49.52c-.32.12-.62.13-.89.03-.27-.1-.47-.32-.59-.65-.06-.21-.16-.48-.29-.81-.13-.33-.26-.66-.4-.99s-.25-.6-.34-.8c-.11-.29-.1-.57.02-.83.12-.27.33-.45.62-.56.32-.12.62-.12.89-.01.27.11.47.32.59.63.09.18.21.45.35.79.14.34.29.69.42,1.03s.24.61.3.81c.12.3.11.58-.02.82-.14.24-.36.43-.66.55ZM162.03,49.58c-.29-.12-.49-.32-.61-.58-.11-.27-.11-.54.01-.81.11-.21.23-.5.37-.85.14-.35.27-.7.41-1.04.14-.34.24-.62.3-.83.12-.32.33-.54.62-.67.29-.13.58-.14.87-.03.29.11.51.28.65.53.14.24.16.53.03.87-.08.24-.19.55-.33.91-.15.37-.29.72-.43,1.07-.15.35-.27.64-.38.87-.12.26-.33.45-.62.56-.29.11-.59.12-.89.01ZM167.33,53.95c-.15-.14-.36-.31-.62-.51-.26-.21-.52-.42-.79-.63-.27-.21-.48-.38-.65-.5-.26-.2-.4-.46-.41-.8-.02-.33.08-.62.27-.87.23-.26.5-.41.82-.45s.62.05.91.26c.17.12.39.29.66.49.27.21.55.41.82.62.27.21.49.38.64.51.26.23.4.51.41.86.01.34-.1.65-.34.93-.23.24-.51.38-.84.4-.34.02-.63-.08-.89-.31ZM167.9,49.01c-.14-.14-.34-.31-.59-.53-.26-.21-.52-.43-.78-.65-.26-.22-.47-.39-.64-.51-.24-.21-.37-.48-.39-.81-.02-.33.08-.61.3-.86.24-.26.52-.4.83-.43.31-.03.61.06.9.27.17.12.38.29.65.5.27.21.54.43.81.64.27.21.49.4.64.55.26.23.39.51.39.86s-.12.64-.37.9c-.24.24-.53.37-.87.39-.34.01-.63-.09-.89-.32Z"/><path class="cls-2" d="M179.78,64.09c-.35,0-.65-.12-.9-.37-.25-.24-.38-.56-.38-.94v-15.99c0-1.25.29-2.12.86-2.63.57-.5,1.52-.75,2.84-.75h1.51c1.34,0,2.3.25,2.87.75.57.5.86,1.38.86,2.63v1.19c0,.84-.12,1.49-.38,1.95-.25.46-.65.79-1.19.97-.54.18-1.26.27-2.16.27h-2.63v11.61c0,.38-.13.69-.38.94-.25.24-.56.37-.93.37ZM181.09,49.15h2.38c.53,0,.9-.07,1.11-.19.21-.13.32-.41.35-.83h-3.84v1.03ZM181.11,46.43h3.79c-.03-.41-.15-.68-.34-.81-.2-.13-.56-.19-1.1-.19h-.91c-.52,0-.88.07-1.08.19-.21.13-.32.4-.35.81ZM190.38,63.61c-.33,0-.62-.11-.86-.32-.24-.21-.35-.5-.35-.87v-4.18h-1.87c-.17,1.2-.54,2.22-1.13,3.06-.59.84-1.43,1.54-2.52,2.1-.3.15-.62.19-.96.11s-.59-.27-.75-.57c-.14-.26-.16-.53-.08-.81.08-.28.27-.51.56-.67.76-.41,1.34-.86,1.75-1.34.4-.48.67-1.11.81-1.88h-2.08c-.33,0-.6-.1-.79-.31-.19-.21-.29-.45-.29-.74,0-.3.1-.56.29-.76.19-.21.45-.31.79-.31h2.19v-1.78h-1.6c-.3,0-.54-.09-.72-.29s-.26-.42-.26-.7.09-.51.26-.71.42-.3.72-.3h9.57c.32,0,.57.1.74.3.17.2.26.43.26.71s-.09.51-.26.7c-.18.19-.42.29-.74.29h-1.48v1.78h2.1c.33,0,.59.1.78.31.18.21.27.46.27.76s-.09.54-.27.74c-.18.21-.44.31-.78.31h-2.1v4.18c0,.37-.12.65-.35.87-.24.21-.51.32-.83.32ZM187.41,56.12h1.76v-1.78h-1.76v1.78ZM194.45,63.96c-.44,0-.79-.12-1.04-.35-.25-.24-.39-.55-.42-.95-.05-.37.05-.68.27-.96s.53-.43.91-.48c.58-.08.93-.19,1.06-.34.13-.15.19-.44.19-.87v-8.82h-2.72c-.88,0-1.6-.09-2.15-.27-.55-.18-.95-.51-1.2-.97s-.38-1.12-.38-1.95v-1.17c0-1.26.29-2.15.87-2.65.58-.5,1.53-.75,2.86-.75h1.6c1.33,0,2.27.25,2.84.75.57.5.86,1.39.86,2.65v13.84c0,1.16-.28,2-.83,2.51-.56.52-1.47.78-2.73.78ZM191.53,46.43h3.91c-.05-.41-.17-.68-.37-.8-.2-.12-.56-.18-1.1-.18h-.98c-.52,0-.88.06-1.1.18s-.33.39-.37.8ZM192.99,49.15h2.44v-1.03h-3.91c.03.43.15.7.35.83.21.13.58.19,1.11.19Z"/><path class="cls-2" d="M206.38,63.84c-.41.01-.75-.08-1-.3-.26-.21-.4-.51-.43-.89-.01-.35.07-.65.24-.91s.45-.41.81-.46c.35-.05.61-.1.79-.17.17-.07.31-.19.4-.37.09-.17.17-.44.25-.79.08-.4.15-.88.22-1.44.07-.56.12-1.15.17-1.77s.08-1.18.09-1.7c.01-.4-.05-.67-.18-.81-.14-.14-.4-.22-.8-.22h-.62c-.15,1.58-.46,3.17-.91,4.76-.46,1.59-1.08,3-1.87,4.24-.2.33-.48.56-.83.66-.36.11-.71.05-1.06-.16-.32-.2-.51-.46-.58-.79-.07-.33-.01-.64.17-.92.88-1.31,1.54-2.79,1.96-4.44.43-1.65.64-3.64.64-5.97v-2.03h-1.44c-.37,0-.66-.11-.88-.34-.22-.23-.33-.51-.33-.84s.11-.62.33-.85c.22-.23.51-.34.88-.34h2.67v-2.83c0-.43.13-.76.38-.99.25-.24.57-.35.95-.35s.7.12.96.35c.26.24.39.57.39.99v2.83h2.26c.37,0,.65.11.87.34.21.23.32.51.32.85s-.11.62-.32.84c-.21.23-.5.34-.87.34h-3.54v2.28h1.05c.73,0,1.32.11,1.78.34-.01-.17,0-.33.03-.49.04-.16.12-.31.24-.45.56-.61,1.12-1.34,1.67-2.18.55-.84,1.04-1.71,1.48-2.6.44-.89.78-1.7,1.03-2.43.14-.43.37-.7.7-.83.33-.13.68-.13,1.06.01.3.11.54.31.71.6.17.3.17.65.02,1.06-.18.46-.38.92-.58,1.39-.21.47-.44.95-.7,1.44h6.03c.37,0,.65.11.87.34.21.23.32.51.32.85s-.11.62-.32.84c-.21.23-.5.34-.87.34h-.73c-.18,1.55-.48,2.99-.9,4.29-.42,1.31-.95,2.51-1.59,3.61.52.65,1.11,1.27,1.77,1.85.66.58,1.4,1.13,2.2,1.65.33.2.53.49.58.87.05.38-.03.72-.24,1.03-.24.35-.58.55-.99.6-.42.05-.8-.04-1.15-.29-1.48-1.05-2.74-2.2-3.79-3.45-1.16,1.34-2.57,2.5-4.23,3.5-.4.24-.79.31-1.19.21-.4-.11-.69-.32-.87-.64-.2-.32-.24-.66-.11-1.02.12-.36.36-.64.71-.83.85-.46,1.63-.97,2.32-1.55.69-.58,1.31-1.21,1.86-1.9-1.05-1.89-1.74-4.04-2.06-6.47-.15.2-.31.4-.48.59-.17.2-.33.39-.5.57-.4.44-.86.59-1.39.46.11.21.18.46.22.73s.05.58.03.91c-.01,1.05-.07,2.08-.16,3.07-.09,1-.2,1.92-.32,2.78-.17,1.28-.54,2.15-1.12,2.63-.58.47-1.4.72-2.47.75ZM216.21,55.21c.38-.81.69-1.66.92-2.55.24-.89.41-1.82.51-2.78h-2.72c.08.99.22,1.93.43,2.81.21.88.5,1.72.85,2.51Z"/><path class="cls-2" d="M232.1,64.16c-.46,0-.83-.12-1.12-.37-.29-.24-.46-.57-.5-.98-.05-.4.07-.74.34-1.04.27-.3.65-.48,1.12-.54.59-.08.99-.19,1.19-.34.2-.15.3-.46.3-.94v-7.01h-7.84c-.33,0-.63-.13-.88-.38-.25-.25-.38-.54-.38-.88s.12-.65.38-.89c.25-.24.54-.37.88-.37h8.84c-.59-.35-1.2-.7-1.82-1.05-.62-.35-1.15-.64-1.59-.87-.29-.15-.48-.4-.56-.73s-.04-.65.13-.94c.18-.33.45-.55.8-.64.35-.09.68-.05,1,.11.35.17.78.38,1.28.65.5.27,1.01.55,1.53.86.26-.14.57-.3.94-.48.37-.18.71-.36,1.04-.53.33-.17.55-.28.67-.34.24-.12.35-.25.32-.39-.03-.14-.18-.21-.43-.21h-10.58c-.32,0-.59-.11-.82-.34s-.34-.5-.34-.82.11-.6.34-.83c.23-.24.5-.35.82-.35h11.9c.79,0,1.42.16,1.87.49.46.33.74.73.83,1.21.1.48.02.97-.24,1.46-.26.5-.72.92-1.37,1.27-.33.18-.73.39-1.19.63-.46.24-.91.47-1.35.7l.18.11c.2.12.34.27.42.46s.13.37.13.57h3.27c.78,0,1.41.14,1.9.42.49.28.81.65.98,1.1.17.45.16.95-.01,1.49-.17.54-.53,1.06-1.06,1.56-.27.26-.6.56-.98.9-.38.34-.77.68-1.17,1.02s-.77.64-1.12.91c-.29.23-.64.33-1.05.3-.41-.03-.75-.2-1.01-.5-.24-.3-.34-.64-.29-1.02.05-.37.24-.68.56-.93.23-.18.5-.4.82-.66.32-.26.62-.51.91-.75s.5-.43.64-.55c.24-.21.34-.4.3-.55s-.22-.23-.53-.23h-4.34v7.68c0,2.36-1.36,3.54-4.09,3.54Z"/><path class="cls-2" d="M262.12,63.7c-1.8,0-3.32-.14-4.57-.41-1.25-.27-2.29-.7-3.13-1.29s-1.56-1.33-2.17-2.23c-.84,1.23-1.72,2.34-2.65,3.31-.29.29-.63.46-1.03.5-.4.04-.76-.08-1.1-.37-.3-.26-.45-.58-.45-.95s.14-.69.4-.95c.99-.97,1.85-2.02,2.59-3.13.74-1.11,1.33-2.28,1.77-3.5.17-.41.43-.69.78-.84s.72-.16,1.1-.02c.38.15.65.39.8.72.15.33.15.68,0,1.06-.12.29-.25.59-.39.9-.14.31-.29.62-.46.93.64,1.2,1.54,2.09,2.7,2.67v-7.75h-4.27c-.37,0-.66-.12-.88-.37s-.33-.53-.33-.87.11-.62.33-.86.51-.35.88-.35h11.24c.37,0,.66.12.88.35.22.24.33.52.33.86s-.11.62-.33.87c-.22.24-.51.37-.88.37h-4.11v2.63h5.16c.38,0,.68.12.9.35s.33.53.33.88-.11.63-.33.88c-.22.25-.52.38-.9.38h-5.16v3.45c.44.06.91.11,1.39.14.49.03,1,.05,1.55.05.75,0,1.5,0,2.27-.02.77-.02,1.53-.05,2.27-.11.44-.03.82.06,1.14.29.32.22.48.56.48,1.02s-.14.8-.43,1.04c-.29.24-.66.35-1.12.35s-.97,0-1.54.01c-.57,0-1.13.01-1.67.01h-1.41ZM248.98,51.48c-.38,0-.7-.12-.97-.35-.27-.24-.4-.56-.4-.97v-.91c0-1.22.3-2.09.89-2.62.59-.53,1.61-.79,3.04-.79h4.57v-1.69c0-.44.14-.79.43-1.04.29-.25.64-.38,1.05-.38s.78.12,1.07.38c.29.25.43.6.43,1.04v1.69h4.68c1.43,0,2.44.26,3.03.79.59.53.88,1.4.88,2.62v.91c0,.41-.13.74-.39.97-.26.24-.58.35-.96.35s-.71-.11-.97-.33c-.27-.22-.4-.54-.4-.95v-.87c0-.44-.11-.75-.33-.94-.22-.18-.62-.27-1.2-.27h-11.58c-.56,0-.96.09-1.18.27-.22.18-.33.5-.33.94v.87c0,.41-.13.73-.4.95-.27.22-.59.33-.97.33Z"/><path class="cls-2" d="M92.63,86.83c-.21,0-.39-.07-.54-.21-.15-.14-.22-.32-.22-.55v-2.43h-2.13c-.18,0-.34-.07-.48-.2-.14-.13-.2-.29-.2-.48s.07-.34.2-.47c.14-.13.29-.2.48-.2h2.13v-1.39h-1.7c-.17,0-.33-.06-.45-.19-.13-.13-.19-.28-.19-.45s.06-.33.19-.45c.13-.13.28-.19.45-.19h1.7v-1.33h-1.94c-.14,0-.27-.04-.38-.12-.11-.08-.19-.19-.24-.31-.03.12-.1.23-.21.32-.1.09-.23.14-.37.14h-3.93c-.17,0-.31-.06-.43-.18-.12-.12-.18-.27-.18-.43s.06-.31.18-.43c.12-.12.26-.18.43-.18h3.93c.13,0,.25.04.35.12.1.08.17.18.21.3.03-.15.11-.27.22-.36.11-.09.25-.14.41-.14h.96s-.07-.07-.1-.11c-.03-.03-.05-.07-.07-.12-.03-.08-.09-.19-.17-.33s-.16-.29-.24-.45c-.08-.15-.15-.28-.21-.39-.09-.17-.1-.34-.04-.51.06-.17.17-.3.34-.38.17-.09.36-.11.54-.08.19.04.33.14.43.31.06.1.13.24.22.39.08.16.16.31.24.46s.14.28.18.37c.07.16.08.31.04.45-.04.14-.13.26-.25.36h1.03c.05-.11.12-.25.2-.43s.17-.37.26-.57c.09-.2.18-.39.26-.57s.14-.32.18-.41c.08-.19.21-.32.4-.39.19-.07.38-.05.57.03.19.08.32.21.39.38s.06.35-.03.54c-.07.16-.18.37-.32.65-.14.27-.28.53-.4.77h1.11c.17,0,.33.06.45.19.13.13.19.28.19.45s-.06.33-.19.45c-.13.13-.28.19-.45.19h-2.09v1.33h1.7c.17,0,.33.06.45.19.13.13.19.28.19.45s-.06.33-.19.45c-.13.13-.28.19-.45.19h-1.7v1.39h2.34c.18,0,.34.07.47.2.13.13.2.29.2.47s-.07.35-.2.48c-.13.13-.29.2-.47.2h-2.34v2.43c0,.23-.07.41-.22.55-.14.14-.32.21-.53.21ZM86.83,86.49c-.52,0-.93-.06-1.23-.18-.3-.12-.51-.32-.63-.6-.12-.28-.18-.67-.18-1.16s.06-.9.18-1.18c.12-.28.33-.47.63-.59.3-.11.71-.17,1.23-.17s.93.06,1.23.17c.3.11.51.31.63.59.13.28.19.67.19,1.18s-.06.87-.19,1.16c-.13.28-.34.48-.63.6-.3.12-.71.18-1.23.18ZM85.44,80.16c-.17,0-.31-.06-.43-.18s-.18-.27-.18-.43.06-.31.18-.43c.12-.12.26-.18.43-.18h2.72c.17,0,.31.06.43.18.12.12.18.27.18.43s-.06.31-.18.43c-.12.12-.26.18-.43.18h-2.72ZM85.44,82c-.17,0-.31-.06-.43-.18s-.18-.27-.18-.43.06-.31.18-.43.26-.18.43-.18h2.72c.17,0,.31.06.43.18.12.12.18.27.18.43s-.06.31-.18.43c-.12.12-.26.18-.43.18h-2.72ZM85.47,76.46c-.17,0-.31-.06-.43-.19-.12-.13-.18-.27-.18-.44,0-.17.06-.32.18-.45s.27-.18.43-.18h2.67c.17,0,.32.06.44.18s.18.27.18.45-.06.31-.18.44c-.12.13-.27.19-.44.19h-2.67ZM86.83,85.27c.27,0,.45-.05.54-.14.09-.1.13-.29.13-.58s-.04-.47-.13-.57c-.09-.1-.27-.15-.54-.15s-.44.05-.53.15c-.09.1-.14.29-.14.57s.05.48.14.58c.09.1.27.14.53.14Z"/><path class="cls-2" d="M102.88,86.27c-1.05,0-1.87-.26-2.47-.78-.6-.52-.9-1.35-.9-2.51v-6.98c0-.22.08-.4.23-.56.15-.15.34-.23.56-.23s.4.08.56.23c.15.15.23.34.23.56v6.98c0,.65.15,1.1.44,1.35.29.25.74.38,1.35.38.54,0,1.05-.14,1.52-.43s.86-.75,1.16-1.39c.1-.2.25-.34.46-.41.21-.07.41-.06.6.04.2.09.33.24.4.45s.05.41-.03.62c-.38.86-.94,1.53-1.68,1.99s-1.55.69-2.43.69Z"/><path class="cls-2" d="M115.67,86.52c-.17.12-.37.16-.59.12-.22-.04-.39-.14-.51-.31-.3-.43-.63-.87-1-1.33-.37-.46-.74-.91-1.11-1.33-.37-.42-.7-.78-.99-1.08-.52-.51-.86-.98-1.03-1.43-.17-.44-.17-.89.01-1.33.18-.44.55-.91,1.09-1.42.18-.17.4-.38.66-.63.26-.25.53-.52.82-.81s.57-.58.84-.86.52-.54.73-.77c.15-.16.33-.24.56-.24.22,0,.41.07.57.22.16.14.24.32.24.54s-.07.41-.22.57c-.31.33-.64.68-1.01,1.05-.37.37-.73.72-1.08,1.06-.35.34-.65.62-.9.84-.34.31-.56.58-.67.8-.11.22-.11.44,0,.66.11.22.32.49.62.81.3.31.63.67,1.01,1.1.38.43.76.87,1.15,1.33.38.46.72.9,1.01,1.32.13.17.18.36.14.58-.04.22-.15.39-.32.52Z"/><path class="cls-2" d="M120.8,86.23c-.22.04-.41,0-.59-.13-.17-.12-.28-.29-.33-.5-.05-.29-.09-.68-.12-1.18-.03-.5-.04-1.06-.05-1.68,0-.62,0-1.26,0-1.93.01-.67.04-1.32.07-1.95.03-.63.08-1.21.14-1.73.06-.52.12-.94.2-1.26.05-.21.17-.37.35-.48.18-.11.38-.14.59-.09.21.05.37.17.48.35.11.18.14.38.09.59-.08.32-.14.73-.2,1.22-.05.49-.1,1.02-.13,1.6-.04.58-.06,1.18-.07,1.79-.01.61-.02,1.2,0,1.77s.03,1.09.06,1.56c.03.47.07.85.12,1.14.04.21,0,.4-.12.58s-.29.28-.5.33ZM125.15,86.22c-.7,0-1.26-.17-1.68-.52s-.63-.84-.63-1.49.21-1.11.63-1.47c.42-.36,1.01-.54,1.75-.54.23,0,.46.01.69.04,0-.41-.02-.86-.03-1.34s-.03-.98-.05-1.49c-.46.03-.91.04-1.34.05s-.8,0-1.12,0c-.22,0-.4-.09-.54-.24-.14-.15-.21-.34-.2-.56.02-.21.1-.39.26-.53.15-.14.33-.21.54-.2.31,0,.67.01,1.08,0,.41,0,.85-.02,1.3-.05,0-.33-.01-.65-.01-.96v-.86c0-.22.07-.4.22-.56.15-.15.33-.23.55-.23s.41.08.56.23c.15.15.22.34.22.56,0,.27,0,.55,0,.84s0,.58,0,.88c.38-.04.74-.07,1.05-.1.32-.04.59-.07.81-.11.21-.04.4,0,.58.12.17.13.28.29.31.5.04.21-.01.4-.14.58-.13.17-.29.28-.5.3-.24.03-.55.07-.91.11-.36.04-.75.08-1.17.11.02.61.03,1.2.05,1.77s.03,1.07.04,1.5c.48.16.93.34,1.35.56.42.22.79.45,1.11.68.17.13.28.3.31.52.03.21,0,.41-.13.58s-.29.28-.5.33-.41,0-.58-.13c-.22-.17-.46-.33-.72-.48s-.53-.3-.81-.42c-.09,1.33-.87,2-2.36,2ZM125.15,84.74c.54,0,.81-.26.81-.77,0-.03,0-.06,0-.11,0-.04,0-.09,0-.14-.26-.05-.53-.08-.8-.08s-.47.05-.6.16c-.13.11-.19.24-.19.41s.06.3.18.39c.12.1.32.14.6.14Z"/><path class="cls-2" d="M133.23,85.71c-.52,0-.77-.26-.77-.77v-7.62c0-.51.25-.77.75-.77s.76.26.76.77v6.99h4c.51,0,.77.23.77.69s-.26.71-.77.71h-4.74Z"/><path class="cls-2" d="M141.19,85.71c-.5,0-.75-.26-.75-.77v-7.62c0-.51.25-.77.75-.77s.76.26.76.77v7.62c0,.52-.25.77-.76.77Z"/><path class="cls-2" d="M145.18,85.71c-.5,0-.75-.26-.75-.77v-7.62c0-.51.25-.77.75-.77h.17c.39,0,.7.17.93.51l3.98,5.99v-5.73c0-.25.07-.44.2-.58s.33-.2.57-.2c.51,0,.76.26.76.77v7.62c0,.52-.24.77-.72.77h-.13c-.4,0-.71-.17-.93-.51l-4.07-6.18v5.92c0,.52-.25.77-.76.77Z"/><path class="cls-2" d="M155.04,85.71c-.52,0-.77-.26-.77-.77v-7.62c0-.51.26-.77.77-.77h4.58c.51,0,.77.24.77.71s-.26.69-.77.69h-3.85v2.38h3.44c.51,0,.77.24.77.71s-.26.71-.77.71h-3.44v2.57h3.99c.51,0,.77.23.77.69s-.26.71-.77.71h-4.72Z"/><path class="cls-2" d="M162.06,81.52c-.17-.16-.24-.35-.24-.57,0-.22.1-.42.27-.58.33-.31.67-.69,1.03-1.13.35-.44.68-.89.99-1.35.31-.47.54-.89.72-1.28.1-.22.25-.36.46-.42.21-.06.41-.04.6.05.2.11.33.26.4.45s.05.39-.05.59c-.24.51-.52,1.01-.84,1.51-.32.5-.66.98-1.02,1.43-.36.45-.71.85-1.06,1.21-.17.17-.38.27-.62.3-.24.04-.46-.04-.65-.22ZM172.74,86.32c-.19.13-.41.17-.65.13s-.42-.16-.54-.35c-.09-.13-.18-.27-.28-.42-.1-.15-.21-.3-.33-.47-.39.05-.85.11-1.37.17-.52.06-1.07.12-1.64.19-.58.07-1.15.13-1.71.2-.56.07-1.09.12-1.58.18-.49.05-.91.1-1.25.13-.27.03-.49-.03-.65-.16-.17-.13-.26-.32-.29-.56-.02-.21.04-.39.18-.55s.33-.24.58-.26c.17-.02.36-.03.57-.05.21-.01.43-.03.67-.05.17-.34.37-.73.59-1.18.22-.45.44-.92.66-1.4.22-.48.43-.94.62-1.38.19-.44.35-.81.47-1.13.09-.22.23-.37.43-.46s.41-.09.63-.01c.22.08.37.22.46.42.09.21.09.41,0,.62-.17.38-.37.82-.6,1.32-.24.51-.48,1.03-.75,1.56s-.51,1.03-.75,1.48c.65-.06,1.31-.12,1.97-.19.66-.07,1.25-.12,1.79-.18-.2-.26-.4-.51-.6-.75-.2-.24-.37-.45-.53-.62-.14-.15-.21-.33-.2-.54,0-.21.09-.38.25-.51.17-.14.35-.21.56-.2.21,0,.39.09.54.24.21.22.45.48.71.78.26.3.53.62.8.96.27.34.53.66.77.97.24.31.46.6.64.85.14.2.2.42.16.65-.03.23-.15.42-.35.57ZM172.73,81.39c-.46-.36-.91-.75-1.34-1.18-.43-.43-.81-.88-1.16-1.35-.34-.47-.64-.93-.88-1.39-.1-.2-.2-.35-.28-.45-.08-.1-.19-.17-.31-.2-.13-.03-.31-.05-.54-.05h-.93c-.19,0-.36-.07-.5-.22-.14-.14-.21-.31-.21-.5s.07-.37.21-.51c.14-.14.31-.21.5-.21h.93c.49,0,.88.04,1.17.12.29.08.53.22.73.42.2.2.39.48.6.85.33.58.77,1.18,1.31,1.77s1.14,1.12,1.79,1.58c.2.13.32.31.36.55.04.24-.02.45-.16.64-.16.19-.36.3-.6.32-.24.02-.47-.04-.67-.19Z"/><path class="cls-2" d="M184.39,85.81c-.55-.65-1.06-1.55-1.52-2.7-.46-1.14-.81-2.58-1.03-4.32h-5.5c-.22,0-.4-.07-.53-.22-.14-.14-.2-.32-.2-.53s.07-.37.2-.52c.13-.14.31-.22.53-.22h5.34c-.02-.3-.03-.6-.05-.92s-.03-.63-.05-.96c0-.24.08-.44.23-.58.15-.14.34-.22.56-.22s.4.07.56.2c.15.14.23.33.23.58,0,.32,0,.64,0,.96.01.31.03.62.05.93h3.62c.23,0,.41.07.54.22.13.14.2.32.2.52s-.07.39-.2.53c-.13.14-.31.22-.54.22h-3.47c.19,1.4.48,2.6.87,3.61.39,1.01.82,1.76,1.3,2.26.13.14.24.2.33.18s.18-.11.26-.27c.04-.1.1-.21.16-.33.06-.13.11-.23.14-.32.09-.2.22-.33.41-.4s.38-.06.57.02c.2.09.34.22.41.4s.08.36.02.54c-.06.18-.13.36-.2.52-.07.17-.16.35-.25.55-.24.49-.52.82-.86.99-.34.17-.7.19-1.07.07-.37-.13-.73-.39-1.07-.79ZM176.6,86.31c-.24.04-.45,0-.6-.12-.16-.12-.26-.29-.3-.52-.04-.23.01-.41.14-.56.13-.14.31-.23.54-.27.06,0,.26-.04.59-.09.33-.05.72-.11,1.18-.18v-2.83h-1.57c-.22,0-.39-.07-.52-.21-.13-.14-.19-.31-.19-.5s.06-.37.19-.5c.13-.13.3-.2.52-.2h4.55c.22,0,.39.07.51.2.12.14.18.3.18.5s-.06.36-.18.5c-.12.14-.29.21-.51.21h-1.36v2.57c.46-.07.87-.13,1.22-.2.35-.06.57-.1.66-.1.23-.04.41-.02.56.08.14.1.23.25.27.46.04.21.02.39-.08.53s-.25.24-.45.28c-.08.02-.25.05-.52.1s-.6.11-.98.18c-.38.07-.79.14-1.2.22s-.82.15-1.2.22c-.38.07-.7.13-.96.17-.26.04-.42.07-.48.08ZM186.02,77.13c-.16.13-.34.19-.54.17s-.38-.1-.53-.25c-.06-.07-.15-.16-.26-.27-.11-.11-.23-.22-.34-.32s-.21-.19-.28-.25c-.14-.12-.21-.28-.2-.47,0-.19.08-.36.22-.5.14-.15.3-.23.49-.25s.36.04.52.18c.08.06.18.15.31.27.13.12.26.23.39.35.13.11.22.21.28.27.15.15.22.33.2.53-.01.21-.1.38-.26.53Z"/><path class="cls-2" d="M192.37,86.25c-.17.14-.37.2-.59.17-.22-.03-.4-.13-.54-.3-.14-.17-.2-.37-.17-.6s.13-.4.3-.54c.59-.46,1.09-1.01,1.48-1.63.39-.62.67-1.31.82-2.05s.16-1.51.02-2.3c-.04-.23,0-.43.13-.61s.29-.29.51-.32c.23-.04.43,0,.61.12s.29.3.32.52c.02.06.03.13.03.2,0,.07.01.14.02.21.79-.04,1.38-.11,1.77-.2s.66-.2.8-.31c.13-.12.2-.24.2-.36,0-.18-.06-.33-.17-.43-.11-.1-.36-.15-.73-.15h-6.92c-.22,0-.41-.08-.57-.24s-.24-.34-.24-.56.08-.42.24-.57c.16-.15.35-.23.57-.23h6.92c1.73,0,2.59.7,2.59,2.11,0,.52-.15.96-.45,1.3s-.78.61-1.43.79c-.65.18-1.5.31-2.56.37-.08,1.13-.38,2.19-.89,3.15-.52.97-1.21,1.79-2.08,2.46Z"/><path class="cls-2" d="M202.86,86.12c-.17-.15-.25-.33-.26-.56s.06-.42.21-.58c.68-.73,1.26-1.56,1.75-2.48.48-.92.86-1.92,1.13-2.99-.49.03-.94.05-1.37.07-.42.02-.7.04-.83.04-.22,0-.41-.06-.58-.22-.17-.15-.25-.34-.26-.56,0-.23.06-.42.21-.59.15-.17.34-.25.56-.26.1,0,.28-.02.55-.03s.59-.02.95-.03c.36-.01.73-.03,1.09-.05.1-.65.17-1.33.2-2.03,0-.23.1-.42.26-.57s.36-.22.58-.2c.23,0,.42.09.57.26.15.16.22.36.2.58,0,.32-.03.64-.07.96-.04.31-.07.63-.12.96l.38-.03c.95-.04,1.68.08,2.2.35s.85.72,1,1.35c.15.63.14,1.47-.03,2.53-.14.89-.34,1.61-.6,2.17-.26.56-.57.98-.93,1.26-.36.28-.77.46-1.22.52-.45.07-.95.05-1.48-.03-.22-.03-.39-.14-.52-.33-.13-.18-.18-.38-.14-.6.04-.23.16-.4.34-.53.18-.13.38-.17.6-.12.29.05.55.07.79.04.24-.03.45-.12.65-.29.2-.17.37-.44.52-.82.15-.38.29-.9.4-1.56.12-.69.16-1.21.1-1.55s-.21-.57-.46-.69c-.26-.11-.64-.16-1.16-.14-.13,0-.38.01-.75.04-.31,1.32-.76,2.55-1.33,3.7-.58,1.15-1.24,2.14-1.99,2.96-.15.17-.33.25-.56.25-.22,0-.42-.07-.58-.22Z"/><path class="cls-2" d="M218.08,86.36c-.2.09-.41.1-.62.05s-.37-.19-.47-.39c-.11-.2-.12-.41-.06-.63.07-.22.2-.37.4-.46,1.27-.58,2.25-1.22,2.92-1.94.67-.72,1.13-1.52,1.37-2.42.09-.3.14-.55.15-.74s-.02-.35-.08-.48c-.07-.1-.2-.19-.38-.25-.18-.07-.45-.11-.81-.14-.36-.03-.84-.05-1.44-.05s-1.1.01-1.45.03-.6.06-.77.12c-.17.06-.29.14-.38.24-.09.11-.13.3-.12.55,0,.25.05.65.14,1.19.04.22,0,.42-.13.6-.13.18-.31.29-.54.33-.22.04-.42-.01-.59-.14-.18-.13-.29-.31-.33-.52-.09-.56-.14-1.03-.17-1.41-.03-.38,0-.7.07-.97.07-.27.2-.51.39-.73.18-.21.39-.37.63-.48.24-.11.56-.2.96-.25s.92-.09,1.56-.1v-1.52c0-.23.08-.42.24-.58s.34-.24.56-.24.42.08.58.24.24.35.24.58v1.52c.61.02,1.12.06,1.52.12.4.06.73.16.99.29.26.13.47.31.65.54.25.34.37.72.35,1.15s-.11.95-.28,1.56c-.18.67-.48,1.33-.88,1.99s-.94,1.27-1.63,1.84c-.69.57-1.55,1.08-2.58,1.52Z"/><path class="cls-2" d="M229.03,80.04c-.33-.28-.7-.57-1.11-.87-.41-.3-.78-.55-1.11-.74-.19-.12-.31-.29-.37-.5-.05-.21-.02-.42.09-.61.12-.19.29-.32.5-.37.21-.06.42-.02.61.1.24.15.5.33.81.54.3.21.59.43.88.63.28.21.52.39.7.54.17.14.28.32.31.54.03.22-.02.42-.16.59-.14.17-.32.28-.54.31-.22.03-.42-.02-.6-.16ZM227.9,85.19c-.21.08-.42.07-.62-.03-.21-.1-.35-.25-.43-.46-.08-.21-.07-.42.03-.62s.25-.35.46-.43c.7-.24,1.4-.54,2.11-.9.71-.36,1.39-.75,2.04-1.17.65-.42,1.24-.86,1.78-1.31.54-.45.97-.88,1.32-1.3.15-.17.33-.27.56-.3.22-.03.42.04.58.18.17.14.27.32.3.54s-.04.42-.18.6c-.36.44-.83.9-1.43,1.39-.59.49-1.26.98-1.99,1.46-.73.48-1.49.92-2.26,1.33s-1.53.75-2.26,1.01Z"/><path class="cls-2" d="M241.19,86.27c-.22,0-.41-.08-.56-.24s-.24-.34-.24-.56v-9.04c0-.23.08-.42.24-.57s.34-.23.56-.23.42.08.58.23.24.34.24.57v3.15c.11-.17.27-.29.47-.35.2-.06.4-.04.59.06.51.27,1.04.58,1.58.93.54.35,1,.69,1.39,1.02.17.14.27.33.29.56.02.23-.04.43-.19.61-.14.17-.32.26-.55.28-.23.02-.43-.04-.6-.18-.24-.19-.53-.4-.84-.62-.32-.22-.64-.43-.96-.63s-.61-.38-.87-.53c-.14-.08-.24-.17-.31-.29v5.03c0,.22-.08.41-.24.56s-.35.24-.58.24Z"/><path class="cls-2" d="M256.55,86.12c-1.03-.15-1.88-.45-2.55-.9-.67-.45-1.17-.99-1.5-1.63-.33-.64-.49-1.3-.49-1.99s.14-1.35.41-1.96.66-1.13,1.18-1.58c-.52.08-1.08.17-1.67.27-.59.1-1.17.2-1.72.3-.55.1-1.04.19-1.46.27-.22.04-.41-.01-.58-.14-.17-.13-.27-.3-.31-.51-.04-.22.01-.41.14-.58.13-.17.3-.27.52-.31.28-.04.64-.1,1.07-.18.44-.07.92-.16,1.47-.24s1.09-.18,1.66-.27c.57-.1,1.12-.19,1.67-.28.54-.09,1.04-.18,1.5-.25.45-.08.82-.14,1.11-.2.2-.04.39,0,.57.13s.29.28.32.48c.04.21.01.41-.1.59s-.27.29-.48.33c-.61.1-1.15.28-1.61.56-.46.27-.85.61-1.17.99-.32.39-.56.8-.72,1.23-.16.43-.24.86-.24,1.28,0,.85.29,1.53.86,2.05.58.52,1.36.85,2.36.99.21.04.38.14.51.31s.18.37.14.58c-.03.22-.13.39-.3.52-.17.13-.37.18-.58.14ZM258.22,80.77c-.11.1-.25.14-.41.12-.16-.02-.29-.09-.39-.22-.1-.12-.22-.28-.37-.46-.15-.19-.28-.35-.41-.49-.08-.1-.12-.21-.11-.35,0-.14.06-.25.18-.35.1-.1.22-.14.36-.14.14,0,.26.05.37.15.13.11.28.26.45.45.17.18.31.35.42.5.1.12.13.26.11.42s-.09.28-.22.38ZM259.47,79.65c-.11.11-.25.17-.41.16-.16,0-.29-.07-.4-.2-.11-.12-.24-.27-.4-.45-.16-.17-.31-.33-.44-.46-.09-.09-.13-.2-.14-.34,0-.14.05-.26.15-.37.1-.1.21-.15.35-.15.14,0,.27.04.38.12.14.1.3.23.48.4.18.17.34.33.46.48.1.11.15.25.14.4,0,.15-.07.29-.18.4Z"/><path class="cls-2" d="M261.36,80.94c-.18-.04-.31-.13-.39-.28-.08-.15-.1-.32-.07-.49.05-.21.1-.47.16-.78.05-.31.1-.62.14-.94.04-.31.07-.58.09-.8.02-.23.1-.39.26-.5.15-.1.33-.14.54-.1.17.03.31.11.42.24.1.14.15.3.13.5-.03.25-.06.55-.1.88-.04.34-.09.66-.14.97-.05.31-.1.58-.16.8-.04.19-.15.33-.31.42-.16.09-.35.11-.57.07ZM263.69,86.82c-.21,0-.39-.07-.53-.2-.14-.13-.22-.32-.22-.54v-10.69c0-.23.07-.41.22-.54.14-.14.32-.2.53-.2s.38.07.52.2c.14.13.21.32.21.54v1.36s.02,0,.04-.03c.14-.1.29-.14.46-.13.17,0,.29.07.38.2.05.06.12.16.22.28.09.13.19.25.28.38.1.13.17.23.21.31.02-.12.07-.23.14-.32.08-.09.19-.14.33-.14h1.79v-.48h-2.47c-.16,0-.28-.05-.37-.16-.09-.1-.14-.23-.14-.37s.05-.26.14-.37c.09-.11.22-.16.37-.16h2.47v-.46c0-.23.07-.41.22-.54s.33-.2.54-.2.39.07.53.2c.14.13.22.31.22.54v.46h2.67c.16,0,.28.05.37.16.09.11.13.23.13.37s-.04.26-.13.37-.21.16-.37.16h-2.67v.48h1.9c.15,0,.26.05.34.16.08.11.12.22.12.35s-.04.25-.12.35c-.08.1-.19.16-.34.16h-1.9v.52h3.04c.17,0,.29.05.38.16.09.1.13.23.13.38,0,.14-.04.26-.13.37-.09.1-.21.16-.38.16h-7.39c-.17,0-.29-.05-.38-.16-.09-.11-.13-.23-.13-.37,0-.15.04-.27.13-.38.09-.1.21-.16.38-.16h2.85v-.52h-1.79c-.07,0-.13-.02-.19-.05s-.11-.06-.15-.1c0,.22-.09.39-.26.51-.14.1-.3.13-.47.1-.17-.03-.31-.11-.41-.25-.06-.1-.15-.23-.26-.4s-.22-.33-.31-.46v8.4c0,.23-.07.41-.21.54-.14.14-.31.2-.52.2ZM266.86,86.91c-.21,0-.39-.07-.54-.21-.15-.14-.22-.32-.22-.55v-3.98c0-.45.06-.81.18-1.08.12-.27.32-.46.62-.58.29-.12.7-.18,1.22-.18h2.02c.52,0,.93.06,1.22.18s.49.31.61.58c.12.27.18.63.18,1.08v2.88c0,.65-.17,1.12-.5,1.39-.33.28-.82.41-1.45.41-.22,0-.4-.06-.54-.18-.14-.12-.22-.27-.24-.46-.02-.2.03-.38.13-.52.1-.15.26-.24.47-.26.24-.04.41-.08.49-.12.08-.05.12-.18.12-.39v-.33h-3.02v1.56c0,.23-.07.41-.22.55-.15.14-.32.21-.52.21ZM267.61,82h3.02c0-.25-.06-.41-.16-.48-.1-.07-.31-.1-.63-.1h-1.43c-.32,0-.54.03-.63.1-.1.07-.16.22-.16.48ZM267.61,83.58h3.02v-.58h-3.02v.58Z"/><path class="cls-2" d="M278.08,86.86c-.19,0-.36-.07-.5-.2s-.21-.31-.21-.52v-1.69h-1.58c-.17,0-.33-.06-.45-.19-.13-.13-.19-.28-.19-.45s.06-.33.19-.45.28-.19.45-.19h1.58v-.89h-1.75c-.17,0-.33-.06-.45-.19-.13-.13-.19-.28-.19-.45s.06-.33.19-.45c.13-.13.28-.19.45-.19h.69c-.06-.17-.12-.33-.18-.48-.06-.16-.1-.26-.12-.3-.07-.17-.07-.33.01-.48.08-.16.2-.27.37-.33h-.98c-.17,0-.33-.06-.45-.19-.13-.13-.19-.28-.19-.45s.06-.33.19-.45c.13-.13.28-.19.45-.19h1.96v-.83h-1.4c-.17,0-.32-.06-.45-.19-.12-.13-.18-.27-.18-.44s.06-.32.18-.44c.12-.12.27-.18.45-.18h1.4v-.69c0-.22.07-.39.21-.52.14-.13.31-.2.5-.2s.37.07.51.2c.14.13.21.31.21.52v.69h1.35c.17,0,.32.06.45.18.12.12.18.27.18.44s-.06.31-.18.44c-.12.13-.27.19-.45.19h-1.35v.83h1.82c.17,0,.33.06.45.19s.19.28.19.45-.06.32-.19.45c-.13.13-.28.19-.45.19h-.86c.16.06.27.17.35.32.07.15.08.31,0,.46-.02.06-.06.17-.12.33-.07.16-.13.32-.2.48h.62c.17,0,.33.06.45.19.13.13.19.28.19.45s-.06.33-.19.45c-.13.13-.28.19-.45.19h-1.6v.89h1.44c.17,0,.33.06.45.19s.19.28.19.45-.06.33-.19.45c-.13.13-.28.19-.45.19h-1.44v1.69c0,.22-.07.39-.21.52s-.31.2-.51.2ZM277.69,80.99h.75c.04-.11.09-.25.15-.42.06-.17.11-.32.16-.47.05-.15.08-.24.1-.29.03-.1.07-.19.14-.26s.15-.12.24-.16h-2.36c.17.07.3.19.38.37.04.08.08.2.14.37s.12.33.18.49c.06.16.1.29.13.37ZM282.07,86.83c-.19,0-.36-.07-.5-.2-.14-.14-.22-.31-.22-.53v-8.89c0-.58.07-1.02.2-1.34.13-.32.38-.54.74-.67s.88-.2,1.56-.2,1.2.06,1.56.17c.36.11.61.31.75.6.13.29.2.69.2,1.2,0,.58-.07,1.03-.21,1.35-.14.32-.36.55-.67.67-.31.13-.72.19-1.24.2-.23,0-.41-.07-.54-.2-.13-.13-.21-.31-.22-.53,0-.2.05-.37.19-.5s.31-.21.53-.22c.29-.02.48-.07.56-.15.09-.08.13-.24.13-.46,0-.33-.07-.55-.2-.64s-.41-.14-.85-.14-.71.05-.84.16c-.14.11-.2.34-.2.7v2.34h2.02c.7,0,1.18.16,1.44.48s.33.8.2,1.45c-.19.95-.49,1.78-.89,2.49.19.22.39.43.6.63.21.21.44.4.68.58.16.11.24.27.25.48.01.21-.04.38-.16.53-.14.17-.31.25-.52.27-.21.01-.4-.05-.56-.18-.21-.17-.41-.34-.6-.52s-.36-.36-.53-.56c-.14.16-.28.31-.43.46-.14.15-.29.3-.45.45-.15.14-.32.22-.52.24-.2.02-.38-.04-.52-.18-.03.19-.11.35-.24.46-.14.12-.3.18-.49.18ZM282.8,85.14c.41-.38.77-.77,1.07-1.17-.43-.75-.75-1.61-.98-2.57-.05-.21-.03-.39.08-.54h-.17v4.27ZM284.69,82.6c.07-.17.14-.35.2-.54.07-.18.12-.37.15-.56.06-.25.06-.42,0-.5s-.23-.12-.5-.12h-.47c.05.06.09.15.12.26.13.51.3,1,.51,1.47Z"/><path class="cls-2" d="M288.59,81.52c-.17-.16-.25-.35-.24-.57,0-.22.1-.42.28-.58.33-.31.67-.69,1.03-1.13.35-.44.68-.89.99-1.35.3-.47.54-.89.72-1.28.1-.22.25-.36.46-.42.21-.06.41-.04.6.05.2.11.33.26.4.45s.05.39-.05.59c-.24.51-.51,1.01-.84,1.51-.32.5-.66.98-1.02,1.43-.36.45-.71.85-1.06,1.21-.17.17-.38.27-.62.3-.24.04-.46-.04-.65-.22ZM299.27,86.32c-.19.13-.41.17-.65.13-.24-.04-.42-.16-.54-.35-.09-.13-.18-.27-.28-.42s-.21-.3-.33-.47c-.39.05-.85.11-1.37.17-.52.06-1.07.12-1.64.19s-1.15.13-1.71.2-1.09.12-1.58.18c-.49.05-.91.1-1.25.13-.27.03-.49-.03-.65-.16s-.26-.32-.29-.56c-.02-.21.04-.39.18-.55s.33-.24.58-.26c.17-.02.36-.03.57-.05.2-.01.43-.03.67-.05.17-.34.37-.73.59-1.18.22-.45.44-.92.66-1.4.22-.48.43-.94.62-1.38.19-.44.35-.81.47-1.13.09-.22.23-.37.43-.46s.41-.09.63-.01c.22.08.37.22.46.42s.09.41,0,.62c-.17.38-.37.82-.6,1.32-.24.51-.48,1.03-.75,1.56-.26.53-.51,1.03-.75,1.48.65-.06,1.31-.12,1.97-.19.66-.07,1.25-.12,1.79-.18-.2-.26-.4-.51-.6-.75s-.37-.45-.53-.62c-.14-.15-.21-.33-.2-.54,0-.21.09-.38.25-.51.17-.14.35-.21.56-.2.21,0,.39.09.54.24.21.22.44.48.71.78.26.3.53.62.8.96s.53.66.77.97c.24.31.46.6.64.85.14.2.19.42.16.65s-.15.42-.35.57ZM299.25,81.39c-.46-.36-.91-.75-1.33-1.18-.43-.43-.81-.88-1.16-1.35-.34-.47-.64-.93-.88-1.39-.11-.2-.2-.35-.28-.45-.08-.1-.19-.17-.31-.2-.13-.03-.31-.05-.54-.05h-.93c-.19,0-.36-.07-.5-.22-.14-.14-.21-.31-.21-.5s.07-.37.21-.51.3-.21.5-.21h.93c.49,0,.88.04,1.16.12.29.08.53.22.73.42.2.2.39.48.6.85.33.58.77,1.18,1.31,1.77s1.14,1.12,1.79,1.58c.2.13.32.31.36.55.04.24-.02.45-.16.64-.16.19-.36.3-.6.32-.24.02-.47-.04-.67-.19Z"/><path class="cls-2" d="M303.2,86.84c-.2,0-.37-.07-.52-.21-.14-.14-.22-.32-.22-.54v-9.16c0-.72.16-1.22.49-1.51.33-.29.87-.43,1.63-.43h.86c.77,0,1.32.14,1.64.43.33.29.49.79.49,1.51v.68c0,.48-.07.85-.22,1.12-.14.27-.37.45-.68.56s-.72.16-1.24.16h-1.5v6.65c0,.22-.07.4-.22.54-.14.14-.32.21-.53.21ZM303.95,78.28h1.36c.31,0,.52-.04.63-.11s.19-.23.2-.48h-2.2v.59ZM303.96,76.73h2.17c-.02-.24-.08-.39-.2-.46-.11-.07-.32-.11-.63-.11h-.52c-.3,0-.5.04-.62.11-.12.07-.19.23-.2.46ZM309.27,86.57c-.19,0-.36-.06-.49-.18-.13-.12-.2-.29-.2-.5v-2.4h-1.07c-.1.69-.31,1.27-.65,1.75s-.82.88-1.45,1.2c-.17.09-.36.11-.55.07-.19-.04-.34-.15-.43-.33-.08-.15-.09-.3-.05-.46s.16-.29.32-.39c.44-.24.77-.49,1-.77.23-.28.39-.63.46-1.08h-1.19c-.19,0-.34-.06-.45-.18-.11-.12-.16-.26-.16-.42,0-.17.05-.32.16-.44.11-.12.26-.18.45-.18h1.26v-1.02h-.92c-.17,0-.31-.05-.41-.16s-.15-.24-.15-.4.05-.29.15-.41.24-.17.41-.17h5.48c.18,0,.33.06.42.17.1.11.15.25.15.41s-.05.29-.15.4c-.1.11-.24.16-.42.16h-.85v1.02h1.2c.19,0,.34.06.44.18.11.12.16.26.16.44,0,.17-.05.31-.16.42-.1.12-.25.18-.44.18h-1.2v2.4c0,.21-.07.38-.2.5-.14.12-.29.18-.48.18ZM307.57,82.28h1.01v-1.02h-1.01v1.02ZM311.6,86.77c-.25,0-.45-.07-.59-.2-.14-.14-.23-.32-.24-.54-.03-.21.03-.39.16-.55.13-.16.31-.25.52-.28.33-.04.53-.11.61-.2.07-.09.11-.25.11-.5v-5.05h-1.56c-.51,0-.92-.05-1.23-.16s-.54-.29-.69-.56c-.14-.27-.22-.64-.22-1.12v-.67c0-.72.17-1.23.5-1.52.33-.29.88-.43,1.64-.43h.92c.76,0,1.3.14,1.63.43.33.29.49.79.49,1.52v7.93c0,.66-.16,1.14-.48,1.44s-.84.45-1.56.45ZM309.93,76.73h2.24c-.03-.24-.1-.39-.21-.46-.11-.07-.32-.1-.63-.1h-.56c-.3,0-.51.04-.63.1-.12.07-.19.22-.21.46ZM310.77,78.28h1.4v-.59h-2.24c.02.24.08.4.2.48.12.07.33.11.63.11Z"/><path class="cls-2" d="M85.42,48.94c0-15.38-15.42-27.89-34.37-27.89s-34.37,12.51-34.37,27.89c0,13.79,12.23,25.34,28.74,27.52,1.12.24,2.64.74,3.03,1.69.35.87.23,2.23.11,3.11,0,0-.4,2.43-.49,2.94-.15.87-.69,3.4,2.98,1.85,3.67-1.55,19.79-11.65,27.01-19.96h0c4.98-5.46,7.37-11.01,7.37-17.16ZM38.93,57.15c0,.37-.3.67-.67.67h-9.63c-.18,0-.34-.07-.46-.19,0,0,0,0,0,0,0,0,0,0,0-.01-.12-.12-.19-.28-.19-.46v-14.97c0-.37.3-.67.67-.67h2.41c.37,0,.67.3.67.67v11.89h6.55c.37,0,.67.3.67.67v2.41ZM44.74,57.15c0,.37-.3.67-.67.67h-2.41c-.37,0-.67-.3-.67-.67v-14.98c0-.37.3-.67.67-.67h2.41c.37,0,.67.3.67.67v14.98ZM61.33,57.15c0,.37-.3.67-.67.67h-2.41c-.06,0-.12,0-.17-.02h-.01s-.03-.01-.05-.02c0,0-.01,0-.02,0-.01,0-.02,0-.03-.01-.01,0-.02-.01-.03-.02,0,0-.01,0-.02-.01-.01,0-.03-.02-.04-.02,0,0,0,0,0,0-.06-.04-.12-.1-.17-.16l-6.87-9.28v8.89c0,.37-.3.67-.67.67h-2.41c-.37,0-.67-.3-.67-.67v-14.98c0-.37.3-.67.67-.67h2.41s.02,0,.02,0c.01,0,.02,0,.03,0,.01,0,.02,0,.03,0,0,0,.02,0,.03,0,.01,0,.03,0,.04,0,0,0,.02,0,.02,0,.01,0,.03,0,.04.01,0,0,.01,0,.02,0,.01,0,.03.01.04.02,0,0,.01,0,.02,0,.01,0,.02.01.03.02,0,0,.01,0,.02.01.01,0,.02.02.03.02,0,0,.01,0,.02.01.01,0,.02.02.04.03,0,0,0,0,.01.01.01.01.03.03.04.04,0,0,0,0,0,0,.02.02.04.04.05.07l6.86,9.27v-8.9c0-.37.3-.67.67-.67h2.41c.37,0,.67.3.67.67v14.98ZM74.65,44.58c0,.37-.3.67-.67.67h-6.55v2.53h6.55c.37,0,.67.3.67.67v2.41c0,.37-.3.67-.67.67h-6.55v2.53h6.55c.37,0,.67.3.67.67v2.41c0,.37-.3.67-.67.67h-9.63c-.18,0-.34-.07-.46-.19,0,0,0,0,0,0,0,0,0,0,0-.01-.12-.12-.19-.28-.19-.46v-14.97c0-.18.07-.34.19-.46,0,0,0,0,.01-.01,0,0,0,0,0,0,.12-.12.28-.19.46-.19h9.63c.37,0,.67.3.67.67v2.41Z"/><path class="cls-2" d="M.5,100.21v20.76c0,6.01,4.87,10.89,10.89,10.89h313.22c6.01,0,10.89-4.87,10.89-10.89v-20.76H.5Z"/><rect class="cls-3" x=".5" y=".5" width="335" height="131.36" rx="11.46" ry="11.46"/><path class="cls-1" d="M29.68,120.71c-.47,0-.71-.24-.71-.71v-6.98c0-.47.23-.71.68-.71s.7.24.7.71v6.41h3.67c.47,0,.71.21.71.64s-.24.65-.71.65h-4.34Z"/><path class="cls-1" d="M36.99,120.71c-.46,0-.68-.24-.68-.71v-6.98c0-.47.23-.71.68-.71s.7.24.7.71v6.98c0,.47-.23.71-.7.71Z"/><path class="cls-1" d="M40.65,120.71c-.46,0-.68-.24-.68-.71v-6.98c0-.47.23-.71.68-.71h.16c.36,0,.64.16.85.47l3.65,5.5v-5.26c0-.23.06-.41.19-.53s.3-.18.52-.18c.46,0,.7.24.7.71v6.98c0,.47-.22.71-.66.71h-.12c-.37,0-.65-.16-.85-.47l-3.73-5.66v5.42c0,.47-.23.71-.7.71Z"/><path class="cls-1" d="M49.7,120.71c-.47,0-.71-.24-.71-.71v-6.98c0-.47.24-.71.71-.71h4.2c.47,0,.71.22.71.65s-.24.64-.71.64h-3.53v2.18h3.16c.47,0,.71.22.71.65s-.24.65-.71.65h-3.16v2.35h3.66c.47,0,.71.21.71.64s-.24.65-.71.65h-4.33Z"/><path class="cls-1" d="M56.14,116.87c-.15-.14-.22-.32-.22-.52,0-.2.09-.38.25-.53.3-.29.62-.63.94-1.03.32-.4.63-.81.91-1.24.28-.43.5-.82.66-1.17.09-.2.23-.33.42-.38.19-.06.38-.04.55.05.18.1.31.23.37.41.06.18.05.36-.04.55-.22.46-.47.93-.77,1.39-.3.46-.61.9-.94,1.31-.33.41-.65.78-.97,1.11-.16.15-.35.24-.57.28-.22.03-.42-.04-.59-.2ZM65.94,121.27c-.18.12-.37.16-.59.12-.22-.04-.39-.15-.5-.32-.08-.12-.17-.25-.26-.38-.09-.14-.19-.28-.31-.43-.36.05-.78.1-1.25.16-.48.06-.98.11-1.51.17-.53.06-1.05.12-1.57.18-.52.06-1,.11-1.45.16-.45.05-.83.09-1.15.12-.25.02-.45-.02-.6-.14-.15-.12-.24-.29-.26-.52-.02-.19.04-.36.17-.5.13-.14.3-.22.53-.24.16-.02.33-.03.52-.04.19-.01.39-.03.62-.04.16-.31.34-.67.54-1.09.2-.41.4-.84.61-1.28.2-.44.39-.87.57-1.27.18-.4.32-.74.43-1.03.08-.2.21-.34.4-.42s.38-.08.58-.01c.2.07.34.2.43.39.08.19.09.38,0,.57-.15.34-.34.75-.55,1.21s-.44.94-.68,1.43c-.24.49-.47.94-.68,1.36.6-.06,1.2-.11,1.81-.17.6-.06,1.15-.11,1.64-.16-.18-.24-.37-.47-.55-.69-.18-.22-.34-.41-.49-.57-.13-.14-.19-.3-.18-.49,0-.19.08-.35.23-.47.15-.13.32-.19.52-.18s.36.08.49.22c.19.2.41.44.65.71.24.28.48.57.73.88.25.31.48.61.71.89s.42.55.59.78c.13.18.18.38.15.59-.03.21-.13.39-.32.52ZM65.92,116.75c-.42-.33-.83-.69-1.22-1.09-.39-.4-.75-.81-1.06-1.24s-.59-.86-.81-1.27c-.1-.18-.18-.32-.26-.41-.08-.09-.17-.15-.29-.18-.12-.03-.28-.04-.5-.04h-.85c-.18,0-.33-.07-.46-.2-.13-.13-.19-.29-.19-.46s.06-.34.19-.47.28-.19.46-.19h.85c.45,0,.8.04,1.07.11.26.07.49.2.67.38.18.18.36.44.55.78.3.54.7,1.08,1.2,1.63s1.04,1.03,1.64,1.45c.18.12.29.29.33.5.04.22-.01.41-.15.59-.14.18-.33.27-.55.29-.22.02-.43-.04-.61-.17Z"/><path class="cls-1" d="M76.62,120.8c-.5-.6-.97-1.42-1.39-2.47-.42-1.05-.74-2.37-.95-3.96h-5.04c-.2,0-.36-.07-.49-.2-.12-.13-.19-.29-.19-.49s.06-.34.19-.47c.12-.13.29-.2.49-.2h4.9c-.02-.27-.03-.55-.04-.84s-.03-.58-.04-.88c0-.22.07-.4.21-.53.14-.13.31-.2.51-.2s.37.06.51.19.21.3.21.53c0,.3,0,.59,0,.88.01.29.03.57.04.85h3.32c.21,0,.37.07.49.2.12.13.18.29.18.47s-.06.35-.18.49c-.12.13-.28.2-.49.2h-3.18c.18,1.28.44,2.38.8,3.31.36.92.75,1.61,1.19,2.07.12.13.22.18.31.16.08-.02.16-.1.23-.25.04-.09.09-.19.14-.31.06-.12.1-.21.13-.29.08-.18.21-.31.38-.37.17-.06.35-.05.52.02.18.08.31.2.38.37s.07.33.02.5c-.06.17-.12.33-.19.48-.07.15-.15.32-.23.5-.22.45-.48.75-.79.91-.31.16-.64.18-.98.06-.34-.12-.67-.36-.98-.73ZM69.48,121.26c-.22.03-.41,0-.55-.11-.14-.11-.24-.27-.28-.47-.03-.21,0-.38.13-.51.12-.13.28-.21.5-.25.06,0,.24-.04.54-.08.3-.05.66-.1,1.08-.17v-2.59h-1.44c-.2,0-.36-.06-.47-.19-.12-.13-.17-.28-.17-.46s.06-.34.17-.46c.12-.12.27-.19.47-.19h4.18c.2,0,.36.06.47.19.11.12.17.28.17.46s-.06.33-.17.46c-.11.13-.27.19-.47.19h-1.25v2.35c.42-.06.8-.12,1.12-.18.32-.06.53-.09.61-.1.21-.04.38-.02.51.07.13.09.21.23.25.42.04.19.01.35-.08.49-.09.13-.23.22-.41.26-.07.02-.23.05-.48.09-.25.04-.55.1-.9.16-.35.06-.72.13-1.1.2-.38.07-.75.13-1.1.2-.35.06-.64.12-.88.16-.24.04-.38.06-.44.07ZM78.12,112.84c-.14.12-.31.17-.5.16-.19-.02-.35-.09-.49-.23-.06-.06-.14-.15-.24-.25-.1-.1-.21-.2-.31-.29-.1-.1-.19-.17-.25-.23-.13-.11-.19-.26-.19-.43,0-.18.07-.33.2-.46.13-.14.28-.21.45-.23.17-.02.33.04.47.17.07.06.17.14.29.25.12.11.24.21.35.32.12.1.2.19.26.25.14.14.2.3.19.49-.01.19-.09.35-.23.49Z"/><path class="cls-1" d="M83.95,121.21c-.16.13-.34.18-.54.16-.2-.02-.36-.12-.49-.28s-.18-.34-.16-.55.12-.37.28-.5c.54-.42,1-.92,1.36-1.49.36-.57.61-1.2.75-1.88.14-.68.15-1.38.02-2.11-.03-.21,0-.39.12-.56.11-.16.27-.26.47-.29.21-.04.39,0,.56.11.16.11.26.27.29.48.02.06.03.12.03.18,0,.06,0,.13.02.19.72-.04,1.26-.1,1.63-.19.36-.08.61-.18.73-.29.12-.11.19-.22.19-.33,0-.17-.05-.3-.16-.39-.1-.09-.33-.14-.67-.14h-6.35c-.2,0-.37-.07-.52-.22-.15-.14-.22-.32-.22-.52s.07-.38.22-.52c.15-.14.32-.21.52-.21h6.35c1.58,0,2.38.64,2.38,1.93,0,.48-.14.88-.41,1.19-.28.32-.71.56-1.31.73-.6.17-1.38.28-2.35.34-.07,1.04-.34,2-.82,2.89-.47.89-1.11,1.64-1.91,2.26Z"/><path class="cls-1" d="M93.57,121.09c-.15-.14-.23-.31-.24-.51,0-.2.06-.38.19-.53.62-.67,1.16-1.43,1.6-2.27.44-.84.79-1.76,1.04-2.74-.45.02-.87.05-1.25.07-.39.02-.64.03-.76.04-.2,0-.38-.06-.53-.2-.15-.14-.23-.31-.24-.51,0-.21.06-.39.19-.54.14-.15.31-.23.52-.24.09,0,.26-.02.5-.02s.54-.02.87-.03c.33-.01.67-.03,1-.04.1-.6.16-1.22.18-1.86,0-.21.09-.38.24-.52.15-.14.33-.2.53-.19.21,0,.38.09.52.23.14.15.2.33.19.53,0,.3-.03.59-.06.88-.03.29-.07.58-.11.88l.35-.02c.87-.03,1.54.08,2.02.32.47.25.78.66.91,1.24.14.58.13,1.35-.02,2.32-.13.82-.31,1.48-.55,1.99-.24.51-.52.9-.85,1.16s-.71.42-1.12.48c-.42.06-.87.05-1.36-.03-.2-.03-.36-.13-.48-.3-.12-.17-.16-.35-.13-.55.04-.21.14-.37.31-.49s.35-.15.55-.11c.26.05.5.06.72.04s.41-.11.59-.26c.18-.15.34-.4.48-.75.14-.35.26-.83.37-1.43.11-.63.14-1.11.1-1.42-.05-.32-.19-.53-.43-.63-.24-.1-.59-.15-1.06-.13-.12,0-.35.01-.68.04-.29,1.21-.7,2.34-1.22,3.4s-1.14,1.96-1.82,2.71c-.14.15-.31.23-.51.23-.2,0-.38-.06-.53-.2Z"/><path class="cls-1" d="M107.53,121.3c-.18.08-.37.09-.56.04-.19-.05-.34-.17-.43-.35-.1-.18-.11-.38-.05-.58.06-.2.18-.34.37-.42,1.17-.53,2.06-1.12,2.68-1.78.62-.66,1.04-1.4,1.26-2.22.08-.28.13-.51.14-.68.01-.17-.01-.32-.08-.44-.06-.1-.18-.17-.35-.23-.17-.06-.42-.1-.74-.13-.33-.03-.77-.04-1.32-.04s-1.01,0-1.33.03c-.32.02-.55.06-.7.11-.15.05-.27.13-.35.22-.08.1-.12.27-.11.5,0,.23.05.6.13,1.09.04.2,0,.38-.12.55s-.28.27-.49.3c-.2.03-.38-.01-.55-.13s-.27-.28-.31-.48c-.08-.51-.13-.94-.16-1.29-.02-.35,0-.65.06-.89.06-.25.18-.47.36-.67.17-.19.36-.34.58-.44.22-.1.51-.18.88-.23.37-.05.84-.08,1.43-.09v-1.39c0-.21.07-.38.22-.53.14-.14.32-.22.52-.22s.38.07.53.22c.14.14.22.32.22.53v1.39c.56.02,1.02.05,1.39.11.37.06.67.14.91.26.24.12.43.28.59.49.23.31.34.66.32,1.06-.02.39-.1.87-.25,1.43-.17.62-.44,1.22-.8,1.82-.37.6-.87,1.16-1.49,1.69-.63.52-1.42.99-2.37,1.4Z"/><path class="cls-1" d="M117.58,115.51c-.3-.26-.64-.52-1.02-.8-.38-.28-.72-.5-1.02-.68-.18-.11-.29-.27-.34-.46-.05-.2-.02-.38.08-.56.11-.18.27-.29.46-.34.2-.05.38-.02.56.09.22.14.46.3.74.5.28.2.54.39.8.58.26.19.47.36.64.49.16.13.25.29.28.5.03.2-.02.39-.15.55-.13.16-.29.25-.5.28-.2.03-.39-.02-.55-.15ZM116.55,120.24c-.19.07-.38.06-.57-.02-.19-.09-.32-.23-.39-.42-.07-.19-.06-.38.02-.57.09-.19.23-.32.42-.39.64-.22,1.29-.5,1.94-.83s1.28-.69,1.87-1.07c.6-.39,1.14-.79,1.63-1.2.49-.41.89-.81,1.21-1.19.14-.16.31-.25.51-.28.2-.02.38.03.53.17.16.13.25.29.28.5.02.2-.03.39-.17.55-.33.4-.76.83-1.31,1.28-.54.45-1.15.9-1.82,1.34-.67.44-1.36.85-2.08,1.22-.71.38-1.4.68-2.08.92Z"/><path class="cls-1" d="M128.74,121.22c-.2,0-.37-.07-.52-.22-.14-.14-.22-.32-.22-.52v-8.29c0-.21.07-.38.22-.52.14-.14.32-.21.52-.21s.38.07.53.21c.14.14.22.31.22.52v2.89c.1-.16.25-.27.43-.32.18-.05.36-.03.54.05.47.25.95.53,1.45.85.49.32.92.63,1.28.94.16.13.25.3.27.51s-.04.4-.17.56c-.13.15-.3.24-.5.26-.21.02-.39-.03-.55-.16-.22-.18-.48-.36-.77-.56-.29-.2-.58-.39-.88-.58-.29-.19-.56-.35-.8-.49-.13-.07-.22-.16-.29-.26v4.61c0,.2-.07.37-.22.52-.14.14-.32.22-.53.22Z"/><path class="cls-1" d="M137.35,120.9c-.2.03-.38,0-.54-.12-.16-.11-.26-.26-.3-.46-.07-.41-.13-.88-.17-1.42s-.06-1.11-.06-1.71.02-1.2.05-1.81c.03-.61.08-1.19.15-1.75.07-.56.15-1.05.25-1.49.04-.19.14-.34.31-.45.17-.11.35-.14.54-.1.19.05.34.15.45.32s.14.35.1.55c-.13.57-.23,1.18-.3,1.85-.07.66-.12,1.34-.14,2.02-.02.68-.01,1.35.03,1.99.04.64.11,1.23.2,1.76.04.19,0,.37-.11.53-.12.16-.27.26-.46.3ZM142.27,120.25c-1.04,0-1.81-.19-2.32-.56-.51-.38-.81-.93-.92-1.66-.03-.19,0-.37.13-.53.12-.16.27-.26.47-.29.19-.02.37.02.53.14.16.12.26.27.29.47.05.34.21.6.49.77.28.17.73.25,1.37.25.6,0,1.32-.09,2.17-.28.19-.05.37-.02.54.1s.27.26.31.46c.04.19,0,.37-.11.53s-.26.27-.46.32c-.43.1-.86.18-1.29.22s-.83.06-1.21.06ZM140.07,114.31c-.19.04-.37,0-.53-.1s-.27-.26-.31-.46c-.04-.19,0-.37.1-.54s.26-.27.46-.3c.45-.09.95-.15,1.5-.17.55-.03,1.1-.03,1.64-.01.54.02,1.02.07,1.44.14.2.03.36.13.47.29.11.16.15.35.11.55-.03.2-.13.35-.29.46-.16.11-.34.15-.53.11-.65-.11-1.32-.17-2.02-.16-.7,0-1.38.07-2.04.2Z"/><path class="cls-1" d="M147.64,116.29c-.18.1-.36.14-.53.11-.17-.03-.31-.13-.41-.29-.1-.15-.12-.31-.08-.49s.15-.31.33-.4c.28-.15.56-.32.85-.5.28-.18.55-.38.81-.58-.09-.09-.2-.19-.33-.3-.13-.11-.26-.22-.37-.32-.12-.1-.21-.18-.28-.23-.12-.1-.18-.23-.19-.39s.04-.3.16-.41c.11-.12.25-.19.41-.2s.31.03.44.14c.06.05.16.13.3.24s.28.23.42.35c.14.12.26.23.36.32.28-.27.53-.55.74-.84.22-.3.15-.44-.2-.44h-1.92c-.15,0-.29-.06-.4-.17-.12-.11-.17-.24-.17-.4,0-.16.06-.29.17-.4.12-.11.25-.16.4-.16h2.35c.46,0,.81.09,1.03.26s.34.4.34.68-.1.57-.32.89c-.12.18-.25.35-.38.53-.13.18-.27.35-.43.52h3.16c-.59-.68-1.1-1.43-1.51-2.26-.08-.16-.09-.32-.02-.47.07-.16.17-.27.32-.34.16-.07.32-.08.48-.04s.28.16.37.32c.09.16.18.32.28.48s.2.32.31.48c.11-.1.24-.2.37-.32.14-.12.27-.23.39-.34s.21-.19.27-.25c.12-.11.26-.17.43-.17s.31.06.43.19c.11.12.17.26.18.43s-.05.3-.18.41c-.06.06-.17.14-.31.26-.14.12-.29.24-.44.37-.16.13-.29.24-.41.34.09.09.17.18.26.26s.17.18.26.26c.1-.08.22-.19.38-.32.16-.14.32-.27.47-.4.15-.13.26-.23.34-.29.12-.11.26-.17.43-.17s.3.06.41.19c.12.12.18.26.19.43s-.05.3-.18.41c-.06.06-.16.14-.29.25-.13.11-.27.23-.42.35-.15.12-.28.23-.4.33.21.15.42.3.64.43.22.14.45.26.7.38.16.08.27.21.32.38.06.18.04.34-.05.5-.11.2-.27.32-.47.35-.2.03-.4,0-.58-.1-.41-.23-.8-.48-1.16-.74s-.72-.54-1.04-.84c-.03.14-.1.25-.22.35-.11.1-.24.14-.4.14h-3.34c-.16,0-.3-.06-.42-.17-.12-.11-.19-.24-.2-.4-.37.35-.76.68-1.17.98-.41.3-.83.57-1.25.8ZM147.63,121.44c-.16,0-.3-.06-.42-.17-.12-.12-.18-.25-.18-.41s.06-.31.18-.43c.12-.12.26-.17.42-.17h2.54c-.04-.11-.07-.24-.1-.39-.02-.15-.03-.29-.02-.43.01-.14.04-.24.09-.31.02-.03.05-.06.07-.08.02-.02.05-.04.07-.05-.58-.06-.97-.21-1.19-.46s-.32-.64-.32-1.16c0-.42.06-.74.19-.98.13-.24.35-.41.66-.51.31-.1.74-.16,1.28-.16h2.75c.54,0,.97.05,1.28.16.31.1.53.27.65.51.13.24.19.56.19.98,0,.47-.08.83-.25,1.08-.17.25-.47.41-.91.49.09.09.15.19.17.32.03.12.01.25-.04.37-.02.06-.06.15-.11.26-.05.11-.11.23-.16.36h2.53c.16,0,.3.06.42.17.12.12.18.26.18.43s-.06.3-.18.41c-.12.12-.26.17-.42.17h-9.38ZM150.79,117.85h3.01c.22,0,.37-.03.46-.1.09-.06.13-.2.13-.4s-.04-.33-.13-.39c-.09-.06-.24-.09-.46-.09h-3.01c-.22,0-.38.03-.47.09-.09.06-.13.19-.13.39s.04.33.13.4c.09.06.24.1.47.1ZM151.57,120.25h1.42c.06-.16.14-.35.24-.58.1-.22.17-.4.23-.54.02-.02.03-.05.04-.07,0-.02.02-.04.02-.05h-2.64c.1.06.22.18.34.34.12.16.2.3.25.42.02.06.05.14.07.22s.03.17.04.26Z"/><path class="cls-1" d="M160.11,121.4c-.2.04-.38.02-.53-.07-.16-.08-.25-.23-.29-.43-.03-.18,0-.34.1-.48.1-.14.25-.23.45-.26.21-.03.43-.07.68-.11s.5-.09.76-.14v-2.95h-1.28c-.15,0-.28-.05-.39-.16-.11-.1-.16-.23-.16-.38,0-.16.05-.29.16-.4.11-.1.24-.16.39-.16h1.28v-.9h-.66c-.15,0-.28-.06-.4-.17-.11-.12-.17-.25-.17-.4v-.07c-.13.13-.29.19-.47.2-.19,0-.35-.07-.49-.21-.12-.14-.18-.29-.17-.46,0-.17.08-.31.2-.41.2-.18.41-.39.64-.63.22-.24.44-.48.65-.72s.39-.47.54-.68c.28-.37.61-.54.99-.52.38.02.71.18,1,.49.21.22.45.47.74.75s.53.51.74.69c.14.11.21.26.21.43,0,.18-.05.33-.17.47-.13.13-.28.2-.47.2-.18,0-.34-.05-.48-.17-.18-.16-.39-.36-.63-.61-.24-.24-.45-.46-.61-.65-.11-.14-.21-.2-.31-.2s-.19.08-.31.23c-.14.18-.32.4-.52.64-.2.24-.41.47-.62.7.02,0,.06-.01.1-.01h2.74c.16,0,.29.05.4.16s.16.24.16.4c0,.15-.05.29-.16.4-.11.12-.24.17-.4.17h-.84v.9h1.12c.15,0,.28.05.38.16s.16.24.16.4-.05.28-.16.38-.23.16-.38.16h-1.12v2.71c.16-.03.31-.06.46-.1.15-.03.29-.06.41-.08.19-.04.35-.02.49.07.13.08.21.21.25.37.09.38-.07.62-.47.72-.29.07-.65.15-1.07.25-.43.09-.86.18-1.3.28-.44.09-.83.17-1.16.23ZM160.74,119.6c-.15.06-.3.05-.44-.02-.14-.07-.23-.17-.27-.29-.03-.1-.08-.22-.14-.38-.06-.16-.12-.31-.17-.47-.06-.16-.1-.28-.14-.37-.06-.14-.05-.28.02-.41s.18-.22.34-.27c.16-.06.3-.06.43,0,.13.06.22.16.28.31.04.1.09.22.15.38.06.16.12.32.17.47.06.15.1.27.12.35.05.15.04.29-.02.42-.06.13-.17.22-.32.29ZM162.96,119.28c-.13-.06-.22-.15-.28-.28-.06-.13-.05-.26.01-.39.04-.08.09-.19.14-.32.06-.14.11-.27.17-.41.06-.14.1-.25.13-.33.06-.17.17-.28.32-.35.15-.06.3-.06.46,0,.14.06.24.15.3.29.06.14.06.28-.01.44-.03.08-.08.19-.14.34-.06.14-.13.29-.19.43-.06.14-.12.25-.16.33-.07.14-.18.23-.32.28-.14.05-.29.04-.43-.01ZM166.1,121.7c-.2,0-.36-.06-.48-.18-.12-.12-.19-.27-.2-.46,0-.16.05-.31.16-.44.12-.13.27-.2.45-.21.21-.02.35-.05.43-.11.08-.06.11-.18.11-.35v-.58c-.14.07-.31.16-.51.26-.2.1-.39.19-.57.28-.18.09-.34.16-.48.22-.18.07-.35.07-.51,0-.16-.07-.28-.19-.34-.38-.06-.18-.06-.34.01-.49.07-.15.19-.26.36-.32.14-.05.34-.12.59-.23.25-.1.51-.21.78-.32.27-.11.49-.21.67-.29v-2.24h-1.93c-.16,0-.3-.06-.41-.17-.12-.12-.17-.25-.17-.41s.06-.3.17-.41c.12-.12.25-.17.41-.17h3.11v-.7h-2.42c-.15,0-.28-.06-.4-.17-.11-.12-.17-.25-.17-.4,0-.16.06-.29.17-.4.11-.11.24-.16.4-.16h2.42v-.07c0-.26-.04-.42-.12-.49-.08-.07-.26-.11-.54-.11h-1.87c-.15,0-.28-.06-.4-.17s-.17-.25-.17-.4.06-.3.17-.41c.11-.12.24-.17.4-.17h1.87c.53,0,.93.05,1.22.15s.48.27.59.52c.11.25.17.6.17,1.07v1.93h.77c.16,0,.3.06.41.17.12.12.17.25.17.41s-.06.3-.17.41c-.12.12-.25.17-.41.17h-1.99v1.02c.04.06.08.11.11.17.04.06.07.12.11.18.12-.1.25-.22.38-.34.14-.12.26-.24.38-.35s.21-.2.26-.25c.12-.11.27-.16.44-.15.17.01.31.08.41.21.11.12.17.26.16.42s-.07.3-.2.41c-.11.1-.28.25-.51.44-.23.19-.44.36-.63.51.25.28.5.55.77.81.26.26.51.49.74.68.14.11.22.26.22.43s-.05.33-.17.46c-.13.14-.29.22-.47.23-.19,0-.35-.05-.5-.18-.25-.22-.5-.49-.77-.8s-.52-.63-.76-.95v1.32c0,.56-.13.97-.4,1.22s-.71.38-1.34.38ZM166.04,118.08c-.14.1-.29.14-.45.11-.16-.03-.3-.12-.4-.25-.03-.05-.09-.12-.17-.22-.08-.1-.16-.2-.24-.31-.08-.1-.14-.18-.18-.23-.1-.13-.14-.27-.12-.44.02-.16.1-.29.24-.38.15-.1.31-.15.47-.13.16.02.3.09.4.23.04.04.1.11.19.22.08.11.17.21.25.32.08.1.14.18.16.22.11.14.15.3.12.46s-.12.3-.28.41Z"/><path class="cls-1" d="M176.36,121.22c-.96,0-1.71-.24-2.26-.71-.55-.48-.82-1.24-.82-2.3v-6.4c0-.2.07-.37.21-.51.14-.14.31-.21.51-.21s.37.07.51.21c.14.14.21.31.21.51v6.4c0,.59.13,1,.4,1.24.27.23.68.35,1.24.35.5,0,.96-.13,1.4-.4.44-.26.79-.69,1.06-1.27.09-.18.23-.31.42-.37.19-.06.38-.05.55.04.18.08.31.22.37.41.06.19.05.38-.03.56-.35.79-.87,1.4-1.54,1.82-.68.42-1.42.64-2.23.64Z"/><path class="cls-1" d="M188.93,121.09c-.94-.14-1.72-.41-2.34-.82-.62-.41-1.07-.91-1.37-1.49s-.45-1.19-.45-1.82.13-1.24.38-1.79.61-1.04,1.09-1.45c-.48.07-.99.15-1.54.25s-1.07.18-1.58.28-.96.17-1.34.25c-.19.03-.37-.01-.53-.13s-.26-.28-.29-.47c-.03-.2.01-.38.13-.53.12-.16.28-.25.48-.28.26-.04.58-.09.98-.16.4-.07.85-.14,1.34-.22.5-.08,1-.16,1.52-.25.52-.09,1.03-.17,1.53-.26s.96-.16,1.37-.23c.42-.07.76-.13,1.02-.18.18-.03.36,0,.52.12s.26.26.3.44c.04.19,0,.37-.1.54-.11.17-.26.27-.45.3-.58.08-1.09.25-1.52.5-.43.25-.78.56-1.06.91-.28.36-.49.73-.62,1.13s-.2.79-.2,1.16c0,.78.26,1.4.79,1.88.53.48,1.24.78,2.15.92.2.03.36.13.48.29s.16.34.13.53c-.03.2-.13.36-.28.48-.16.12-.33.16-.53.13Z"/><path class="cls-1" d="M196.76,121.82c-.19,0-.35-.06-.49-.19s-.2-.29-.2-.5v-.77c-.31.06-.67.13-1.09.21s-.82.15-1.22.22-.74.13-1.03.17c-.18.03-.34,0-.47-.1-.13-.1-.21-.23-.24-.4-.03-.16,0-.3.11-.43.1-.12.24-.2.42-.22l.62-.08v-3.83h-.72c-.15,0-.28-.05-.38-.16-.1-.11-.16-.24-.16-.39s.05-.27.16-.38c.1-.11.23-.17.38-.17h10.26c.14,0,.27.06.37.17.1.11.16.24.16.38s-.05.28-.16.39c-.1.11-.23.16-.37.16h-5.28v5.23c0,.21-.07.37-.2.5-.13.12-.29.19-.49.19ZM196.16,114.42c-.62,0-1.1-.06-1.43-.17s-.55-.3-.68-.57c-.12-.27-.19-.64-.19-1.12s.06-.85.19-1.12c.12-.27.35-.46.68-.56s.8-.16,1.43-.16h2.89c.62,0,1.1.05,1.43.16s.56.3.68.56c.12.27.19.64.19,1.12s-.06.85-.19,1.12c-.12.27-.35.46-.68.57s-.81.17-1.43.17h-2.89ZM194.56,116.46h1.51v-.55h-1.51v.55ZM194.56,117.91h1.51v-.55h-1.51v.55ZM194.56,119.53c.28-.04.55-.08.81-.12.26-.04.49-.08.7-.11v-.49h-1.51v.72ZM195.25,112.12h4.73c-.03-.21-.11-.34-.24-.39s-.36-.08-.68-.08h-2.89c-.32,0-.54.03-.67.08s-.21.18-.24.39ZM196.16,113.47h2.89c.33,0,.56-.03.68-.08.13-.06.21-.19.24-.4h-4.73c.02.21.1.34.23.4.13.06.36.08.68.08ZM198.62,121.37c-.19.1-.38.15-.58.13-.19-.02-.34-.12-.46-.31-.09-.15-.11-.32-.07-.49s.15-.31.32-.4c.54-.26,1.02-.56,1.46-.9-.45-.57-.79-1.22-1.02-1.94h-.2c-.15,0-.28-.06-.38-.17-.1-.11-.16-.24-.16-.4,0-.14.05-.27.16-.38.1-.11.23-.17.38-.17h2.59c.49,0,.86.09,1.1.28.25.18.38.43.4.73.02.3-.08.64-.29,1-.21.37-.47.73-.78,1.08.21.14.44.28.68.41.25.13.52.25.82.37.18.08.3.21.36.38.06.17.04.34-.05.51-.09.18-.23.28-.42.32-.19.04-.38.02-.56-.06-.33-.14-.64-.29-.92-.47s-.56-.37-.82-.57c-.49.39-1.01.74-1.57,1.06ZM200.18,118.58c.18-.2.32-.4.43-.59.11-.18.15-.32.1-.41s-.19-.13-.43-.13h-.77c.17.42.39.8.66,1.13Z"/><path class="cls-1" d="M207.67,121.8c-.18,0-.34-.06-.47-.19-.13-.12-.2-.29-.2-.49v-2.35c-.21.3-.43.59-.66.88-.23.29-.44.52-.62.71-.13.13-.28.2-.46.23-.18.02-.33-.03-.47-.16-.12-.11-.18-.25-.19-.4,0-.16.04-.29.16-.39.18-.18.39-.39.62-.65.23-.26.45-.52.66-.79.21-.27.39-.5.53-.7h-1.07c-.18,0-.32-.06-.43-.17-.11-.11-.17-.25-.17-.42s.06-.3.17-.41c.11-.12.26-.17.43-.17h1.5v-.82h-1.75c-.18,0-.31-.05-.41-.16-.1-.11-.15-.24-.15-.39,0-.16.05-.29.15-.4.1-.11.24-.16.41-.16h.89c-.06-.14-.11-.27-.16-.41-.05-.14-.09-.25-.11-.32-.06-.16-.05-.31.01-.44.06-.13.17-.22.32-.26h.04s-.73-.01-.73-.01c-.17,0-.3-.05-.4-.16-.1-.11-.15-.24-.15-.39s.05-.28.15-.39c.1-.11.23-.16.4-.16h1.46v-.71c0-.18.07-.34.2-.46.13-.12.3-.18.5-.18s.38.06.51.18c.13.12.2.27.2.46v.71h1.44c.18,0,.31.05.41.16.1.11.14.24.14.39s-.05.28-.14.39-.23.16-.41.16h-.67c.16.05.27.14.33.27.06.13.06.28,0,.44-.03.08-.07.19-.13.32s-.11.27-.17.41h.82c.18,0,.31.05.41.16.1.11.14.24.14.4s-.05.28-.14.39c-.1.11-.23.16-.41.16h-1.66v.82h1.36c.18,0,.33.06.44.17.11.12.16.25.16.41s-.05.31-.16.42c-.11.11-.25.17-.44.17h-1.22c.1.11.24.25.41.41s.35.31.53.46c.18.15.33.26.44.34.13.1.2.24.21.41s-.04.31-.15.43c-.12.13-.26.19-.42.2s-.3-.05-.43-.16c-.19-.18-.43-.42-.72-.72v2.26c0,.2-.06.36-.19.49s-.28.19-.47.19ZM207.35,114.39h.6c.06-.16.14-.35.23-.58.09-.22.16-.41.22-.55.06-.15.15-.26.29-.31h-2.06c.06.02.13.06.19.11.06.05.11.12.14.21.03.06.07.17.12.31s.1.28.16.43c.06.15.1.27.13.38ZM213.79,121.76c-.18,0-.34-.06-.48-.19-.14-.13-.2-.3-.2-.5v-5.38h-1c0,1.26-.14,2.33-.38,3.21s-.64,1.68-1.18,2.39c-.13.16-.29.26-.5.29s-.39,0-.56-.11c-.14-.1-.23-.25-.26-.43-.03-.18.01-.33.13-.46.34-.4.61-.85.81-1.34s.35-1.06.44-1.69c.09-.64.13-1.37.13-2.19v-1.86c0-.45.05-.81.16-1.07.11-.27.28-.48.53-.62.24-.15.57-.27.97-.35.31-.06.67-.15,1.07-.27.4-.12.77-.22,1.09-.32.22-.07.41-.07.58,0s.28.19.34.35c.06.19.06.38,0,.55s-.19.29-.38.34c-.34.09-.7.18-1.06.26-.36.09-.72.17-1.07.25-.33.08-.55.18-.67.31s-.18.36-.18.68v.76h3.06c.2,0,.36.06.47.19s.17.28.17.47-.06.33-.17.46-.27.19-.47.19h-.68v5.38c0,.21-.07.38-.2.5-.14.13-.3.19-.49.19Z"/><path class="cls-1" d="M223.7,120.67c-.2.05-.39.02-.56-.08-.18-.1-.29-.25-.34-.44-.05-.19-.02-.37.08-.55.1-.17.25-.28.44-.33.89-.23,1.54-.61,1.96-1.13.42-.52.63-1.18.63-1.98,0-.5-.11-.96-.34-1.36-.22-.4-.54-.72-.95-.97s-.91-.4-1.48-.46c-.14,1.34-.39,2.51-.73,3.49-.34.98-.74,1.74-1.2,2.27s-.94.8-1.45.8c-.42,0-.81-.12-1.16-.37-.35-.25-.63-.6-.83-1.07s-.31-1.02-.31-1.67.13-1.29.38-1.87.61-1.09,1.07-1.53c.46-.44,1.01-.78,1.64-1.03.63-.25,1.32-.37,2.07-.37.91,0,1.72.17,2.43.52.71.35,1.27.83,1.67,1.45.41.62.61,1.34.61,2.17,0,1.16-.31,2.13-.93,2.9-.62.77-1.53,1.31-2.72,1.61ZM219.79,118.45c.14,0,.31-.12.5-.37.19-.24.38-.59.57-1.04.19-.45.37-.98.53-1.59s.28-1.29.36-2.03c-.62.12-1.15.35-1.57.69s-.74.74-.96,1.21-.33.96-.34,1.47c0,.54.09.96.26,1.24s.39.42.65.42Z"/><path class="cls-1" d="M229.48,116.34c-.17-.03-.29-.12-.36-.26s-.09-.29-.06-.45c.05-.19.1-.43.14-.71s.09-.57.13-.86c.04-.29.07-.53.08-.73.02-.21.09-.36.23-.46.14-.1.31-.13.5-.1.16.02.29.1.38.22s.14.28.12.46c-.02.23-.06.5-.1.81-.04.31-.08.61-.13.89-.05.29-.1.53-.14.73-.04.18-.13.3-.28.38-.15.08-.32.1-.52.06ZM231.61,121.72c-.19,0-.35-.06-.49-.19s-.2-.29-.2-.5v-9.8c0-.21.07-.37.2-.5s.29-.19.49-.19.35.06.48.19.19.29.19.5v1.25s.02,0,.04-.02c.13-.09.27-.13.42-.12.15,0,.27.07.35.18.05.06.11.14.2.26s.17.23.26.35.15.21.19.28c.02-.11.06-.21.13-.29s.17-.13.3-.13h1.64v-.44h-2.27c-.14,0-.26-.05-.34-.14-.08-.1-.13-.21-.13-.34s.04-.24.13-.34c.08-.1.2-.15.34-.15h2.27v-.42c0-.21.07-.37.2-.49.14-.12.3-.18.49-.18s.35.06.49.18.2.28.2.49v.42h2.45c.14,0,.26.05.34.15.08.1.12.21.12.34s-.04.24-.12.34c-.08.1-.19.14-.34.14h-2.45v.44h1.74c.14,0,.24.05.31.14.07.1.11.2.11.32s-.04.23-.11.32-.18.14-.31.14h-1.74v.48h2.78c.15,0,.27.05.35.14.08.1.12.21.12.35,0,.13-.04.24-.12.34-.08.1-.2.14-.35.14h-6.78c-.15,0-.27-.05-.35-.14-.08-.1-.12-.21-.12-.34,0-.14.04-.25.12-.35.08-.1.2-.14.35-.14h2.62v-.48h-1.64c-.06,0-.12-.01-.17-.04-.05-.03-.1-.06-.14-.09,0,.2-.08.36-.24.47-.13.09-.27.12-.43.1-.16-.02-.28-.1-.37-.23-.06-.09-.14-.21-.24-.37-.1-.16-.2-.3-.29-.43v7.7c0,.21-.06.37-.19.5s-.29.19-.48.19ZM234.52,121.81c-.19,0-.36-.06-.49-.19-.14-.13-.2-.3-.2-.5v-3.65c0-.42.05-.75.16-.99.11-.24.3-.42.56-.53.27-.11.64-.16,1.12-.16h1.85c.48,0,.85.05,1.12.16.26.11.45.28.56.53.11.24.16.57.16.99v2.64c0,.6-.15,1.03-.46,1.28-.3.25-.75.38-1.33.38-.2,0-.36-.05-.49-.16-.13-.11-.2-.25-.22-.43-.02-.18.02-.34.12-.48.1-.14.24-.22.43-.24.22-.03.37-.07.45-.11s.11-.16.11-.35v-.3h-2.77v1.43c0,.21-.07.38-.2.5s-.3.19-.48.19ZM235.2,117.31h2.77c0-.23-.06-.38-.15-.44s-.29-.09-.58-.09h-1.31c-.3,0-.49.03-.58.09-.09.06-.14.21-.15.44ZM235.2,118.76h2.77v-.53h-2.77v.53Z"/><path class="cls-1" d="M244.81,121.76c-.18,0-.33-.06-.46-.18s-.19-.28-.19-.48v-1.55h-1.45c-.16,0-.3-.06-.41-.17-.12-.12-.17-.25-.17-.41s.06-.3.17-.41.25-.17.41-.17h1.45v-.82h-1.61c-.16,0-.3-.06-.41-.17-.12-.12-.17-.25-.17-.41s.06-.3.17-.41c.12-.12.25-.17.41-.17h.64c-.06-.15-.11-.3-.17-.44-.06-.14-.09-.24-.11-.28-.06-.15-.06-.3.01-.44.07-.14.18-.24.34-.3h-.9c-.16,0-.3-.06-.41-.17-.12-.12-.17-.25-.17-.41s.06-.3.17-.41c.12-.12.25-.17.41-.17h1.8v-.76h-1.28c-.16,0-.3-.06-.41-.17-.11-.12-.17-.25-.17-.4,0-.16.06-.3.17-.41.11-.11.25-.17.41-.17h1.28v-.64c0-.2.06-.36.19-.48.13-.12.28-.18.46-.18s.34.06.47.18c.13.12.19.28.19.48v.64h1.24c.16,0,.3.06.41.17s.17.25.17.41-.06.29-.17.4c-.11.12-.25.17-.41.17h-1.24v.76h1.67c.16,0,.3.06.41.17s.17.25.17.41-.06.3-.17.41-.25.17-.41.17h-.79c.14.06.25.15.32.29.07.14.07.28,0,.43-.02.06-.05.16-.11.31-.06.15-.12.29-.19.44h.56c.16,0,.3.06.41.17.12.12.17.25.17.41s-.06.3-.17.41c-.12.12-.25.17-.41.17h-1.46v.82h1.32c.16,0,.3.06.41.17.12.12.17.25.17.41s-.06.3-.17.41-.25.17-.41.17h-1.32v1.55c0,.2-.06.36-.19.48s-.28.18-.47.18ZM244.45,116.38h.68c.04-.1.09-.23.14-.38.05-.15.1-.3.14-.43.04-.14.07-.22.09-.26.02-.1.07-.18.13-.24.06-.06.14-.11.22-.14h-2.16c.16.06.28.18.35.34.03.07.07.18.13.34.05.15.11.3.16.45.06.15.1.26.12.34ZM248.47,121.74c-.18,0-.33-.06-.46-.19s-.2-.29-.2-.49v-8.15c0-.53.06-.94.19-1.23.12-.29.35-.5.68-.62s.8-.18,1.43-.18,1.1.05,1.43.16c.33.1.56.29.68.55.12.26.19.63.19,1.1,0,.53-.06.94-.19,1.24s-.33.5-.62.62c-.28.12-.66.18-1.13.19-.21,0-.37-.06-.49-.19-.12-.12-.19-.29-.2-.49,0-.18.05-.34.17-.46s.29-.19.49-.2c.26-.02.44-.06.52-.14s.12-.22.12-.43c0-.3-.06-.5-.18-.59s-.38-.13-.78-.13-.65.05-.77.15c-.12.1-.19.31-.19.64v2.15h1.85c.64,0,1.08.15,1.32.44s.3.73.18,1.33c-.18.87-.45,1.63-.82,2.28.18.2.36.39.55.58.19.19.4.37.62.53.14.1.22.25.23.44.01.19-.04.35-.15.49-.13.15-.29.23-.48.25-.19.01-.36-.04-.52-.16-.19-.15-.37-.31-.55-.47s-.33-.33-.49-.51c-.13.14-.26.29-.39.43-.13.14-.27.28-.41.41-.14.13-.3.2-.48.22-.18.02-.34-.03-.48-.16-.02.18-.1.32-.22.43-.12.11-.27.16-.45.16ZM249.14,120.19c.38-.35.7-.71.98-1.07-.39-.69-.69-1.47-.9-2.35-.05-.19-.02-.36.07-.49h-.16v3.91ZM250.87,117.86c.06-.16.13-.32.19-.49s.11-.34.14-.52c.06-.23.05-.39,0-.46-.06-.08-.21-.11-.46-.11h-.43c.05.06.08.14.11.24.12.47.28.92.47,1.34Z"/><path class="cls-1" d="M261.96,121.25c-1.07.15-1.98.21-2.71.17s-1.33-.15-1.77-.33c-.44-.18-.77-.43-.97-.74-.2-.31-.3-.66-.3-1.05,0-.6.24-1.16.73-1.68.48-.52,1.19-.98,2.11-1.37-.13-.16-.28-.27-.47-.32-.4-.12-.79-.08-1.18.13-.39.21-.77.51-1.13.91-.14.14-.31.22-.53.23-.22.01-.4-.05-.53-.2-.13-.15-.19-.33-.17-.53.01-.2.09-.36.25-.49.39-.34.74-.7,1.04-1.09.3-.39.55-.8.76-1.21-.34,0-.67.01-.97.02-.3,0-.56,0-.77,0-.2,0-.37-.07-.5-.21s-.2-.31-.2-.51c0-.2.08-.36.23-.49.14-.13.32-.19.52-.18.28,0,.62.01,1.01,0,.4,0,.81-.01,1.24-.02.04-.15.08-.3.11-.44.03-.14.06-.29.08-.43.03-.2.12-.36.26-.49.14-.12.32-.17.52-.15.2.02.36.11.48.26.12.15.17.33.14.53,0,.1-.02.21-.05.32-.02.11-.05.22-.08.34.3-.02.59-.03.85-.05.26-.02.5-.05.71-.08.2-.02.38.02.53.14.16.12.25.27.27.47.02.2-.03.38-.15.53s-.28.24-.47.25c-.3.03-.64.06-1.02.08-.38.02-.78.04-1.2.06-.18.39-.37.76-.58,1.1.19-.04.38-.05.55-.04s.34.04.5.09c.24.06.47.17.7.33.23.16.43.37.61.65.39-.11.81-.22,1.25-.31.44-.1.91-.18,1.41-.25.19-.03.37,0,.53.13s.25.27.28.47c.03.2-.01.38-.13.53-.12.15-.28.24-.48.28-.46.06-.89.12-1.28.2-.39.08-.76.16-1.09.25.04.22.07.45.1.71.02.26.04.53.04.83,0,.2-.07.37-.21.51s-.31.21-.51.21-.37-.07-.5-.21c-.14-.14-.2-.31-.2-.51,0-.41-.02-.77-.07-1.09-.66.27-1.13.56-1.42.87s-.44.61-.44.89c0,.22.13.39.38.53.26.14.68.21,1.28.23.6.02,1.42-.04,2.46-.18.19-.02.37.02.53.14.16.12.25.27.28.47.02.19-.02.36-.14.52-.12.15-.28.24-.47.28Z"/><path class="cls-1" d="M266.7,117.09c-.19,0-.35-.06-.49-.19-.13-.13-.2-.3-.2-.5v-.5c0-.6.13-1.04.4-1.31.27-.27.77-.42,1.49-.46v-.04s-.09-.13-.15-.23c-.06-.11-.12-.22-.18-.33-.06-.11-.11-.19-.14-.24-.08-.14-.1-.29-.06-.45.04-.16.14-.29.29-.37h-.41c-.2,0-.36-.06-.49-.17-.13-.12-.19-.27-.19-.47,0-.19.06-.34.2-.45s.32-.16.53-.15c.58,0,1.19,0,1.84-.03.65-.03,1.3-.07,1.94-.12.65-.05,1.27-.12,1.86-.2s1.12-.17,1.57-.26c.23-.05.42-.03.58.05.15.08.25.21.29.37.06.21.04.38-.07.53-.11.14-.25.24-.41.28-.1.02-.21.03-.31.05-.1.02-.21.04-.32.05h.01c.17.08.28.19.35.35.06.16.06.34-.02.52-.06.13-.15.32-.28.58s-.26.5-.38.73h.36c.56,0,1,.05,1.31.16.32.1.54.28.67.53.13.25.2.58.2,1.01v.58c0,.21-.07.38-.2.5s-.3.19-.49.19-.36-.06-.49-.19c-.14-.13-.2-.3-.2-.5v-.54c0-.23-.06-.39-.17-.47-.11-.08-.33-.13-.66-.13h-6.05c-.33,0-.55.04-.66.13-.11.08-.17.24-.17.47v.54c0,.21-.07.38-.2.5s-.3.19-.49.19ZM266.95,121.69c-.26.03-.46,0-.62-.11-.16-.1-.25-.26-.28-.48-.02-.21.03-.38.17-.52.14-.14.32-.22.56-.25.66-.06,1.28-.17,1.85-.32.57-.15,1.1-.33,1.58-.56-.3-.3-.56-.64-.8-1-.24-.36-.44-.76-.62-1.19h-.49c-.16,0-.3-.06-.41-.18-.12-.12-.17-.26-.17-.43s.06-.3.17-.42c.12-.12.25-.18.41-.18h4.06c.63,0,1.1.12,1.4.37.3.24.45.55.44.91-.01.36-.18.73-.5,1.11-.16.19-.33.37-.51.55s-.36.34-.55.5c.85.42,1.92.66,3.23.74.24,0,.43.09.56.23.14.15.2.33.18.53-.05.46-.34.68-.89.64-1.77-.1-3.23-.51-4.39-1.25-.58.33-1.24.6-1.97.82-.73.22-1.54.38-2.42.49ZM269.01,114.13h1.52s-.03-.06-.06-.11c-.02-.06-.06-.14-.12-.26s-.11-.24-.17-.36c-.06-.12-.1-.21-.12-.26-.06-.14-.07-.27-.04-.41.03-.14.11-.25.23-.33-.32.02-.64.03-.95.04-.32.01-.63.03-.94.04.06.03.13.09.19.18.03.05.08.13.14.26.06.12.13.24.2.36.07.12.11.19.13.22.13.23.12.44-.01.64ZM271.46,118.71c.35-.26.68-.55.97-.89.14-.16.19-.29.14-.4-.05-.11-.2-.16-.46-.16h-1.84c.31.57.7,1.05,1.18,1.45ZM271.64,114.13h.92c.08-.16.17-.36.28-.61.1-.24.21-.48.31-.71.1-.23.17-.4.21-.52.02-.05.04-.09.07-.13.03-.04.06-.07.09-.1-.38.06-.77.1-1.19.14s-.85.08-1.29.12c.1.05.18.13.24.25.02.05.07.14.13.27.06.13.12.26.18.39.06.13.1.21.11.25.1.25.09.46-.05.64Z"/><path class="cls-1" d="M279.85,120.71c-.2.04-.38,0-.54-.1-.16-.11-.26-.26-.3-.45-.08-.38-.15-.82-.2-1.34-.05-.52-.09-1.07-.11-1.66-.02-.59-.02-1.18,0-1.79.02-.6.05-1.19.1-1.76.05-.57.13-1.09.23-1.57.04-.2.14-.35.31-.46.16-.1.34-.14.53-.1.19.04.34.14.44.31.1.16.14.35.1.55-.12.57-.21,1.19-.26,1.87-.05.68-.08,1.36-.07,2.05,0,.69.03,1.34.08,1.97.05.62.13,1.17.22,1.63.04.19,0,.37-.1.53-.1.16-.25.27-.44.31ZM283.89,120.99c-.15.13-.33.19-.53.18-.2,0-.37-.08-.51-.23-.14-.15-.2-.33-.19-.53.01-.2.09-.37.25-.5.43-.38.76-.79.99-1.22.23-.43.38-.94.47-1.51.08-.58.13-1.26.13-2.06-.39.03-.77.07-1.13.11-.36.04-.69.08-.99.13-.2.03-.38,0-.54-.11-.16-.11-.26-.26-.3-.45-.03-.2,0-.38.11-.54.11-.16.26-.26.46-.29.3-.05.67-.09,1.09-.13.42-.04.85-.08,1.3-.11v-1.64c0-.2.07-.37.2-.51.14-.14.3-.21.5-.21s.37.07.5.21c.14.14.2.31.2.51v1.56c.28-.02.54-.02.79-.02h.63c.2,0,.37.08.5.23.14.14.2.32.18.52,0,.2-.09.36-.23.49-.15.13-.32.19-.52.18-.38-.02-.83-.02-1.34,0v.07c0,.82-.05,1.59-.15,2.3s-.29,1.37-.58,1.97-.72,1.14-1.28,1.62Z"/><path class="cls-1" d="M293.84,121.76c-.2,0-.37-.06-.5-.19s-.2-.3-.2-.52v-1.8c-.29.1-.62.2-1.01.32s-.76.24-1.12.35c-.36.11-.66.2-.89.28-.22.06-.42.05-.58-.03s-.27-.23-.34-.43c-.06-.18-.04-.35.05-.51.09-.16.24-.26.46-.32.08-.02.17-.04.27-.06.1-.02.21-.05.32-.08v-6.48h-.47c-.18,0-.32-.06-.44-.19s-.18-.27-.18-.44.06-.33.18-.45.27-.19.44-.19h5.04c.18,0,.32.06.44.19s.18.27.18.45c0,.07-.01.14-.04.22.02,0,.03,0,.04,0s.03,0,.04,0h2.12c.58,0,1.03.07,1.34.21.31.14.51.37.61.68.09.31.09.73,0,1.26-.24,1.38-.68,2.64-1.33,3.78.52.68,1.18,1.32,1.97,1.91.16.11.26.27.29.47.03.2-.02.39-.16.55-.14.16-.31.25-.53.27s-.4-.04-.56-.17c-.34-.29-.67-.58-.97-.89-.3-.3-.58-.62-.84-.95-.53.69-1.15,1.32-1.86,1.9-.15.13-.33.19-.54.18-.21,0-.37-.1-.49-.26l-.02-.02v.28c0,.22-.07.39-.2.52-.14.13-.3.19-.5.19ZM291.7,113.47h1.43v-1.18h-1.43v1.18ZM291.7,115.83h1.43v-1.18h-1.43v1.18ZM291.7,118.4c.26-.07.52-.14.77-.21.25-.07.47-.13.66-.17v-1h-1.43v1.38ZM294.55,120s.04-.05.06-.07c.02-.02.05-.04.07-.05.4-.3.76-.63,1.09-.98.33-.35.63-.71.9-1.07-.63-1.06-1.08-2.28-1.36-3.65-.04-.2,0-.37.1-.5.11-.14.25-.22.43-.25.18-.03.35,0,.49.09.14.09.23.23.26.43.1.47.21.92.35,1.35s.31.83.51,1.22c.41-.82.68-1.69.83-2.6.04-.28.02-.47-.07-.58-.08-.1-.29-.16-.61-.16h-2.09c-.18,0-.33-.06-.46-.19s-.19-.28-.19-.46c0-.1.02-.18.05-.24-.02,0-.04.01-.07.01h-.31v7.7Z"/><path class="cls-1" d="M305.84,121.22c-.73-.02-1.3-.19-1.72-.53s-.62-.8-.61-1.38c.02-.34.11-.64.29-.9.18-.26.43-.45.74-.58.31-.13.67-.18,1.07-.14.64.06,1.09.27,1.34.65.26.38.33.81.23,1.3.28-.14.51-.33.69-.59.18-.26.27-.6.27-1.01,0-.31-.09-.59-.27-.85s-.43-.45-.76-.59c-.32-.14-.7-.2-1.12-.17-.42.02-.88.15-1.37.38-.49.23-.99.59-1.5,1.09-.14.14-.32.2-.54.2-.22,0-.39-.09-.53-.25-.13-.15-.19-.33-.17-.52.01-.2.09-.35.25-.46.5-.38.99-.77,1.49-1.19s.97-.83,1.42-1.24c.45-.41.85-.78,1.19-1.12.22-.21.29-.38.22-.52-.07-.14-.24-.18-.52-.14-.27.03-.58.07-.93.12-.35.05-.67.09-.98.13-.19.03-.37-.01-.53-.13s-.25-.28-.28-.48c-.03-.19.01-.37.13-.52.12-.16.28-.25.48-.28.18-.02.4-.05.67-.07.27-.02.54-.05.83-.07.28-.02.53-.04.73-.06.52-.04.94.03,1.27.2s.55.41.67.71.13.63.02.98c-.11.35-.34.68-.69,1-.16.14-.36.31-.61.53s-.49.44-.75.66c.46-.09.9-.09,1.33-.02.43.08.82.23,1.16.46.34.23.61.54.81.92.2.38.3.83.3,1.34,0,.73-.16,1.33-.48,1.81s-.76.82-1.32,1.04c-.56.22-1.21.32-1.93.31ZM305.62,119.89h.07s.05,0,.09,0,.08,0,.13,0c.11-.26.13-.48.06-.66-.07-.18-.22-.28-.43-.31-.19-.02-.35,0-.47.08-.12.08-.19.2-.21.37,0,.32.25.5.77.53Z"/></g></svg>