<?xml version="1.0" encoding="UTF-8"?><svg id="_レイヤー_2" xmlns="http://www.w3.org/2000/svg" viewBox="0 0 336 132.36"><defs><style>.cls-1{fill:#00b900;}.cls-1,.cls-2{stroke-width:0px;}.cls-3{fill:none;stroke:#00b900;stroke-miterlimit:10;}.cls-2{fill:#fff;}</style></defs><g id="_レイヤー_1-2"><rect class="cls-1" x=".5" y=".5" width="335" height="131.36" rx="11.46" ry="11.46"/><path class="cls-2" d="M144.69,34.71c-.46.1-.86.07-1.18-.07-.32-.14-.54-.42-.67-.84-.11-.38-.07-.73.12-1.04.19-.31.49-.5.89-.56,1.63-.34,3.03-.93,4.19-1.79,1.16-.86,1.89-1.96,2.2-3.3-.9-.13-1.6-.36-2.11-.68-.51-.33-.88-.81-1.09-1.44-.22-.63-.32-1.44-.32-2.41v-4.58c0-1.2.16-2.14.49-2.82.33-.68.91-1.16,1.74-1.44.83-.28,1.98-.42,3.46-.42h3.1c1.49,0,2.64.14,3.47.42.82.28,1.4.76,1.73,1.44.33.68.49,1.62.49,2.82v4.58c0,1.42-.24,2.48-.72,3.18-.48.7-1.38,1.14-2.69,1.33v3.19c0,.54.15.92.46,1.13.3.21.93.31,1.87.31.83,0,1.42-.12,1.78-.37.35-.25.62-.73.82-1.45.1-.37.32-.65.67-.85s.75-.24,1.2-.11c.38.11.66.32.83.64.17.31.21.68.13,1.09-.27,1.46-.85,2.45-1.74,2.99-.89.54-2.13.8-3.73.8-1.25,0-2.25-.12-3.01-.35-.76-.23-1.32-.62-1.67-1.18-.35-.55-.53-1.32-.53-2.29v-3.41h-1.8c-.27,1.94-1.15,3.55-2.64,4.85-1.49,1.3-3.39,2.18-5.71,2.64ZM149.73,17.38h8.4c-.02-.45-.1-.78-.25-1.01-.15-.22-.42-.38-.79-.46-.38-.08-.91-.12-1.6-.12h-3.1c-.67,0-1.2.04-1.57.12s-.64.23-.8.46c-.16.22-.26.56-.29,1.01ZM149.73,21h8.42v-1.49h-8.42v1.49ZM152.39,24.75h3.1c.69,0,1.22-.04,1.6-.13.38-.09.64-.25.79-.48.15-.23.24-.56.25-1h-8.4c.03.43.12.76.28,1,.15.23.42.39.79.48s.91.13,1.6.13Z"/><path class="cls-2" d="M176.18,35.04c-.5,0-.87-.12-1.13-.36s-.4-.56-.43-.96c-.02-.4.11-.73.38-.98.27-.26.63-.39,1.08-.41.62-.03,1.11-.12,1.46-.26.35-.14.6-.4.74-.76.14-.36.22-.88.22-1.55,0-.3-.02-.58-.07-.84h-9.34c-.38,0-.68-.12-.9-.36-.22-.24-.32-.53-.32-.86s.1-.62.31-.86.47-.36.79-.36h8.35s-.09-.1-.13-.14-.08-.1-.13-.17c-.22-.26-.31-.55-.25-.89.06-.34.21-.61.47-.82.27-.22.59-.32.96-.3.37.02.66.13.89.32.03.03.07.07.12.11s.09.08.12.11c.22-.13.45-.26.67-.38.22-.13.39-.22.5-.29.27-.18.38-.35.34-.53s-.23-.26-.55-.26h-6.94c-.35,0-.64-.12-.85-.36s-.32-.52-.32-.84.11-.6.32-.84c.22-.24.5-.36.85-.36h8.57c.7,0,1.27.14,1.69.43.42.29.7.65.83,1.08.13.43.08.89-.13,1.37-.22.48-.61.91-1.19,1.3-.42.27-.82.53-1.2.77-.38.24-.78.47-1.18.7h7.49c.43,0,.76.12.98.36.22.24.34.53.34.86s-.11.62-.32.86c-.22.24-.52.36-.9.36h-7.08c.05.34.07.66.07.96,0,1.89-.41,3.22-1.24,4-.82.78-2.14,1.16-3.95,1.16ZM169.72,23.23c-.37,0-.69-.12-.96-.37-.27-.25-.41-.57-.41-.97v-1.1c0-1.23.29-2.12.86-2.65s1.57-.81,2.98-.83c-.05-.06-.09-.12-.13-.18-.04-.06-.08-.12-.11-.18-.06-.14-.18-.36-.34-.64-.16-.28-.32-.56-.48-.84-.16-.28-.28-.48-.36-.61-.18-.29-.22-.6-.12-.92.1-.33.3-.57.6-.73.32-.18.66-.22,1.01-.14.35.08.63.28.84.6.18.26.4.6.67,1.03.27.43.48.79.62,1.08.14.26.2.52.18.79-.02.27-.15.51-.37.72h3.53c-.06-.06-.12-.13-.18-.2-.06-.07-.1-.16-.13-.25-.06-.14-.18-.38-.35-.71s-.33-.66-.49-.98-.28-.56-.36-.68c-.16-.3-.19-.62-.08-.94.1-.32.31-.56.61-.72.32-.18.66-.22,1.01-.12.35.1.63.3.84.62.11.18.25.42.42.73.17.31.34.62.5.94.17.31.3.56.4.76.13.27.17.55.13.84s-.19.53-.44.72h1.9c.19-.34.43-.75.71-1.25s.56-.99.83-1.48c.27-.49.47-.87.6-1.14.19-.4.49-.64.89-.72.4-.08.76-.04,1.08.12.34.16.57.42.71.77.14.35.1.71-.11,1.08-.18.32-.41.72-.71,1.21s-.58.96-.85,1.4h.43c1.49,0,2.54.27,3.16.82.62.54.92,1.44.92,2.69v1.1c0,.4-.14.72-.41.97s-.59.37-.96.37-.71-.11-.98-.34c-.27-.22-.41-.54-.41-.96v-1.1c0-.45-.11-.76-.34-.95-.22-.18-.63-.28-1.22-.28h-12.17c-.59,0-1,.09-1.22.28-.22.18-.34.5-.34.95v1.1c0,.42-.14.74-.41.96-.27.22-.6.34-.98.34Z"/><path class="cls-2" d="M199.25,26.4c-.74,0-1.36-.25-1.87-.77-.51-.51-.77-1.14-.77-1.87s.26-1.36.77-1.87c.51-.51,1.14-.77,1.87-.77s1.36.26,1.87.77c.51.51.77,1.14.77,1.87s-.26,1.36-.77,1.87-1.14.77-1.87.77Z"/><path class="cls-2" d="M213.86,35.04c-.37,0-.68-.12-.94-.37-.26-.25-.38-.57-.38-.97v-7.46c-.69.62-1.38,1.2-2.09,1.73-.34.22-.68.33-1.04.31-.36-.02-.67-.18-.92-.5-.26-.34-.35-.68-.29-1.04.06-.36.27-.66.62-.9,1.09-.75,2.12-1.62,3.11-2.6s1.8-1.92,2.44-2.82c.51-.69.3-1.03-.62-1.03h-3.67c-.4,0-.71-.12-.92-.36s-.32-.54-.32-.89.11-.65.32-.89c.22-.24.52-.36.92-.36h2.42v-2.93c0-.42.13-.74.38-.98.25-.24.58-.36.96-.36s.68.12.95.36c.26.24.4.57.4.98v2.93h.02c.82,0,1.44.16,1.87.49.43.33.66.76.7,1.3s-.14,1.12-.53,1.76c-.24.4-.49.8-.76,1.19-.26.39-.54.77-.83,1.14.29.21.64.47,1.07.78.42.31.83.61,1.22.89.39.28.69.49.9.64.32.21.49.48.52.8.02.33-.08.64-.3.95-.21.27-.49.44-.84.49-.35.06-.69-.04-1.01-.28-.19-.16-.48-.39-.85-.7s-.76-.61-1.16-.91v8.28c0,.4-.13.72-.38.97s-.58.37-.96.37ZM224.04,34.61c-.45,0-.82-.13-1.1-.4s-.44-.6-.46-1c-.02-.42.11-.76.37-1.04.26-.28.6-.43,1-.44.66-.03,1.16-.1,1.5-.19.34-.1.6-.29.77-.58s.3-.73.4-1.32c.16-1.01.28-2,.36-2.99.08-.98.14-2.05.18-3.2.04-1.15.06-2.46.06-3.94,0-.53-.05-.93-.16-1.21-.1-.28-.3-.47-.59-.56-.29-.1-.72-.14-1.3-.14h-.41c-.02,2.72-.22,5.08-.6,7.09-.38,2.01-1.01,3.77-1.87,5.28s-2.04,2.88-3.53,4.12c-.32.27-.69.41-1.1.41s-.78-.18-1.08-.55c-.22-.3-.32-.63-.28-.98s.21-.64.52-.86c.98-.77,1.8-1.6,2.46-2.5.66-.9,1.2-1.92,1.61-3.06.41-1.14.7-2.45.89-3.91.18-1.46.28-3.14.3-5.03h-2.66c-.4,0-.71-.12-.94-.37-.22-.25-.34-.55-.34-.9s.11-.67.34-.91c.22-.24.54-.36.94-.36h6.02c1.1,0,1.99.13,2.65.4.66.26,1.15.7,1.45,1.32.3.62.45,1.46.43,2.53-.02,2.11-.06,4.02-.13,5.72s-.21,3.34-.42,4.91c-.16,1.23-.44,2.19-.84,2.87-.4.68-.96,1.15-1.67,1.42s-1.64.4-2.77.4ZM217.44,23.67c-.24-.19-.38-.44-.43-.74-.05-.3.02-.58.22-.82.14-.19.34-.45.6-.77s.48-.61.67-.86c.21-.27.46-.44.77-.49.3-.06.6.01.89.2.27.16.44.4.5.71.06.31-.02.62-.24.92-.16.22-.37.5-.62.83-.26.33-.5.63-.72.9-.19.24-.45.37-.77.38-.32.02-.61-.07-.86-.26Z"/><path class="cls-2" d="M241.53,34.15c-1.86,0-3.35-.24-4.48-.72-1.13-.48-1.94-1.28-2.44-2.39s-.74-2.6-.74-4.45v-5.66c0-1.87.25-3.36.74-4.46.5-1.1,1.31-1.9,2.44-2.38s2.62-.72,4.48-.72h5.52c1.87,0,3.37.24,4.49.72s1.93,1.27,2.42,2.38c.5,1.1.74,2.59.74,4.46v5.66c0,1.86-.25,3.34-.74,4.45s-1.3,1.91-2.42,2.39c-1.12.48-2.62.72-4.49.72h-5.52ZM241.61,31.46h5.38c1.2,0,2.16-.16,2.87-.47.71-.31,1.23-.82,1.55-1.52.32-.7.48-1.65.48-2.83v-5.76c0-1.18-.16-2.13-.48-2.83-.32-.7-.84-1.21-1.55-1.52-.71-.31-1.67-.47-2.87-.47h-5.38c-1.18,0-2.14.16-2.86.47-.72.31-1.24.82-1.56,1.52-.32.7-.48,1.65-.48,2.83v5.76c0,1.18.16,2.13.48,2.83.32.7.84,1.21,1.56,1.52.72.31,1.67.47,2.86.47ZM244.29,28.75c-1.23,0-2.2-.13-2.9-.4-.7-.26-1.2-.71-1.49-1.34-.29-.63-.43-1.48-.43-2.56v-1.39c0-1.09.14-1.94.43-2.57s.78-1.07,1.49-1.33c.7-.26,1.67-.4,2.9-.4s2.2.13,2.9.4c.7.26,1.2.71,1.49,1.33s.43,1.48.43,2.57v1.39c0,1.07-.14,1.92-.43,2.56-.29.63-.78,1.08-1.49,1.34-.7.26-1.67.4-2.9.4ZM244.29,26.28c.59,0,1.04-.05,1.36-.14.31-.1.52-.28.64-.55.11-.27.17-.66.17-1.15v-1.34c0-.51-.06-.9-.17-1.16-.11-.26-.32-.44-.64-.54-.31-.1-.76-.14-1.36-.14s-1.04.05-1.36.14c-.31.1-.52.28-.64.54s-.17.65-.17,1.16v1.34c0,.5.06.88.17,1.15s.32.46.64.55c.31.1.76.14,1.36.14Z"/><path class="cls-2" d="M115.25,57.81c-.34,0-.62-.12-.85-.35-.23-.23-.35-.51-.35-.83s.12-.62.35-.85c.23-.23.52-.35.85-.35h1.97v-3.24h-2.86c-.32,0-.6-.12-.84-.35-.24-.23-.36-.51-.36-.83s.12-.62.36-.85c.24-.23.52-.35.84-.35h2.86v-2.57c-.19.22-.38.44-.56.65-.18.21-.36.4-.54.58-.29.29-.63.46-1.02.52-.39.06-.75-.06-1.07-.35-.27-.22-.41-.53-.42-.91,0-.38.12-.7.37-.94.38-.38.8-.85,1.26-1.39s.89-1.1,1.3-1.66c.41-.56.73-1.04.97-1.44.22-.38.52-.61.9-.68.38-.07.72,0,1.04.2.34.21.54.48.62.82.08.34.02.66-.17.98-.06.11-.14.22-.22.34-.08.11-.16.23-.24.36h13.73c.32,0,.6.12.83.35s.35.51.35.83c0,.34-.12.62-.35.85s-.51.35-.83.35h-1.58v3.12h2.76c.34,0,.62.12.85.35.23.23.35.52.35.85s-.12.6-.35.83c-.23.23-.52.35-.85.35h-2.76v3.24h2.04c.32,0,.6.12.84.35.24.23.36.52.36.85s-.12.6-.36.83c-.24.23-.52.35-.84.35h-18.38ZM114.29,63.74c-.3-.22-.47-.53-.5-.91-.03-.38.08-.71.34-.98.21-.22.45-.52.73-.89.28-.37.56-.74.83-1.13.27-.38.5-.71.67-.98.19-.32.47-.52.83-.61s.69-.04,1,.13c.34.18.55.44.65.8.1.36.05.7-.14,1.02-.18.29-.4.64-.67,1.06-.27.42-.55.82-.84,1.22-.29.4-.54.73-.77.98-.26.3-.58.49-.98.56s-.78-.02-1.13-.28ZM119.67,49.82h1.54v-3.12h-1.54v3.12ZM119.67,55.43h1.54v-3.24h-1.54v3.24ZM122.64,64.12c-.38.08-.74.02-1.06-.17-.32-.19-.5-.47-.55-.84-.03-.22-.08-.54-.16-.95-.07-.41-.14-.81-.22-1.21-.07-.4-.13-.71-.18-.94-.06-.38,0-.72.2-1.01s.48-.46.83-.53c.38-.08.73-.04,1.03.13.3.17.5.46.6.88.06.21.14.52.22.94.08.42.16.83.23,1.24.07.41.12.72.16.95.06.4,0,.73-.22,1-.21.26-.5.44-.89.52ZM123.65,49.82h1.51v-3.12h-1.51v3.12ZM123.65,55.43h1.51v-3.24h-1.51v3.24ZM127.66,63.9c-.4.1-.76.05-1.08-.13-.32-.18-.52-.45-.6-.8-.05-.26-.12-.58-.22-.97-.1-.39-.19-.78-.29-1.18-.1-.39-.18-.71-.26-.95-.11-.38-.07-.72.12-1.02s.46-.49.82-.59c.37-.1.71-.07,1.03.08.32.15.54.43.65.83.08.22.17.54.28.95.1.41.21.81.32,1.21.11.4.19.72.24.96.08.38.03.73-.16,1.03-.18.3-.47.5-.85.58ZM127.61,49.82h1.54v-3.12h-1.54v3.12ZM127.61,55.43h1.54v-3.24h-1.54v3.24ZM134.23,63.69c-.34.21-.69.26-1.07.17s-.66-.3-.85-.62c-.16-.27-.38-.62-.67-1.04s-.58-.84-.88-1.26c-.3-.42-.55-.76-.76-1.03-.21-.27-.28-.57-.23-.9.06-.33.22-.6.49-.8.29-.21.61-.3.96-.28.35.02.65.17.89.44.24.27.52.62.84,1.04.32.42.63.85.94,1.27.3.42.54.77.72,1.04.22.34.3.69.23,1.07-.07.38-.28.68-.61.9Z"/><path class="cls-2" d="M144.2,64.17c-.35,0-.66-.12-.92-.35-.26-.23-.4-.55-.4-.95v-6.79c-.4.59-.81,1.17-1.24,1.73-.42.56-.82,1.03-1.19,1.42-.26.26-.56.4-.92.43-.36.03-.68-.08-.95-.34-.26-.24-.39-.53-.4-.86,0-.34.11-.62.35-.86.38-.38.83-.9,1.33-1.55.5-.65,1-1.32,1.49-2.02.49-.7.89-1.32,1.21-1.86h-2.9c-.34,0-.62-.12-.86-.36-.24-.24-.36-.54-.36-.89s.12-.62.36-.86c.24-.24.53-.36.86-.36h3.22v-6.5c0-.4.13-.72.4-.96.26-.24.57-.36.92-.36s.68.12.92.36.37.56.37.96v6.5h2.59c.34,0,.62.12.86.36.24.24.36.53.36.86s-.12.65-.36.89c-.24.24-.53.36-.86.36h-2.59v.14c.29.3.63.67,1.03,1.09.4.42.8.83,1.2,1.22.4.39.72.69.96.9.21.21.34.45.38.72.18-.13.38-.2.6-.22.75-.11,1.64-.26,2.65-.44,1.02-.18,2.04-.38,3.06-.59v-11.78c0-.42.13-.74.4-.98s.58-.36.95-.36.69.12.96.36.41.57.41.98v11.26c.27-.06.53-.12.77-.18.24-.06.46-.11.67-.16.37-.08.7-.02,1,.17.3.19.48.46.54.82.06.37.02.7-.14.98-.16.29-.42.47-.79.55-.3.06-.63.14-.97.22-.34.08-.7.16-1.07.24v5.71c0,.4-.14.72-.41.97-.27.25-.59.37-.96.37s-.68-.12-.95-.37c-.26-.25-.4-.57-.4-.97v-5.14c-.93.19-1.86.37-2.78.54-.93.17-1.77.32-2.52.44-.4.06-.75,0-1.06-.2-.3-.2-.48-.5-.53-.9l-.02-.07c-.22.16-.48.22-.76.19-.28-.03-.52-.15-.73-.36-.19-.18-.42-.41-.68-.7-.26-.29-.53-.59-.8-.91v7.15c0,.4-.12.72-.37.95-.25.23-.56.35-.92.35ZM141.51,48.88c-.34.13-.65.14-.94.04-.29-.1-.5-.33-.62-.68-.06-.22-.16-.51-.3-.85-.14-.34-.28-.69-.42-1.04-.14-.35-.26-.63-.36-.84-.11-.3-.1-.6.02-.88.13-.28.34-.48.65-.59.34-.13.65-.13.94-.01.29.12.5.34.62.66.1.19.22.47.37.83.15.36.3.72.44,1.08.14.36.25.64.31.85.13.32.12.61-.02.86s-.38.45-.7.58ZM146.82,48.95c-.3-.13-.52-.33-.64-.61s-.12-.56.01-.85c.11-.22.24-.52.38-.89s.29-.73.43-1.09c.14-.36.25-.65.31-.88.13-.34.34-.57.65-.71.3-.14.61-.15.91-.04.3.11.53.3.68.55.15.26.16.56.04.91-.08.26-.2.58-.35.96-.15.38-.3.76-.46,1.13-.15.37-.28.67-.4.91-.13.27-.34.47-.65.59-.3.12-.62.12-.94.01ZM152.38,53.54c-.16-.14-.38-.32-.65-.54-.27-.22-.55-.44-.83-.66-.28-.22-.51-.4-.68-.53-.27-.21-.42-.49-.43-.84s.08-.66.29-.91c.24-.27.53-.43.86-.47s.66.05.96.28c.18.13.41.3.7.52l.86.65c.29.22.51.4.67.54.27.24.42.54.43.9.02.36-.1.68-.36.97-.24.26-.54.4-.89.42-.35.02-.66-.08-.94-.32ZM152.98,48.35c-.14-.14-.35-.33-.62-.55-.27-.22-.54-.45-.82-.68-.27-.23-.5-.41-.67-.54-.26-.22-.39-.51-.41-.85-.02-.34.09-.64.31-.9.26-.27.55-.42.88-.46.33-.03.64.06.95.29.18.13.4.3.68.53.28.22.56.45.85.67.29.22.51.42.67.58.27.24.41.54.41.9s-.13.68-.38.95c-.26.26-.56.39-.91.41-.35.02-.66-.1-.94-.34Z"/><path class="cls-2" d="M177.23,64.24c-.4,0-.74-.13-1.01-.38s-.41-.59-.41-1.01v-2.52h-1.78c-.4,0-.74-.14-1.01-.41-.27-.27-.41-.61-.41-1.01s.13-.72.41-1c.27-.28.61-.42,1.01-.42h1.78v-4.66c-.69,1.12-1.44,2.23-2.27,3.34-.82,1.1-1.61,2.03-2.36,2.78-.29.29-.64.45-1.04.49-.41.04-.76-.09-1.07-.4v3.72c0,.38-.14.71-.41.98s-.6.41-.98.41-.71-.14-.98-.41-.41-.6-.41-.98v-10.94c-.16.24-.32.48-.49.71-.17.23-.34.46-.52.68-.22.3-.53.48-.92.53-.39.05-.75-.06-1.07-.31-.27-.22-.43-.52-.48-.88s.03-.68.24-.95c.62-.77,1.24-1.66,1.86-2.69.62-1.02,1.18-2.06,1.7-3.11.52-1.05.94-2,1.26-2.87.16-.42.41-.69.76-.83.34-.14.71-.14,1.09-.01.35.13.6.35.76.66.15.31.16.67.01,1.07-.19.53-.41,1.07-.65,1.62-.24.55-.5,1.11-.77,1.67v9.98c.46-.46.96-1.02,1.49-1.66.53-.64,1.06-1.32,1.61-2.05.54-.73,1.05-1.44,1.53-2.14.47-.7.88-1.32,1.21-1.88h-3.84c-.35,0-.66-.13-.92-.38s-.4-.57-.4-.94.13-.68.4-.94.57-.38.92-.38h4.75v-3.5c0-.42.14-.75.41-1.01s.61-.38,1.01-.38.71.13.98.38.41.59.41,1.01v3.5h5.16c.37,0,.68.13.95.38s.4.57.4.94-.13.68-.4.94-.58.38-.95.38h-4.34c.34.56.75,1.18,1.23,1.85s1,1.35,1.55,2.04c.54.69,1.09,1.34,1.64,1.96.55.62,1.05,1.16,1.5,1.62.27.27.42.61.43,1.01.02.4-.14.75-.46,1.06-.3.29-.67.44-1.09.44s-.78-.14-1.07-.44c-.74-.77-1.51-1.7-2.33-2.78-.82-1.09-1.56-2.17-2.23-3.24v4.61h1.8c.38,0,.72.14,1,.42.28.28.42.61.42,1s-.14.74-.42,1.01c-.28.27-.61.41-1,.41h-1.8v2.52c0,.42-.14.75-.41,1.01s-.6.38-.98.38Z"/><path class="cls-2" d="M189.25,61.14c-.22.02-.42-.06-.59-.22s-.24-.35-.23-.58c.02-.26.02-.58.01-.96,0-.38-.01-.77-.01-1.15s0-.7-.02-.94c-.02-.22.05-.41.2-.56s.33-.24.54-.25c.24-.03.44.02.6.17.16.14.25.33.26.55.02.24.03.56.04.95,0,.39.02.78.04,1.18.02.39.02.72.02.97,0,.24-.08.44-.23.59s-.36.24-.64.25ZM194.03,63.93c-.38,0-.7-.1-.94-.31s-.38-.46-.41-.77c-.03-.34.04-.63.2-.89.17-.26.43-.39.78-.41.64-.05,1.09-.14,1.34-.26.26-.13.42-.44.5-.94.03-.14.06-.3.07-.46s.03-.33.05-.5c-.03.03-.1.06-.19.1-.16.05-.32.03-.49-.05s-.27-.21-.3-.38c-.05-.32-.13-.73-.24-1.22-.11-.5-.21-.9-.29-1.2-.05-.16-.03-.31.06-.46.09-.14.21-.24.37-.29.18-.05.34-.03.48.06.14.09.24.22.29.4.06.19.13.44.2.73.07.3.14.59.2.88.02-.27.03-.54.04-.8s.01-.5.01-.71c0-.38-.06-.65-.19-.8s-.4-.23-.82-.23h-2.59c-1.04,0-1.77-.19-2.18-.56s-.62-1.03-.62-1.96v-7.46c0-1.01.22-1.72.66-2.12.44-.41,1.19-.61,2.24-.61h5.06c.3,0,.54.11.72.32.18.22.26.46.26.73s-.09.52-.26.73c-.18.22-.42.32-.72.32h-2.04v1.42h1.32c.32,0,.58.1.77.3.19.2.29.44.29.73l-.02.07c.5-.34,1.02-.74,1.56-1.21.54-.47,1.07-.96,1.58-1.48s.96-.98,1.34-1.42c.61-.69,1.22-1.03,1.82-1.03s1.26.31,1.97.94c.42.37.89.76,1.43,1.19.54.42,1.09.84,1.67,1.24.58.4,1.12.75,1.63,1.06.32.18.52.43.6.77s.03.66-.14.98c-.16.3-.42.52-.79.64-.37.12-.72.08-1.06-.13s-.68-.44-1.03-.7c.18.21.26.46.26.77s-.1.57-.29.79-.46.34-.82.34h-1.85v1.39h1.2c.82,0,1.45.09,1.9.26.45.18.76.48.95.92s.28,1.05.28,1.84-.09,1.37-.28,1.81c-.18.44-.5.75-.95.92-.45.18-1.08.26-1.9.26h-.72c.42.88,1.03,1.65,1.84,2.3.81.66,1.7,1.22,2.68,1.68.32.14.52.38.61.71.09.33.05.64-.11.95-.18.35-.45.58-.82.68-.37.1-.74.07-1.1-.11-.83-.43-1.66-.99-2.5-1.67s-1.53-1.48-2.09-2.41c-.53.93-1.21,1.73-2.05,2.41s-1.76,1.27-2.75,1.76c-.35.16-.71.19-1.07.08-.36-.1-.61-.31-.76-.61-.14-.34-.16-.66-.06-.98.1-.32.31-.54.61-.67,1.09-.48,2-1.06,2.72-1.73.73-.67,1.24-1.47,1.55-2.4h-.77c-.8,0-1.43-.09-1.88-.26-.46-.18-.78-.48-.96-.92-.18-.44-.28-1.04-.28-1.81s.09-1.4.28-1.84c.18-.44.5-.75.96-.92.46-.18,1.08-.26,1.88-.26h1.06v-1.39h-1.9c-.35,0-.63-.11-.83-.34s-.3-.49-.3-.79c0-.1.02-.21.05-.34-.16.11-.31.22-.44.34-.14.11-.27.22-.4.31-.3.21-.63.29-.97.24-.34-.05-.61-.21-.8-.48-.19-.24-.27-.52-.24-.84-.16.1-.35.14-.58.14h-1.32v1.39h1.32c.32,0,.58.1.77.3.19.2.29.44.29.73s-.1.54-.29.74c-.19.21-.45.31-.77.31h-1.32v1.58h.24c.91,0,1.57.2,1.98.59.41.39.6,1.05.59,1.98-.02.83-.06,1.73-.12,2.69-.06.96-.15,1.8-.26,2.52-.14.99-.51,1.7-1.1,2.12s-1.46.64-2.59.66ZM191.55,60.54c-.21.03-.4-.01-.56-.13-.17-.12-.26-.28-.28-.49,0-.22-.02-.51-.05-.85-.03-.34-.06-.68-.1-1.02-.03-.34-.06-.61-.1-.82-.02-.19.03-.37.14-.53.11-.16.26-.25.46-.26.19-.03.37.01.53.13s.25.28.26.47c.03.21.07.48.11.82l.12,1.01c.04.34.07.62.08.84.05.48-.16.76-.62.84ZM191.63,46.22h1.54v-1.42h-.38c-.45,0-.75.08-.91.23-.16.15-.24.44-.24.85v.34ZM191.63,49.7h1.54v-1.39h-1.54v1.39ZM192.83,53.37h.34v-1.58h-1.54v.6c0,.38.08.64.23.78.15.14.48.2.97.2ZM193.57,60.06c-.19.03-.36,0-.52-.08s-.24-.24-.28-.47c-.05-.32-.12-.74-.2-1.26-.09-.52-.16-.93-.23-1.24-.03-.22,0-.41.11-.55.1-.14.24-.23.4-.26.19-.03.36,0,.52.08.15.09.25.24.3.47.05.21.1.47.16.78.06.31.11.62.17.92.06.3.1.56.13.77.03.19,0,.37-.11.54-.1.17-.25.27-.44.3ZM207.9,47.92c-.58-.43-1.15-.88-1.72-1.36-.57-.47-1.02-.88-1.36-1.24-.26-.26-.48-.38-.68-.37-.2,0-.42.15-.66.42-.3.35-.68.74-1.14,1.18-.46.43-.92.86-1.38,1.27h6.43c.21,0,.38.03.5.1ZM202.47,55.36h.55v-1.8h-.55c-.54,0-.89.05-1.04.16-.15.1-.23.36-.23.76s.08.65.23.74c.15.1.5.14,1.04.14ZM205.55,55.36h.7c.54,0,.89-.05,1.04-.14.15-.1.23-.34.23-.74s-.08-.65-.23-.76c-.15-.1-.5-.16-1.04-.16h-.7v1.8Z"/><path class="cls-2" d="M215.94,64.1c-.45.1-.85.07-1.21-.07-.36-.14-.6-.44-.73-.89-.11-.42-.06-.79.16-1.12s.55-.52,1-.59c1.62-.29,3-.72,4.14-1.31,1.14-.58,2.05-1.34,2.72-2.27h-6.86c-.32,0-.6-.12-.83-.35-.23-.23-.35-.51-.35-.83s.12-.62.35-.85c.23-.23.51-.35.83-.35h7.94c.06-.19.12-.4.16-.61.04-.22.07-.43.08-.64h-5.14c-.32,0-.6-.12-.83-.35-.23-.23-.35-.51-.35-.83s.12-.6.35-.83c.23-.23.51-.35.83-.35h5.21v-1.25h-5.18c-.27,0-.52-.09-.73-.26-.22-.18-.36-.39-.42-.65-.24.34-.62.5-1.13.5-.38,0-.71-.12-.98-.36-.27-.24-.41-.57-.41-.98v-1.06c0-1.25.3-2.14.9-2.66.6-.53,1.63-.79,3.08-.79h4.75v-1.15c0-.42.15-.77.46-1.06s.67-.43,1.1-.43.8.14,1.1.43.46.64.46,1.06v1.15h4.85c1.46,0,2.48.26,3.08.79.6.53.9,1.42.9,2.66v1.06c0,.42-.14.74-.41.98-.27.24-.6.36-.98.36-.48,0-.85-.15-1.1-.46-.06.24-.2.44-.41.61-.21.17-.45.25-.72.25h-5.33v1.25h5.33c.32,0,.59.12.82.35.22.23.34.51.34.83s-.11.6-.34.83c-.22.23-.5.35-.82.35h-5.38c-.02.21-.04.42-.07.62-.03.21-.07.42-.12.62h8.64c.32,0,.6.12.83.35.23.23.35.52.35.85s-.12.6-.35.83c-.23.23-.51.35-.83.35h-7.06c.75.83,1.72,1.54,2.9,2.14,1.18.59,2.55,1.05,4.1,1.37.42.08.73.28.94.59.21.31.26.68.17,1.09-.11.5-.38.82-.79.97-.42.15-.86.18-1.32.08-1.17-.27-2.3-.67-3.41-1.19-1.1-.52-2.11-1.15-3.02-1.9s-1.67-1.58-2.28-2.51c-.78,1.36-1.92,2.51-3.41,3.44-1.49.94-3.34,1.65-5.57,2.15ZM217.33,48.71c.19-.27.49-.41.89-.41h5.18v-1.66h-4.54c-.59,0-1,.09-1.21.28-.22.18-.32.5-.32.95v.84ZM232.47,48.66v-.79c0-.45-.11-.76-.34-.95-.22-.18-.63-.28-1.22-.28h-4.63v1.66h5.33c.34,0,.62.12.86.36Z"/><path class="cls-2" d="M243.8,64.07c-.45.02-.81-.08-1.09-.29-.28-.21-.44-.51-.47-.91-.02-.38.09-.7.32-.95.23-.25.53-.38.9-.4.46-.03.79-.12.97-.26.18-.14.33-.52.44-1.13.08-.43.16-.98.23-1.66.07-.67.13-1.36.18-2.08s.08-1.35.1-1.91c.02-.4-.04-.66-.18-.78s-.41-.18-.83-.18h-.31c-.14,1.79-.44,3.52-.9,5.17-.46,1.66-1.11,3.18-1.96,4.57-.21.34-.51.55-.9.65-.39.1-.76.04-1.12-.17-.3-.18-.5-.44-.58-.8-.08-.36-.02-.69.17-1,.64-.99,1.16-2.01,1.55-3.06.39-1.05.68-2.23.86-3.54.18-1.31.28-2.83.28-4.56v-2.28h-1.51c-.34,0-.62-.12-.86-.35-.24-.23-.36-.52-.36-.88s.12-.62.36-.86c.24-.24.53-.36.86-.36h2.62v-2.9c0-.42.14-.75.41-1.01.27-.26.6-.38.98-.38s.71.13.97.38c.26.26.4.59.4,1.01v2.9h2.14c.32,0,.59.1.82.31.22.21.36.46.41.77.42-.72.8-1.47,1.14-2.26s.62-1.5.83-2.16c.13-.38.38-.64.74-.77s.73-.12,1.08.02c.34.14.56.37.68.68.12.31.12.64-.01,1-.08.26-.17.51-.28.76-.1.25-.2.5-.3.76h7.3c.32,0,.6.12.83.35.23.23.35.51.35.83s-.12.59-.35.82c-.23.22-.51.34-.83.34h-8.42c-.19.35-.38.69-.58,1.01-.19.32-.39.63-.6.94.21-.08.41-.12.6-.12.35,0,.65.11.89.34.24.22.36.54.36.94v1.44l1.3-.38v-2.38c0-.37.12-.66.36-.89.24-.22.53-.34.86-.34s.64.11.88.34c.23.22.35.52.35.89v1.68c1.3-.35,2.29-.33,2.99.07.7.4,1.04,1.29,1.04,2.66v2.4c0,.93-.2,1.62-.59,2.09-.39.46-1.04.74-1.96.84-.34.03-.64,0-.9-.1s-.46-.26-.59-.5v.41c0,.37-.12.66-.35.89-.23.22-.52.34-.88.34s-.62-.11-.86-.34c-.24-.22-.36-.52-.36-.89v-4.58l-1.3.38v4.73c0,.58.08,1.01.24,1.31.16.3.47.49.94.59s1.15.14,2.06.14c.85,0,1.5-.06,1.94-.17.45-.11.77-.28.96-.52.19-.23.34-.52.43-.88.11-.4.34-.67.68-.82.34-.14.71-.15,1.09-.02.38.11.64.32.78.62s.16.64.06,1.01c-.19.8-.49,1.44-.9,1.92-.41.48-1.01.82-1.81,1.03-.8.21-1.88.31-3.24.31-1.44,0-2.58-.12-3.42-.35-.84-.23-1.44-.66-1.8-1.27-.36-.62-.54-1.5-.54-2.65v-4.27l-1.32.38c-.11.05-.25.07-.41.07-.05.9-.11,1.76-.18,2.6-.07.84-.15,1.54-.23,2.1-.18,1.31-.55,2.22-1.13,2.74-.58.51-1.42.78-2.54.82ZM247.9,53.25l1.7-.5v-2.14c0-.08,0-.14.02-.19l-.07.07c-.22.3-.53.5-.91.6-.38.1-.74.02-1.06-.24-.29-.22-.45-.51-.48-.86-.03-.35.07-.66.31-.94l.43-.58c-.06.02-.12.03-.18.04s-.12.01-.2.01h-3.31v2.52h.26c1.18,0,2.04.16,2.56.47.52.31.83.89.92,1.74ZM255.87,57.18c.18-.32.46-.51.86-.58.29-.05.47-.12.55-.23.08-.1.12-.29.12-.56v-1.44c0-.51-.1-.83-.3-.95-.2-.12-.52-.12-.95.01l-.29.1v3.65Z"/><path class="cls-2" d="M273.95,63.95c-.45,0-.81-.12-1.08-.35-.27-.23-.41-.56-.41-1v-6.38h-3.31c-1.3,0-2.34-.14-3.12-.41-.78-.27-1.35-.76-1.7-1.46-.35-.7-.53-1.69-.53-2.95s.18-2.29.54-2.99c.36-.7.93-1.18,1.72-1.44.78-.26,1.82-.4,3.1-.4h3.31v-3.26c0-.43.14-.76.41-.98.27-.22.63-.34,1.08-.34s.82.11,1.08.34c.26.22.38.55.38.98v3.26h3.36c1.28,0,2.31.13,3.1.4.78.26,1.36.74,1.72,1.44.36.7.54,1.69.54,2.99s-.18,2.25-.55,2.95-.94,1.19-1.73,1.46c-.78.27-1.81.41-3.07.41h-3.36v6.38c0,.43-.13.76-.38,1-.26.23-.62.35-1.08.35ZM269.15,53.58h3.31v-4.37h-3.31c-.61,0-1.09.05-1.44.14s-.6.3-.74.6c-.14.3-.22.78-.22,1.44s.07,1.09.2,1.4c.14.31.38.52.72.62.34.1.84.16,1.48.16ZM275.41,53.58h3.36c.61,0,1.08-.05,1.43-.16s.59-.31.74-.62c.15-.31.23-.78.23-1.4,0-.66-.07-1.14-.2-1.44s-.38-.5-.73-.6c-.35-.1-.84-.14-1.46-.14h-3.36v4.37Z"/><path class="cls-2" d="M117.43,86.55c-.07-.08-.11-.18-.11-.3s.04-.21.11-.29l4.59-4.58-4.59-4.58c-.07-.07-.11-.17-.11-.29s.04-.22.11-.3c.08-.08.18-.13.3-.13s.22.04.3.13l4.58,4.58,4.59-4.58c.07-.08.17-.13.29-.13s.22.04.3.13.13.18.13.3-.04.21-.13.29l-4.59,4.58,4.59,4.58c.07.08.11.17.11.29s-.04.22-.11.3c-.08.08-.18.11-.3.11s-.22-.04-.3-.11l-4.58-4.58-4.58,4.58c-.08.08-.18.11-.3.11s-.22-.04-.3-.11ZM118.51,82.48c-.31,0-.57-.11-.78-.32s-.31-.47-.31-.77.1-.57.31-.78.47-.32.78-.32.56.11.77.32.32.47.32.78-.11.56-.32.77-.47.32-.77.32ZM122.6,78.42c-.3,0-.56-.11-.77-.32-.21-.21-.32-.47-.32-.77s.11-.56.32-.77c.21-.21.47-.32.77-.32s.56.11.77.32c.21.21.32.47.32.77s-.11.56-.32.77c-.21.21-.47.32-.77.32ZM122.6,86.61c-.3,0-.56-.11-.77-.32s-.32-.47-.32-.77.11-.55.32-.77.47-.32.77-.32.56.11.77.32.32.47.32.77-.11.56-.32.77-.47.32-.77.32ZM126.69,82.48c-.3,0-.56-.11-.77-.32-.21-.21-.32-.47-.32-.77s.11-.57.32-.78c.21-.21.47-.32.77-.32s.57.11.78.32.32.47.32.78-.11.56-.32.77-.48.32-.78.32Z"/><path class="cls-2" d="M131.85,86.42c-.21.1-.42.11-.65.04-.23-.08-.39-.23-.5-.44s-.11-.43-.03-.66c.08-.22.22-.39.43-.49,1.33-.64,2.52-1.42,3.56-2.33,1.04-.91,1.89-1.9,2.54-2.96.41-.67.19-1.01-.67-1.01h-3.82c-.23,0-.43-.09-.6-.26s-.25-.38-.25-.61.08-.45.25-.62.37-.25.6-.25h3.88c.84,0,1.48.15,1.93.46.45.3.69.72.73,1.24s-.13,1.12-.52,1.81c-.21.37-.45.75-.74,1.12.43.35.87.74,1.32,1.17s.88.84,1.27,1.23c.4.4.73.73,1,1.01.16.17.24.37.24.62s-.09.45-.27.62c-.17.17-.37.25-.62.24-.24,0-.45-.09-.62-.26-.25-.26-.57-.59-.95-.99-.38-.4-.79-.81-1.22-1.23-.43-.42-.84-.81-1.25-1.16-.71.74-1.5,1.43-2.37,2.08-.87.65-1.77,1.19-2.68,1.63Z"/><path class="cls-2" d="M145.96,87.31c-.22.09-.45.1-.67.01-.22-.08-.38-.24-.48-.46-.09-.21-.1-.43,0-.66s.24-.38.46-.48c1.92-.83,3.5-1.88,4.75-3.16-.21-.21-.4-.39-.59-.56-.19-.17-.35-.3-.48-.41-.18-.16-.28-.35-.31-.59-.03-.23.03-.44.17-.62.16-.19.36-.29.6-.32.24-.03.45.04.62.2.16.12.33.26.51.43s.38.34.58.52c.17-.24.33-.49.48-.74.15-.25.29-.51.42-.77.15-.31.18-.54.09-.69-.09-.15-.31-.23-.68-.23h-1.9c-.47.62-.99,1.22-1.57,1.8s-1.13,1.05-1.65,1.43c-.2.14-.41.19-.65.15-.24-.04-.42-.16-.55-.36-.14-.2-.19-.41-.15-.64s.16-.42.36-.56c.54-.39,1.06-.84,1.56-1.33.5-.5.95-1.02,1.35-1.56.4-.55.72-1.08.97-1.59.1-.21.26-.37.48-.46s.44-.09.65,0c.21.09.37.25.45.48.09.23.08.45-.02.67-.02.05-.04.1-.06.15-.02.05-.05.1-.08.15h1.08c.72,0,1.27.13,1.66.41.39.27.6.65.65,1.13s-.08,1.03-.39,1.64c-.35.73-.77,1.42-1.29,2.09.21.21.41.4.59.59.18.19.33.36.45.5.16.19.22.4.2.64-.03.24-.14.44-.34.6-.19.15-.4.21-.64.17-.24-.03-.44-.14-.59-.31-.09-.11-.21-.24-.35-.39s-.29-.3-.45-.46c-1.46,1.51-3.2,2.71-5.22,3.58Z"/><path class="cls-2" d="M159.79,83.26c-.19.08-.38.09-.57,0-.19-.08-.33-.21-.43-.4-.15-.31-.31-.61-.47-.9-.16-.29-.31-.54-.44-.75-.12-.18-.17-.37-.13-.57.03-.21.13-.37.3-.49s.36-.17.57-.13c.21.03.38.13.5.3.18.25.37.57.57.94.21.38.37.71.49,1,.09.19.1.38.02.57-.08.2-.22.34-.41.42ZM160.23,87.29c-.19.08-.38.09-.58.01-.2-.07-.34-.21-.43-.39-.08-.2-.09-.39-.01-.59s.21-.34.39-.42c.95-.43,1.73-.92,2.35-1.46.61-.55,1.09-1.18,1.44-1.89.35-.71.58-1.53.71-2.46.03-.21.13-.38.3-.5.17-.12.36-.17.57-.14.21.03.37.13.5.29s.17.36.13.57c-.24,1.61-.8,2.99-1.67,4.15-.87,1.16-2.1,2.1-3.69,2.82ZM162.08,82.73c-.21.07-.4.05-.57-.04-.18-.09-.3-.23-.38-.43-.1-.27-.23-.58-.38-.92-.15-.34-.28-.62-.39-.83-.09-.19-.12-.38-.07-.58.05-.2.16-.35.34-.46.19-.11.38-.14.59-.09.21.05.35.17.45.36.14.26.3.58.47.96.17.38.32.74.43,1.07.07.2.06.39-.04.57-.1.19-.24.31-.44.38Z"/><path class="cls-2" d="M170.48,86.92c-.21.09-.44.1-.67,0s-.39-.24-.5-.46c-.09-.21-.1-.44-.01-.67.08-.23.23-.39.45-.48,1.47-.66,2.7-1.45,3.7-2.37s1.73-1.91,2.2-2.98c.2-.46.22-.81.08-1.05-.14-.24-.49-.36-1.04-.36h-5.29c-.23,0-.44-.08-.61-.25-.17-.17-.26-.37-.26-.6s.09-.45.26-.62c.17-.17.38-.25.61-.25h5.38c.85,0,1.51.16,1.98.47.47.31.75.75.84,1.3.09.55-.03,1.2-.34,1.94-.55,1.32-1.4,2.52-2.55,3.61s-2.56,2.01-4.22,2.76Z"/><path class="cls-2" d="M182.04,87.31c-.22.09-.45.1-.67.01-.22-.08-.38-.24-.48-.46-.09-.21-.1-.43,0-.66.09-.22.24-.38.46-.48,1.92-.83,3.5-1.88,4.75-3.16-.21-.21-.4-.39-.59-.56s-.34-.3-.48-.41c-.18-.16-.28-.35-.32-.59-.03-.23.03-.44.18-.62.16-.19.36-.29.59-.32.24-.03.45.04.62.2.16.12.33.26.51.43s.38.34.58.52c.17-.24.33-.49.48-.74.15-.25.29-.51.42-.77.15-.31.18-.54.09-.69-.09-.15-.32-.23-.68-.23h-1.9c-.47.62-.99,1.22-1.57,1.8s-1.13,1.05-1.65,1.43c-.2.14-.41.19-.65.15-.24-.04-.42-.16-.55-.36-.14-.2-.19-.41-.15-.64s.16-.42.36-.56c.54-.39,1.06-.84,1.56-1.33.5-.5.95-1.02,1.35-1.56s.72-1.08.97-1.59c.1-.21.26-.37.48-.46.22-.09.44-.09.65,0,.21.09.37.25.46.48.09.23.08.45-.02.67-.02.05-.04.1-.06.15-.02.05-.05.1-.08.15h1.08c.72,0,1.27.13,1.66.41.39.27.6.65.65,1.13s-.08,1.03-.39,1.64c-.35.73-.78,1.42-1.29,2.09.21.21.41.4.59.59.18.19.33.36.45.5.16.19.22.4.2.64-.03.24-.14.44-.34.6-.19.15-.4.21-.64.17-.24-.03-.44-.14-.59-.31-.09-.11-.21-.24-.35-.39-.14-.15-.29-.3-.45-.46-1.46,1.51-3.2,2.71-5.22,3.58Z"/><path class="cls-2" d="M199.02,87.32c-.23,0-.43-.09-.6-.26-.17-.17-.25-.38-.25-.61v-5.6c-.6.52-1.21,1.03-1.85,1.51s-1.27.93-1.9,1.33c-.21.12-.42.15-.65.1-.23-.06-.41-.19-.54-.39-.12-.21-.15-.42-.1-.66.06-.23.19-.41.39-.53.59-.36,1.2-.79,1.84-1.27.64-.49,1.26-1,1.88-1.55s1.18-1.1,1.69-1.66c.52-.55.95-1.08,1.29-1.57.14-.2.33-.32.56-.36s.45,0,.64.14c.2.13.32.32.36.55.05.24,0,.45-.14.65-.49.65-1.07,1.34-1.76,2.06v7.27c0,.23-.08.44-.25.61-.17.17-.37.26-.62.26Z"/><path class="cls-2" d="M215.33,86.24c-.21.11-.42.13-.65.06-.23-.07-.4-.21-.52-.42-.09-.17-.22-.36-.38-.59-.16-.22-.33-.47-.52-.73-.54.09-1.16.19-1.85.29-.69.1-1.41.19-2.15.28-.74.09-1.46.17-2.15.24-.69.07-1.3.12-1.83.16-.23.02-.44-.05-.62-.21-.18-.16-.28-.35-.3-.59,0-.24.07-.45.23-.63.16-.18.36-.27.59-.28.15-.02.3-.03.46-.04.16,0,.33-.02.5-.03.28-.41.58-.89.89-1.43s.62-1.11.92-1.7.57-1.15.82-1.69c.25-.54.45-1.01.61-1.4.08-.22.23-.39.45-.49s.43-.11.66-.03c.22.08.39.24.5.46.11.22.11.44.02.65-.21.49-.46,1.04-.77,1.67-.31.63-.64,1.27-1.01,1.93-.36.66-.73,1.28-1.11,1.87.69-.07,1.39-.13,2.09-.2.71-.07,1.36-.14,1.95-.22-.2-.24-.39-.47-.57-.69-.19-.21-.36-.4-.52-.55-.16-.18-.24-.38-.23-.62s.1-.43.27-.59c.18-.16.38-.23.62-.22.23,0,.43.1.59.27.24.24.52.55.84.93s.64.78.97,1.2.64.82.92,1.2c.28.38.5.7.64.97.12.21.14.42.07.66-.07.23-.22.41-.43.52Z"/><path class="cls-2" d="M219.83,86.93c-.23.04-.44,0-.63-.14s-.3-.31-.35-.53c-.08-.48-.15-1.03-.2-1.66-.05-.63-.07-1.29-.07-1.99s.02-1.41.06-2.11c.04-.71.1-1.39.17-2.04s.17-1.23.29-1.74c.05-.22.17-.4.36-.53.2-.13.41-.17.63-.12.22.06.4.18.52.37s.17.4.12.64c-.15.66-.27,1.38-.35,2.16-.08.77-.14,1.56-.16,2.36s-.01,1.57.04,2.32c.05.75.13,1.43.24,2.05.05.22,0,.43-.13.62-.13.19-.31.3-.54.35ZM225.57,86.17c-1.21,0-2.12-.22-2.71-.66-.59-.44-.95-1.08-1.07-1.93-.04-.22.01-.43.15-.62.13-.19.32-.3.55-.34.22-.03.43.03.62.16.19.14.3.32.34.55.06.4.25.7.57.9.33.2.86.29,1.6.29s1.54-.11,2.53-.32c.22-.06.43-.02.63.11s.32.31.36.53c.05.22,0,.43-.13.62-.13.19-.31.31-.53.37-.5.12-1.01.21-1.5.25-.5.05-.97.07-1.41.07ZM223.01,79.24c-.22.05-.43,0-.62-.12-.19-.13-.31-.31-.36-.54-.05-.22,0-.43.12-.63s.31-.31.54-.35c.52-.1,1.11-.17,1.75-.2.64-.03,1.28-.04,1.92-.01.63.02,1.19.08,1.68.16.23.04.42.15.55.34.13.19.17.4.13.64-.04.23-.15.41-.34.54s-.4.17-.62.13c-.76-.13-1.54-.19-2.35-.19-.81,0-1.61.08-2.38.23Z"/><path class="cls-2" d="M232.43,88.01c-.21,0-.38-.07-.52-.2-.15-.13-.22-.32-.22-.55v-9.94c0-.53.06-.94.17-1.23.12-.29.34-.49.67-.6.33-.11.81-.17,1.44-.17.76,0,1.31.1,1.67.29.36.19.55.47.58.83.03.36-.08.79-.32,1.28-.12.23-.24.46-.35.68-.11.22-.22.44-.34.65-.15.28-.22.48-.22.59,0,.12.1.27.29.47.31.31.56.67.75,1.09s.29.86.29,1.33c0,.59-.1,1.06-.29,1.43-.2.36-.46.63-.79.81-.33.18-.7.28-1.11.29-.23,0-.43-.05-.58-.17s-.25-.3-.29-.51c-.03-.21,0-.4.11-.56.1-.16.25-.26.43-.29.36-.07.61-.21.74-.39s.19-.49.19-.9c0-.31-.08-.63-.24-.96-.16-.33-.36-.62-.6-.88-.16-.18-.27-.33-.33-.47-.06-.13-.07-.29-.04-.46.03-.17.11-.38.23-.64.08-.19.18-.41.29-.68.11-.27.21-.49.29-.68.13-.27.16-.46.09-.57-.07-.11-.26-.16-.57-.16-.29,0-.47.04-.55.11-.08.08-.12.23-.12.46v9.94c0,.23-.07.42-.22.55-.14.14-.32.2-.54.2ZM235.85,87.66c-.24.06-.46.03-.64-.09-.18-.12-.3-.29-.34-.53-.04-.21,0-.41.09-.58s.26-.28.5-.33c.19-.04.39-.08.62-.13s.47-.09.72-.14v-8.23c0-.82.19-1.39.56-1.71.37-.32.98-.48,1.83-.48h1.57c.86,0,1.47.16,1.84.48.37.32.55.89.55,1.71v1.65c0,.83-.18,1.4-.55,1.71-.37.31-.98.47-1.84.47h-.25c.11.57.28,1.1.5,1.6.17-.12.35-.25.56-.4.21-.14.4-.28.59-.42.19-.13.33-.25.43-.34.16-.14.34-.21.55-.2s.38.09.52.25c.13.16.2.34.2.55s-.08.37-.25.5c-.13.11-.31.25-.53.41-.22.16-.46.32-.69.48-.24.16-.45.3-.62.42.27.35.58.66.93.95.35.29.73.56,1.13.8.19.11.3.28.35.49s.02.42-.08.6c-.13.21-.32.35-.58.39s-.49,0-.71-.14c-1.04-.67-1.88-1.47-2.5-2.41-.62-.93-1.02-2.1-1.21-3.51h-.73v4.05c.21-.05.42-.09.62-.14.2-.05.38-.09.54-.13.21-.06.41-.04.57.06.17.09.27.24.31.43.05.22.02.42-.07.59-.09.17-.25.29-.48.35-.22.07-.51.14-.87.23s-.73.18-1.12.27c-.39.09-.77.18-1.13.27s-.66.15-.9.21ZM238.37,77.82h3.19v-.08c0-.36-.07-.61-.22-.74s-.41-.19-.8-.19h-1.15c-.39,0-.66.06-.8.19s-.22.37-.22.74v.08ZM238.37,80.1h2.17c.39,0,.66-.06.8-.19s.22-.37.22-.74v-.11h-3.19v1.04Z"/><path class="cls-2" d="M249.95,87.36c-.17-.16-.26-.36-.27-.59-.01-.23.06-.43.23-.6.71-.72,1.27-1.62,1.67-2.72.41-1.09.61-2.28.61-3.57,0-.73-.12-1.25-.35-1.58-.23-.33-.58-.49-1.04-.49-.37,0-.72.15-1.04.46-.32.3-.56.75-.71,1.35-.16.6-.2,1.35-.13,2.25.02.21-.04.41-.17.58-.14.17-.31.27-.53.29-.22.02-.42-.04-.58-.17s-.26-.3-.3-.52c-.07-.48-.11-1.02-.13-1.6s-.02-1.17,0-1.75.04-1.12.08-1.62c.04-.5.07-.91.11-1.24.03-.22.13-.41.31-.55.18-.14.38-.2.6-.17.23.03.42.13.55.29.13.17.18.37.15.62-.02.17-.04.38-.08.64-.03.26-.06.51-.08.74.21-.36.5-.67.87-.92.36-.25.74-.37,1.13-.37,1,0,1.75.33,2.24.97s.74,1.57.74,2.78c0,.96-.1,1.9-.3,2.81-.2.91-.5,1.76-.9,2.55s-.89,1.49-1.49,2.09c-.16.17-.36.25-.59.26s-.44-.07-.61-.23Z"/><path class="cls-2" d="M260.81,87.54c-.76,0-1.38-.18-1.85-.54s-.7-.89-.7-1.6c0-.63.24-1.14.71-1.53s1.1-.57,1.9-.57c.28,0,.56.01.84.04l-.04-1.58c-.97.03-1.83.03-2.58,0-.23-.02-.42-.11-.57-.29-.14-.17-.21-.37-.2-.6.02-.22.11-.41.29-.56s.37-.21.6-.2c.35.02.74.03,1.15.04.42,0,.84,0,1.27,0,0-.22-.01-.45-.01-.67s0-.44-.01-.66c-.46,0-.9.01-1.33,0-.43,0-.82-.01-1.18-.02-.23,0-.42-.1-.57-.27-.14-.17-.21-.38-.2-.61.02-.22.11-.41.29-.56s.37-.21.6-.2c.69.05,1.48.06,2.37.04v-1.2c0-.23.08-.43.24-.59.16-.16.35-.25.59-.25s.43.08.6.25c.16.16.25.36.25.59v.54c0,.19,0,.39.01.61.38-.03.75-.06,1.11-.09.35-.03.68-.07.97-.11.22-.03.43.03.61.16.18.14.29.32.32.54.03.23-.03.44-.16.62-.14.18-.32.29-.54.31-.33.04-.68.07-1.07.1-.39.03-.79.05-1.2.07,0,.21,0,.43,0,.66,0,.22.01.45.02.67.37-.02.73-.04,1.07-.08.34-.03.66-.07.95-.11.22-.04.43.01.61.15.18.14.29.32.32.55.03.22-.03.43-.16.61-.14.18-.32.29-.54.32-.32.04-.66.07-1.04.1-.37.03-.77.05-1.18.07.02.37.03.73.04,1.06,0,.34.01.65.02.94.54.16,1.05.35,1.54.59s.92.48,1.29.74c.19.12.3.3.34.53s0,.44-.13.63-.31.3-.54.34-.44,0-.62-.13c-.26-.19-.55-.37-.87-.54s-.65-.33-.99-.47c-.04.74-.28,1.28-.73,1.62-.45.34-1.07.52-1.86.52ZM260.8,85.96c.38,0,.63-.07.76-.2.12-.13.18-.33.18-.58v-.27c-.32-.06-.63-.08-.94-.08s-.52.05-.66.15c-.14.1-.21.24-.21.42,0,.37.29.56.87.56Z"/><path class="cls-2" d="M274.29,87.69c-.22.06-.44.06-.65,0-.21-.07-.37-.21-.47-.41-.09-.21-.1-.43-.03-.66.07-.22.22-.38.43-.46.71-.27,1.26-.57,1.65-.91.39-.34.67-.72.83-1.16-.32.15-.63.22-.94.22-.74,0-1.34-.19-1.81-.57-.47-.38-.7-.94-.7-1.67s.24-1.32.73-1.74,1.1-.63,1.83-.63c.07,0,.13,0,.18,0,.06,0,.12.01.18.02-.03-.16-.05-.32-.06-.49-.01-.17-.03-.35-.03-.53-.93.04-1.85.09-2.75.16-.9.07-1.74.14-2.51.22-.22.02-.42-.04-.6-.17-.18-.14-.28-.32-.31-.54-.02-.23.04-.44.18-.62.14-.18.32-.27.55-.28.79-.07,1.66-.12,2.59-.17.93-.05,1.88-.1,2.84-.13v-1.2c0-.23.08-.43.24-.59.16-.16.35-.24.59-.24s.44.08.6.24.24.35.24.59v1.15c.77-.02,1.52-.04,2.23-.05.71-.01,1.36-.03,1.96-.04.23,0,.43.08.58.25.15.17.23.36.22.59,0,.23-.1.42-.26.57-.16.15-.36.22-.6.21-1.19-.05-2.57-.05-4.13,0,0,.33.03.65.05.98.02.33.04.64.06.94.45.53.67,1.26.67,2.17,0,1.17-.31,2.19-.92,3.07-.61.88-1.5,1.51-2.67,1.89ZM275.12,82.86c.27,0,.48-.08.64-.22.15-.13.23-.33.23-.59,0-.07,0-.16-.02-.25-.01-.09-.03-.19-.05-.28-.2-.23-.45-.35-.77-.35-.26,0-.48.08-.67.23-.18.15-.27.37-.27.64s.09.48.26.62.39.21.65.2Z"/><path class="cls-2" d="M85.42,48.94c0-15.38-15.42-27.89-34.37-27.89s-34.37,12.51-34.37,27.89c0,13.79,12.23,25.34,28.74,27.52,1.12.24,2.64.74,3.03,1.69.35.87.23,2.23.11,3.11,0,0-.4,2.43-.49,2.94-.15.87-.69,3.4,2.98,1.85,3.67-1.55,19.79-11.65,27.01-19.96h0c4.98-5.46,7.37-11.01,7.37-17.16ZM38.93,57.15c0,.37-.3.67-.67.67h-9.63c-.18,0-.34-.07-.46-.19,0,0,0,0,0,0,0,0,0,0,0-.01-.12-.12-.19-.28-.19-.46v-14.97c0-.37.3-.67.67-.67h2.41c.37,0,.67.3.67.67v11.89h6.55c.37,0,.67.3.67.67v2.41ZM44.74,57.15c0,.37-.3.67-.67.67h-2.41c-.37,0-.67-.3-.67-.67v-14.98c0-.37.3-.67.67-.67h2.41c.37,0,.67.3.67.67v14.98ZM61.33,57.15c0,.37-.3.67-.67.67h-2.41c-.06,0-.12,0-.17-.02h-.01s-.03-.01-.05-.02c0,0-.01,0-.02,0-.01,0-.02,0-.03-.01-.01,0-.02-.01-.03-.02,0,0-.01,0-.02-.01-.01,0-.03-.02-.04-.02,0,0,0,0,0,0-.06-.04-.12-.1-.17-.16l-6.87-9.28v8.89c0,.37-.3.67-.67.67h-2.41c-.37,0-.67-.3-.67-.67v-14.98c0-.37.3-.67.67-.67h2.41s.02,0,.02,0c.01,0,.02,0,.03,0,.01,0,.02,0,.03,0,0,0,.02,0,.03,0,.01,0,.03,0,.04,0,0,0,.02,0,.02,0,.01,0,.03,0,.04.01,0,0,.01,0,.02,0,.01,0,.03.01.04.02,0,0,.01,0,.02,0,.01,0,.02.01.03.02,0,0,.01,0,.02.01.01,0,.02.02.03.02,0,0,.01,0,.02.01.01,0,.02.02.04.03,0,0,0,0,.01.01.01.01.03.03.04.04,0,0,0,0,0,0,.02.02.04.04.05.07l6.86,9.27v-8.9c0-.37.3-.67.67-.67h2.41c.37,0,.67.3.67.67v14.98ZM74.65,44.58c0,.37-.3.67-.67.67h-6.55v2.53h6.55c.37,0,.67.3.67.67v2.41c0,.37-.3.67-.67.67h-6.55v2.53h6.55c.37,0,.67.3.67.67v2.41c0,.37-.3.67-.67.67h-9.63c-.18,0-.34-.07-.46-.19,0,0,0,0,0,0,0,0,0,0,0-.01-.12-.12-.19-.28-.19-.46v-14.97c0-.18.07-.34.19-.46,0,0,0,0,.01-.01,0,0,0,0,0,0,.12-.12.28-.19.46-.19h9.63c.37,0,.67.3.67.67v2.41Z"/><path class="cls-2" d="M.5,100.21v20.76c0,6.01,4.87,10.89,10.89,10.89h313.22c6.01,0,10.89-4.87,10.89-10.89v-20.76H.5Z"/><rect class="cls-3" x=".5" y=".5" width="335" height="131.36" rx="11.46" ry="11.46"/><path class="cls-1" d="M65.44,121.54c-.77,0-1.38-.18-1.85-.54s-.7-.89-.7-1.6c0-.63.24-1.14.71-1.53s1.1-.57,1.9-.57c.28,0,.56.01.84.04l-.04-1.58c-.97.03-1.83.03-2.58,0-.23-.02-.42-.11-.57-.29-.15-.17-.21-.37-.2-.6.02-.22.11-.41.29-.56.17-.15.37-.21.59-.2.35.02.74.03,1.16.04.42,0,.84,0,1.27,0,0-.22-.01-.45-.01-.67s0-.44-.01-.66c-.46,0-.9.01-1.33,0-.43,0-.82-.01-1.18-.02-.23,0-.42-.1-.57-.27-.15-.17-.21-.38-.2-.61.02-.22.11-.41.29-.56.17-.15.37-.21.59-.2.69.05,1.48.06,2.37.04v-1.2c0-.23.08-.43.24-.59s.35-.25.59-.25.43.08.59.25.25.36.25.59v.54c0,.19,0,.39.01.61.38-.03.75-.06,1.11-.09.35-.03.68-.07.97-.11.22-.03.43.03.61.16.18.14.29.32.31.54.03.23-.03.44-.16.62-.14.18-.31.29-.54.31-.33.04-.68.07-1.07.1-.39.03-.79.05-1.2.07,0,.21,0,.43,0,.66,0,.22.01.45.02.67.37-.02.73-.04,1.07-.08.34-.03.66-.07.94-.11.22-.04.43.01.61.15.18.14.29.32.31.55.03.22-.03.43-.16.61-.14.18-.31.29-.54.32-.32.04-.66.07-1.04.1-.37.03-.77.05-1.18.07.02.37.03.73.03,1.06,0,.34.01.65.02.94.54.16,1.05.35,1.54.59s.91.48,1.29.74c.19.12.3.3.34.53s0,.44-.13.63-.31.3-.54.34c-.23.04-.44,0-.62-.13-.26-.19-.55-.37-.87-.54-.32-.17-.65-.33-.99-.47-.04.74-.28,1.28-.73,1.62-.45.34-1.07.52-1.86.52ZM65.42,119.96c.38,0,.63-.07.76-.2.12-.13.18-.33.18-.58v-.27c-.32-.06-.63-.08-.94-.08s-.52.05-.66.15c-.14.1-.21.24-.21.42,0,.37.29.56.87.56Z"/><path class="cls-1" d="M78.93,121.69c-.22.06-.44.06-.65,0-.21-.07-.37-.21-.47-.41-.09-.21-.1-.43-.03-.66.07-.22.22-.38.45-.46.69-.27,1.23-.57,1.63-.9.4-.33.67-.7.83-1.13-.32.15-.63.22-.94.22-.74,0-1.34-.19-1.81-.57s-.7-.94-.7-1.67c0-.49.11-.92.34-1.27.22-.35.53-.62.92-.8.39-.19.82-.28,1.31-.28h.19c.06,0,.12,0,.17.01-.02-.14-.04-.28-.05-.43-.01-.15-.03-.3-.05-.45-.93.04-1.85.09-2.76.15-.91.07-1.75.14-2.53.21-.23.03-.44-.03-.62-.17-.18-.14-.28-.32-.29-.55-.03-.22.03-.42.17-.6.14-.18.33-.27.55-.29.79-.06,1.66-.12,2.6-.17.94-.05,1.9-.1,2.86-.13v-1.37c0-.23.08-.43.24-.59.16-.16.36-.24.6-.24s.43.08.59.24c.16.16.24.35.24.59v1.32c.51-.02,1.01-.03,1.5-.04.49,0,.95-.01,1.4-.01,0-.02-.02-.04-.04-.07-.01-.03-.03-.06-.05-.08-.07-.16-.15-.35-.25-.57-.1-.22-.19-.42-.29-.6-.06-.11-.06-.24-.02-.38.04-.14.14-.24.29-.31.13-.08.26-.09.39-.05.13.04.24.13.32.26.1.14.22.32.35.55.13.23.23.44.29.62.1.22.07.43-.08.62h.34c.22,0,.42.08.57.25.16.16.23.36.22.59,0,.22-.1.41-.26.57-.16.15-.36.23-.6.22-.58-.03-1.22-.04-1.92-.04-.7,0-1.42.02-2.17.04,0,.3.02.6.04.91.02.31.04.6.07.87.44.54.66,1.26.66,2.17,0,1.17-.31,2.18-.92,3.04s-1.5,1.49-2.67,1.87ZM79.76,116.9c.27,0,.48-.08.64-.22.15-.13.23-.33.23-.59,0-.07,0-.16-.01-.25,0-.09-.02-.19-.04-.28-.2-.22-.46-.34-.78-.34-.26,0-.48.08-.67.22s-.27.36-.27.63.09.48.26.62c.17.14.39.21.65.2ZM86.88,110.58c-.13.08-.28.1-.43.06-.16-.05-.28-.14-.35-.29-.07-.16-.17-.34-.29-.56s-.23-.41-.33-.59c-.07-.1-.08-.23-.05-.37s.11-.25.25-.33c.13-.07.26-.1.4-.07.14.03.25.1.34.22.11.13.24.31.38.52.14.22.26.42.35.61.07.15.09.3.03.45s-.15.27-.3.35Z"/><path class="cls-1" d="M90.2,121.26c-.23.04-.44,0-.63-.14-.19-.13-.3-.31-.35-.53-.06-.31-.1-.73-.13-1.26s-.05-1.13-.06-1.79c0-.66,0-1.35,0-2.06.01-.71.04-1.41.08-2.09.04-.68.09-1.29.15-1.85.06-.55.13-1.01.22-1.35.06-.22.18-.4.38-.52.2-.12.41-.15.63-.1s.4.18.52.38c.12.2.15.41.1.63-.08.35-.15.78-.21,1.3-.06.52-.1,1.09-.14,1.71-.04.62-.06,1.26-.08,1.91-.01.65-.02,1.29,0,1.9s.03,1.17.06,1.67.08.91.13,1.22c.05.22,0,.43-.13.62s-.31.3-.54.35ZM94.86,121.25c-.75,0-1.35-.18-1.8-.55-.45-.37-.68-.9-.68-1.59s.23-1.19.68-1.58,1.08-.58,1.87-.58c.24,0,.49.01.74.04,0-.44-.02-.92-.04-1.43-.01-.52-.03-1.05-.05-1.59-.5.03-.97.05-1.44.06-.46,0-.86,0-1.2,0-.23,0-.43-.1-.58-.26-.15-.16-.23-.36-.22-.6.02-.22.11-.41.27-.57.16-.15.36-.23.58-.22.33,0,.71.01,1.16,0,.44,0,.91-.02,1.39-.05,0-.35-.01-.69-.01-1.02v-.92c0-.23.08-.43.24-.6.16-.16.35-.24.59-.24s.44.08.6.24c.16.16.24.36.24.6,0,.29,0,.59,0,.9,0,.31,0,.62,0,.94.41-.04.79-.08,1.13-.11s.63-.07.86-.11c.22-.05.43,0,.62.13.19.13.3.31.34.54.04.22-.01.43-.15.62-.14.19-.31.29-.54.32-.26.04-.59.08-.97.12-.39.04-.81.08-1.25.12.02.65.04,1.28.06,1.89s.03,1.14.04,1.61c.51.17,1,.37,1.45.6s.85.48,1.18.73c.19.14.3.32.34.55.04.23,0,.44-.14.62s-.31.3-.54.35c-.23.05-.44,0-.62-.14-.23-.18-.49-.35-.77-.52-.28-.17-.57-.32-.87-.45-.09,1.43-.93,2.14-2.52,2.14ZM94.86,119.67c.58,0,.87-.28.87-.83,0-.03,0-.06,0-.11s0-.1,0-.15c-.28-.06-.56-.08-.85-.08s-.5.06-.64.17-.2.26-.2.43.07.32.2.42c.13.1.35.15.64.15Z"/><path class="cls-1" d="M103.49,120.71c-.55,0-.83-.28-.83-.83v-8.15c0-.55.27-.83.8-.83s.81.28.81.83v7.48h4.28c.55,0,.83.25.83.74s-.28.76-.83.76h-5.07Z"/><path class="cls-1" d="M112,120.71c-.53,0-.8-.28-.8-.83v-8.15c0-.55.27-.83.8-.83s.81.28.81.83v8.15c0,.55-.27.83-.81.83Z"/><path class="cls-1" d="M116.26,120.71c-.53,0-.8-.28-.8-.83v-8.15c0-.55.27-.83.8-.83h.18c.42,0,.75.18.99.55l4.26,6.41v-6.13c0-.27.07-.48.22-.62.14-.14.35-.21.61-.21.54,0,.81.28.81.83v8.15c0,.55-.26.83-.77.83h-.14c-.43,0-.76-.18-.99-.55l-4.35-6.61v6.33c0,.55-.27.83-.81.83Z"/><path class="cls-1" d="M126.81,120.71c-.55,0-.83-.28-.83-.83v-8.15c0-.55.27-.83.83-.83h4.9c.55,0,.83.25.83.76s-.28.74-.83.74h-4.12v2.55h3.68c.55,0,.83.25.83.76s-.28.76-.83.76h-3.68v2.74h4.27c.55,0,.83.25.83.74s-.28.76-.83.76h-5.05Z"/><path class="cls-1" d="M134.31,116.22c-.18-.17-.26-.37-.25-.61s.11-.45.29-.62c.35-.34.72-.74,1.1-1.2s.73-.95,1.06-1.45c.33-.5.58-.95.77-1.37.1-.23.27-.38.49-.45s.44-.05.64.06c.21.11.36.27.43.48.07.21.05.42-.05.64-.25.54-.55,1.08-.9,1.62-.35.54-.71,1.04-1.09,1.53-.38.48-.76.91-1.13,1.29-.19.18-.41.29-.67.32s-.49-.04-.69-.24ZM145.74,121.36c-.21.14-.44.19-.69.14-.26-.05-.45-.17-.58-.38-.09-.14-.19-.29-.3-.45-.11-.16-.23-.33-.36-.5-.42.06-.91.12-1.46.18-.55.07-1.14.13-1.76.2-.62.07-1.23.14-1.83.21-.6.07-1.17.13-1.69.19s-.97.1-1.34.14c-.29.03-.52-.03-.7-.17-.18-.14-.28-.34-.31-.6-.02-.22.05-.42.2-.59.15-.17.35-.26.62-.28.19-.02.39-.04.61-.05.22-.01.46-.03.72-.05.19-.36.4-.79.63-1.27.23-.48.47-.98.71-1.5.24-.52.46-1.01.67-1.48.21-.47.37-.87.5-1.2.09-.23.25-.4.46-.49.21-.09.44-.1.67-.01.23.08.4.24.5.46s.1.44,0,.67c-.18.4-.39.87-.64,1.41s-.52,1.1-.8,1.67-.55,1.1-.8,1.58c.7-.07,1.4-.13,2.11-.2.7-.07,1.34-.13,1.91-.19-.21-.28-.43-.55-.64-.8-.21-.26-.4-.48-.57-.67-.15-.16-.22-.35-.21-.57,0-.22.1-.41.27-.55.18-.15.38-.22.6-.21.22,0,.41.09.57.25.22.23.48.51.76.83.28.32.56.66.85,1.02s.56.71.83,1.04c.26.34.49.64.69.91.15.21.21.45.18.69-.03.25-.16.45-.37.61ZM145.72,116.08c-.49-.38-.97-.8-1.43-1.27s-.87-.95-1.24-1.45-.68-1-.95-1.48c-.11-.21-.21-.38-.3-.48-.09-.11-.2-.18-.34-.21-.13-.03-.33-.05-.58-.05h-.99c-.21,0-.38-.08-.53-.23-.15-.15-.22-.33-.22-.54s.07-.4.22-.55c.15-.15.33-.22.53-.22h.99c.52,0,.94.04,1.25.13.31.08.57.23.78.45.21.21.42.52.64.91.36.63.82,1.26,1.4,1.9.58.64,1.22,1.2,1.92,1.69.21.14.34.34.38.59.04.25-.02.48-.17.69-.17.21-.38.32-.64.34s-.5-.04-.71-.2Z"/><path class="cls-1" d="M158.2,120.82c-.59-.7-1.13-1.66-1.62-2.88-.5-1.22-.86-2.76-1.11-4.62h-5.88c-.23,0-.42-.08-.57-.23-.15-.15-.22-.34-.22-.57s.07-.4.22-.55c.14-.15.33-.23.57-.23h5.71c-.02-.32-.03-.64-.05-.98-.01-.34-.03-.68-.05-1.02,0-.26.08-.47.25-.62.16-.15.36-.23.59-.23s.43.07.59.22c.16.15.25.35.25.62,0,.35,0,.69,0,1.02.01.34.03.67.05.99h3.88c.24,0,.43.08.57.23.14.15.21.34.21.55,0,.22-.07.41-.21.57-.14.15-.33.23-.57.23h-3.71c.21,1.49.52,2.78.93,3.86s.88,1.88,1.39,2.42c.14.15.26.21.36.19s.19-.12.27-.29c.05-.1.1-.22.17-.36.06-.13.12-.25.15-.34.09-.21.24-.36.44-.43.2-.07.4-.06.61.02.21.09.36.24.44.43.08.19.09.39.02.58-.07.2-.14.38-.22.56s-.17.37-.27.59c-.25.52-.56.88-.92,1.06-.36.18-.75.21-1.14.07-.4-.14-.78-.42-1.14-.85ZM149.87,121.35c-.26.04-.48,0-.64-.13-.17-.13-.28-.31-.32-.55-.04-.24.01-.44.15-.59.14-.15.33-.25.58-.29.07,0,.28-.04.63-.1.35-.06.78-.12,1.26-.2v-3.02h-1.68c-.23,0-.42-.07-.55-.22-.14-.15-.2-.33-.2-.53s.07-.39.2-.54c.13-.14.32-.22.55-.22h4.87c.23,0,.42.07.55.22s.2.32.2.54-.07.38-.2.53-.31.22-.55.22h-1.46v2.74c.5-.07.93-.14,1.31-.21s.61-.1.71-.11c.24-.05.44-.02.59.08.15.1.25.27.29.49.05.22.02.41-.09.57-.11.15-.27.25-.48.3-.08.02-.27.05-.56.1-.29.05-.64.12-1.05.19-.41.08-.84.15-1.29.23-.45.08-.88.16-1.28.23-.41.07-.75.14-1.02.18-.28.05-.45.08-.51.08ZM159.95,111.54c-.17.14-.36.2-.58.18-.22-.02-.41-.11-.57-.27-.07-.07-.16-.17-.28-.29-.12-.12-.24-.23-.36-.34-.12-.11-.22-.2-.29-.27-.15-.13-.22-.3-.22-.5,0-.21.08-.38.23-.53.15-.16.32-.25.53-.27.2-.02.38.05.55.2.08.07.2.16.34.29s.28.25.41.37c.13.12.24.22.3.29.16.16.23.35.22.57-.01.22-.1.41-.27.57Z"/><path class="cls-1" d="M166.73,121.29c-.19.15-.4.21-.63.18-.23-.03-.42-.13-.57-.32-.15-.19-.21-.4-.18-.64.03-.24.14-.43.32-.58.63-.5,1.16-1.08,1.58-1.74.42-.67.71-1.4.88-2.19.16-.79.17-1.61.02-2.46-.04-.24,0-.46.14-.65.13-.19.31-.31.55-.34.24-.05.46,0,.65.13.19.13.3.32.34.56.02.07.03.13.04.21,0,.07.01.15.02.22.84-.05,1.47-.12,1.9-.22.42-.1.71-.21.85-.34s.22-.25.22-.39c0-.2-.06-.35-.18-.45s-.38-.16-.78-.16h-7.41c-.23,0-.44-.08-.61-.25s-.26-.37-.26-.6.09-.45.26-.61c.17-.16.38-.25.61-.25h7.41c1.85,0,2.77.75,2.77,2.25,0,.56-.16,1.02-.48,1.39-.32.37-.83.65-1.53.85-.7.2-1.61.33-2.74.39-.08,1.21-.4,2.34-.95,3.37s-1.29,1.91-2.23,2.63Z"/><path class="cls-1" d="M177.94,121.15c-.18-.16-.27-.36-.28-.6,0-.24.07-.45.22-.62.73-.78,1.35-1.67,1.87-2.65.52-.98.92-2.05,1.21-3.2-.52.03-1.01.05-1.46.08-.45.02-.75.04-.89.05-.23,0-.44-.07-.62-.23-.18-.16-.27-.36-.28-.6,0-.24.07-.45.22-.63.16-.18.36-.27.6-.28.1,0,.3-.02.59-.03.29,0,.63-.02,1.02-.04.39-.01.78-.03,1.17-.05.11-.7.18-1.42.21-2.17,0-.24.1-.45.28-.61.18-.16.38-.24.62-.22.24,0,.45.1.61.27.16.17.24.38.22.62,0,.35-.03.69-.07,1.02-.04.34-.08.68-.13,1.02l.41-.03c1.02-.04,1.8.09,2.35.38.55.29.91.77,1.06,1.44.16.67.15,1.57-.03,2.7-.15.95-.36,1.73-.64,2.32-.28.6-.61,1.05-.99,1.35-.39.3-.82.49-1.31.56s-1.01.06-1.58-.04c-.23-.04-.42-.15-.56-.35-.14-.2-.19-.41-.15-.64.05-.24.17-.43.36-.57.2-.14.41-.18.64-.13.31.06.59.07.84.04.25-.03.48-.13.69-.31.21-.18.4-.47.56-.88s.31-.96.43-1.67c.13-.74.17-1.29.11-1.66-.06-.37-.22-.61-.5-.74-.28-.12-.69-.17-1.24-.15-.14,0-.41.01-.8.04-.34,1.41-.81,2.73-1.43,3.96-.62,1.23-1.33,2.29-2.13,3.16-.16.18-.36.27-.59.27-.24,0-.45-.07-.62-.23Z"/><path class="cls-1" d="M194.22,121.41c-.21.09-.43.11-.66.05s-.39-.2-.5-.41-.13-.44-.06-.67c.07-.23.21-.4.43-.49,1.36-.62,2.4-1.31,3.12-2.07.72-.76,1.21-1.63,1.47-2.59.09-.33.15-.59.16-.79.01-.2-.02-.37-.09-.51-.08-.11-.21-.2-.41-.27-.2-.07-.49-.12-.87-.15-.38-.03-.9-.05-1.54-.05s-1.18.01-1.55.03c-.37.02-.64.07-.82.13-.18.06-.31.15-.41.26-.09.12-.14.32-.13.59s.05.7.15,1.27c.05.23,0,.45-.14.64-.14.2-.33.31-.57.35-.23.04-.45-.01-.64-.15-.19-.14-.31-.33-.36-.56-.09-.6-.15-1.1-.18-1.5-.03-.41,0-.75.07-1.04.08-.29.21-.55.42-.78.2-.22.42-.4.68-.52.26-.12.6-.21,1.03-.27s.98-.1,1.67-.1v-1.62c0-.24.08-.45.25-.62s.37-.25.6-.25.45.08.62.25.25.37.25.62v1.62c.65.02,1.19.06,1.62.13.43.07.78.17,1.06.31s.51.33.69.57c.27.36.4.77.38,1.23-.02.46-.12,1.01-.29,1.67-.2.72-.51,1.43-.94,2.13-.43.7-1.01,1.36-1.74,1.97s-1.65,1.15-2.76,1.63Z"/><path class="cls-1" d="M205.92,114.64c-.35-.3-.75-.61-1.19-.93s-.83-.58-1.19-.79c-.21-.13-.34-.31-.39-.54-.06-.23-.02-.45.1-.65.13-.21.31-.34.54-.4.23-.06.45-.03.65.11.25.16.54.35.86.58.32.23.63.45.94.68.3.22.55.42.75.57.19.15.3.34.33.58.03.24-.03.45-.17.64s-.34.3-.58.33c-.24.03-.45-.03-.64-.17ZM204.72,120.16c-.22.08-.45.08-.67-.03-.22-.1-.37-.27-.46-.49-.08-.22-.07-.45.03-.66.1-.22.27-.37.49-.46.75-.26,1.5-.58,2.26-.97.76-.38,1.49-.8,2.18-1.25.7-.45,1.33-.92,1.9-1.4s1.04-.95,1.41-1.39c.16-.19.36-.29.59-.32.24-.03.45.04.62.2.19.15.29.34.32.58.03.24-.04.45-.2.64-.38.47-.89.96-1.53,1.49s-1.34,1.05-2.13,1.56c-.78.51-1.59.99-2.42,1.43s-1.64.8-2.42,1.08Z"/><path class="cls-1" d="M218.92,121.31c-.23,0-.43-.08-.6-.25s-.25-.37-.25-.6v-9.67c0-.24.08-.45.25-.61s.37-.25.6-.25.45.08.62.25.25.37.25.61v3.37c.12-.19.29-.31.5-.37s.42-.04.63.06c.55.29,1.11.62,1.69.99.57.37,1.07.74,1.49,1.09.19.15.29.35.31.6s-.04.46-.2.65c-.15.18-.35.28-.59.3-.24.02-.46-.04-.64-.19-.26-.21-.56-.42-.9-.66s-.68-.46-1.02-.68-.65-.41-.93-.57c-.15-.08-.26-.19-.34-.31v5.38c0,.23-.08.43-.25.6s-.37.25-.62.25Z"/><path class="cls-1" d="M228.95,120.93c-.23.04-.44,0-.63-.14s-.3-.31-.35-.53c-.08-.48-.15-1.03-.2-1.66-.05-.63-.07-1.29-.07-1.99s.02-1.41.06-2.11c.04-.71.1-1.39.17-2.04s.17-1.23.29-1.74c.05-.22.17-.4.36-.53.2-.13.41-.17.63-.12.22.06.4.18.52.37s.17.4.12.64c-.15.66-.27,1.38-.35,2.16-.08.77-.14,1.56-.16,2.36s-.01,1.57.04,2.32c.05.75.13,1.43.24,2.05.05.22,0,.43-.13.62-.13.19-.31.3-.54.35ZM234.69,120.17c-1.21,0-2.12-.22-2.71-.66-.59-.44-.95-1.08-1.07-1.93-.04-.22.01-.43.15-.62.13-.19.32-.3.55-.34.22-.03.43.03.62.16.19.14.3.32.34.55.06.4.25.7.57.9.33.2.86.29,1.6.29s1.54-.11,2.53-.32c.22-.06.43-.02.63.11s.32.31.36.53c.05.22,0,.43-.13.62-.13.19-.31.31-.53.37-.5.12-1.01.21-1.5.25-.5.05-.97.07-1.41.07ZM232.13,113.24c-.22.05-.43,0-.62-.12-.19-.13-.31-.31-.36-.54-.05-.22,0-.43.12-.63s.31-.31.54-.35c.52-.1,1.11-.17,1.75-.2.64-.03,1.28-.04,1.92-.01.63.02,1.19.08,1.68.16.23.04.42.15.55.34.13.19.17.4.13.64-.04.23-.15.41-.34.54s-.4.17-.62.13c-.76-.13-1.54-.19-2.35-.19-.81,0-1.61.08-2.38.23Z"/><path class="cls-1" d="M240.95,115.55c-.21.12-.42.16-.62.13-.2-.04-.36-.15-.48-.34-.11-.18-.14-.37-.09-.57.05-.2.18-.36.38-.47.33-.18.66-.37.99-.59.33-.21.65-.44.95-.67-.1-.1-.23-.22-.38-.35s-.3-.25-.43-.37c-.14-.12-.25-.21-.33-.27-.14-.11-.21-.26-.22-.46,0-.19.05-.35.18-.48.13-.14.29-.22.48-.23.19-.01.36.04.52.16.08.06.19.15.35.28.16.13.32.27.49.41s.31.27.42.37c.33-.32.62-.64.87-.98.25-.34.17-.52-.24-.52h-2.24c-.18,0-.33-.07-.47-.2-.14-.13-.2-.28-.2-.46,0-.19.07-.34.2-.47.13-.13.29-.19.47-.19h2.74c.54,0,.94.1,1.2.31.26.21.39.47.4.79,0,.32-.12.67-.37,1.04-.14.21-.29.41-.44.62-.15.21-.32.41-.5.6h3.68c-.69-.79-1.28-1.67-1.76-2.63-.09-.19-.1-.37-.02-.55.08-.18.2-.31.37-.4.19-.08.37-.1.56-.04.19.06.33.18.43.38.1.19.21.37.33.56.12.19.24.37.36.56.13-.11.28-.24.43-.37.16-.14.31-.27.46-.39s.25-.22.32-.29c.14-.13.31-.2.5-.2.19,0,.36.07.5.22.13.14.2.31.21.5,0,.19-.06.35-.21.48-.07.07-.19.17-.36.31-.16.14-.34.28-.52.43-.18.15-.34.28-.48.39.1.1.2.21.3.31s.2.21.3.31c.11-.09.26-.22.45-.38.19-.16.37-.31.55-.47.18-.15.31-.27.39-.34.14-.13.31-.2.5-.2.19,0,.35.07.48.22.14.14.21.31.22.5,0,.19-.06.35-.21.48-.07.07-.19.16-.34.29-.15.13-.32.27-.49.41-.17.14-.33.27-.47.38.24.18.49.35.75.5.26.16.53.31.82.45.19.09.31.24.38.45.07.21.05.4-.06.59-.13.23-.32.37-.55.41-.24.04-.46,0-.68-.11-.48-.27-.93-.56-1.36-.87-.43-.31-.83-.63-1.22-.98-.04.16-.12.29-.25.41s-.29.17-.46.17h-3.89c-.19,0-.35-.07-.49-.2-.14-.13-.22-.28-.24-.46-.43.41-.88.79-1.37,1.15-.48.35-.97.67-1.46.94ZM240.93,121.56c-.19,0-.35-.07-.49-.2-.14-.14-.21-.3-.21-.48,0-.2.07-.36.21-.5.14-.13.3-.2.49-.2h2.97c-.05-.13-.08-.28-.11-.46-.03-.17-.04-.34-.02-.5.01-.16.05-.28.11-.36.03-.04.06-.07.08-.09.03-.02.06-.04.08-.06-.67-.07-1.13-.24-1.39-.53-.25-.29-.38-.74-.38-1.36,0-.49.08-.87.22-1.14.15-.28.41-.47.77-.59s.86-.18,1.5-.18h3.21c.63,0,1.13.06,1.49.18s.61.32.76.59.22.66.22,1.14c0,.55-.1.97-.29,1.26-.2.29-.55.48-1.06.57.1.1.17.23.2.37.03.14.02.29-.05.43-.03.07-.07.18-.13.31s-.12.27-.19.42h2.95c.19,0,.35.07.49.2.14.14.21.3.21.5s-.07.35-.21.48c-.14.13-.3.2-.49.2h-10.95ZM244.61,117.37h3.51c.25,0,.43-.04.53-.11.1-.07.15-.23.15-.46s-.05-.38-.15-.46c-.1-.07-.28-.1-.53-.1h-3.51c-.26,0-.44.04-.55.1-.1.07-.15.22-.15.46s.05.39.15.46c.1.08.29.11.55.11ZM245.52,120.17h1.65c.07-.19.17-.41.28-.67.11-.26.2-.47.27-.63.02-.03.03-.05.04-.08,0-.02.02-.04.03-.06h-3.08c.12.07.25.21.39.39s.24.35.29.49c.03.07.05.16.08.26s.04.2.05.3Z"/><path class="cls-1" d="M255.48,121.52c-.23.05-.44.02-.62-.08-.18-.1-.3-.26-.34-.5-.04-.21,0-.39.12-.56.12-.17.29-.27.53-.31.24-.04.51-.08.79-.13.28-.05.58-.11.89-.16v-3.44h-1.5c-.18,0-.33-.06-.46-.18s-.19-.27-.19-.45c0-.19.06-.34.19-.46s.28-.18.46-.18h1.5v-1.05h-.77c-.18,0-.33-.07-.46-.2-.13-.14-.2-.29-.2-.47v-.08c-.15.15-.33.23-.55.23-.22,0-.41-.08-.57-.25-.14-.16-.21-.34-.2-.54,0-.2.09-.36.24-.48.23-.21.48-.46.74-.73.26-.28.51-.56.76-.84.24-.29.45-.55.63-.79.33-.43.71-.63,1.16-.61s.83.21,1.17.57c.24.26.53.55.86.88.33.32.62.59.86.8.16.13.24.3.25.5s-.06.39-.2.55c-.15.15-.33.23-.55.24-.21,0-.4-.06-.56-.2-.21-.19-.45-.42-.74-.71-.29-.28-.52-.54-.71-.76-.13-.16-.25-.24-.36-.24s-.23.09-.36.27c-.17.21-.37.46-.61.74-.24.28-.48.55-.72.81.03,0,.07-.01.11-.01h3.19c.19,0,.34.06.47.19s.19.28.19.47-.06.33-.19.47c-.13.13-.28.2-.47.2h-.98v1.05h1.3c.18,0,.33.06.45.18s.18.28.18.46-.06.33-.18.45-.27.18-.45.18h-1.3v3.16c.19-.04.37-.07.54-.11.17-.04.33-.07.48-.1.22-.05.41-.02.57.08s.25.24.29.43c.1.44-.08.72-.55.84-.34.08-.75.18-1.25.29-.5.11-1.01.21-1.52.32s-.97.2-1.36.27ZM256.21,119.42c-.18.07-.35.06-.51-.02-.16-.08-.27-.19-.32-.34-.04-.11-.09-.26-.16-.44-.07-.18-.14-.37-.2-.55-.07-.19-.12-.33-.17-.43-.07-.17-.06-.33.03-.48.08-.15.21-.26.39-.31.19-.07.35-.07.5,0,.15.07.26.19.32.36.05.11.11.26.18.45.07.19.14.37.2.55.07.18.11.31.14.41.06.18.05.34-.03.49-.07.15-.2.26-.38.34ZM258.8,119.04c-.15-.07-.26-.17-.32-.33-.07-.15-.06-.31.01-.46.05-.09.1-.22.17-.38.07-.16.13-.32.2-.48.07-.16.12-.29.15-.39.08-.2.2-.33.38-.41.18-.08.35-.08.53,0,.16.07.28.18.35.34.07.16.07.33-.01.52-.04.09-.09.22-.17.39-.07.17-.15.33-.22.5-.08.16-.14.29-.18.39-.08.16-.21.27-.38.32-.17.06-.34.05-.5-.01ZM262.47,121.87c-.23,0-.42-.07-.56-.21s-.22-.32-.24-.53c0-.19.05-.36.19-.51.13-.15.31-.24.52-.25.24-.02.41-.06.5-.13.09-.07.13-.21.13-.41v-.67c-.17.08-.37.18-.59.3-.23.12-.45.23-.67.33s-.4.19-.56.25c-.21.08-.4.09-.6,0s-.32-.23-.4-.44c-.08-.21-.07-.4.01-.57.08-.18.22-.3.42-.38.17-.06.4-.14.69-.27.29-.12.6-.25.91-.38.31-.13.57-.24.78-.34v-2.62h-2.25c-.19,0-.35-.07-.48-.2-.14-.13-.2-.3-.2-.48s.07-.35.2-.48.3-.2.48-.2h3.63v-.81h-2.83c-.18,0-.33-.07-.46-.2-.13-.13-.2-.29-.2-.47,0-.19.06-.34.2-.47s.29-.19.46-.19h2.83v-.08c0-.3-.05-.49-.14-.57-.09-.08-.3-.13-.63-.13h-2.18c-.18,0-.33-.07-.46-.2-.13-.13-.2-.29-.2-.47,0-.19.06-.35.2-.48.13-.13.29-.2.46-.2h2.18c.62,0,1.09.06,1.42.17.33.12.56.32.69.61.13.29.2.71.2,1.25v2.25h.9c.19,0,.35.07.48.2s.2.3.2.48-.07.35-.2.48c-.13.14-.3.2-.48.2h-2.32v1.19c.05.07.09.13.13.2.04.06.09.13.13.21.14-.12.29-.25.45-.4.16-.14.31-.28.45-.41s.24-.23.31-.29c.14-.13.31-.19.51-.17.2.01.36.1.48.25.13.14.19.3.19.49,0,.19-.08.35-.23.48-.13.12-.33.29-.59.51-.27.22-.51.42-.74.59.29.33.59.64.9.95.31.3.6.57.87.79.17.13.25.3.26.5,0,.21-.06.38-.2.53-.15.17-.33.26-.55.27-.22,0-.41-.06-.58-.21-.29-.26-.59-.57-.9-.93-.31-.36-.6-.73-.88-1.11v1.54c0,.65-.16,1.13-.47,1.42-.31.29-.83.44-1.56.44ZM262.4,117.64c-.16.12-.33.16-.53.13-.19-.04-.35-.13-.47-.29-.04-.06-.1-.14-.2-.26-.09-.12-.19-.24-.28-.36-.09-.12-.16-.21-.21-.27-.12-.15-.17-.32-.14-.51s.12-.34.28-.44c.18-.12.36-.17.55-.15s.35.11.47.27c.05.05.12.13.22.26.1.13.2.25.29.37.1.12.16.21.19.25.13.17.18.35.14.53s-.14.35-.32.48Z"/><path class="cls-1" d="M273.04,121.56c-.33,0-.61-.12-.84-.35s-.35-.51-.35-.84.12-.61.35-.84.51-.35.84-.35.61.12.84.35.35.51.35.84-.12.61-.35.84-.51.35-.84.35ZM273.04,118.14c-.19,0-.35-.07-.49-.2-.14-.13-.22-.29-.24-.49-.03-.35-.05-.76-.08-1.22-.02-.46-.05-.93-.08-1.41s-.05-.94-.07-1.38-.03-.83-.04-1.16c0-.34-.01-.58-.01-.74v-1.39c0-.27.1-.5.29-.69.19-.19.43-.28.72-.28s.54.09.74.28c.19.19.29.42.29.69v1.39c0,.16,0,.41-.02.74s-.03.72-.05,1.16-.04.9-.06,1.38-.05.95-.08,1.41c-.03.46-.06.86-.08,1.22,0,.2-.08.36-.22.49s-.31.2-.5.2Z"/></g></svg>