<?xml version="1.0" encoding="UTF-8"?><svg id="_レイヤー_2" xmlns="http://www.w3.org/2000/svg" viewBox="0 0 314.28 310.86"><defs><style>.cls-1{fill:#000;}.cls-1,.cls-2,.cls-3{stroke-width:0px;}.cls-4,.cls-5{fill:none;stroke:#000;stroke-miterlimit:10;}.cls-5{stroke-width:.5px;}.cls-2{fill:#231815;}.cls-3{fill:#b7d100;}</style></defs><g id="_レイヤー_1-2"><polygon class="cls-2" points="151.09 18.98 151.09 20.38 150.62 20.38 150.62 17.09 153.68 17.09 153.37 17.54 151.09 17.54 151.09 18.56 153.52 18.56 153.23 18.98 151.09 18.98"/><rect class="cls-2" x="156.23" y="17.09" width=".48" height="3.29"/><polygon class="cls-2" points="160.71 20.38 160.71 17.54 159.14 17.54 159.46 17.09 162.89 17.09 162.58 17.54 161.2 17.54 161.2 20.38 160.71 20.38"/><path class="cls-2" d="M165.23,17.83v2.55h-.48v-3c0-.24.12-.33.27-.33.06,0,.13.02.21.1l2.34,2.49v-2.55h.48v2.99c0,.24-.13.33-.27.33-.06,0-.13-.01-.2-.1l-2.34-2.48Z"/><polygon class="cls-2" points="170.68 20.38 170.68 17.09 173.83 17.09 173.51 17.54 171.16 17.54 171.16 18.53 173.69 18.53 173.41 18.92 171.16 18.92 171.16 19.93 173.85 19.93 173.53 20.38 170.68 20.38"/><path class="cls-2" d="M175.86,20.38l.31-.45h2.33c.46,0,.68-.18.68-.52,0-.43-.32-.49-.88-.49h-1.2c-.75,0-1.1-.32-1.1-.9s.36-.94,1.18-.94h2.4l-.31.45h-2.12c-.45,0-.68.18-.68.52,0,.42.31.47.88.47h1.2c.72,0,1.09.29,1.09.89,0,.63-.36.96-1.17.96h-2.61Z"/><path class="cls-2" d="M181.64,20.38l.31-.45h2.33c.46,0,.68-.18.68-.52,0-.43-.32-.49-.88-.49h-1.2c-.75,0-1.1-.32-1.1-.9s.36-.94,1.18-.94h2.4l-.31.45h-2.12c-.45,0-.68.18-.68.52,0,.42.31.47.88.47h1.2c.72,0,1.09.29,1.09.89,0,.63-.36.96-1.17.96h-2.61Z"/><path class="cls-2" d="M191.83,20.38c-.98,0-1.71-.72-1.71-1.68s.72-1.61,1.71-1.61h1.91l-.31.45h-1.6c-.7,0-1.23.46-1.23,1.19s.52,1.21,1.23,1.21h1.31v-1.04h-1.73l.29-.4h1.91v1.89h-1.79Z"/><polygon class="cls-2" points="197.25 20.38 197.25 19.16 195.61 17.09 196.16 17.09 197.49 18.75 198.8 17.09 199.34 17.09 197.72 19.16 197.72 20.38 197.25 20.38"/><path class="cls-2" d="M205.35,20.38l-.83-2.65-.99,2.49c-.07.18-.17.21-.28.21-.08,0-.14-.01-.2-.07-.03-.03-.06-.07-.08-.14l-.99-2.49-.83,2.65h-.47l.98-3.09c.05-.16.15-.25.27-.25s.22.08.27.2l1.06,2.59,1.06-2.59c.04-.12.14-.2.27-.2s.23.09.28.25l.96,3.09h-.48Z"/><polygon class="cls-2" points="186.73 7.32 189.43 3.96 191.74 3.96 187.79 9.09 187.79 13.86 185.74 13.86 185.74 9.09 181.74 3.96 184.05 3.96 186.73 7.32"/><path class="cls-2" d="M161.69,3.95l-3.57,8.1c-.37.84.23,1.8,1.14,1.81.01,0,.03,0,.04,0l4.45-9.91h-2.06Z"/><path class="cls-2" d="M158.5,9.11l-2.25-5.16h-1.77l-3.57,8.1c-.37.84.23,1.8,1.14,1.81.01,0,.03,0,.04,0l3.27-7.36,2.13,4.88,1-2.28Z"/><polygon class="cls-2" points="151.24 9.23 149.03 3.96 146.95 3.96 150.18 11.62 151.24 9.23"/><polygon class="cls-2" points="173.29 3.95 171.4 3.96 166.85 13.86 168.94 13.86 172.33 6.22 175.86 13.86 177.95 13.86 173.29 3.95"/><polygon class="cls-2" points="207.88 13.86 205.34 13.86 202.08 10.14 198.83 13.86 196.29 13.86 205 3.95 207.51 3.95 203.34 8.72 207.88 13.86"/><polygon class="cls-2" points="199.12 3.96 196.57 3.96 200.24 8.08 201.48 6.67 199.12 3.96"/><path class="cls-3" d="M102.17,0h-6.03l11.6,20.53,3.22-5.68L102.7.26c-.09-.16-.3-.26-.53-.26"/><path class="cls-2" d="M115,0h-6.03l11.6,20.53,3.22-5.68L115.54.26c-.09-.16-.3-.26-.53-.26"/><path class="cls-3" d="M127.84,0h-6.03l5.18,9.17,3.21-5.68-1.83-3.23c-.09-.16-.3-.26-.53-.26"/><polygon class="cls-2" points="127.65 10.28 127.64 10.28 127.64 10.28 127.65 10.28"/><path class="cls-2" d="M134.58,10.28l5.79,10.25h-6.41l-5.8-10.24h0s0,0,0,0L133.96.03h5.54c.41,0,.7.32.53.6l-5.45,9.65Z"/><polygon class="cls-2" points="128.16 10.28 128.16 10.28 128.16 10.28 128.16 10.28"/><path class="cls-1" d="M65.83,66.03c-.32,0-.34-.03-.27-.35.05-.22.58-2.11,2.83-11.39l1.5-6.18c1.51-6.21,1.92-8.16,1.96-8.35.09-.35.13-.38.45-.38.22,0,1.3.06,4.4.06h10.98c3.1,0,4.24-.06,4.43-.06.32,0,.34.03.26.38-.05.19-.58,2.14-1.86,7.39l-1.73,7.1c-2.23,9.18-2.63,11.07-2.67,11.26-.08.32-.12.35-.44.35h-2.85c-.32,0-.34-.03-.27-.35l.38-1.57h-13.41l-.42,1.73c-.08.32-.12.35-.44.35h-2.85ZM83.71,60.78l1.88-7.74h-13.41l-1.88,7.74h13.41ZM72.95,49.9h13.41l1.77-7.3h-13.41l-1.77,7.3Z"/><path class="cls-1" d="M121.99,57.07c-.68,2.78-1.02,4.48-1.3,5.6-.29,1.18-.79,2.05-1.57,2.62-.77.54-2.04.74-4.74.8-1.02,0-.98-.03-.98-.96,0-.96-.09-1.73-.33-2.33.98.06,1.79.13,2.66.13.93,0,1.4-.22,1.59-1.02l3.9-16.06h-18.88l-3.72,15.33c-.73,3.01-1.03,4.51-1.08,4.7-.07.29-.11.32-.43.32h-2.88c-.32,0-.34-.03-.27-.32.05-.22.49-1.76,1.31-5.12l3.04-12.51c.82-3.36,1.13-4.93,1.19-5.15.08-.32.12-.35.44-.35.22,0,1.3.06,4.34.06h3.74c.97-1.25,1.91-2.59,2.59-3.68.36-.58.6-1.02.92-1.79,1.27.16,2.57.35,3.45.54.27.06.33.22.28.42-.06.26-.23.42-.39.54-.31.22-.52.45-.73.77-.73,1.02-1.58,2.18-2.41,3.2h9.09c3.04,0,4.14-.06,4.34-.06.35,0,.38.03.3.35-.05.19-.54,1.95-1.35,5.31l-2.11,8.67ZM102.3,61.19c-.32,0-.34-.03-.27-.35.05-.22.31-1.02,1.36-5.34l.67-2.75c.6-2.46.74-3.3.79-3.52.08-.32.12-.35.44-.35.19,0,.98.06,3.38.06h4.58c2.43,0,3.22-.06,3.44-.06.32,0,.34.03.27.35-.05.19-.31,1.02-.79,2.98l-.73,3.01c-1.03,4.22-1.15,4.99-1.2,5.18-.08.32-.12.35-.44.35h-2.4c-.35,0-.38-.03-.3-.35l.23-.96h-5.86l-.34,1.41c-.08.32-.12.35-.44.35h-2.4ZM106.18,56.55h5.86l1.16-4.77h-5.86l-1.16,4.77Z"/><path class="cls-1" d="M152.86,57.03c-.28,1.15-.47,2.08-.73,3.14-.23.93-.58,1.6-1.28,2.11-.73.51-1.69.77-4.64.8-.99,0-1.02,0-1-.77.07-.93-.03-1.86-.21-2.43.98.06,1.8.1,2.63.1s1.11-.22,1.31-1.06l1.7-7.01h-6.5l-2.32,9.54c-.74,3.04-1.04,4.54-1.09,4.74-.07.29-.11.32-.43.32h-2.82c-.35,0-.38-.03-.31-.32.05-.22.48-1.7,1.21-4.74l2.32-9.54h-5.92l-1.78,7.33c-.59,2.43-.76,3.39-.81,3.58-.08.32-.12.35-.44.35h-2.85c-.29,0-.31-.03-.23-.35.05-.19.34-1.12.95-3.65l1.62-6.66c.54-2.24.72-3.23.78-3.46.08-.32.12-.35.41-.35.19,0,1.3.06,4.43.06h4.61l.12-.48c.33-1.34.49-2.14.56-2.98,1.14.03,2.26.06,3.38.19.31.03.47.16.43.35s-.19.38-.34.61c-.17.29-.32.67-.59,1.76l-.13.54h5.22c3.14,0,4.27-.06,4.46-.06.32,0,.34.03.27.35-.05.22-.4,1.38-.97,3.74l-1.03,4.22ZM134.66,44.62c-2.85,0-3.82.06-4.02.06-.32,0-.34-.03-.27-.35l.62-2.56c.09-.35.13-.38.44-.38.19,0,1.14.06,3.98.06h7.87l.27-1.12c.33-1.38.47-2.21.51-3.01,1.14.03,2.32.07,3.44.19.28.03.48.13.44.29-.05.22-.19.38-.35.64-.17.29-.32.67-.61,1.86l-.28,1.15h8.38c2.85,0,3.82-.06,4.02-.06.32,0,.34.03.26.38l-.62,2.56c-.08.32-.12.35-.44.35-.19,0-1.14-.06-3.98-.06h-19.68Z"/><path class="cls-1" d="M167.65,66.6c-.32,0-.34-.03-.27-.35.05-.19.32-1.18.83-3.17-2.69.54-6,1.12-8.68,1.5-.53.06-1.05.22-1.23.32-.14.06-.37.19-.56.19s-.31-.19-.32-.51c-.08-.86-.05-1.63-.02-2.56,1.13-.03,2.04-.1,3.06-.22.19,0,.39-.03.59-.06l2.44-10.05c-2.19.03-3.02.07-3.19.07-.32,0-.34-.03-.27-.35l.49-2.02c.08-.32.12-.35.44-.35.19,0,1.1.06,3.89.06h20.54c2.78,0,3.73-.06,3.92-.06.29,0,.31.03.23.35l-.49,2.02c-.08.32-.12.35-.41.35-.19,0-1.1-.07-3.89-.07h-10.85l-2.6,10.72c-.6,2.46-.82,3.65-.87,3.84-.08.32-.12.35-.44.35h-2.37ZM169.18,59.15h-4.51l-.54,2.21c1.56-.22,3.18-.45,4.68-.7l.37-1.5ZM183.52,38.44c3.17,0,4.3-.06,4.5-.06.32,0,.34.03.26.38-.05.19-.28.9-.7,2.62l-.82,3.36c-.42,1.73-.53,2.43-.57,2.62-.08.35-.12.38-.45.38-.19,0-1.3-.06-4.46-.06h-11.65c-3.17,0-4.27.06-4.5.06-.32,0-.34-.03-.26-.38.05-.19.28-.9.7-2.62l.82-3.36c.42-1.73.53-2.43.57-2.62.09-.35.13-.38.45-.38.22,0,1.3.06,4.46.06h11.65ZM169.68,57.1l.4-1.66h-4.51l-.4,1.66h4.51ZM170.58,53.39l.41-1.7h-4.51l-.41,1.7h4.51ZM183.75,44.07h-14.85l-.33,1.38h14.85l.33-1.38ZM169.37,42.15h14.85l.33-1.34h-14.85l-.33,1.34ZM183.62,53.58c.19,0,.43-.06.61-.13s.35-.13.51-.13c.22,0,.37.06.94.74.59.74.63.96.58,1.18-.06.26-.2.42-.46.58-.29.16-.61.54-1.19,1.34-1.05,1.41-2.2,2.72-3.53,3.87,1.33.99,3.04,1.7,5.13,2.18-.48.51-1.1,1.22-1.62,2.05-.53.86-.59.86-1.36.61-1.98-.67-3.55-1.6-4.8-2.75-1.67,1.09-3.5,2.05-5.52,2.82-.35.13-.57.22-.69.22-.22,0-.3-.22-.4-.74-.17-.77-.4-1.38-.74-1.82,2.2-.61,4.08-1.41,5.73-2.4-.91-1.41-1.55-3.1-1.89-5.12-.52.03-.74.03-.84.03-.32,0-.34-.03-.26-.38l.45-1.86c.08-.32.12-.35.44-.35.19,0,.98.06,3.5.06h5.41ZM177.84,56.04c.3,1.28.79,2.4,1.53,3.33,1.13-.96,2.14-2.08,3.02-3.33h-4.54Z"/><path class="cls-1" d="M200.28,52.04c1.47,0,1.87-.06,2.06-.06.32,0,.39.1.28.42-.22.64-.47,1.54-.67,2.24-1.64,5.57-2.85,8.16-3.66,9.41-.93,1.44-2.21,2.11-4.58,2.11-.42,0-.96,0-1.53-.03q-.66-.06-.61-1.06c.06-.9-.03-1.86-.16-2.37,1.2.19,1.95.29,2.75.29.58,0,1.14-.1,1.56-.48.59-.58,1.61-2.66,3.1-7.62h-3.07l-.51,1.18q-.19.38-1.81.19c-1.43-.19-1.42-.22-1.21-.67,1.23-2.69,2.21-5.15,2.95-7.39.29-.8.49-1.47.65-2.27.08-.32.2-.42.52-.42.19,0,.91.07,2.1.07h2.82l.98-4.03h-3.07c-1.98,0-2.58.06-2.77.06-.35,0-.38-.03-.3-.35l.56-2.3c.09-.35.13-.38.48-.38.19,0,.75.06,2.74.06h3.52c1.47,0,2.03-.06,2.22-.06.35,0,.38.03.29.38-.05.19-.31,1.02-.76,2.88l-.8,3.3c-.44,1.83-.59,2.69-.64,2.88-.08.32-.12.35-.47.35-.19,0-.72-.06-2.19-.06h-2.82c-.45,1.34-.92,2.59-1.36,3.74h3.42ZM214.48,59.56c-.1-.26,0-.35.41-.51l1.8-.7c.39-.16.44-.1.53.19.84,1.66,1.59,3.87,1.96,6.02.03.29-.03.38-.42.54l-2.03.83c-.42.13-.54.1-.59-.22-.11-.74-.22-1.47-.39-2.21-4.32.77-8.92,1.41-12.94,1.89-.56.06-1.14.22-1.43.35-.25.1-.42.16-.62.16-.26,0-.41-.16-.42-.51-.05-.99.03-2.08.09-3.14,1.26.06,2.3.03,3.73-.06,1.17-.06,2.61-.19,4.13-.38l.96-3.94h-1.86c-2.85,0-3.89.06-4.11.06-.32,0-.34-.03-.27-.35.05-.22.28-.9.69-2.56l.82-3.39c.4-1.66.5-2.34.56-2.56.08-.32.12-.35.44-.35.22,0,1.23.06,4.08.06h1.86l.65-2.69c-1.57.13-3.06.22-4.45.29-.58.03-.96.13-1.25.25-.18.1-.33.16-.55.16-.19,0-.32-.13-.32-.51.05-.86.15-1.92.28-2.85.82.06,1.72.03,2.52.03,1.22-1.47,2.35-3.1,2.99-4.13.47-.74.79-1.28,1.14-2.18,1.18.16,2.1.32,2.96.58.26.1.42.26.36.48-.05.22-.23.42-.46.58-.23.16-.45.38-.83.9-.77,1.06-1.85,2.46-2.85,3.68,2.39-.1,4.81-.29,6.83-.45-.41-.8-.9-1.57-1.4-2.27-.17-.22-.11-.32.28-.51l1.83-.93c.37-.19.46-.19.63.03,1.33,1.76,2.71,4.13,3.59,6.14.09.29.1.38-.35.64l-2.2,1.15c-.22.13-.37.19-.43.19-.13,0-.17-.1-.22-.29-.18-.58-.36-1.15-.57-1.73-1.35.16-2.86.32-4.46.45l-.72,2.98h2.18c2.88,0,3.92-.06,4.11-.06.32,0,.34.03.27.35-.05.19-.28.9-.69,2.56l-.82,3.39c-.4,1.67-.51,2.37-.56,2.56-.08.32-.12.35-.44.35-.19,0-1.2-.06-4.08-.06h-2.18l-.86,3.55,3.57-.48-.5-1.38ZM209.91,55.21l.92-3.78h-3.26l-.92,3.78h3.26ZM217.39,51.43h-3.55l-.92,3.78h3.55l.92-3.78Z"/><path class="cls-1" d="M231.26,59.56c3.43-1.6,6.42-3.1,10.11-5.54,3.03-1.95,7.2-5.02,11.39-8.93-.15,1.41-.09,2.21.06,3.58.04.22.06.42.01.61-.06.26-.21.48-.53.74-3.75,3.2-6.2,4.96-9.92,7.39-3.3,2.11-6.72,3.94-11.03,6.02-.87.42-1.72.77-2.12,1.09-.24.19-.41.26-.57.26-.22,0-.42-.13-.55-.38-.51-.67-1.07-1.92-1.58-3.26,1.41-.26,2.61-.61,4.73-1.57ZM228.96,47.69c.21-.22.41-.38.68-.32,2.21.8,3.88,1.82,5.38,3.14.19.16.28.29.24.48-.02.1-.12.22-.21.35-.56.86-1.31,1.7-2,2.43-.21.19-.37.32-.49.32s-.21-.06-.34-.19c-1.68-1.5-3.51-2.56-5.62-3.49,1.11-1.28,1.85-2.21,2.36-2.72ZM234.62,40.33c.32-.38.52-.45.86-.26,1.85.83,3.77,2.02,5.15,3.55.16.13.19.29.15.42s-.09.26-.23.42c-.64.8-1.53,1.82-2.21,2.4-.13.16-.27.19-.37.19-.16,0-.3-.1-.42-.22-1.33-1.38-3.43-3.01-5.25-3.94.75-.83,1.57-1.73,2.32-2.56ZM249.52,39.34c.19-.13.31-.1.46.06.81.77,1.65,2.05,2.21,3.42.08.19.04.35-.22.51l-1.58.99c-.26.16-.42.13-.52-.1-.6-1.47-1.33-2.69-2.33-3.71l1.98-1.18ZM252.87,37.26c.22-.13.31-.1.46.06.97.9,1.81,2.18,2.24,3.3.08.19.07.38-.24.58l-1.52.99c-.3.19-.44.1-.52-.1-.53-1.38-1.26-2.59-2.31-3.68l1.88-1.15Z"/><path class="cls-1" d="M271.68,40.52c.19.16.31.32.26.51-.04.16-.19.38-.47.64-.76.74-1.38,1.73-1.96,2.66-2.98,4.9-5.82,9.6-9,14.4,5.03-.42,7.78-.67,11.5-1.22-.56-1.76-1.32-3.52-2.31-5.12,1.08-.51,2.14-1.06,3.16-1.54.4-.19.56-.06.72.19,1.79,2.91,3.22,6.91,3.92,10.46.06.16.06.29.03.42-.05.19-.22.38-.55.54-.89.51-1.79.93-2.75,1.31-.14.06-.28.1-.41.1-.19,0-.31-.16-.34-.45-.17-.9-.32-1.73-.5-2.56-5.31.77-10.3,1.31-15.65,1.86-2.17.22-3.07.38-3.93.77-.46.19-.8.13-.85-.32-.12-.54-.15-2.14-.12-4.13,1.26.1,2.61.06,3.9.03,3.66-5.73,6.48-10.46,9.45-15.84.92-1.66,1.51-2.78,1.99-4.38,1.81.58,3.08,1.02,3.92,1.66Z"/><path class="cls-1" d="M57.47,291.66c-.32,0-.34-.03-.27-.35.05-.22.58-2.11,2.83-11.39l1.5-6.18c1.51-6.21,1.92-8.16,1.96-8.35.09-.35.13-.38.45-.38.22,0,1.3.06,4.4.06h10.98c3.1,0,4.24-.06,4.43-.06.32,0,.34.03.26.38-.05.19-.58,2.14-1.86,7.39l-1.73,7.1c-2.23,9.18-2.63,11.07-2.67,11.26-.08.32-.12.35-.44.35h-2.85c-.32,0-.34-.03-.27-.35l.38-1.57h-13.41l-.42,1.73c-.08.32-.12.35-.44.35h-2.85ZM75.36,286.41l1.88-7.74h-13.41l-1.88,7.74h13.41ZM64.59,275.53h13.41l1.77-7.3h-13.41l-1.77,7.3Z"/><path class="cls-1" d="M113.63,282.7c-.68,2.78-1.02,4.48-1.3,5.6-.29,1.18-.79,2.05-1.57,2.62-.77.54-2.04.74-4.74.8-1.02,0-.98-.03-.98-.96,0-.96-.09-1.73-.33-2.33.98.06,1.79.13,2.66.13.93,0,1.4-.22,1.59-1.02l3.9-16.06h-18.88l-3.72,15.33c-.73,3.01-1.03,4.51-1.08,4.7-.07.29-.11.32-.43.32h-2.88c-.32,0-.34-.03-.27-.32.05-.22.49-1.76,1.31-5.12l3.04-12.51c.82-3.36,1.13-4.93,1.19-5.15.08-.32.12-.35.44-.35.22,0,1.3.06,4.34.06h3.74c.97-1.25,1.91-2.59,2.59-3.68.36-.58.6-1.02.92-1.79,1.27.16,2.57.35,3.45.54.27.06.33.22.28.42-.06.26-.23.42-.39.54-.31.22-.52.45-.73.77-.73,1.02-1.58,2.18-2.41,3.2h9.09c3.04,0,4.14-.06,4.34-.06.35,0,.38.03.3.35-.05.19-.54,1.95-1.35,5.31l-2.11,8.67ZM93.94,286.83c-.32,0-.34-.03-.27-.35.05-.22.31-1.02,1.36-5.34l.67-2.75c.6-2.46.74-3.3.79-3.52.08-.32.12-.35.44-.35.19,0,.98.06,3.38.06h4.58c2.43,0,3.22-.06,3.44-.06.32,0,.34.03.27.35-.05.19-.31,1.02-.79,2.98l-.73,3.01c-1.03,4.22-1.15,4.99-1.2,5.18-.08.32-.12.35-.44.35h-2.4c-.35,0-.38-.03-.3-.35l.23-.96h-5.86l-.34,1.41c-.08.32-.12.35-.44.35h-2.4ZM97.82,282.19h5.86l1.16-4.77h-5.86l-1.16,4.77Z"/><path class="cls-1" d="M144.51,282.67c-.28,1.15-.47,2.08-.73,3.14-.23.93-.58,1.6-1.28,2.11-.73.51-1.69.77-4.64.8-.99,0-1.02,0-1-.77.07-.93-.03-1.86-.21-2.43.98.06,1.8.1,2.63.1s1.11-.22,1.31-1.06l1.7-7.01h-6.5l-2.32,9.54c-.74,3.04-1.04,4.54-1.09,4.74-.07.29-.11.32-.43.32h-2.82c-.35,0-.38-.03-.31-.32.05-.22.48-1.7,1.21-4.74l2.32-9.54h-5.92l-1.78,7.33c-.59,2.43-.76,3.39-.81,3.58-.08.32-.12.35-.44.35h-2.85c-.29,0-.31-.03-.23-.35.05-.19.34-1.12.95-3.65l1.62-6.66c.54-2.24.72-3.23.78-3.46.08-.32.12-.35.41-.35.19,0,1.3.06,4.43.06h4.61l.12-.48c.33-1.34.49-2.14.56-2.98,1.14.03,2.26.06,3.38.19.31.03.47.16.43.35-.05.19-.19.38-.34.61-.17.29-.32.67-.59,1.76l-.13.54h5.22c3.14,0,4.27-.06,4.46-.06.32,0,.34.03.27.35-.05.22-.4,1.38-.97,3.74l-1.03,4.22ZM126.31,270.25c-2.85,0-3.82.06-4.02.06-.32,0-.34-.03-.27-.35l.62-2.56c.09-.35.13-.38.44-.38.19,0,1.14.06,3.98.06h7.87l.27-1.12c.33-1.38.47-2.21.51-3.01,1.14.03,2.32.07,3.44.19.28.03.48.13.44.29-.05.22-.19.38-.35.64-.17.29-.32.67-.61,1.86l-.28,1.15h8.38c2.85,0,3.82-.06,4.02-.06.32,0,.34.03.26.38l-.62,2.56c-.08.32-.12.35-.44.35-.19,0-1.14-.06-3.98-.06h-19.68Z"/><path class="cls-1" d="M159.3,292.23c-.32,0-.34-.03-.27-.35.05-.19.32-1.18.83-3.17-2.69.54-6,1.12-8.68,1.5-.53.06-1.05.22-1.23.32-.14.06-.37.19-.56.19s-.31-.19-.32-.51c-.08-.86-.05-1.63-.02-2.56,1.13-.03,2.04-.1,3.06-.22.19,0,.39-.03.59-.06l2.44-10.05c-2.19.03-3.02.07-3.19.07-.32,0-.34-.03-.27-.35l.49-2.02c.08-.32.12-.35.44-.35.19,0,1.1.06,3.89.06h20.54c2.78,0,3.73-.06,3.92-.06.29,0,.31.03.23.35l-.49,2.02c-.08.32-.12.35-.41.35-.19,0-1.1-.07-3.89-.07h-10.85l-2.6,10.72c-.6,2.46-.82,3.65-.87,3.84-.08.32-.12.35-.44.35h-2.37ZM160.82,284.78h-4.51l-.54,2.21c1.56-.22,3.18-.45,4.68-.7l.37-1.5ZM175.17,264.08c3.17,0,4.3-.06,4.5-.06.32,0,.34.03.26.38-.05.19-.28.9-.7,2.62l-.82,3.36c-.42,1.73-.53,2.43-.57,2.62-.08.35-.12.38-.45.38-.19,0-1.3-.06-4.46-.06h-11.65c-3.17,0-4.27.06-4.5.06-.32,0-.34-.03-.26-.38.05-.19.28-.9.7-2.62l.82-3.36c.42-1.73.53-2.43.57-2.62.09-.35.13-.38.45-.38.22,0,1.3.06,4.46.06h11.65ZM161.32,282.73l.4-1.66h-4.51l-.4,1.66h4.51ZM162.22,279.02l.41-1.7h-4.51l-.41,1.7h4.51ZM175.4,269.71h-14.85l-.33,1.38h14.85l.33-1.38ZM161.02,267.79h14.85l.33-1.34h-14.85l-.33,1.34ZM175.26,279.21c.19,0,.43-.06.61-.13s.35-.13.51-.13c.22,0,.37.06.94.74.59.74.63.96.58,1.18-.06.26-.2.42-.46.58-.29.16-.61.54-1.19,1.34-1.05,1.41-2.2,2.72-3.53,3.87,1.33.99,3.04,1.7,5.13,2.18-.48.51-1.1,1.22-1.62,2.05-.53.86-.59.86-1.36.61-1.98-.67-3.55-1.6-4.8-2.75-1.67,1.09-3.5,2.05-5.52,2.82-.35.13-.57.22-.69.22-.22,0-.3-.22-.4-.74-.17-.77-.4-1.38-.74-1.82,2.2-.61,4.08-1.41,5.73-2.4-.91-1.41-1.55-3.1-1.89-5.12-.52.03-.74.03-.84.03-.32,0-.34-.03-.26-.38l.45-1.86c.08-.32.12-.35.44-.35.19,0,.98.06,3.5.06h5.41ZM169.48,281.68c.3,1.28.79,2.4,1.53,3.33,1.13-.96,2.14-2.08,3.02-3.33h-4.54Z"/><path class="cls-1" d="M191.92,277.68c1.47,0,1.87-.06,2.06-.06.32,0,.39.1.28.42-.22.64-.47,1.54-.67,2.24-1.64,5.57-2.85,8.16-3.66,9.41-.93,1.44-2.21,2.11-4.58,2.11-.42,0-.96,0-1.53-.03q-.66-.06-.61-1.06c.06-.9-.03-1.86-.16-2.37,1.2.19,1.95.29,2.75.29.58,0,1.14-.1,1.56-.48.59-.58,1.61-2.66,3.1-7.62h-3.07l-.51,1.18q-.19.38-1.81.19c-1.43-.19-1.42-.22-1.21-.67,1.23-2.69,2.21-5.15,2.95-7.39.29-.8.49-1.47.65-2.27.08-.32.2-.42.52-.42.19,0,.91.07,2.1.07h2.82l.98-4.03h-3.07c-1.98,0-2.58.06-2.77.06-.35,0-.38-.03-.3-.35l.56-2.3c.09-.35.13-.38.48-.38.19,0,.75.06,2.74.06h3.52c1.47,0,2.03-.06,2.22-.06.35,0,.38.03.29.38-.05.19-.31,1.02-.76,2.88l-.8,3.3c-.44,1.83-.59,2.69-.64,2.88-.08.32-.12.35-.47.35-.19,0-.72-.06-2.19-.06h-2.82c-.45,1.34-.92,2.59-1.36,3.74h3.42ZM206.13,285.2c-.1-.26,0-.35.41-.51l1.8-.7c.39-.16.44-.1.53.19.84,1.66,1.59,3.87,1.96,6.02.03.29-.03.38-.42.54l-2.03.83c-.42.13-.54.1-.59-.22-.11-.74-.22-1.47-.39-2.21-4.32.77-8.92,1.41-12.94,1.89-.56.06-1.14.22-1.43.35-.25.1-.42.16-.62.16-.26,0-.41-.16-.42-.51-.05-.99.03-2.08.09-3.14,1.26.06,2.3.03,3.73-.06,1.17-.06,2.61-.19,4.13-.38l.96-3.94h-1.86c-2.85,0-3.89.06-4.11.06-.32,0-.34-.03-.27-.35.05-.22.28-.9.69-2.56l.82-3.39c.4-1.66.5-2.34.56-2.56.08-.32.12-.35.44-.35.22,0,1.23.06,4.08.06h1.86l.65-2.69c-1.57.13-3.06.22-4.45.29-.58.03-.96.13-1.25.25-.18.1-.33.16-.55.16-.19,0-.32-.13-.32-.51.05-.86.15-1.92.28-2.85.82.06,1.72.03,2.52.03,1.22-1.47,2.35-3.1,2.99-4.13.47-.74.79-1.28,1.14-2.18,1.18.16,2.1.32,2.96.58.26.1.42.26.36.48-.05.22-.23.42-.46.58-.23.16-.45.38-.83.9-.77,1.06-1.85,2.46-2.85,3.68,2.39-.1,4.81-.29,6.83-.45-.41-.8-.9-1.57-1.4-2.27-.17-.22-.11-.32.28-.51l1.83-.93c.37-.19.46-.19.63.03,1.33,1.76,2.71,4.13,3.59,6.14.09.29.1.38-.35.64l-2.2,1.15c-.22.13-.37.19-.43.19-.13,0-.17-.1-.22-.29-.18-.58-.36-1.15-.57-1.73-1.35.16-2.86.32-4.46.45l-.72,2.98h2.18c2.88,0,3.92-.06,4.11-.06.32,0,.34.03.27.35-.05.19-.28.9-.69,2.56l-.82,3.39c-.4,1.67-.51,2.37-.56,2.56-.08.32-.12.35-.44.35-.19,0-1.2-.06-4.08-.06h-2.18l-.86,3.55,3.57-.48-.5-1.38ZM201.55,280.84l.92-3.78h-3.26l-.92,3.78h3.26ZM209.03,277.07h-3.55l-.92,3.78h3.55l.92-3.78Z"/><path class="cls-1" d="M222.9,285.2c3.43-1.6,6.42-3.1,10.11-5.54,3.03-1.95,7.2-5.02,11.39-8.93-.15,1.41-.09,2.21.06,3.58.04.22.06.42.01.61-.06.26-.21.48-.53.74-3.75,3.2-6.2,4.96-9.92,7.39-3.3,2.11-6.72,3.94-11.03,6.02-.87.42-1.72.77-2.12,1.09-.24.19-.41.26-.57.26-.22,0-.42-.13-.55-.38-.51-.67-1.07-1.92-1.58-3.26,1.41-.26,2.61-.61,4.73-1.57ZM220.6,273.32c.21-.22.41-.38.68-.32,2.21.8,3.88,1.82,5.38,3.14.19.16.28.29.24.48-.02.1-.12.22-.21.35-.56.86-1.31,1.7-2,2.43-.21.19-.37.32-.49.32s-.21-.06-.34-.19c-1.68-1.5-3.51-2.56-5.62-3.49,1.11-1.28,1.85-2.21,2.36-2.72ZM226.26,265.96c.32-.38.52-.45.86-.26,1.85.83,3.77,2.02,5.15,3.55.16.13.19.29.15.42s-.09.26-.23.42c-.64.8-1.53,1.82-2.21,2.4-.13.16-.27.19-.37.19-.16,0-.3-.1-.42-.22-1.33-1.38-3.43-3.01-5.25-3.94.75-.83,1.57-1.73,2.32-2.56ZM241.16,264.97c.19-.13.31-.1.46.06.81.77,1.65,2.05,2.21,3.42.08.19.04.35-.22.51l-1.58.99c-.26.16-.42.13-.52-.1-.6-1.47-1.33-2.69-2.33-3.71l1.98-1.18ZM244.51,262.89c.22-.13.31-.1.46.06.97.9,1.81,2.18,2.24,3.3.08.19.07.38-.24.58l-1.52.99c-.3.19-.44.1-.52-.1-.53-1.38-1.26-2.59-2.31-3.68l1.88-1.15Z"/><path class="cls-1" d="M263.33,266.16c.19.16.31.32.26.51-.04.16-.19.38-.47.64-.76.74-1.38,1.73-1.96,2.66-2.98,4.9-5.82,9.6-9,14.4,5.03-.42,7.78-.67,11.5-1.22-.56-1.76-1.32-3.52-2.31-5.12,1.08-.51,2.14-1.06,3.16-1.54.4-.19.56-.06.72.19,1.79,2.91,3.22,6.91,3.92,10.46.06.16.06.29.03.42-.05.19-.22.38-.55.54-.89.51-1.79.93-2.75,1.31-.14.06-.28.1-.41.1-.19,0-.31-.16-.34-.45-.17-.9-.32-1.73-.5-2.56-5.31.77-10.3,1.31-15.65,1.86-2.17.22-3.07.38-3.93.77-.46.19-.8.13-.85-.32-.12-.54-.15-2.14-.12-4.13,1.26.1,2.61.06,3.9.03,3.66-5.73,6.48-10.46,9.45-15.84.92-1.66,1.51-2.78,1.99-4.38,1.81.58,3.08,1.02,3.92,1.66Z"/><path class="cls-1" d="M.3,134.81c-.32,0-.34-.03-.27-.35.05-.23.58-2.11,2.83-11.39l1.5-6.18c1.51-6.21,1.92-8.16,1.96-8.35.09-.35.13-.38.45-.38.22,0,1.3.06,4.4.06h10.98c3.1,0,4.24-.06,4.43-.06.32,0,.34.03.26.38-.05.19-.59,2.14-1.86,7.39l-1.73,7.1c-2.23,9.18-2.63,11.07-2.67,11.26-.08.32-.12.35-.44.35h-2.85c-.32,0-.34-.03-.27-.35l.38-1.57H4.01l-.42,1.73c-.08.32-.12.35-.44.35H.3ZM18.19,129.56l1.88-7.74H6.66l-1.88,7.74h13.41ZM7.42,118.68h13.41l1.77-7.3h-13.41l-1.77,7.3Z"/><path class="cls-1" d="M56.46,125.85c-.68,2.78-1.02,4.48-1.3,5.6-.29,1.18-.79,2.05-1.57,2.62-.77.54-2.04.74-4.74.8-1.02,0-.98-.03-.98-.96,0-.96-.09-1.73-.33-2.33.98.06,1.79.13,2.66.13.93,0,1.4-.22,1.59-1.02l3.9-16.06h-18.88l-3.72,15.33c-.73,3.01-1.03,4.51-1.08,4.7-.07.29-.11.32-.43.32h-2.88c-.32,0-.34-.03-.27-.32.05-.22.49-1.76,1.31-5.12l3.04-12.51c.82-3.36,1.13-4.93,1.19-5.15.08-.32.12-.35.44-.35.22,0,1.3.06,4.34.06h3.74c.98-1.25,1.91-2.59,2.59-3.68.36-.58.6-1.02.92-1.79,1.27.16,2.57.35,3.45.54.27.06.33.22.28.42-.06.26-.23.42-.39.54-.31.22-.52.45-.73.77-.73,1.02-1.58,2.18-2.41,3.2h9.09c3.04,0,4.14-.06,4.34-.06.35,0,.38.03.3.35-.05.19-.54,1.95-1.35,5.31l-2.11,8.67ZM36.77,129.98c-.32,0-.34-.03-.27-.35.05-.22.31-1.02,1.36-5.34l.67-2.75c.6-2.46.74-3.3.79-3.52.08-.32.12-.35.44-.35.19,0,.98.06,3.38.06h4.58c2.43,0,3.22-.06,3.44-.06.32,0,.34.03.27.35-.05.19-.31,1.02-.79,2.98l-.73,3.01c-1.03,4.22-1.15,4.99-1.19,5.18-.08.32-.12.35-.44.35h-2.4c-.35,0-.38-.03-.3-.35l.23-.96h-5.86l-.34,1.41c-.08.32-.12.35-.44.35h-2.4ZM40.65,125.34h5.86l1.16-4.77h-5.86l-1.16,4.77Z"/><path class="cls-1" d="M87.34,125.82c-.28,1.15-.47,2.08-.73,3.14-.23.93-.58,1.6-1.28,2.11-.73.51-1.69.77-4.64.8-.99,0-1.02,0-1-.77.07-.93-.03-1.86-.21-2.43.98.06,1.8.1,2.63.1s1.11-.22,1.31-1.06l1.7-7.01h-6.5l-2.32,9.54c-.74,3.04-1.04,4.54-1.09,4.74-.07.29-.11.32-.43.32h-2.82c-.35,0-.38-.03-.31-.32.05-.22.48-1.7,1.21-4.74l2.32-9.54h-5.92l-1.78,7.33c-.59,2.43-.76,3.39-.81,3.58-.08.32-.12.35-.44.35h-2.85c-.29,0-.31-.03-.24-.35.05-.19.34-1.12.95-3.65l1.62-6.66c.54-2.24.72-3.23.78-3.46.08-.32.12-.35.41-.35.19,0,1.3.06,4.43.06h4.61l.12-.48c.33-1.34.49-2.14.56-2.98,1.14.03,2.26.06,3.38.19.31.03.47.16.43.35-.05.19-.19.38-.34.61-.17.29-.32.67-.59,1.76l-.13.54h5.22c3.14,0,4.27-.06,4.46-.06.32,0,.34.03.27.35-.05.22-.4,1.38-.97,3.74l-1.03,4.22ZM69.14,113.4c-2.85,0-3.82.06-4.02.06-.32,0-.34-.03-.27-.35l.62-2.56c.09-.35.13-.38.44-.38.19,0,1.14.06,3.98.06h7.87l.27-1.12c.33-1.38.47-2.21.51-3.01,1.14.03,2.32.07,3.44.19.28.03.48.13.44.29-.05.22-.19.38-.35.64-.17.29-.32.67-.61,1.86l-.28,1.15h8.38c2.85,0,3.82-.06,4.02-.06.32,0,.34.03.26.38l-.62,2.56c-.08.32-.12.35-.44.35-.19,0-1.14-.06-3.98-.06h-19.68Z"/><path class="cls-1" d="M99.71,123.29c-1.24,1.02-2.54,2.01-3.8,2.85-.38.26-.64.38-.77.38-.22,0-.26-.22-.33-.74-.08-.74-.28-1.47-.54-1.98,4.27-2.56,8.31-6.3,10.85-9.89h-3.65c-2.4,0-3.18.06-3.38.06-.32,0-.34-.03-.27-.35l.58-2.37c.08-.32.12-.35.44-.35.19,0,.94.06,3.35.06h.54l.26-1.09c.34-1.41.64-2.62.69-3.87,1.21.03,2.15.1,3.27.22.31.03.47.19.43.32-.07.29-.21.48-.36.7-.28.38-.48,1.06-.83,2.5l-.3,1.22h1.06c.42,0,.6-.1.74-.16.11-.06.33-.19.46-.19.22,0,.55.26,1.02.93.43.61.57.96.5,1.22-.05.19-.21.32-.51.51-.27.19-.58.54-.95,1.02-1.14,1.54-2.48,3.1-3.91,4.64.2.48.48.93.82,1.38.71-.67,1.31-1.31,1.84-1.92.36-.42.75-.99,1.12-1.6.6.42,1.43.96,1.92,1.44.2.22.25.29.2.51-.04.16-.2.29-.41.35-.25.13-.45.29-.92.74-.87.8-1.46,1.41-2.32,2.18.57.54,1.18,1.09,1.83,1.57-.48.42-1.37,1.28-1.83,1.86-.4.45-.58.67-.77.67-.16,0-.31-.16-.56-.48-.8-.93-1.58-2.05-2.18-3.14l-2.15,8.83c-.58,2.4-.79,3.52-.83,3.68-.08.32-.12.35-.44.35h-2.59c-.32,0-.34-.03-.27-.35.05-.19.38-1.28.96-3.68l1.95-8.03ZM118.25,111.77c-1.32,5.02-2.83,9.54-5.07,13.5-2.22,3.87-5.02,6.85-8.75,9.41-.39.29-.59.45-.75.45-.19,0-.3-.22-.51-.67-.34-.7-1.06-1.44-1.54-1.83,3.88-2.14,6.69-5.15,8.75-8.77,1.95-3.42,3.2-7.36,4.38-12.1h-.16c-2.88,0-3.86.06-4.05.06-.35,0-.38-.03-.3-.35l.61-2.53c.09-.35.13-.38.48-.38.19,0,1.14.06,4.02.06h6.85c2.88,0,3.89-.06,4.08-.06.32,0,.37.06.28.42-.32,1.06-.54,1.95-.76,2.85-2.04,8.26-3.83,14.46-5.64,18.88-1.11,2.72-2.67,4.13-5.71,4.13-1.02,0-1.67.03-2.48-.06-.75-.06-.74-.13-.66-1.22.06-.77.05-1.79-.25-2.4,1.59.29,2.51.32,3.57.32,1.31,0,2.08-.77,2.65-2.21,1.42-3.49,3.09-9.02,5.15-17.5h-4.19Z"/><path class="cls-1" d="M138.42,121.3c-1.98,8.16-2.31,9.79-2.36,9.98-.08.32-.12.35-.44.35h-2.3c-.29,0-.31-.03-.23-.35l.33-1.38h-3.04l-.61,2.5c-.08.32-.12.35-.44.35h-2.3c-.32,0-.34-.03-.27-.35.05-.22.53-1.92,2.63-10.56l1.45-5.98c1.45-5.98,1.82-7.74,1.87-7.97.08-.32.12-.35.44-.35.22,0,.82.06,2.77.06h2.75c1.95,0,2.58-.06,2.8-.06.32,0,.34.03.27.35-.05.19-.52,1.86-1.73,6.85l-1.59,6.56ZM134.12,127l1.71-7.04h-3.04l-1.71,7.04h3.04ZM135.09,110.52l-1.6,6.59h3.04l1.6-6.59h-3.04ZM138.2,135.26c-.32,0-.34-.03-.27-.35.05-.19.33-1.09,1.5-5.92l.74-3.04c.72-2.98.88-3.87.93-4.1.08-.32.12-.35.44-.35.19,0,1.07.06,3.76.06h5.57c2.66,0,3.6-.06,3.76-.06.35,0,.38.03.3.35-.05.19-.34,1.12-.94,3.62l-.84,3.46c-1.17,4.83-1.33,5.73-1.38,5.92-.07.29-.11.32-.46.32h-2.34c-.35,0-.38-.03-.31-.32l.26-1.09h-7.65l-.28,1.15c-.08.32-.12.35-.44.35h-2.37ZM144.32,119.67c-3.07,0-4.14.06-4.34.06-.32,0-.34-.03-.26-.38l.54-2.24c.08-.32.12-.35.44-.35.19,0,1.23.06,4.31.06h5.89c.64-1.06,1.23-2.18,1.53-2.75.24-.48.47-.99.69-1.66.99.16,2,.35,2.78.54.33.1.44.16.39.35-.05.22-.17.32-.37.48-.2.16-.44.48-.65.83-.42.67-.83,1.31-1.43,2.21h.19c3.04,0,4.11-.06,4.3-.06.35,0,.38.03.3.35l-.54,2.24c-.09.35-.13.38-.48.38-.19,0-1.23-.06-4.27-.06h-9.02ZM149.55,131.22l.6-2.46h-7.65l-.6,2.46h7.65ZM146.76,112.12c-2.91,0-3.95.06-4.18.06-.32,0-.34-.03-.26-.38l.54-2.21c.07-.29.11-.32.43-.32.22,0,1.23.06,4.15.06h1.86l.14-.58c.29-1.18.43-2.02.45-2.78,1.21.03,2.22.1,3.31.19.31.03.47.16.43.32-.05.22-.19.38-.34.61-.15.22-.33.7-.57,1.7l-.13.54h2.59c2.91,0,3.95-.06,4.14-.06.35,0,.38.03.31.32l-.54,2.21c-.08.35-.12.38-.48.38-.19,0-1.2-.06-4.11-.06h-7.74ZM143.09,126.33h7.65l.54-2.24h-7.65l-.54,2.24ZM146.69,112.44c.38-.1.46-.03.55.26.24.86.4,1.92.41,2.78.02.32-.02.35-.46.45l-2.05.54c-.41.1-.49.03-.49-.35,0-.9-.12-1.89-.34-2.69-.11-.35,0-.42.45-.51l1.94-.48Z"/><path class="cls-1" d="M174.6,106.78c2.08,0,3.05-.03,3.24-.03.32,0,.34.03.28.32-.05.19-.31,1.02-.75,2.82l-.71,2.91c-.43,1.76-.57,2.59-.61,2.78-.08.32-.12.35-.44.35-.19,0-1.13-.06-3.21-.06h-5.34l-2.96,12.16c-1.1,4.54-1.58,6.75-1.63,6.98-.07.29-.11.32-.43.32h-2.69c-.32,0-.34-.03-.27-.32.05-.22.65-2.43,1.76-6.98l3.38-13.92c1.1-4.54,1.59-6.82,1.65-7.04.07-.29.11-.32.43-.32.22,0,1.43.03,3.8.03h4.51ZM170.51,124.15c-2.91,0-3.92.06-4.11.06-.35,0-.38-.03-.3-.35l.35-1.44c.08-.32.12-.35.47-.35.19,0,1.17.06,4.08.06-.06-.67-.19-1.31-.33-1.95-1.35.03-1.94.06-2.06.06-.32,0-.35-.03-.26-.38l.33-1.34c.09-.35.13-.38.45-.38.19,0,1.14.06,3.92.06h1.92c.19-.8.28-1.41.3-2.02,1.02.03,1.78.06,2.79.13.31.03.45.13.42.26-.05.19-.15.35-.32.54-.18.22-.26.54-.38,1.02l-.02.06h2.14c2.82,0,3.79-.06,3.98-.06.32,0,.34.03.26.38l-.33,1.34c-.08.35-.13.38-.44.38-.16,0-.73-.03-2.06-.06-.49.7-.97,1.34-1.47,1.95h.48c2.91,0,3.92-.06,4.11-.06.35,0,.38.03.3.35l-.35,1.44c-.08.32-.12.35-.47.35-.19,0-1.17-.06-4.08-.06h-9.31ZM166.62,134.36c-.35,0-.38-.03-.3-.35.05-.19.27-.83,1.11-4.29l.41-1.7c.37-1.5.47-2.18.51-2.37.08-.32.12-.35.47-.35.19,0,1.01.07,3.5.07h4.83c2.5,0,3.31-.07,3.54-.07.32,0,.34.03.27.35-.04.16-.27.86-.58,2.14l-.44,1.79c-.82,3.39-.92,4.06-.97,4.26-.08.32-.12.35-.44.35h-2.08c-.32,0-.34-.03-.27-.35l.15-.61h-7.04l-.19.77c-.08.32-.12.35-.44.35h-2.05ZM173.67,112.34h-5.76l-.33,1.38h5.76l.33-1.38ZM168.72,108.98l-.33,1.38h5.76l.33-1.38h-5.76ZM176.78,131.38l.3-1.25h-7.04l-.3,1.25h7.04ZM170.45,128.47h7.04l.3-1.25h-7.04l-.3,1.25ZM173.46,120.18c.14.61.27,1.28.36,1.95h3.3c.48-.67.93-1.31,1.34-1.95h-4.99ZM188.53,124.79c-.54,2.24-1.04,4.8-1.42,6.37-.37,1.54-.77,2.24-1.64,2.94-.72.58-1.75.86-4.18.86-.99,0-1.02,0-.94-.99.07-.93-.01-1.66-.18-2.3.77.13,1.37.16,2.07.16,1.02,0,1.37-.25,1.62-1.25l3.58-14.72h-5.38c-2.5,0-3.34.06-3.54.06-.35,0-.38-.03-.3-.35.05-.22.27-.86.69-2.56l.82-3.36c.42-1.73.51-2.37.57-2.59.07-.29.11-.32.46-.32.19,0,1.02.03,3.51.03h4.77c2.53,0,3.4-.03,3.59-.03.32,0,.34.03.28.32-.05.19-.44,1.54-1.11,4.32l-3.26,13.41ZM187.96,113.72l.33-1.38h-6.11l-.33,1.38h6.11ZM182.99,108.98l-.33,1.38h6.11l.33-1.38h-6.11Z"/><path class="cls-1" d="M214.79,110.55c1.15,0,1.74-.03,2.28-.29.15-.1.26-.13.38-.13.19,0,.32.13.48.26.6.58,1.13,1.41,1.54,2.24.06.16.09.29.06.42-.05.19-.23.42-.57.64-.5.35-1.03.83-1.53,1.41-1.86,2.24-3.54,4.03-5.55,5.98,2.52,2.27,4.76,4.77,6.98,7.75.12.16.18.32.15.45s-.13.29-.34.48c-.79.74-1.71,1.5-2.67,2.18-.16.13-.3.19-.43.19-.16,0-.27-.1-.38-.26-1.93-3.14-4.06-5.66-6.39-7.94-4.53,3.78-8.84,6.5-12.8,8.45-.32.13-.57.25-.8.25-.19,0-.36-.1-.47-.29-.49-.87-1.27-1.5-2.18-2.08,5.61-2.53,9.13-4.8,13.25-8.16,2.89-2.4,5.2-4.67,7.97-8.03l-8.26.03c-1.66,0-3.34.06-5.1.19-.26.03-.31-.19-.28-.54,0-.67.25-2.21.52-3.33,1.7.13,3.3.13,5.38.13h8.8Z"/><path class="cls-1" d="M246.52,111.51c.94-.03,1.4-.22,1.88-.48.26-.16.44-.23.6-.23s.33.1.51.26c.6.42,1.29,1.28,1.7,1.95.14.19.16.38.12.58-.05.19-.19.38-.5.61-.39.29-.79.61-1.25,1.22-2.04,2.72-4.18,5.34-6.59,7.74,1.06,1.06,2,2.18,2.67,3.23.1.13.12.29.08.45-.03.13-.13.29-.29.42-.58.54-1.82,1.57-2.47,2.02-.15.1-.29.16-.42.16-.1,0-.21-.06-.31-.19-.55-.9-1.52-2.18-2.35-3.1-4.12,3.52-8.02,6.02-12.15,8-.33.16-.61.29-.87.29-.19,0-.36-.1-.54-.29-.82-.83-1.62-1.25-2.64-1.63,5.57-2.53,9.33-4.83,13.88-8.67-.98-.99-2.17-1.98-3.88-3.01.89-.77,1.76-1.6,2.67-2.27.16-.13.31-.22.47-.22.1,0,.18.06.29.13,1.02.54,2.2,1.47,3.51,2.56,2.02-1.98,3.71-4.06,5.28-6.34l-7.97.16c-3.44,3.36-6.06,5.57-8.6,7.2-.26.16-.49.29-.71.29-.16,0-.34-.06-.46-.22-.66-.58-1.38-1.02-2.33-1.47,5.34-3.55,8.46-6.5,11.5-10.05,1.44-1.73,2.07-2.59,2.68-3.94,1,.38,2.53.93,3.36,1.57.22.13.27.32.23.51-.05.22-.28.48-.54.64-.33.19-.62.45-.84.67-.36.45-.63.77-1.38,1.6l5.66-.13Z"/><path class="cls-1" d="M259.74,128.34c3.43-1.6,6.42-3.1,10.11-5.54,3.03-1.95,7.2-5.02,11.38-8.93-.15,1.41-.09,2.21.06,3.58.04.22.06.42.01.61-.06.26-.21.48-.53.74-3.75,3.2-6.2,4.96-9.92,7.39-3.3,2.11-6.72,3.94-11.03,6.02-.87.42-1.72.77-2.12,1.09-.24.19-.41.26-.57.26-.22,0-.42-.13-.55-.38-.51-.67-1.07-1.92-1.58-3.26,1.41-.26,2.61-.61,4.73-1.57ZM257.44,116.47c.21-.22.41-.38.68-.32,2.21.8,3.88,1.82,5.38,3.14.19.16.28.29.24.48-.02.1-.12.22-.21.35-.56.86-1.31,1.7-2,2.43-.21.19-.37.32-.49.32s-.21-.06-.34-.19c-1.68-1.5-3.51-2.56-5.62-3.49,1.11-1.28,1.85-2.21,2.36-2.72ZM263.1,109.11c.32-.38.53-.45.86-.26,1.85.83,3.77,2.02,5.15,3.55.16.13.19.29.15.42-.03.13-.09.26-.23.42-.64.8-1.53,1.82-2.21,2.4-.13.16-.27.19-.37.19-.16,0-.3-.1-.42-.22-1.33-1.38-3.43-3.01-5.25-3.94.75-.83,1.57-1.73,2.32-2.56ZM278,108.12c.19-.13.31-.1.46.06.81.77,1.65,2.05,2.21,3.42.08.19.04.35-.22.51l-1.59.99c-.26.16-.42.13-.52-.1-.6-1.47-1.33-2.69-2.33-3.71l1.98-1.18ZM281.35,106.04c.22-.13.31-.1.46.06.97.9,1.81,2.18,2.24,3.3.08.19.07.38-.24.58l-1.52.99c-.3.19-.44.1-.52-.1-.53-1.38-1.26-2.59-2.31-3.68l1.88-1.15Z"/><path class="cls-1" d="M300.17,119.86c-1.68,1.79-3.34,3.2-5.71,4.93-2,1.5-4.92,3.39-7.14,4.48-.33.19-.58.29-.8.29-.19,0-.36-.1-.47-.32-.45-.77-1.35-1.54-2.17-1.89,3.7-1.79,6.04-3.13,8.68-5.06,2.29-1.66,4.2-3.2,5.91-4.96l-5.61.03c-1.66,0-3.47.06-5.16.16-.3.03-.37-.19-.32-.54.02-.61.28-1.92.5-3.1,1.89.13,3.77.16,5.69.16h7.62l.56-2.85c.33-1.6.44-2.75.41-3.78,1.71.06,3,.16,3.95.35.3.06.37.19.32.38-.03.13-.13.29-.24.48-.19.38-.44.9-.84,2.94l-.5,2.43h2.78c2.24,0,3.86-.06,6.25-.16.32,0,.44.16.39.38-.19.9-.43,1.89-.68,2.78-.06.26-.24.45-.56.45-2.31-.1-4.12-.16-6.11-.16h-2.59l-2.35,12.03c-.32,1.7-1.15,2.75-2.36,3.39-1.24.64-3.22,1.12-4.69,1.12-.61,0-.8-.13-.86-.54-.22-1.18-.59-1.92-1.55-2.85,2.41-.03,3.45-.1,4.59-.32.77-.16,1.11-.48,1.39-1.89l1.65-8.38Z"/><path class="cls-1" d="M219.95,7.12c.2.11.27.22.27.36,0,.13-.05.25-.13.4-.13.22-.2.47-.32.99-.59,2.72-.9,5.24-.9,6.55,0,.72,0,1.55.05,2.3.36-.83.74-1.6,1.12-2.5.25.58.4.83.63,1.13.07.09.11.16.11.25s-.04.18-.11.29c-.63,1.42-.85,2.21-.92,2.74-.07.5-.04.77-.02.95.02.13-.05.18-.22.23-.34.13-.86.23-1.35.31-.2.05-.27.04-.36-.22-.5-1.28-.77-3.42-.77-5.49,0-1.73.14-3.17.74-6.82.09-.63.2-1.4.13-2.12.72.18,1.69.47,2.05.65ZM226.15,11.93c-1.22.04-2.48.07-3.71-.02-.23,0-.31-.05-.32-.23-.07-.43-.13-1.08-.13-1.64,1.35.13,2.75.14,4.1.05,0-.65-.02-1.22-.02-1.89-.02-.65-.07-1.12-.23-1.76,1.04.09,1.58.16,2.18.34.2.05.32.14.32.31,0,.09-.04.14-.11.31-.07.16-.13.4-.14.63-.04.61-.04,1.08-.04,1.91.85-.07,1.78-.2,2.56-.32.22-.05.25.02.29.22.07.32.11.9.11,1.28,0,.16-.07.25-.2.27-.65.16-1.84.31-2.77.38,0,2.02.04,3.28.13,4.82,1.06.43,1.98.94,2.99,1.73.16.11.18.16.09.36-.23.47-.52.97-.83,1.39-.05.07-.11.11-.16.11s-.11-.04-.16-.09c-.56-.52-1.15-.97-1.94-1.44-.14,1.51-1.17,2.34-3.29,2.34s-3.22-.97-3.22-2.52,1.33-2.54,3.15-2.54c.47,0,1.01.05,1.44.14-.04-1.39-.05-2.7-.07-4.12ZM224.69,17.52c-.85,0-1.35.31-1.35.86s.4.9,1.46.9c.9,0,1.48-.52,1.48-1.17,0-.13,0-.22-.02-.36-.58-.18-1.06-.23-1.57-.23Z"/><line class="cls-5" x1="142.14" y1="75.39" x2="165.63" y2="98.88"/><line class="cls-5" x1="142.14" y1="98.88" x2="165.63" y2="75.39"/><rect class="cls-1" x="51.85" y="304.09" width="219.37" height="6.77"/><polyline class="cls-4" points="161.02 159.61 161.02 234.39 185.38 210.02"/></g></svg>