<?xml version="1.0" encoding="UTF-8"?><svg id="_レイヤー_2" xmlns="http://www.w3.org/2000/svg" viewBox="0 0 628.32 75.54"><defs><style>.cls-1{fill:#000;}.cls-1,.cls-2,.cls-3{stroke-width:0px;}.cls-4{fill:none;stroke:#000;stroke-miterlimit:10;stroke-width:.5px;}.cls-2{fill:#231815;}.cls-3{fill:#b7d100;}</style></defs><g id="_レイヤー_1-2"><polygon class="cls-2" points="273.03 18.98 273.03 20.38 272.56 20.38 272.56 17.09 275.62 17.09 275.31 17.54 273.03 17.54 273.03 18.56 275.46 18.56 275.17 18.98 273.03 18.98"/><rect class="cls-2" x="278.17" y="17.09" width=".48" height="3.29"/><polygon class="cls-2" points="282.65 20.38 282.65 17.54 281.08 17.54 281.4 17.09 284.83 17.09 284.52 17.54 283.14 17.54 283.14 20.38 282.65 20.38"/><path class="cls-2" d="M287.17,17.83v2.55h-.48v-3c0-.24.12-.33.27-.33.06,0,.13.02.21.1l2.34,2.49v-2.55h.48v2.99c0,.24-.13.33-.27.33-.06,0-.13-.01-.2-.1l-2.34-2.48Z"/><polygon class="cls-2" points="292.62 20.38 292.62 17.09 295.77 17.09 295.45 17.54 293.1 17.54 293.1 18.53 295.63 18.53 295.35 18.92 293.1 18.92 293.1 19.93 295.79 19.93 295.47 20.38 292.62 20.38"/><path class="cls-2" d="M297.8,20.38l.31-.45h2.33c.46,0,.68-.18.68-.52,0-.43-.32-.49-.88-.49h-1.2c-.75,0-1.1-.32-1.1-.9s.36-.94,1.18-.94h2.4l-.31.45h-2.12c-.45,0-.68.18-.68.52,0,.42.31.47.88.47h1.2c.72,0,1.09.29,1.09.89,0,.63-.36.96-1.17.96h-2.61Z"/><path class="cls-2" d="M303.58,20.38l.31-.45h2.33c.46,0,.68-.18.68-.52,0-.43-.32-.49-.88-.49h-1.2c-.75,0-1.1-.32-1.1-.9s.36-.94,1.18-.94h2.4l-.31.45h-2.12c-.45,0-.68.18-.68.52,0,.42.31.47.88.47h1.2c.72,0,1.09.29,1.09.89,0,.63-.36.96-1.17.96h-2.61Z"/><path class="cls-2" d="M313.77,20.38c-.98,0-1.71-.72-1.71-1.68s.72-1.61,1.71-1.61h1.91l-.31.45h-1.6c-.7,0-1.23.46-1.23,1.19s.52,1.21,1.23,1.21h1.31v-1.04h-1.73l.29-.4h1.91v1.89h-1.79Z"/><polygon class="cls-2" points="319.18 20.38 319.18 19.16 317.55 17.09 318.1 17.09 319.43 18.75 320.74 17.09 321.28 17.09 319.66 19.16 319.66 20.38 319.18 20.38"/><path class="cls-2" d="M327.29,20.38l-.83-2.65-.99,2.49c-.07.18-.17.21-.28.21-.08,0-.14-.01-.2-.07-.03-.03-.06-.07-.08-.14l-.99-2.49-.83,2.65h-.47l.98-3.09c.05-.16.15-.25.27-.25s.22.08.27.2l1.06,2.59,1.06-2.59c.04-.12.14-.2.27-.2s.23.09.28.25l.96,3.09h-.48Z"/><polygon class="cls-2" points="308.67 7.32 311.37 3.96 313.68 3.96 309.73 9.09 309.73 13.86 307.68 13.86 307.68 9.09 303.68 3.96 305.99 3.96 308.67 7.32"/><path class="cls-2" d="M283.63,3.95l-3.57,8.1c-.37.84.23,1.8,1.14,1.81.01,0,.03,0,.04,0l4.45-9.91h-2.06Z"/><path class="cls-2" d="M280.44,9.11l-2.25-5.16h-1.77l-3.57,8.1c-.37.84.23,1.8,1.14,1.81.01,0,.03,0,.04,0l3.27-7.36,2.13,4.88,1-2.28Z"/><polygon class="cls-2" points="273.18 9.23 270.97 3.96 268.89 3.96 272.12 11.62 273.18 9.23"/><polygon class="cls-2" points="295.23 3.95 293.34 3.96 288.79 13.86 290.88 13.86 294.27 6.22 297.8 13.86 299.89 13.86 295.23 3.95"/><polygon class="cls-2" points="329.82 13.86 327.28 13.86 324.02 10.14 320.77 13.86 318.23 13.86 326.94 3.95 329.45 3.95 325.28 8.72 329.82 13.86"/><polygon class="cls-2" points="321.06 3.96 318.51 3.96 322.18 8.08 323.42 6.67 321.06 3.96"/><path class="cls-3" d="M224.11,0h-6.03l11.6,20.53,3.22-5.68L224.64.26c-.09-.16-.3-.26-.53-.26"/><path class="cls-2" d="M236.94,0h-6.03l11.6,20.53,3.22-5.68L237.48.26c-.09-.16-.3-.26-.53-.26"/><path class="cls-3" d="M249.78,0h-6.03l5.18,9.17,3.21-5.68-1.83-3.23c-.09-.16-.3-.26-.53-.26"/><polygon class="cls-2" points="249.59 10.28 249.58 10.28 249.58 10.28 249.59 10.28"/><path class="cls-2" d="M256.52,10.28l5.79,10.25h-6.41l-5.8-10.24h0s0,0,0,0L255.9.03h5.54c.41,0,.7.32.53.6l-5.45,9.65Z"/><polygon class="cls-2" points="250.1 10.28 250.1 10.28 250.1 10.28 250.1 10.28"/><path class="cls-1" d="M343.04,20.66c-.18,0-.2-.02-.2-.2,0-.13.04-1.19.04-6.41v-3.47c0-3.49-.04-4.59-.04-4.7,0-.2.02-.22.2-.22.13,0,.74.04,2.48.04h6.18c1.75,0,2.38-.04,2.48-.04.18,0,.2.02.2.22,0,.11-.04,1.21-.04,4.16v4c0,5.17.04,6.23.04,6.34,0,.18-.02.2-.2.2h-1.6c-.18,0-.2-.02-.2-.2v-.88h-7.54v.97c0,.18-.02.2-.2.2h-1.6ZM344.84,11.59h7.54v-4.11h-7.54v4.11ZM352.39,17.71v-4.36h-7.54v4.36h7.54Z"/><path class="cls-1" d="M373.57,15.62c0,1.57.04,2.52.04,3.15,0,.67-.16,1.15-.52,1.48-.36.31-1.04.42-2.56.45-.58,0-.56-.02-.68-.54-.13-.54-.29-.97-.5-1.31.56.04,1.03.07,1.51.07.52,0,.76-.13.76-.58v-9.04h-10.62v8.62c0,1.69.04,2.54.04,2.65,0,.16-.02.18-.2.18h-1.62c-.18,0-.2-.02-.2-.18,0-.13.04-.99.04-2.88v-7.04c0-1.89-.04-2.77-.04-2.9,0-.18.02-.2.2-.2.13,0,.74.04,2.45.04h2.11c.38-.7.72-1.46.95-2.07.13-.32.2-.58.27-1.01.74.09,1.5.2,2.02.31.16.04.22.13.22.23,0,.14-.07.23-.14.31-.14.13-.23.25-.31.43-.27.58-.59,1.22-.92,1.8h5.11c1.71,0,2.32-.04,2.43-.04.2,0,.22.02.22.2,0,.11-.04,1.1-.04,2.99v4.88ZM363.05,17.94c-.18,0-.2-.02-.2-.2,0-.13.04-.58.04-3.01v-1.55c0-1.39-.04-1.85-.04-1.98,0-.18.02-.2.2-.2.11,0,.56.04,1.91.04h2.57c1.37,0,1.8-.04,1.93-.04.18,0,.2.02.2.2,0,.11-.04.58-.04,1.67v1.69c0,2.38.04,2.81.04,2.92,0,.18-.02.2-.2.2h-1.35c-.2,0-.22-.02-.22-.2v-.54h-3.29v.79c0,.18-.02.2-.2.2h-1.35ZM364.6,15.33h3.29v-2.68h-3.29v2.68Z"/><path class="cls-1" d="M380.27,10.35c0,2.43-.11,4.25-.4,5.8-.29,1.51-.74,2.81-1.44,4.14-.13.23-.2.36-.29.36-.07,0-.18-.11-.36-.29-.41-.45-.88-.86-1.21-1.06.7-1.17,1.17-2.38,1.48-3.92.27-1.33.38-2.99.38-5.38,0-2.27-.04-3.29-.04-3.4,0-.18.02-.2.18-.2.11,0,.72.04,2.43.04h3.42v-.59c0-.54-.02-1.01-.11-1.46.67.02,1.3.05,1.91.11.18.02.29.09.29.2,0,.13-.04.23-.11.34-.07.13-.13.38-.13.77v.63h3.89c1.71,0,2.29-.04,2.41-.04.16,0,.18.02.18.2v1.33c0,.18-.02.2-.18.2-.13,0-.7-.04-2.41-.04h-9.9v2.27ZM381.41,20.83c-.18,0-.2-.02-.2-.2,0-.11.04-.54.04-2.88v-1.31c0-1.3-.04-1.75-.04-1.87,0-.18.02-.2.2-.2.11,0,.7.04,2.39.04h1.04v-3.64c0-.85-.02-1.55-.11-2.18.67.02,1.17.04,1.84.13.18.02.31.09.31.18,0,.18-.05.27-.11.4-.11.22-.13.7-.13,1.39v.11h3.01c1.69,0,2.29-.04,2.39-.04.18,0,.2.02.2.2v1.33c0,.18-.02.2-.2.2-.11,0-.7-.04-2.39-.04h-3.01v1.96h1.96c1.71,0,2.3-.04,2.41-.04.18,0,.2.02.2.2,0,.11-.04.58-.04,1.62v1.49c0,2.3.04,2.75.04,2.86,0,.16-.02.18-.2.18h-1.44c-.18,0-.2-.02-.2-.18v-.45h-6.39v.54c0,.18-.02.2-.2.2h-1.39ZM382.99,18.45h6.39v-2.47h-6.39v2.47Z"/><path class="cls-1" d="M398.9,6.12c.2.11.27.22.27.36,0,.13-.05.25-.13.4-.13.22-.2.47-.32.99-.59,2.72-.9,5.24-.9,6.55,0,.72,0,1.55.05,2.3.36-.83.74-1.6,1.12-2.5.25.58.4.83.63,1.13.07.09.11.16.11.25s-.04.18-.11.29c-.63,1.42-.85,2.21-.92,2.74-.07.5-.04.77-.02.95.02.13-.05.18-.22.23-.34.13-.86.23-1.35.31-.2.05-.27.04-.36-.22-.5-1.28-.77-3.42-.77-5.49,0-1.73.14-3.17.74-6.82.09-.63.2-1.4.13-2.12.72.18,1.69.47,2.05.65ZM405.09,10.92c-1.22.04-2.48.07-3.71-.02-.23,0-.31-.05-.32-.23-.07-.43-.13-1.08-.13-1.64,1.35.13,2.75.14,4.11.05,0-.65-.02-1.22-.02-1.89-.02-.65-.07-1.12-.23-1.76,1.04.09,1.58.16,2.18.34.2.05.32.14.32.31,0,.09-.04.14-.11.31s-.13.4-.14.63c-.04.61-.04,1.08-.04,1.91.85-.07,1.78-.2,2.56-.32.22-.05.25.02.29.22.07.32.11.9.11,1.28,0,.16-.07.25-.2.27-.65.16-1.84.31-2.77.38,0,2.02.04,3.28.13,4.83,1.06.43,1.98.94,2.99,1.73.16.11.18.16.09.36-.23.47-.52.97-.83,1.39-.05.07-.11.11-.16.11s-.11-.04-.16-.09c-.56-.52-1.15-.97-1.94-1.44-.14,1.51-1.17,2.34-3.29,2.34s-3.22-.97-3.22-2.52,1.33-2.54,3.15-2.54c.47,0,1.01.05,1.44.14-.04-1.39-.05-2.7-.07-4.12ZM403.63,16.52c-.85,0-1.35.31-1.35.86s.4.9,1.46.9c.9,0,1.48-.52,1.48-1.17,0-.13,0-.22-.02-.36-.58-.18-1.06-.23-1.57-.23Z"/><path class="cls-1" d="M8.48,54.39c-2.08,0-3.93.1-5.32.16-.42.03-.5-.19-.45-.64.06-.64.33-2.3.5-3.23,1.4.16,3.08.22,6.09.22h11.42c.96,0,1.33-.06,1.84-.32.18-.1.35-.13.51-.13.19,0,.37.07.57.16.73.54,1.4,1.34,1.82,2.11.11.19.14.35.09.54-.07.29-.29.54-.64.8-.36.29-.6.61-1.04,1.25-2.48,3.77-5.29,7.29-8.73,10.4-3.51,3.14-7.26,5.79-10.94,7.62-.33.19-.65.29-.93.29-.26,0-.52-.1-.72-.35-.56-.7-1.48-1.28-2.55-1.76,5.25-2.37,8.63-4.58,12.41-8,3.19-2.85,5.48-5.57,7.62-9.12h-11.55Z"/><path class="cls-1" d="M39.11,68.82c-.37,1.54-.81,3.58-1.17,5.22-.06.38-.29.54-.68.58-.85.06-1.77.06-2.59,0-.34-.03-.5-.19-.37-.58.48-1.82.93-3.42,1.34-5.12l1.33-5.47c-2.62,1.82-5.91,3.78-7.74,4.61-.15.1-.32.13-.45.13-.22,0-.45-.13-.56-.32-.41-.67-1.12-1.31-1.92-1.6,5.66-2.62,10.83-5.98,15.81-10.4.95-.86,1.68-1.66,2.36-2.75.93.64,2.07,1.47,2.48,1.92.18.19.25.42.21.58-.05.22-.27.45-.63.61-.47.22-1.39.99-1.76,1.31-1.07.96-2.28,2.02-3.67,3.1l-1.99,8.19Z"/><path class="cls-1" d="M58.52,56.66c.39-.16.61-.13.78.22.78,1.41,1.41,3.04,1.6,4.74.01.22.04.35.01.48-.05.19-.2.29-.49.45-.88.45-1.48.7-2.29.99-.49.16-.64,0-.69-.45-.29-1.86-.85-3.62-1.76-5.15,1.24-.61,2.09-.96,2.84-1.28ZM75.98,57.08c.21.19.33.35.28.54-.05.19-.18.35-.49.58-.58.42-.96,1.06-1.36,1.63-2.17,3.26-4.54,6.18-6.9,8.51-2.77,2.69-4.94,4.38-8.09,6.18-.3.19-.6.35-.85.35-.16,0-.34-.06-.46-.22-.64-.64-1.29-.99-2.39-1.34,4.45-2.53,6.77-4.16,9.3-6.66,2.1-2.08,4.66-5.22,6.19-7.71.7-1.18,1.07-1.89,1.56-3.39,1.24.42,2.54.99,3.21,1.54ZM65.35,55.12c.39-.16.61-.13.77.26.59,1.12,1.19,3.13,1.33,4.67.04.48-.06.64-.53.86-.69.35-1.48.67-2.45.99-.38.13-.47-.03-.52-.48-.28-1.89-.64-3.42-1.44-5.12,1.43-.61,2.25-.96,2.85-1.18Z"/><path class="cls-1" d="M91.44,56.56c3.61,1.22,6.41,2.46,9.12,4.35.3.19.41.42.15.83-.67,1.06-1.43,2.05-2.05,2.78-.18.22-.34.35-.5.35-.1,0-.22-.03-.31-.16-2.48-1.89-5.02-3.3-7.42-4.1l-1.72,7.07c-.51,2.08-.9,3.97-1.4,6.27-.06.38-.24.48-.69.48-.94.06-1.94.06-2.85,0-.45,0-.58-.1-.49-.48.67-2.37,1.16-4.26,1.66-6.3l3.83-15.74c.58-2.4.74-3.46.83-4.74,1.45.1,3.01.26,3.87.51.42.1.54.29.48.54-.05.19-.2.45-.43.74-.32.42-.52,1.22-.95,3.01l-1.11,4.58Z"/><path class="cls-1" d="M120.24,68.75c-.69,2.85-1.11,4.96-1.3,5.76-.07.29-.33.42-.71.42-.88.06-1.9.06-2.75,0-.38,0-.58-.13-.5-.45.22-.9.9-3.04,1.54-5.7l1-4.13c-3.35,2.08-6.12,3.58-10.1,5.34-.22.1-.42.16-.58.16-.19,0-.39-.1-.55-.35-.57-.8-1.08-1.47-2.09-1.95,4.91-2.02,8.29-3.71,11.7-5.76,3.11-1.89,5.39-3.49,7.47-5.18l-7.43.16c-1.74.06-2.94.13-4.28.22-.35,0-.43-.19-.4-.61.02-.74.21-1.92.41-3.14,1.34.16,2.65.29,4.38.26l9.3-.1c1.18,0,1.82-.13,2.36-.35.21-.1.38-.13.51-.13.19,0,.34.06.48.26.41.42.91,1.41,1.14,1.89.08.19.1.38.06.54-.06.26-.27.45-.62.58-.39.16-.76.38-1.2.74-2.04,1.66-4.12,3.26-6.21,4.74l-1.65,6.78ZM120.36,46.9c.26-.29.45-.38.74-.29,2.14.67,4.77,1.98,6.11,2.78.19.13.3.22.27.35-.02.1-.08.19-.21.32-.52.7-1.13,1.5-1.89,2.37-.18.22-.33.32-.49.32-.1,0-.22-.03-.32-.13-1.36-.99-3.82-2.34-6.37-3.17.89-1.02,1.72-2.08,2.16-2.56ZM125.49,61.36c.29-.29.38-.25.67-.13,1.99.9,4.18,2.27,6.03,3.9.16.13.23.22.19.38-.02.1-.09.22-.22.38-.71.83-1.3,1.54-2.13,2.3-.17.16-.32.26-.45.26s-.23-.1-.39-.22c-1.62-1.63-3.36-2.88-6.13-4.42.95-1.02,1.89-1.98,2.42-2.46Z"/><path class="cls-1" d="M157.34,50.77c1.15,0,1.74-.03,2.28-.29.15-.1.26-.13.38-.13.19,0,.32.13.48.26.6.58,1.13,1.41,1.54,2.24.06.16.09.29.06.42-.05.19-.23.42-.57.64-.5.35-1.03.83-1.53,1.41-1.86,2.24-3.54,4.03-5.55,5.98,2.52,2.27,4.76,4.77,6.98,7.74.12.16.18.32.15.45s-.13.29-.34.48c-.79.74-1.71,1.5-2.67,2.18-.16.13-.3.19-.43.19-.16,0-.27-.1-.39-.26-1.93-3.14-4.06-5.66-6.39-7.94-4.53,3.78-8.84,6.5-12.8,8.45-.32.13-.57.25-.8.25-.19,0-.36-.1-.47-.29-.49-.86-1.27-1.5-2.18-2.08,5.61-2.53,9.13-4.8,13.25-8.16,2.89-2.4,5.2-4.67,7.97-8.03l-8.26.03c-1.66,0-3.34.06-5.1.19-.26.03-.3-.19-.28-.54,0-.67.25-2.21.52-3.33,1.7.13,3.3.13,5.38.13h8.8Z"/><path class="cls-1" d="M173.55,68.56c3.43-1.6,6.42-3.1,10.11-5.54,3.03-1.95,7.2-5.02,11.38-8.93-.15,1.41-.09,2.21.06,3.58.04.22.06.42.01.61-.06.26-.21.48-.53.74-3.75,3.2-6.2,4.96-9.92,7.39-3.3,2.11-6.72,3.94-11.03,6.02-.87.42-1.72.77-2.12,1.09-.24.19-.42.26-.58.26-.22,0-.42-.13-.55-.38-.51-.67-1.07-1.92-1.58-3.26,1.41-.25,2.61-.61,4.73-1.57ZM171.25,56.69c.21-.22.41-.38.69-.32,2.21.8,3.88,1.82,5.38,3.14.18.16.28.29.23.48-.02.1-.12.22-.21.35-.56.86-1.31,1.7-2,2.43-.21.19-.37.32-.49.32s-.21-.06-.34-.19c-1.68-1.5-3.5-2.56-5.62-3.49,1.11-1.28,1.85-2.21,2.36-2.72ZM176.91,49.33c.32-.38.53-.45.86-.26,1.85.83,3.77,2.02,5.15,3.55.16.13.19.29.15.42-.03.13-.09.26-.23.42-.64.8-1.53,1.82-2.21,2.4-.13.16-.27.19-.37.19-.16,0-.3-.1-.43-.22-1.33-1.38-3.43-3.01-5.25-3.93.75-.83,1.57-1.73,2.32-2.56ZM191.8,48.34c.19-.13.31-.1.46.06.8.77,1.65,2.05,2.21,3.42.08.19.04.35-.22.51l-1.59.99c-.26.16-.42.13-.52-.1-.6-1.47-1.33-2.69-2.33-3.71l1.98-1.18ZM195.16,46.26c.22-.13.31-.1.46.06.97.9,1.81,2.18,2.24,3.3.08.19.07.38-.24.58l-1.52.99c-.3.19-.44.1-.52-.1-.53-1.38-1.26-2.59-2.31-3.68l1.88-1.15Z"/><path class="cls-1" d="M214.12,49.52c.18.16.31.32.26.51-.04.16-.19.38-.48.64-.75.74-1.38,1.73-1.96,2.66-2.98,4.9-5.82,9.6-9,14.4,5.03-.42,7.78-.67,11.5-1.22-.57-1.76-1.32-3.52-2.31-5.12,1.08-.51,2.14-1.06,3.16-1.54.4-.19.56-.06.72.19,1.79,2.91,3.22,6.91,3.92,10.46.06.16.06.29.03.42-.05.19-.22.38-.55.54-.89.51-1.79.93-2.75,1.31-.14.06-.28.1-.41.1-.19,0-.31-.16-.34-.45-.17-.9-.32-1.73-.5-2.56-5.31.77-10.3,1.31-15.65,1.86-2.17.22-3.07.38-3.93.77-.46.19-.8.13-.85-.32-.12-.54-.15-2.14-.12-4.13,1.26.1,2.61.06,3.9.03,3.66-5.73,6.48-10.46,9.45-15.84.92-1.66,1.51-2.78,1.99-4.38,1.81.58,3.08,1.02,3.92,1.66Z"/><path class="cls-1" d="M299.78,61.52c-1.98,8.16-2.31,9.79-2.36,9.98-.08.32-.12.35-.44.35h-2.3c-.29,0-.31-.03-.23-.35l.33-1.38h-3.04l-.61,2.5c-.08.32-.12.35-.44.35h-2.3c-.32,0-.34-.03-.27-.35.05-.22.53-1.92,2.63-10.56l1.45-5.98c1.45-5.98,1.82-7.74,1.87-7.97.08-.32.12-.35.44-.35.22,0,.82.06,2.77.06h2.75c1.95,0,2.58-.06,2.8-.06.32,0,.34.03.27.35-.05.19-.52,1.86-1.73,6.85l-1.59,6.56ZM295.48,67.22l1.71-7.04h-3.04l-1.71,7.04h3.04ZM296.45,50.74l-1.6,6.59h3.04l1.6-6.59h-3.04ZM299.56,75.47c-.32,0-.34-.03-.27-.35.05-.19.33-1.09,1.5-5.92l.74-3.04c.72-2.98.88-3.87.93-4.1.08-.32.12-.35.44-.35.19,0,1.07.06,3.76.06h5.57c2.66,0,3.6-.06,3.76-.06.35,0,.38.03.3.35-.05.19-.33,1.12-.94,3.62l-.84,3.46c-1.17,4.83-1.33,5.73-1.38,5.92-.07.29-.11.32-.46.32h-2.34c-.35,0-.38-.03-.31-.32l.26-1.09h-7.65l-.28,1.15c-.08.32-.12.35-.44.35h-2.37ZM305.68,59.89c-3.07,0-4.14.06-4.34.06-.32,0-.34-.03-.26-.38l.54-2.24c.08-.32.12-.35.44-.35.19,0,1.23.06,4.3.06h5.89c.64-1.06,1.23-2.18,1.53-2.75.24-.48.47-.99.69-1.66.99.16,1.99.35,2.78.54.33.1.44.16.39.35-.05.22-.17.32-.37.48-.2.16-.44.48-.65.83-.42.67-.83,1.31-1.43,2.21h.19c3.04,0,4.11-.06,4.3-.06.35,0,.38.03.3.35l-.54,2.24c-.08.35-.12.38-.48.38-.19,0-1.23-.06-4.27-.06h-9.02ZM310.91,71.44l.6-2.46h-7.65l-.6,2.46h7.65ZM308.12,52.34c-2.91,0-3.95.06-4.17.06-.32,0-.34-.03-.26-.38l.54-2.21c.07-.29.11-.32.43-.32.22,0,1.23.06,4.14.06h1.86l.14-.58c.29-1.18.43-2.02.45-2.78,1.21.03,2.22.1,3.31.19.31.03.47.16.43.32-.05.22-.19.38-.34.61-.15.22-.33.7-.57,1.7l-.13.54h2.59c2.91,0,3.95-.06,4.14-.06.35,0,.38.03.31.32l-.54,2.21c-.09.35-.13.38-.48.38-.19,0-1.2-.06-4.11-.06h-7.74ZM304.45,66.55h7.65l.54-2.24h-7.65l-.54,2.24ZM308.05,52.66c.38-.1.46-.03.55.26.24.86.4,1.92.41,2.78.02.32-.02.35-.46.45l-2.05.54c-.41.1-.49.03-.49-.35,0-.9-.12-1.89-.34-2.69-.11-.35,0-.42.44-.51l1.94-.48Z"/><path class="cls-1" d="M336.01,47c2.08,0,3.05-.03,3.24-.03.32,0,.34.03.27.32-.05.19-.31,1.02-.75,2.82l-.71,2.91c-.43,1.76-.56,2.59-.61,2.78-.08.32-.12.35-.44.35-.19,0-1.14-.06-3.22-.06h-5.34l-2.95,12.16c-1.1,4.54-1.58,6.75-1.63,6.98-.07.29-.11.32-.43.32h-2.69c-.32,0-.34-.03-.28-.32.05-.22.66-2.43,1.76-6.98l3.38-13.92c1.1-4.54,1.59-6.82,1.65-7.04.07-.29.11-.32.43-.32.22,0,1.43.03,3.8.03h4.51ZM331.92,64.37c-2.91,0-3.92.06-4.11.06-.35,0-.38-.03-.3-.35l.35-1.44c.08-.32.12-.35.47-.35.19,0,1.17.06,4.08.06-.06-.67-.19-1.31-.33-1.95-1.35.03-1.94.06-2.06.06-.32,0-.34-.03-.26-.38l.33-1.34c.09-.35.13-.38.45-.38.19,0,1.14.06,3.92.06h1.92c.19-.8.28-1.41.3-2.02,1.02.03,1.78.06,2.79.13.31.03.45.13.42.26-.05.19-.15.35-.32.54-.18.22-.26.54-.38,1.02l-.02.06h2.14c2.82,0,3.79-.06,3.98-.06.32,0,.34.03.26.38l-.33,1.34c-.09.35-.13.38-.45.38-.16,0-.73-.03-2.06-.06-.49.7-.97,1.34-1.47,1.95h.48c2.91,0,3.92-.06,4.11-.06.35,0,.38.03.3.35l-.35,1.44c-.08.32-.12.35-.47.35-.19,0-1.17-.06-4.08-.06h-9.31ZM328.03,74.58c-.35,0-.38-.03-.3-.35.05-.19.27-.83,1.11-4.29l.41-1.7c.37-1.5.46-2.18.51-2.37.08-.32.12-.35.47-.35.19,0,1.01.06,3.5.06h4.83c2.5,0,3.31-.06,3.54-.06.32,0,.34.03.27.35-.04.16-.27.86-.59,2.14l-.44,1.79c-.82,3.39-.92,4.06-.97,4.26-.08.32-.12.35-.44.35h-2.08c-.32,0-.34-.03-.27-.35l.15-.61h-7.04l-.19.77c-.08.32-.12.35-.44.35h-2.05ZM335.07,52.56h-5.76l-.33,1.38h5.76l.33-1.38ZM330.13,49.2l-.33,1.38h5.76l.33-1.38h-5.76ZM338.19,71.6l.3-1.25h-7.04l-.3,1.25h7.04ZM331.86,68.69h7.04l.3-1.25h-7.04l-.3,1.25ZM334.87,60.4c.14.61.26,1.28.36,1.95h3.3c.48-.67.93-1.31,1.34-1.95h-4.99ZM349.94,65.01c-.54,2.24-1.04,4.8-1.42,6.37-.37,1.54-.77,2.24-1.64,2.94-.72.58-1.75.87-4.18.87-.99,0-1.02,0-.94-.99.07-.93-.01-1.66-.18-2.3.77.13,1.37.16,2.07.16,1.02,0,1.37-.25,1.62-1.25l3.58-14.72h-5.38c-2.5,0-3.34.06-3.54.06-.35,0-.38-.03-.3-.35.05-.22.27-.86.69-2.56l.82-3.36c.42-1.73.51-2.37.57-2.59.07-.29.11-.32.46-.32.19,0,1.02.03,3.51.03h4.77c2.53,0,3.4-.03,3.59-.03.32,0,.34.03.27.32-.05.19-.44,1.54-1.11,4.32l-3.26,13.41ZM349.36,53.94l.33-1.38h-6.11l-.33,1.38h6.11ZM344.4,49.2l-.33,1.38h6.11l.33-1.38h-6.11Z"/><path class="cls-1" d="M363.47,58.36c1.34-1.95,2.21-3.58,2.59-4.74,1.49.58,2.79,1.15,3.57,1.63.26.13.31.32.26.51-.05.22-.24.45-.48.64-.44.35-.8.8-1.59,1.95-2.92,4.25-5.6,7.52-9.46,10.75-.37.32-.69.48-1.01.48-.26,0-.46-.1-.66-.32-.52-.51-1.42-1.02-2.48-1.38,4.08-2.98,7.27-6.62,9.26-9.54ZM376.5,54c.19-.13.37-.19.49-.19.16,0,.27.06.42.26,2.64,3.49,4.32,7.65,5.18,11.74.06.16.06.29.02.45-.05.19-.18.35-.44.51-.73.48-1.91,1.15-3.07,1.7-.46.19-.67.13-.7-.29-1.07-5.34-2.53-9.09-4.88-12.45,1.34-.77,2.35-1.38,2.98-1.73ZM381.17,50.16c.19-.13.31-.1.46.06.81.77,1.65,2.05,2.21,3.42.08.19.04.35-.22.51l-1.58.99c-.26.16-.42.13-.52-.1-.6-1.47-1.33-2.69-2.33-3.71l1.98-1.18ZM384.53,48.08c.22-.13.31-.1.46.06.97.9,1.81,2.17,2.24,3.3.08.19.07.38-.24.58l-1.52.99c-.3.19-.44.1-.52-.1-.53-1.38-1.26-2.59-2.31-3.68l1.88-1.15Z"/><path class="cls-1" d="M394.49,63.12c-3.17,0-4.48.38-4.8.38-.38,0-.59-.19-.57-.67.02-.74.19-2.24.46-3.87,2,.32,3.59.38,6.82.38h10.3c2.43,0,4.91-.06,7.38-.1.49-.03.56.06.47.45-.17.96-.43,2.05-.73,3.01-.09.38-.25.51-.69.48-2.39-.03-4.75-.06-7.12-.06h-11.52Z"/><path class="cls-1" d="M433.09,58.32c.25-1.02.53-2.3.72-3.23.07-.42.14-.83.2-1.47-2.21.38-5.33.86-7.83,1.02-.5.06-.59-.35-.63-.7-.16-.64-.45-1.31-1.09-2.21,4.05-.19,6.64-.61,9.79-1.18,2.32-.48,4.01-.83,5.61-1.38,1.64-.58,2.27-.9,3.1-1.44.89.8,1.72,1.6,2.08,2.24.19.25.28.54.2.9s-.42.42-.94.45c-.7.1-1.44.38-2.15.54-2.08.54-4.15,1.02-6.13,1.41.81.1,1.51.22,1.98.42.24.06.36.22.31.45-.04.16-.17.32-.32.54-.2.29-.34.61-.49,1.09-.2.7-.38,1.44-.65,2.53h3.97c2.02,0,4.77-.16,6.23-.22.32,0,.28.16.23.51-.14.83-.41,1.82-.62,2.56-.14.45-.17.58-.56.58-2-.06-3.85-.1-6.18-.1h-3.94c-.92,2.72-1.83,4.64-3.16,6.43-1.7,2.37-4.13,4.61-6.54,5.98-.22.13-.41.22-.6.22-.16,0-.34-.06-.53-.19-1-.61-2.09-.99-3.1-1.22,3.66-1.89,5.53-3.52,7.42-5.92,1.23-1.63,2.09-3.33,2.7-5.31h-5.7c-1.15,0-3.52,0-5.12.13-.42.03-.46-.22-.43-.74-.01-.61.15-1.92.39-2.91,2.23.19,4.59.22,6.15.22h5.63Z"/><path class="cls-1" d="M458.82,63.35c-1.05.26-2.62.77-3.82,1.25-.28.1-.45.16-.61.16-.22,0-.35-.13-.44-.45-.18-.58-.31-1.47-.44-2.82,1.61-.19,3.28-.61,5.12-1.06l2.04-.51-.05-2.69c-.03-.93-.08-1.92-.53-3.23,1.35-.16,3-.35,3.83-.35.51,0,.69.19.52.64-.22.51-.38,1.15-.37,2.3l.02,2.4,7.37-1.76c.78-.19,1.23-.32,1.77-.7.16-.13.3-.19.43-.19.16,0,.32.13.47.29.42.38,1.14,1.09,1.5,1.6.12.16.18.32.14.48-.05.22-.23.42-.51.64-.4.32-.49.45-.67.67-1.65,2.18-3.14,4.1-5.08,6.02-.21.19-.36.29-.55.29-.13,0-.25-.03-.44-.16-.47-.32-1.06-.64-2.33-.96,1.67-1.47,3.3-3.17,4.58-4.9l-6.57,1.63.06,5.79c.05,2.02.12,3.58.17,5.38.01.48-.2.7-.63.86-.71.29-1.49.48-2.27.64-.44.1-.69.06-.68-.48.05-1.79.03-3.55.02-5.34l-.07-5.92-2,.48Z"/><path class="cls-1" d="M490.77,52.72c.5.16.47.54.17.99-.52.7-.73,1.41-.91,2.17-1.04,4-2.38,7.04-4.01,9.41-1.31,1.95-3.22,4.03-6,6.02-.38.26-.68.42-.93.42-.19,0-.36-.1-.55-.26-.67-.54-1.34-.93-2.39-1.34,2.96-1.89,5.12-3.84,6.86-6.37,1.42-2.18,2.27-3.94,3.54-9.05.3-1.22.36-1.73.33-2.69,1.77.22,3.19.45,3.89.7ZM494.59,66.26c1.77-.83,3.48-1.82,5.27-2.98,2.28-1.47,4.58-3.17,6.92-5.44-.14,1.12-.08,2.18.21,3.23.04.22.1.38.06.54-.05.22-.24.45-.67.8-2,1.63-3.79,2.94-5.75,4.19-1.98,1.28-4.07,2.53-6.63,3.84-.67.38-.75.45-1.09.67-.23.16-.48.25-.7.25-.19,0-.39-.1-.61-.25-.59-.48-1.12-1.31-1.45-1.95-.12-.29-.17-.48-.12-.67.04-.16.1-.29.24-.48.33-.42.39-.8.78-2.43l2.43-10.02c.68-2.78,1-4.1,1.03-5.57,1.24.16,2.95.38,3.84.67.39.1.51.29.44.54-.05.19-.21.48-.45.8-.44.61-.59,1.25-1.15,3.55l-2.6,10.69Z"/><path class="cls-1" d="M528.37,50.77c1.15,0,1.74-.03,2.28-.29.15-.1.26-.13.38-.13.19,0,.32.13.48.26.6.58,1.13,1.41,1.54,2.24.06.16.09.29.06.42-.05.19-.23.42-.57.64-.5.35-1.03.83-1.53,1.41-1.86,2.24-3.54,4.03-5.55,5.98,2.52,2.27,4.76,4.77,6.98,7.74.12.16.18.32.15.45-.03.13-.13.29-.34.48-.79.74-1.71,1.5-2.67,2.18-.16.13-.3.19-.43.19-.16,0-.26-.1-.39-.26-1.93-3.14-4.06-5.66-6.39-7.94-4.53,3.78-8.84,6.5-12.8,8.45-.32.13-.57.25-.8.25-.19,0-.36-.1-.47-.29-.49-.86-1.27-1.5-2.18-2.08,5.61-2.53,9.13-4.8,13.25-8.16,2.89-2.4,5.2-4.67,7.97-8.03l-8.26.03c-1.66,0-3.34.06-5.1.19-.26.03-.3-.19-.28-.54,0-.67.25-2.21.52-3.33,1.7.13,3.3.13,5.38.13h8.8Z"/><path class="cls-1" d="M560.26,51.73c.94-.03,1.4-.22,1.88-.48.26-.16.44-.22.6-.22s.33.1.51.26c.6.42,1.29,1.28,1.7,1.95.15.19.16.38.12.58-.05.19-.19.38-.5.61-.39.29-.79.61-1.26,1.22-2.04,2.72-4.18,5.34-6.58,7.74,1.05,1.06,2,2.18,2.67,3.23.1.13.12.29.08.45-.03.13-.13.29-.29.42-.58.54-1.82,1.57-2.47,2.02-.15.1-.29.16-.42.16-.1,0-.21-.06-.3-.19-.55-.9-1.52-2.18-2.35-3.1-4.12,3.52-8.02,6.01-12.15,8-.33.16-.61.29-.87.29-.19,0-.36-.1-.54-.29-.82-.83-1.62-1.25-2.64-1.63,5.57-2.53,9.33-4.83,13.88-8.67-.97-.99-2.17-1.98-3.88-3.01.89-.77,1.76-1.6,2.66-2.27.16-.13.31-.22.47-.22.1,0,.18.06.29.13,1.02.54,2.2,1.47,3.51,2.56,2.02-1.98,3.71-4.06,5.28-6.33l-7.97.16c-3.44,3.36-6.06,5.57-8.6,7.2-.26.16-.49.29-.71.29-.16,0-.34-.06-.46-.22-.66-.58-1.38-1.02-2.33-1.47,5.34-3.55,8.46-6.5,11.5-10.05,1.44-1.73,2.07-2.59,2.68-3.94.99.38,2.53.93,3.36,1.57.22.13.27.32.23.51-.05.23-.28.48-.54.64-.33.19-.62.45-.83.67-.36.45-.63.77-1.38,1.6l5.66-.13Z"/><path class="cls-1" d="M573.63,68.56c3.43-1.6,6.42-3.1,10.11-5.54,3.03-1.95,7.2-5.02,11.39-8.93-.15,1.41-.09,2.21.06,3.58.04.22.06.42.01.61-.06.26-.21.48-.53.74-3.75,3.2-6.2,4.96-9.92,7.39-3.3,2.11-6.72,3.94-11.03,6.02-.87.42-1.72.77-2.12,1.09-.24.19-.42.26-.58.26-.22,0-.42-.13-.55-.38-.51-.67-1.07-1.92-1.58-3.26,1.41-.25,2.61-.61,4.73-1.57ZM571.33,56.69c.21-.22.41-.38.69-.32,2.21.8,3.88,1.82,5.38,3.14.18.16.28.29.24.48-.02.1-.12.23-.21.35-.56.86-1.31,1.7-2,2.43-.21.19-.37.32-.49.32s-.21-.06-.34-.19c-1.68-1.5-3.5-2.56-5.62-3.49,1.11-1.28,1.85-2.21,2.36-2.72ZM576.99,49.33c.32-.38.52-.45.86-.26,1.85.83,3.77,2.02,5.15,3.55.16.13.19.29.16.42-.03.13-.09.26-.23.42-.64.8-1.53,1.82-2.21,2.4-.13.16-.27.19-.37.19-.16,0-.3-.1-.42-.22-1.33-1.38-3.43-3.01-5.25-3.93.75-.83,1.57-1.73,2.32-2.56ZM591.89,48.34c.19-.13.31-.1.46.06.81.77,1.65,2.05,2.21,3.42.08.19.04.35-.22.51l-1.59.99c-.26.16-.41.13-.52-.1-.6-1.47-1.33-2.69-2.33-3.71l1.98-1.18ZM595.24,46.26c.22-.13.31-.1.46.06.97.9,1.81,2.18,2.24,3.3.08.19.07.38-.24.58l-1.52.99c-.3.19-.44.1-.52-.1-.53-1.38-1.26-2.59-2.31-3.68l1.88-1.15Z"/><path class="cls-1" d="M614.2,60.08c-1.68,1.79-3.34,3.2-5.71,4.93-2,1.5-4.92,3.39-7.14,4.48-.33.19-.58.29-.81.29-.19,0-.36-.1-.47-.32-.45-.77-1.35-1.54-2.17-1.89,3.7-1.79,6.04-3.14,8.68-5.06,2.29-1.66,4.2-3.2,5.91-4.96l-5.61.03c-1.66,0-3.47.06-5.16.16-.3.03-.37-.19-.32-.54.02-.61.28-1.92.5-3.1,1.89.13,3.77.16,5.69.16h7.62l.56-2.85c.33-1.6.45-2.75.41-3.78,1.71.06,3,.16,3.95.35.3.06.37.19.32.38-.03.13-.13.29-.24.48-.19.38-.44.9-.84,2.94l-.49,2.43h2.78c2.24,0,3.85-.06,6.25-.16.32,0,.44.16.39.38-.19.9-.43,1.89-.68,2.78-.06.26-.24.45-.56.45-2.31-.1-4.12-.16-6.1-.16h-2.59l-2.35,12.03c-.32,1.7-1.15,2.75-2.36,3.39-1.24.64-3.21,1.12-4.69,1.12-.61,0-.8-.13-.86-.54-.22-1.18-.59-1.92-1.55-2.85,2.41-.03,3.45-.1,4.59-.32.78-.16,1.11-.48,1.39-1.89l1.65-8.38Z"/><line class="cls-4" x1="243.2" y1="49.39" x2="266.69" y2="72.88"/><line class="cls-4" x1="243.2" y1="72.88" x2="266.69" y2="49.39"/></g></svg>