<?xml version="1.0" encoding="UTF-8"?><svg id="_レイヤー_2" xmlns="http://www.w3.org/2000/svg" viewBox="0 0 329.63 89.56"><defs><style>.cls-1{fill:#000;stroke-width:0px;}</style></defs><g id="_レイヤー_1-2"><path class="cls-1" d="M114.73,27.99c-.31,0-.34-.03-.26-.34.05-.22.56-2.05,2.75-11.07l1.46-6c1.46-6.03,1.86-7.93,1.91-8.12.08-.34.12-.37.43-.37.22,0,1.26.06,4.28.06h10.67c3.02,0,4.12-.06,4.31-.06.31,0,.33.03.25.37-.05.19-.57,2.08-1.81,7.18l-1.68,6.9c-2.17,8.92-2.55,10.76-2.6,10.95-.08.31-.12.34-.43.34h-2.77c-.31,0-.33-.03-.26-.34l.37-1.52h-13.03l-.41,1.68c-.08.31-.11.34-.42.34h-2.77ZM132.11,22.89l1.83-7.52h-13.03l-1.83,7.52h13.03ZM121.65,12.31h13.03l1.72-7.09h-13.03l-1.72,7.09Z"/><path class="cls-1" d="M169.32,19.28c-.66,2.71-1,4.35-1.26,5.44-.28,1.15-.76,1.99-1.52,2.55-.75.53-1.98.71-4.6.78-1,0-.96-.03-.96-.93,0-.93-.09-1.68-.32-2.27.95.06,1.74.12,2.58.12.9,0,1.36-.22,1.55-1l3.79-15.61h-18.35l-3.62,14.89c-.71,2.92-1,4.38-1.05,4.57-.07.28-.11.31-.42.31h-2.8c-.31,0-.33-.03-.27-.31.05-.22.48-1.71,1.27-4.98l2.96-12.16c.79-3.26,1.1-4.79,1.15-5.01.08-.31.11-.34.42-.34.22,0,1.26.06,4.21.06h3.64c.95-1.21,1.86-2.52,2.52-3.58.35-.56.58-.99.89-1.74,1.24.16,2.5.34,3.35.53.26.06.32.22.28.4-.06.25-.22.4-.38.53-.3.22-.51.44-.71.75-.71,1-1.54,2.11-2.34,3.11h8.83c2.95,0,4.03-.06,4.21-.06.34,0,.37.03.29.34-.04.19-.52,1.9-1.32,5.16l-2.05,8.43ZM150.18,23.29c-.31,0-.33-.03-.26-.34.05-.22.3-1,1.32-5.19l.65-2.67c.58-2.39.72-3.2.77-3.42.08-.31.11-.34.42-.34.19,0,.95.06,3.28.06h4.45c2.36,0,3.12-.06,3.34-.06.31,0,.33.03.26.34-.05.19-.3,1-.76,2.89l-.71,2.92c-1,4.1-1.12,4.85-1.16,5.04-.08.31-.12.34-.43.34h-2.33c-.34,0-.37-.03-.29-.34l.23-.93h-5.69l-.33,1.37c-.08.31-.11.34-.43.34h-2.33ZM153.95,18.78h5.69l1.13-4.63h-5.69l-1.13,4.63Z"/><path class="cls-1" d="M199.32,19.25c-.27,1.12-.46,2.02-.71,3.05-.22.9-.56,1.55-1.25,2.05-.71.5-1.64.75-4.51.78-.96,0-1,0-.97-.75.06-.9-.03-1.8-.2-2.36.95.06,1.75.09,2.56.09s1.08-.22,1.28-1.03l1.66-6.81h-6.31l-2.25,9.27c-.72,2.95-1.01,4.42-1.06,4.6-.07.28-.11.31-.42.31h-2.74c-.34,0-.37-.03-.3-.31.05-.22.46-1.65,1.18-4.6l2.25-9.27h-5.75l-1.73,7.12c-.57,2.36-.74,3.3-.78,3.48-.08.31-.11.34-.43.34h-2.77c-.28,0-.3-.03-.23-.34.04-.19.33-1.09.92-3.55l1.57-6.47c.53-2.18.7-3.14.75-3.36.08-.31.12-.34.39-.34.19,0,1.26.06,4.31.06h4.48l.11-.47c.32-1.31.47-2.08.55-2.89,1.11.03,2.19.06,3.28.19.3.03.46.16.42.34-.05.19-.18.37-.33.59-.16.28-.31.65-.57,1.71l-.13.53h5.07c3.05,0,4.15-.06,4.34-.06.31,0,.33.03.26.34-.05.22-.39,1.34-.95,3.64l-1,4.1ZM181.64,7.18c-2.77,0-3.72.06-3.9.06-.31,0-.33-.03-.26-.34l.6-2.49c.08-.34.12-.37.43-.37.19,0,1.1.06,3.87.06h7.65l.26-1.09c.33-1.34.46-2.15.49-2.92,1.11.03,2.25.06,3.34.19.27.03.47.12.43.28-.05.22-.18.37-.34.62-.16.28-.31.65-.59,1.8l-.27,1.12h8.15c2.77,0,3.72-.06,3.9-.06.31,0,.33.03.25.37l-.6,2.49c-.08.31-.11.34-.43.34-.19,0-1.1-.06-3.87-.06h-19.12Z"/><path class="cls-1" d="M211.36,16.79c-1.21.99-2.47,1.96-3.69,2.77-.37.25-.62.37-.74.37-.22,0-.26-.22-.32-.71-.07-.71-.27-1.43-.53-1.93,4.15-2.49,8.08-6.13,10.54-9.61h-3.54c-2.33,0-3.09.06-3.28.06-.31,0-.33-.03-.26-.34l.56-2.3c.08-.31.11-.34.42-.34.19,0,.92.06,3.25.06h.53l.26-1.06c.33-1.37.62-2.55.67-3.76,1.17.03,2.09.09,3.18.22.3.03.45.19.42.31-.07.28-.21.47-.35.68-.28.37-.47,1.03-.81,2.42l-.29,1.18h1.03c.4,0,.58-.09.72-.16.11-.06.32-.19.45-.19.22,0,.53.25.99.9.42.59.55.93.49,1.18-.05.19-.2.31-.5.5-.26.19-.56.53-.92,1-1.11,1.49-2.41,3.02-3.8,4.51.2.47.46.9.79,1.34.69-.65,1.27-1.27,1.79-1.87.35-.4.73-.96,1.09-1.55.58.4,1.39.93,1.87,1.4.2.22.24.28.19.5-.04.16-.19.28-.39.34-.25.12-.44.28-.89.72-.84.78-1.42,1.37-2.25,2.11.55.53,1.14,1.06,1.78,1.52-.47.4-1.33,1.24-1.78,1.8-.39.44-.56.65-.75.65-.16,0-.3-.15-.54-.47-.78-.9-1.54-1.99-2.12-3.05l-2.08,8.58c-.57,2.33-.77,3.42-.81,3.58-.08.31-.11.34-.42.34h-2.52c-.31,0-.33-.03-.26-.34.04-.19.36-1.24.93-3.58l1.9-7.8ZM229.38,5.6c-1.28,4.88-2.75,9.27-4.93,13.12-2.16,3.76-4.88,6.65-8.5,9.14-.38.28-.57.44-.73.44-.19,0-.29-.22-.49-.65-.33-.68-1.03-1.4-1.5-1.77,3.77-2.08,6.5-5.01,8.51-8.52,1.9-3.33,3.11-7.15,4.25-11.75h-.16c-2.8,0-3.75.06-3.93.06-.34,0-.37-.03-.29-.34l.6-2.46c.08-.34.12-.37.46-.37.19,0,1.1.06,3.9.06h6.65c2.8,0,3.78-.06,3.96-.06.31,0,.36.06.28.4-.31,1.03-.52,1.9-.73,2.77-1.98,8.02-3.73,14.05-5.48,18.35-1.08,2.64-2.59,4.01-5.55,4.01-1,0-1.62.03-2.41-.06-.73-.06-.72-.12-.65-1.18.06-.75.05-1.74-.24-2.33,1.55.28,2.44.31,3.47.31,1.28,0,2.02-.75,2.57-2.15,1.38-3.39,3-8.77,5-17.01h-4.07Z"/><path class="cls-1" d="M11.36,52.64c-1.93,7.93-2.25,9.51-2.3,9.7-.08.31-.11.34-.42.34h-2.24c-.28,0-.3-.03-.23-.34l.33-1.34h-2.95l-.59,2.43c-.08.31-.11.34-.42.34H.29c-.31,0-.33-.03-.26-.34.05-.22.52-1.87,2.56-10.26l1.41-5.81c1.41-5.82,1.77-7.53,1.82-7.74.08-.31.11-.34.42-.34.22,0,.79.06,2.69.06h2.67c1.9,0,2.5-.06,2.72-.06.31,0,.33.03.26.34-.05.19-.5,1.8-1.68,6.65l-1.55,6.38ZM7.19,58.18l1.66-6.84h-2.95l-1.66,6.84h2.95ZM8.13,42.16l-1.56,6.41h2.96l1.56-6.41h-2.96ZM11.15,66.2c-.31,0-.33-.03-.26-.34.04-.19.32-1.06,1.46-5.75l.72-2.95c.7-2.89.85-3.76.91-3.98.08-.31.11-.34.42-.34.19,0,1.04.06,3.65.06h5.41c2.58,0,3.5-.06,3.65-.06.34,0,.37.03.29.34-.05.19-.33,1.09-.92,3.51l-.82,3.36c-1.14,4.7-1.29,5.57-1.34,5.75-.07.28-.11.31-.45.31h-2.27c-.34,0-.37-.03-.3-.31l.26-1.06h-7.43l-.27,1.12c-.08.31-.11.34-.43.34h-2.3ZM17.1,51.06c-2.98,0-4.03.06-4.21.06-.31,0-.33-.03-.25-.37l.53-2.18c.08-.31.11-.34.42-.34.19,0,1.2.06,4.18.06h5.72c.62-1.03,1.2-2.11,1.49-2.67.24-.47.45-.96.67-1.62.96.16,1.94.34,2.7.53.32.09.43.16.38.34-.05.22-.17.31-.36.47-.19.16-.42.47-.63.81-.41.65-.81,1.27-1.39,2.15h.19c2.95,0,4-.06,4.18-.06.34,0,.37.03.29.34l-.53,2.18c-.08.34-.12.37-.46.37-.19,0-1.2-.06-4.15-.06h-8.77ZM22.18,62.28l.58-2.39h-7.43l-.58,2.39h7.43ZM19.47,43.72c-2.83,0-3.84.06-4.06.06-.31,0-.33-.03-.25-.37l.52-2.15c.07-.28.11-.31.42-.31.22,0,1.2.06,4.03.06h1.8l.14-.56c.28-1.15.41-1.96.44-2.71,1.17.03,2.15.09,3.22.19.3.03.46.16.42.31-.05.22-.18.37-.33.59-.15.22-.32.68-.56,1.65l-.13.53h2.52c2.83,0,3.84-.06,4.03-.06.34,0,.37.03.3.31l-.52,2.15c-.08.34-.12.37-.46.37-.19,0-1.17-.06-4-.06h-7.53ZM15.9,57.53h7.43l.53-2.18h-7.43l-.53,2.18ZM19.4,44.03c.37-.09.44-.03.53.25.23.84.39,1.87.4,2.71.02.31-.02.34-.45.43l-2,.53c-.4.09-.47.03-.48-.34,0-.87-.11-1.83-.33-2.61-.1-.34,0-.4.43-.5l1.89-.47Z"/><path class="cls-1" d="M46.53,38.53c2.02,0,2.96-.03,3.15-.03.31,0,.33.03.27.31-.04.19-.3.99-.73,2.74l-.69,2.83c-.42,1.71-.55,2.52-.59,2.71-.08.31-.11.34-.42.34-.19,0-1.11-.06-3.13-.06h-5.19l-2.87,11.82c-1.07,4.42-1.53,6.56-1.58,6.78-.07.28-.11.31-.42.31h-2.61c-.31,0-.34-.03-.27-.31.05-.22.64-2.36,1.71-6.78l3.29-13.53c1.07-4.42,1.55-6.62,1.6-6.84.07-.28.11-.31.42-.31.22,0,1.39.03,3.69.03h4.38ZM42.56,55.41c-2.83,0-3.81.06-4,.06-.34,0-.37-.03-.29-.34l.34-1.4c.08-.31.11-.34.46-.34.19,0,1.14.06,3.97.06-.06-.65-.19-1.27-.32-1.9-1.31.03-1.88.06-2,.06-.31,0-.33-.03-.25-.37l.32-1.31c.08-.34.12-.37.43-.37.19,0,1.1.06,3.81.06h1.87c.19-.78.27-1.37.29-1.96.99.03,1.73.06,2.71.12.3.03.44.12.41.25-.04.19-.15.34-.32.53-.18.22-.25.53-.37.99v.06s2.07,0,2.07,0c2.74,0,3.68-.06,3.87-.06.31,0,.33.03.25.37l-.32,1.31c-.08.34-.12.37-.43.37-.15,0-.71-.03-2.01-.06-.48.68-.94,1.31-1.42,1.9h.47c2.83,0,3.81-.06,4-.06.34,0,.37.03.29.34l-.34,1.4c-.08.31-.11.34-.46.34-.19,0-1.14-.06-3.96-.06h-9.05ZM38.78,65.33c-.34,0-.37-.03-.29-.34.04-.19.26-.81,1.07-4.17l.4-1.65c.35-1.46.45-2.12.5-2.3.08-.31.11-.34.46-.34.19,0,.98.06,3.4.06h4.7c2.42,0,3.22-.06,3.43-.06.31,0,.33.03.26.34-.04.16-.27.84-.57,2.08l-.42,1.74c-.8,3.3-.9,3.95-.94,4.13-.08.31-.11.34-.43.34h-2.02c-.31,0-.33-.03-.26-.34l.14-.59h-6.84l-.18.75c-.08.31-.12.34-.43.34h-1.99ZM45.62,43.94h-5.6l-.33,1.34h5.6l.33-1.34ZM40.82,40.67l-.33,1.34h5.6l.33-1.34h-5.6ZM48.65,62.44l.29-1.21h-6.84l-.29,1.21h6.84ZM42.5,59.61h6.84l.29-1.21h-6.84l-.29,1.21ZM45.42,51.55c.14.59.26,1.24.35,1.9h3.2c.47-.65.9-1.27,1.3-1.9h-4.85ZM60.07,56.03c-.53,2.18-1.01,4.66-1.38,6.19-.36,1.49-.75,2.18-1.6,2.86-.7.56-1.7.84-4.06.84-.96,0-1,0-.92-.96.06-.9-.01-1.62-.17-2.24.75.12,1.33.16,2.02.16,1,0,1.33-.25,1.57-1.21l3.48-14.3h-5.22c-2.43,0-3.25.06-3.44.06-.34,0-.37-.03-.29-.34.05-.22.27-.84.67-2.49l.79-3.26c.41-1.68.5-2.3.55-2.52.07-.28.11-.31.45-.31.19,0,.99.03,3.41.03h4.63c2.46,0,3.3-.03,3.49-.03.31,0,.33.03.27.31-.05.19-.42,1.49-1.08,4.2l-3.17,13.03ZM59.51,45.27l.32-1.34h-5.94l-.32,1.34h5.94ZM54.69,40.67l-.33,1.34h5.94l.33-1.34h-5.94Z"/><path class="cls-1" d="M73.08,49.56c1.3-1.9,2.15-3.48,2.52-4.6,1.45.56,2.71,1.12,3.47,1.59.25.12.3.31.25.5-.05.22-.23.44-.46.62-.43.34-.78.78-1.55,1.9-2.84,4.14-5.44,7.31-9.19,10.45-.36.31-.67.47-.99.47-.25,0-.44-.09-.64-.31-.5-.5-1.38-.99-2.41-1.34,3.97-2.89,7.07-6.44,9-9.27ZM85.73,45.34c.19-.12.36-.19.48-.19.16,0,.26.06.41.25,2.57,3.39,4.2,7.43,5.03,11.41.06.16.06.28.02.44-.04.19-.18.34-.43.5-.7.47-1.86,1.12-2.98,1.65-.45.19-.65.12-.68-.28-1.04-5.19-2.46-8.83-4.74-12.1,1.3-.75,2.28-1.34,2.89-1.68ZM90.28,41.6c.19-.12.3-.09.45.06.78.75,1.6,1.99,2.15,3.33.08.19.04.34-.21.5l-1.54.96c-.26.16-.4.12-.51-.09-.58-1.43-1.29-2.61-2.26-3.61l1.93-1.15ZM93.54,39.58c.22-.12.3-.09.45.06.94.87,1.76,2.11,2.18,3.2.08.19.07.37-.23.56l-1.48.96c-.29.19-.43.09-.51-.09-.51-1.34-1.22-2.52-2.24-3.58l1.83-1.12Z"/><path class="cls-1" d="M103.15,54.2c-3.08,0-4.35.37-4.66.37-.37,0-.58-.19-.56-.65.02-.72.19-2.18.45-3.76,1.95.31,3.49.37,6.63.37h10.01c2.36,0,4.77-.06,7.18-.09.47-.03.54.06.45.44-.16.93-.42,1.99-.71,2.92-.09.37-.25.5-.67.47-2.32-.03-4.62-.06-6.92-.06h-11.19Z"/><path class="cls-1" d="M140.59,49.53c.24-.99.51-2.24.7-3.14.07-.4.13-.81.19-1.43-2.14.37-5.18.84-7.61,1-.48.06-.57-.34-.61-.68-.16-.62-.44-1.27-1.07-2.15,3.93-.19,6.46-.59,9.52-1.15,2.26-.47,3.9-.81,5.46-1.34,1.6-.56,2.2-.87,3.01-1.4.87.78,1.67,1.55,2.02,2.18.19.25.28.53.19.87-.08.34-.41.4-.91.43-.68.09-1.4.37-2.09.53-2.03.53-4.04,1-5.96,1.37.79.09,1.47.22,1.92.4.23.06.35.22.3.44-.04.16-.17.31-.31.53-.19.28-.33.59-.47,1.06-.2.68-.37,1.4-.63,2.46h3.86c1.96,0,4.64-.16,6.05-.22.31,0,.27.16.22.5-.13.81-.4,1.77-.6,2.49-.14.44-.17.56-.54.56-1.94-.06-3.74-.09-6.01-.09h-3.82c-.89,2.64-1.78,4.51-3.07,6.25-1.65,2.3-4.01,4.48-6.36,5.81-.22.12-.39.22-.58.22-.16,0-.33-.06-.51-.19-.98-.59-2.04-.96-3.01-1.18,3.56-1.83,5.37-3.42,7.21-5.75,1.19-1.59,2.03-3.23,2.62-5.16h-5.54c-1.12,0-3.42,0-4.97.12-.41.03-.44-.22-.42-.72-.01-.59.14-1.87.38-2.83,2.16.19,4.46.22,5.98.22h5.47Z"/><path class="cls-1" d="M165.46,54.42c-1.02.25-2.54.75-3.71,1.21-.27.09-.44.16-.6.16-.22,0-.34-.12-.42-.44-.17-.56-.3-1.43-.42-2.74,1.57-.19,3.19-.59,4.98-1.03l1.99-.5-.05-2.61c-.03-.9-.08-1.87-.51-3.14,1.31-.16,2.91-.34,3.72-.34.5,0,.67.19.5.62-.21.5-.37,1.12-.36,2.24l.02,2.33,7.16-1.71c.76-.19,1.2-.31,1.72-.68.16-.12.29-.19.42-.19.16,0,.31.12.46.28.41.37,1.11,1.06,1.46,1.55.12.16.17.31.14.47-.05.22-.22.4-.49.62-.39.31-.48.44-.66.65-1.6,2.11-3.05,3.98-4.93,5.85-.2.19-.35.28-.53.28-.12,0-.24-.03-.43-.16-.45-.31-1.03-.62-2.26-.93,1.62-1.43,3.2-3.08,4.45-4.76l-6.39,1.58.06,5.63c.05,1.96.12,3.48.16,5.22.01.47-.2.68-.61.84-.69.28-1.45.47-2.2.62-.43.09-.67.06-.66-.47.05-1.74.03-3.45.02-5.19l-.06-5.75-1.95.47Z"/><path class="cls-1" d="M196.45,44.09c.49.16.46.53.17.96-.51.68-.71,1.37-.89,2.11-1.01,3.89-2.32,6.84-3.9,9.14-1.27,1.9-3.13,3.92-5.83,5.85-.37.25-.66.4-.91.4-.19,0-.35-.09-.53-.25-.65-.53-1.3-.9-2.33-1.31,2.87-1.83,4.98-3.73,6.67-6.19,1.39-2.11,2.21-3.82,3.44-8.8.29-1.18.35-1.68.32-2.61,1.72.22,3.1.44,3.78.68ZM200.15,57.25c1.72-.81,3.38-1.77,5.12-2.89,2.21-1.43,4.45-3.08,6.73-5.29-.14,1.09-.08,2.11.2,3.14.04.22.1.37.06.53-.05.22-.23.43-.66.78-1.94,1.58-3.68,2.86-5.59,4.07-1.92,1.24-3.95,2.46-6.44,3.73-.65.37-.73.43-1.06.65-.22.16-.46.25-.68.25-.19,0-.38-.09-.59-.25-.57-.47-1.09-1.28-1.41-1.9-.12-.28-.17-.47-.12-.65.04-.16.1-.28.24-.47.32-.4.38-.78.76-2.36l2.36-9.73c.66-2.71.97-3.98,1-5.41,1.21.16,2.86.37,3.73.65.38.09.49.28.43.53-.04.19-.21.47-.44.78-.42.59-.57,1.21-1.12,3.45l-2.52,10.39Z"/><path class="cls-1" d="M232.92,42.2c1.12,0,1.69-.03,2.21-.28.15-.09.25-.12.37-.12.19,0,.31.12.47.25.58.56,1.1,1.37,1.49,2.18.06.16.09.28.06.4-.04.19-.22.4-.56.62-.49.34-1,.81-1.48,1.37-1.8,2.18-3.44,3.92-5.39,5.82,2.45,2.21,4.63,4.63,6.79,7.53.12.16.17.31.14.44-.03.12-.13.28-.33.47-.76.72-1.66,1.46-2.6,2.11-.15.12-.29.19-.42.19-.16,0-.26-.09-.38-.25-1.87-3.05-3.95-5.5-6.21-7.71-4.41,3.67-8.59,6.31-12.44,8.21-.31.12-.56.25-.77.25-.19,0-.35-.09-.46-.28-.48-.84-1.23-1.46-2.12-2.02,5.45-2.46,8.88-4.66,12.87-7.93,2.81-2.33,5.05-4.54,7.74-7.8l-8.03.03c-1.62,0-3.25.06-4.96.19-.25.03-.3-.19-.27-.53,0-.65.24-2.15.5-3.23,1.65.12,3.21.12,5.23.12h8.55Z"/><path class="cls-1" d="M263.77,43.13c.91-.03,1.36-.22,1.82-.47.26-.16.43-.22.58-.22s.32.09.5.25c.58.4,1.25,1.24,1.65,1.9.14.19.16.37.11.56-.05.19-.18.37-.49.59-.38.28-.77.59-1.22,1.18-1.98,2.64-4.06,5.19-6.4,7.53,1.02,1.03,1.94,2.11,2.59,3.14.09.12.12.28.08.44-.03.12-.13.28-.29.4-.56.53-1.77,1.52-2.4,1.96-.15.09-.29.15-.41.15-.09,0-.2-.06-.3-.19-.54-.87-1.48-2.11-2.28-3.02-4,3.42-7.79,5.85-11.81,7.77-.32.16-.6.28-.85.28-.19,0-.35-.09-.52-.28-.8-.81-1.57-1.21-2.57-1.59,5.42-2.46,9.07-4.7,13.49-8.43-.95-.96-2.11-1.93-3.77-2.92.87-.75,1.71-1.55,2.59-2.21.15-.12.3-.22.46-.22.09,0,.17.06.28.12.99.53,2.14,1.43,3.41,2.49,1.96-1.93,3.6-3.95,5.13-6.16l-7.75.16c-3.34,3.26-5.89,5.41-8.36,7-.25.16-.47.28-.69.28-.16,0-.33-.06-.44-.22-.64-.56-1.34-.99-2.26-1.43,5.19-3.45,8.22-6.31,11.17-9.76,1.4-1.68,2.01-2.52,2.61-3.82.97.37,2.45.9,3.27,1.52.22.12.27.31.22.5-.05.22-.27.47-.52.62-.33.19-.6.44-.81.65-.35.44-.62.75-1.34,1.55l5.5-.12Z"/><path class="cls-1" d="M276.62,59.48c3.33-1.55,6.24-3.02,9.83-5.38,2.95-1.9,7-4.88,11.06-8.68-.15,1.37-.09,2.15.06,3.48.04.22.06.4.01.59-.06.25-.21.47-.52.71-3.65,3.11-6.02,4.82-9.64,7.18-3.2,2.05-6.53,3.82-10.72,5.85-.84.4-1.67.75-2.06,1.06-.23.19-.4.25-.56.25-.22,0-.41-.12-.53-.37-.49-.65-1.04-1.87-1.53-3.17,1.37-.25,2.54-.59,4.6-1.52ZM274.39,47.95c.21-.22.4-.37.67-.31,2.14.78,3.77,1.77,5.23,3.05.18.16.27.28.23.47-.02.09-.12.22-.21.34-.55.84-1.27,1.65-1.94,2.36-.2.19-.35.31-.48.31s-.2-.06-.33-.19c-1.64-1.46-3.41-2.49-5.46-3.39,1.08-1.24,1.8-2.15,2.29-2.64ZM279.89,40.8c.31-.37.51-.44.84-.25,1.79.81,3.66,1.96,5.01,3.45.16.12.18.28.15.4s-.09.25-.22.4c-.62.78-1.49,1.77-2.15,2.33-.13.16-.26.19-.36.19-.16,0-.29-.09-.41-.22-1.29-1.34-3.33-2.92-5.1-3.83.72-.81,1.53-1.68,2.25-2.49ZM294.37,39.83c.19-.12.3-.09.45.06.78.75,1.6,1.99,2.15,3.33.08.19.04.34-.21.5l-1.54.96c-.26.16-.4.12-.51-.09-.59-1.43-1.29-2.61-2.26-3.61l1.93-1.15ZM297.62,37.81c.22-.12.3-.09.45.06.94.87,1.76,2.12,2.18,3.2.08.19.06.37-.23.56l-1.48.96c-.29.19-.43.09-.51-.09-.51-1.34-1.22-2.52-2.24-3.58l1.83-1.12Z"/><path class="cls-1" d="M315.92,51.24c-1.64,1.74-3.24,3.11-5.55,4.79-1.94,1.46-4.78,3.29-6.94,4.35-.33.19-.57.28-.78.28-.19,0-.35-.09-.45-.31-.44-.75-1.32-1.49-2.1-1.84,3.59-1.74,5.87-3.05,8.44-4.91,2.23-1.62,4.08-3.11,5.74-4.82l-5.45.03c-1.62,0-3.37.06-5.01.16-.29.03-.36-.19-.31-.53.02-.59.27-1.87.48-3.02,1.84.12,3.66.16,5.53.16h7.4l.55-2.77c.32-1.55.43-2.67.39-3.67,1.66.06,2.92.16,3.83.34.3.06.36.19.31.37-.03.12-.13.28-.24.47-.18.37-.43.87-.82,2.86l-.48,2.36h2.71c2.18,0,3.75-.06,6.07-.16.31,0,.43.16.38.37-.18.87-.41,1.83-.66,2.71-.06.25-.23.44-.54.44-2.25-.09-4-.16-5.93-.16h-2.52l-2.28,11.69c-.31,1.65-1.12,2.67-2.29,3.3-1.21.62-3.12,1.09-4.55,1.09-.59,0-.78-.12-.84-.53-.22-1.15-.57-1.87-1.5-2.77,2.34-.03,3.35-.09,4.46-.31.75-.16,1.08-.47,1.35-1.83l1.61-8.15Z"/><rect class="cls-1" x="53.51" y="82.79" width="219.37" height="6.77"/></g></svg>