<?xml version="1.0" encoding="UTF-8"?><svg id="_レイヤー_2" xmlns="http://www.w3.org/2000/svg" viewBox="0 0 41.57 53.1"><defs><style>.cls-1{fill:#b7d100;stroke-width:0px;}</style></defs><g id="_レイヤー_2-2"><path class="cls-1" d="M36.5,21.25v-5.53c0-4.33-1.77-8.28-4.6-11.11C29.07,1.77,25.11,0,20.79,0c-4.33,0-8.28,1.77-11.11,4.6-2.84,2.83-4.6,6.79-4.6,11.11v5.53H0v21.79c0,5.56,4.5,10.06,10.06,10.06h21.46c5.55,0,10.06-4.5,10.06-10.06v-21.79h-5.07ZM12.7,15.72c0-1.13.23-2.18.63-3.15.61-1.45,1.64-2.69,2.93-3.56,1.3-.87,2.83-1.38,4.52-1.38,1.13,0,2.18.23,3.15.63,1.45.61,2.69,1.64,3.56,2.93.87,1.29,1.38,2.83,1.38,4.52v5.53H12.7v-5.53ZM20.79,40.69c-2.87,0-5.2-2.33-5.2-5.2s2.33-5.2,5.2-5.2,5.2,2.33,5.2,5.2-2.33,5.2-5.2,5.2Z"/></g></svg>