<?xml version="1.0" encoding="UTF-8"?><svg id="_レイヤー_2" xmlns="http://www.w3.org/2000/svg" viewBox="0 0 73.14 65.33"><defs><style>.cls-1{fill:#b7d100;stroke-width:0px;}</style></defs><g id="_レイヤー_1-2"><path class="cls-1" d="M33.19,10.27c2.83.29,5.36-1.76,5.65-4.59.29-2.83-1.76-5.36-4.59-5.65-2.83-.29-5.36,1.76-5.65,4.59-.29,2.83,1.76,5.36,4.59,5.65Z"/><path class="cls-1" d="M25.65,17.57l-1.32,18.07h0l-.35,3.07-.36,2.82-3.71,1.04-5.69,1.58c-1.42.36-2.28,1.79-1.93,3.2.36,1.41,1.79,2.26,3.21,1.9l5.76-1.31,2.88-.65.72-.16,1.29-.31,2.78-.66.65-4.28.38-2.34.62-3.81,3.77,1.84,2.83,1.38,2.27,1.1.43.51.91,1.08,1.81,2.17,3.63,4.34c1.02,1.29,2.89,1.5,4.16.49,1.28-1.02,1.48-2.88.46-4.17l-3.42-4.51-1.71-2.25-.85-1.13-.45-.59-.83-1.07-1.3-.69-.69-.38-1.38-.76-2.76-1.51-2.6-1.43,1.75-10.58.14.09,2.04,1.27,1.55.98,1.28.82c.39.25.89.22,1.25-.07l2.31-1.88,1.56-1.3,3.12-2.6c.96-.76,1.12-2.14.37-3.09-.75-.95-2.14-1.1-3.09-.35l-3.24,2.44-1.81,1.34-2.6-1.76-3.76-2.59c-.9-.8-2.25-1.29-4.03-1.47-1.53-.16-5.12.4-6.4.55l-7.75,1.01c-.57.07-1.05.47-1.23,1.01l-2.62,7.77c-.17,1.25.41,2.12,1.63,2.41,1.27.31,2.41-.54,2.87-1.79l1.83-4.61,5.59-.21Z"/><path class="cls-1" d="M67.14,59.03H6.12c-1.14,0-2.07-.93-2.07-2.07s.93-2.07,2.07-2.07h58.33l-8.85-33.91c-.29-1.11.37-2.24,1.48-2.53,1.11-.29,2.24.38,2.53,1.48l9.53,36.5c.16.62.03,1.28-.37,1.79-.39.51-1,.81-1.64.81Z"/><path class="cls-1" d="M59.05,22.53h-5.88c-1.14,0-2.07-.93-2.07-2.07s.93-2.07,2.07-2.07h3.01l3.37-8.94c.4-1.07,1.6-1.62,2.67-1.21,1.07.4,1.61,1.6,1.21,2.67l-4.38,11.63Z"/><rect class="cls-1" y="50.76" width="73.14" height="14.57" rx="4.7" ry="4.7"/></g></svg>