<?xml version="1.0" encoding="UTF-8"?><svg id="_レイヤー_2" xmlns="http://www.w3.org/2000/svg" viewBox="0 0 79.15 57.93"><defs><style>.cls-1{fill:#b7d100;stroke-width:0px;}</style></defs><g id="_レイヤー_2-2"><path class="cls-1" d="M45.82,6.25c0,3.45-2.8,6.25-6.25,6.25s-6.25-2.8-6.25-6.25,2.8-6.25,6.25-6.25,6.25,2.8,6.25,6.25Z"/><path class="cls-1" d="M39.79,41.59c.29-2.21-.29-3.86-2.26-4.99-1.92-1.1-3.74-3.08-4.98-1.52l-10.7,4.27s.15,12.93.69,16.14c.55,3.21,5.69,3.36,5.84-.22.05-1.27.05-11.28.05-11.28l11.37-2.4Z"/><path class="cls-1" d="M39.36,41.59c-.29-2.21.29-3.86,2.26-4.99,1.92-1.1,3.74-3.08,4.98-1.52l10.7,4.27s-.15,12.93-.69,16.14c-.55,3.21-5.69,3.36-5.84-.22-.05-1.27-.05-11.28-.05-11.28l-11.37-2.4Z"/><path class="cls-1" d="M39,21.59l-3.8-6.87-12.63,2.14c-1.47.16-2.46,1.43-2.44,2.79l.48,10.46c.1,1.77,1.46,3.04,3.05,2.89,1.58-.15,2.76-1.34,2.66-3.18l-.15-6.61,12.83-1.62Z"/><path class="cls-1" d="M39.58,14.29c-2.78,0-6.91.63-9.17,1.24l1.62,26.48s5.9-1.29,7.55-1.29c1.65,0,7.55,1.29,7.55,1.29l1.62-26.48c-2.25-.61-6.39-1.24-9.17-1.24Z"/><path class="cls-1" d="M40.16,21.59l3.8-6.87,12.63,2.14c1.47.16,2.46,1.43,2.44,2.79l-.48,10.46c-.1,1.77-1.46,3.04-3.05,2.89-1.58-.15-2.76-1.34-2.66-3.18l.15-6.61-12.83-1.62Z"/><rect class="cls-1" x="11.02" y="20.37" width="3.41" height="17.21" rx=".57" ry=".57"/><rect class="cls-1" x="15.36" y="20.37" width="3.41" height="17.21" rx=".57" ry=".57"/><rect class="cls-1" x="7.58" y="21.7" width="2.62" height="14.55" rx=".5" ry=".5"/><rect class="cls-1" x="64.72" y="20.37" width="3.41" height="17.21" rx=".57" ry=".57" transform="translate(132.85 57.95) rotate(180)"/><rect class="cls-1" x="60.39" y="20.37" width="3.41" height="17.21" rx=".57" ry=".57" transform="translate(124.18 57.95) rotate(180)"/><rect class="cls-1" x="68.95" y="21.7" width="2.62" height="14.55" rx=".5" ry=".5" transform="translate(140.53 57.95) rotate(180)"/><rect class="cls-1" x="38.17" y="-10.6" width="2.81" height="79.15" transform="translate(10.6 68.55) rotate(-90)"/></g></svg>