<?xml version="1.0" encoding="UTF-8"?><svg id="_レイヤー_2" xmlns="http://www.w3.org/2000/svg" viewBox="0 0 68.24 68.97"><defs><style>.cls-1{fill:#b7d100;stroke-width:0px;}</style></defs><g id="_レイヤー_2-2"><path class="cls-1" d="M35.79,23.73L25.48,1.48c-.47-1.2-1.82-1.79-3-1.32-1.19.47-1.77,1.82-1.29,3.01l9.48,22.58c.56,1.43,2.17,2.13,3.58,1.57,1.42-.56,2.11-2.17,1.54-3.59Z"/><path class="cls-1" d="M44.59,65.91l-2.02-22.18c-.21-1.82-1.75-3.13-3.45-2.94-1.7.19-2.91,1.82-2.7,3.64l3.01,22.07c.17,1.52,1.47,2.62,2.89,2.46,1.42-.16,2.44-1.53,2.26-3.05Z"/><path class="cls-1" d="M43.08,11.64c0,3.02-2.45,5.47-5.47,5.47s-5.47-2.45-5.47-5.47,2.45-5.47,5.47-5.47,5.47,2.45,5.47,5.47Z"/><path class="cls-1" d="M56.41,30.29c-.07-1.22-1.12-2.15-2.35-2.08l-3.71.12-2.39.05-5.05-7.61c-.84-1.2-2.49-1.49-3.68-.66-1.19.84-1.47,2.49-.63,3.69l3.11,4.21,1.56,2.1.86,1.17,1.46,2.02,3.17-.22,1.85-.15,3.7-.3c1.23-.07,2.17-1.11,2.1-2.33Z"/><path class="cls-1" d="M31.18,43.85l-.85-19.51c-.23-3.77,2-5.69,6.76-5.69s6.99,1.92,6.76,5.69l-1.21,20.55-11.45-1.04Z"/><path class="cls-1" d="M23,35.84l7.69,1.54,5.02.95c1.86.4,3.05,2.22,2.66,4.07-.39,1.85.93,3.95-.93,3.55l-8.8-2.16.78,8.31c.19,1.59-.92,3.03-2.5,3.22s-3-.94-3.2-2.52l-.94-6.43-.24-1.61-.41-3-.61-4.54c-.11-.84.63-1.54,1.46-1.37Z"/><rect class="cls-1" x="3.31" y="22.8" width="2.16" height="14.33" transform="translate(-4.89 1.14) rotate(-9.52)"/><path class="cls-1" d="M6.36,36.08h0c-.79-1.4-2.79-1.77-4.45-.83-.78.44-1.38,1.11-1.69,1.88-.33.82-.29,1.66.11,2.37.4.7,1.1,1.17,1.98,1.31.38.06.77.06,1.16,0,.45-.08.9-.24,1.32-.47,1.66-.94,2.37-2.85,1.58-4.24Z"/><polygon class="cls-1" points="15.51 18.64 17.88 32.78 15.75 33.13 13.44 19.33 15.51 18.64"/><path class="cls-1" d="M17.6,32h0c-.79-1.4-2.79-1.77-4.45-.83-.78.44-1.38,1.11-1.69,1.88-.33.82-.29,1.66.11,2.37.4.7,1.1,1.17,1.98,1.31.38.06.77.06,1.16,0,.45-.08.9-.24,1.32-.47,1.66-.94,2.37-2.85,1.58-4.24Z"/><polygon class="cls-1" points="15.51 18.64 16.24 22.95 14.16 23.64 3.65 27.13 2.14 23.08 13.44 19.33 15.51 18.64"/><path class="cls-1" d="M59.27,1.11c2.01.39,3.76,1.29,5.21,2.47,1.45,1.18,2.63,2.69,3.28,4.44.32.87.5,1.8.48,2.73-.02.92-.23,1.82-.6,2.61-.37.8-.87,1.5-1.44,2.09-.58.59-1.22,1.09-1.88,1.54.54-.6,1.02-1.23,1.4-1.9.38-.67.65-1.39.78-2.1.13-.71.11-1.42-.05-2.08-.16-.66-.46-1.27-.84-1.82-.77-1.1-1.88-1.94-3.09-2.49-1.2-.55-2.52-.8-3.67-.7l.43-4.78Z"/><rect class="cls-1" x="51.74" y="8.6" width="15.91" height="2.4" transform="translate(44.64 68.39) rotate(-84.9)"/><path class="cls-1" d="M60.1,16.92h0c-.46-1.72-2.5-2.68-4.55-2.14-.96.26-1.79.8-2.34,1.54-.58.79-.78,1.71-.55,2.57.23.87.85,1.56,1.76,1.96.39.17.81.28,1.24.31.51.05,1.04,0,1.55-.14,2.05-.55,3.35-2.39,2.89-4.12Z"/><rect class="cls-1" x="56.01" y="41.87" width="17.74" height="2.68" transform="translate(10.66 99.21) rotate(-79.59)"/><path class="cls-1" d="M64.59,51.16h0c-.33-1.96-2.5-3.24-4.83-2.84-1.1.18-2.07.71-2.76,1.47-.73.82-1.04,1.81-.87,2.8.17.99.79,1.82,1.75,2.36.41.23.87.39,1.35.48.56.1,1.15.11,1.74,0,2.33-.39,3.96-2.31,3.63-4.27Z"/></g></svg>