<?xml version="1.0" encoding="UTF-8"?><svg id="_レイヤー_2" xmlns="http://www.w3.org/2000/svg" viewBox="0 0 55.55 57.74"><defs><style>.cls-1{fill:#b7d100;stroke-width:0px;}</style></defs><g id="_レイヤー_2-2"><path class="cls-1" d="M41.93,0s-6.05,7.66-10.07,15.01c.08.12.15.24.23.36,6.61,10.28,9.91,17.84,10.08,23.11,7.41-.13,13.38-6.17,13.38-13.61,0-7.52-13.55-24.87-13.62-24.87Z"/><path class="cls-1" d="M0,38.91c0,10.4,8.43,18.83,18.83,18.83s18.83-8.43,18.83-18.83S18.93,4.53,18.83,4.53c-.1,0-18.83,23.98-18.83,34.38ZM12.43,47.58c-2.51,0-4.55-2.04-4.55-4.55s2.04-4.55,4.55-4.55,4.55,2.04,4.55,4.55-2.04,4.55-4.55,4.55Z"/></g></svg>