<?xml version="1.0" encoding="UTF-8"?><svg id="_レイヤー_2" xmlns="http://www.w3.org/2000/svg" viewBox="0 0 72.27 70.03"><defs><style>.cls-1{fill:#b7d100;stroke-width:0px;}</style></defs><g id="_レイヤー_2-2"><path class="cls-1" d="M66.68,2.51v9.91c1.37,1.54,3.36,2.51,5.59,2.51V0c-2.22,0-4.22.97-5.59,2.51Z"/><path class="cls-1" d="M19.69,25.69c-.56,1.02-.19,2.3.83,2.87l24.49,13.51c1.02.56,2.31.19,2.87-.83l.98-1.77-28.19-15.54-.98,1.77Z"/><path class="cls-1" d="M44.57,22.04l.81-1.47c.42-.76.14-1.71-.61-2.12l-4.14-2.29c-.76-.42-1.71-.14-2.12.61l-.81,1.48c-5.88-1.59-12.19.19-16.36,4.61l28.07,15.48c1.51-5.88-.35-12.18-4.83-16.3Z"/><path class="cls-1" d="M.22,47.06c-.48.87-.16,1.96.7,2.44.87.48,1.96.16,2.44-.7.48-.87-.03-3.66-.03-3.66,0,0-2.63,1.06-3.11,1.93Z"/><path class="cls-1" d="M9.43,52.14c-.48.87-.16,1.96.7,2.43.87.48,1.96.16,2.43-.7.48-.87-.03-3.66-.03-3.66,0,0-2.63,1.06-3.11,1.93Z"/><path class="cls-1" d="M18.64,57.22c-.48.87-.16,1.96.71,2.44.87.48,1.96.16,2.44-.7.48-.87-.03-3.66-.03-3.66,0,0-2.63,1.06-3.11,1.93Z"/><path class="cls-1" d="M27.85,62.3c-.48.87-.16,1.96.7,2.44.87.48,1.96.16,2.44-.71.48-.87-.03-3.66-.03-3.66,0,0-2.63,1.06-3.11,1.93Z"/><path class="cls-1" d="M37.06,67.37c-.48.87-.16,1.96.7,2.43.87.48,1.96.16,2.44-.7.48-.87-.03-3.66-.03-3.66,0,0-2.63,1.06-3.11,1.93Z"/><path class="cls-1" d="M10.11,43.74c.87.48,1.96.16,2.44-.7.48-.87-.03-3.66-.03-3.66,0,0-2.63,1.06-3.11,1.93-.48.87-.16,1.96.7,2.44Z"/><path class="cls-1" d="M19.32,48.81c.87.48,1.96.16,2.43-.71.48-.87-.03-3.66-.03-3.66,0,0-2.63,1.06-3.11,1.93-.48.87-.16,1.96.7,2.44Z"/><path class="cls-1" d="M28.53,53.89c.87.48,1.96.16,2.43-.7.48-.87-.03-3.66-.03-3.66,0,0-2.63,1.06-3.11,1.93-.48.87-.16,1.96.71,2.43Z"/><path class="cls-1" d="M37.74,58.97c.87.48,1.96.16,2.44-.7.48-.87-.03-3.66-.03-3.66,0,0-2.63,1.06-3.11,1.93-.48.87-.16,1.96.7,2.44Z"/><path class="cls-1" d="M21.27,38.1c.48-.87-.03-3.66-.03-3.66,0,0-2.63,1.06-3.11,1.93-.48.87-.16,1.96.7,2.43.87.48,1.96.16,2.44-.7Z"/><path class="cls-1" d="M30.48,43.17c.48-.87-.03-3.66-.03-3.66,0,0-2.63,1.06-3.11,1.93-.48.87-.16,1.96.71,2.43.87.48,1.96.16,2.43-.7Z"/><path class="cls-1" d="M39.69,48.25c.48-.87-.03-3.66-.03-3.66,0,0-2.63,1.06-3.11,1.93-.48.87-.16,1.96.71,2.44.87.48,1.96.16,2.44-.7Z"/><path class="cls-1" d="M51.27,6.84c-3.75,1.59-6.93,4.23-9.18,7.56-.09.13-.17.26-.25.39l3.63,2s0,0,0,0c1.21-1.81,2.76-3.38,4.57-4.59,2.67-1.81,5.88-2.86,9.36-2.86h5.46v-4.14h-5.46c-2.88,0-5.63.58-8.13,1.64Z"/></g></svg>