<?xml version="1.0" encoding="UTF-8"?><svg id="_レイヤー_2" xmlns="http://www.w3.org/2000/svg" viewBox="0 0 73 57.98"><defs><style>.cls-1{fill:#b7d100;stroke-width:0px;}</style></defs><g id="_レイヤー_2-2"><path class="cls-1" d="M7.2,33.33c-1.13.11-2.07.91-2.37,2L.16,51.67c-.61,2.05.55,4.2,2.59,4.8,2.03.6,4.17-.57,4.78-2.62l2.13-6.64,2.05-5.82,5.7-.26,8.48-.17-6.85-8.82-11.84,1.21Z"/><path class="cls-1" d="M61.44,27.65c-3.82.22-6.74,3.5-6.51,7.32.22,3.82,3.5,6.74,7.32,6.51,3.82-.22,6.74-3.5,6.51-7.32-.22-3.82-3.5-6.74-7.32-6.51Z"/><path class="cls-1" d="M46.9,34.72c-1.06-1.31-.87-3.23.43-4.29,1.3-1.06,3.22-.85,4.28.46,1.06,1.31.87,3.23-.43,4.29-1.3,1.06-3.22.85-4.28-.46Z"/><path class="cls-1" d="M51.62,30.65l-.13.11-4.6,3.96-8.46-10.88c-.12-.15-.14-.37-.05-.54l.98-1.92c1.7,1.1,3.67,1.81,5.79,1.98l6.47,7.29Z"/><path class="cls-1" d="M23.2,41l22.89-.02c4.78-.04,7.15-1.04,6.87-5.9-.28-4.87-2.84-7-7.59-6.49l-26.34,3.54,4.17,8.88Z"/><rect class="cls-1" x="17.27" y="43.05" width="55.73" height="5.24"/><rect class="cls-1" x="22.19" y="45.66" width="5.18" height="12.32"/><rect class="cls-1" x="62.89" y="45.66" width="5.18" height="12.32"/><path class="cls-1" d="M46.24,5.72c-2.76,0-5,2.24-5,5s2.24,5,5,5,5-2.24,5-5-2.24-5-5-5Z"/><path class="cls-1" d="M46.24,0c-5.92,0-10.72,4.8-10.72,10.72s4.8,10.72,10.72,10.72,10.72-4.8,10.72-10.72S52.16,0,46.24,0ZM46.24,17.69c-3.84,0-6.97-3.13-6.97-6.97s3.13-6.97,6.97-6.97,6.97,3.13,6.97,6.97-3.13,6.97-6.97,6.97Z"/></g></svg>