<?xml version="1.0" encoding="UTF-8"?><svg id="_レイヤー_2" xmlns="http://www.w3.org/2000/svg" viewBox="0 0 63.51 44.89"><defs><style>.cls-1{fill:#1d1e1e;}.cls-1,.cls-2{stroke-width:0px;}.cls-2{fill:#b7d100;}</style></defs><g id="_レイヤー_2-2"><path class="cls-1" d="M14.31,7.02c-.08,3.8-3.22,6.82-7.02,6.75-3.8-.08-6.82-3.22-6.75-7.02C.61,2.95,3.75-.07,7.56,0c3.8.08,6.82,3.22,6.75,7.02Z"/><path class="cls-1" d="M22.74,34c-9.43-5.72-14.87-11.17-14.87-11.17-3.48-3.24-3.53-6.55-.06-9.93,3.48-3.38,6.79-3.23,9.92.34l15.41,14.53s-2.05,11.3-10.41,6.22Z"/><path class="cls-1" d="M22.11,40.98l-4.77-9.08-1.44-11.65-.09.02c-.34-1.76-1.8-2.99-3.32-2.75-1.57.24-2.62,1.93-2.33,3.78l2.13,12.33,5.61,9.69c.76,1.37,2.32,1.96,3.48,1.31,1.17-.64,1.5-2.28.74-3.65Z"/><rect class="cls-1" x="45.56" y="10.07" width="4.65" height="10.04" transform="translate(-.44 28.7) rotate(-33.22)"/><polygon class="cls-1" points="18.89 44.89 62.16 16.81 59.68 13.01 16.41 41.1 18.89 44.89"/><path class="cls-1" d="M28.76,11.79l-.74,9.04-.55,5.89c-.15,2.2,1.49,4.11,3.68,4.26,2.18.15,4.1,2.3,4.25.1l.4-10.48,9,3.52c1.7.72,3.66-.06,4.38-1.75.72-1.69-.08-3.64-1.79-4.36l-6.86-3.1-1.71-.77-3.21-1.41-4.85-2.13c-.9-.39-1.91.21-1.99,1.19Z"/><rect class="cls-1" x="18.89" y="40.09" width="44.62" height="4.8"/><rect class="cls-1" x="54.15" y="17.48" width="3.74" height="25.01"/><rect class="cls-1" x="7.83" y="12.35" width="4.53" height="29.95" transform="translate(-13.32 10) rotate(-33.22)"/><path class="cls-2" d="M14.31,7.02c-.08,3.8-3.22,6.82-7.02,6.75-3.8-.08-6.82-3.22-6.75-7.02C.61,2.95,3.75-.07,7.56,0c3.8.08,6.82,3.22,6.75,7.02Z"/><path class="cls-2" d="M22.74,34c-9.43-5.72-14.87-11.17-14.87-11.17-3.48-3.24-3.53-6.55-.06-9.93,3.48-3.38,6.79-3.23,9.92.34l15.41,14.53s-2.05,11.3-10.41,6.22Z"/><path class="cls-2" d="M22.11,40.98l-4.77-9.08-1.44-11.65-.09.02c-.34-1.76-1.8-2.99-3.32-2.75-1.57.24-2.62,1.93-2.33,3.78l2.13,12.33,5.61,9.69c.76,1.37,2.32,1.96,3.48,1.31,1.17-.64,1.5-2.28.74-3.65Z"/><rect class="cls-2" x="45.56" y="10.07" width="4.65" height="10.04" transform="translate(-.44 28.7) rotate(-33.22)"/><polygon class="cls-2" points="18.89 44.89 62.16 16.81 59.68 13.01 16.41 41.1 18.89 44.89"/><path class="cls-2" d="M28.76,11.79l-.74,9.04-.55,5.89c-.15,2.2,1.49,4.11,3.68,4.26,2.18.15,4.1,2.3,4.25.1l.4-10.48,9,3.52c1.7.72,3.66-.06,4.38-1.75.72-1.69-.08-3.64-1.79-4.36l-6.86-3.1-1.71-.77-3.21-1.41-4.85-2.13c-.9-.39-1.91.21-1.99,1.19Z"/><rect class="cls-2" x="18.89" y="40.09" width="44.62" height="4.8"/><rect class="cls-2" x="54.15" y="17.48" width="3.74" height="25.01"/><rect class="cls-2" x="7.83" y="12.35" width="4.53" height="29.95" transform="translate(-13.32 10) rotate(-33.22)"/></g></svg>