<?xml version="1.0" encoding="UTF-8"?><svg id="_レイヤー_2" xmlns="http://www.w3.org/2000/svg" viewBox="0 0 72.08 57.36"><defs><style>.cls-1{fill:#4b4b4b;}.cls-1,.cls-2{stroke-width:0px;}.cls-2{fill:#b7d100;}</style></defs><g id="_レイヤー_2-2"><polygon class="cls-1" points="52.73 0 2.66 20.76 18.79 43.26 63.03 24.9 52.73 0"/><polygon class="cls-1" points="0 29.67 5.7 43.44 12.8 40.51 3.88 28.06 0 29.67"/><path class="cls-1" d="M67.65,42.26v5.83h-11.02c-.62-1.19-1.86-2-3.3-2-.33,0-.64.05-.95.13l-5.17-6.54c.21-.46.33-.98.33-1.52,0-2.06-1.67-3.72-3.72-3.72s-3.72,1.67-3.72,3.72,1.67,3.72,3.72,3.72c.24,0,.47-.02.7-.07l5.32,6.72c-.15.4-.23.82-.23,1.27,0,2.06,1.67,3.72,3.72,3.72,1.44,0,2.68-.81,3.3-2h11.02v5.83h4.43v-15.1h-4.43Z"/><polygon class="cls-2" points="52.73 0 2.66 20.76 18.79 43.26 63.03 24.9 52.73 0"/><polygon class="cls-2" points="0 29.67 5.7 43.44 12.8 40.51 3.88 28.06 0 29.67"/><path class="cls-2" d="M67.65,42.26v5.83h-11.02c-.62-1.19-1.86-2-3.3-2-.33,0-.64.05-.95.13l-5.17-6.54c.21-.46.33-.98.33-1.52,0-2.06-1.67-3.72-3.72-3.72s-3.72,1.67-3.72,3.72,1.67,3.72,3.72,3.72c.24,0,.47-.02.7-.07l5.32,6.72c-.15.4-.23.82-.23,1.27,0,2.06,1.67,3.72,3.72,3.72,1.44,0,2.68-.81,3.3-2h11.02v5.83h4.43v-15.1h-4.43Z"/></g></svg>