<?xml version="1.0" encoding="UTF-8"?><svg id="_レイヤー_2" xmlns="http://www.w3.org/2000/svg" viewBox="0 0 102.96 21.33"><defs><style>.cls-1{fill:#fff;stroke-width:0px;}</style></defs><g id="_レイヤー_1-2"><path class="cls-1" d="M27.6,6.53h1.96l1.99,8.41h.03l2.22-8.41h1.97l2.16,8.41h.03l2.05-8.41h1.96l-3.04,10.99h-1.96l-2.2-8.41h-.03l-2.25,8.41h-1.99l-2.9-10.99Z"/><path class="cls-1" d="M44.52,13.99c0,.31.04.6.13.89s.22.54.39.75c.17.22.39.39.66.51.27.13.58.19.95.19.51,0,.92-.11,1.24-.33.31-.22.54-.55.7-1h1.67c-.09.43-.25.82-.48,1.16-.23.34-.5.62-.82.86-.32.23-.67.41-1.07.52-.39.12-.81.18-1.24.18-.63,0-1.18-.1-1.66-.31-.48-.21-.89-.49-1.22-.86-.33-.37-.58-.81-.75-1.32-.17-.51-.25-1.08-.25-1.69,0-.56.09-1.1.27-1.61s.44-.95.77-1.34c.33-.38.74-.69,1.21-.92.47-.23,1-.34,1.6-.34.62,0,1.19.13,1.68.39.5.26.91.61,1.24,1.04.33.43.57.93.71,1.49.15.56.19,1.14.12,1.73h-5.85ZM48.63,12.83c-.02-.28-.08-.54-.18-.8-.1-.26-.23-.48-.4-.67s-.38-.34-.62-.46c-.24-.12-.51-.18-.81-.18s-.59.05-.84.16-.47.26-.65.44-.32.41-.43.67c-.11.26-.17.53-.18.83h4.1Z"/><path class="cls-1" d="M52.49,6.53h1.75v4.06h.04c.12-.19.27-.37.45-.52.17-.15.37-.28.58-.39s.43-.19.66-.25c.23-.06.46-.08.68-.08.63,0,1.17.11,1.64.33.47.22.85.52,1.16.91.31.38.54.83.69,1.35.15.51.23,1.06.23,1.65,0,.53-.07,1.05-.21,1.55-.14.5-.35.95-.63,1.33-.28.39-.64.69-1.07.92-.43.23-.94.35-1.52.35-.27,0-.54-.02-.81-.05-.27-.04-.53-.1-.78-.21s-.47-.23-.67-.4c-.2-.16-.37-.38-.5-.65h-.03v1.09h-1.66V6.53ZM58.62,13.55c0-.36-.05-.71-.14-1.05-.09-.34-.23-.64-.42-.9-.18-.26-.42-.47-.69-.63-.28-.16-.6-.24-.96-.24-.74,0-1.3.26-1.67.77-.38.51-.56,1.19-.56,2.05,0,.4.05.77.15,1.12.1.34.24.64.44.88s.43.44.7.58c.27.14.59.22.95.22.4,0,.74-.08,1.02-.25s.51-.38.69-.64c.18-.26.31-.56.39-.89.08-.33.12-.67.12-1.02Z"/><path class="cls-1" d="M67.33,7.08c0-.77-.03-1.2-.11-1.71.53.01,1.06.04,1.54.1.13.01.22.07.22.14,0,.11-.03.2-.07.29-.07.18-.1.49-.1,1.15v.46h2.46c1.36,0,1.83-.03,1.92-.03.14,0,.15.01.15.15,0,.08-.03.6-.03,2.16v2.04c0,2.6.03,3.09.03,3.18,0,.14-.01.15-.15.15h-1.18c-.14,0-.15-.01-.15-.15v-.48h-3.05v.91c0,1.67.01,2.52.01,2.59,0,.14-.01.15-.14.15h-1.25c-.13,0-.14-.01-.14-.15,0-.08.03-.92.03-2.58v-.92h-2.95v.53c0,.14-.01.15-.15.15h-1.18c-.14,0-.15-.01-.15-.15,0-.08.03-.57.03-3.19v-1.82c0-1.82-.03-2.32-.03-2.42,0-.14.01-.15.15-.15.1,0,.57.03,1.92.03h2.37v-.43ZM64.38,10.35h2.95v-1.57h-2.95v1.57ZM67.33,13.27v-1.67h-2.95v1.67h2.95ZM68.82,8.79v1.57h3.05v-1.57h-3.05ZM71.87,13.27v-1.67h-3.05v1.67h3.05Z"/><path class="cls-1" d="M79.16,15.09c.29.57.57.92,1.15,1.16.49.2,1.37.28,2.59.28,1.81,0,3.93-.1,6.02-.31-.2.29-.32.67-.38,1.09q-.07.45-.52.48c-1.78.1-3.44.14-4.9.14s-2.6-.13-3.28-.41c-.64-.27-1.02-.66-1.37-1.25-.43.42-.92.84-1.44,1.23-.14.11-.22.2-.28.28-.07.1-.13.14-.21.14-.06,0-.14-.07-.2-.18-.2-.36-.38-.81-.57-1.32.36-.17.56-.27.83-.43.41-.25.81-.57,1.18-.9v-3.09h-.69c-.76,0-.95.03-1.02.03-.15,0-.17-.01-.17-.17v-1.08c0-.14.01-.15.17-.15.07,0,.27.03,1.02.03h.9c.74,0,.97-.03,1.05-.03.14,0,.15.01.15.15,0,.08-.03.48-.03,1.33v2.97ZM78.29,8.81c-.1.07-.14.1-.18.1s-.07-.03-.11-.1c-.52-.84-1.09-1.6-1.72-2.18-.11-.1-.08-.14.07-.24l.78-.52c.15-.1.18-.11.29-.01.64.6,1.25,1.29,1.75,2.09.08.13.08.15-.07.27l-.81.6ZM83.25,6.13c.64,0,1.09-.03,1.27-.03.1,0,.14.07.14.15,0,.32-.01,1.11.17,2.06.41,2.32,1.78,4.54,3.93,5.91-.24.27-.55.69-.74,1.09-.11.21-.17.31-.25.31-.07,0-.17-.06-.31-.18-1.71-1.37-2.86-3.22-3.4-5.32-.53,2.13-1.57,3.79-3.19,5.21-.15.13-.24.2-.31.2s-.14-.08-.29-.27c-.29-.39-.59-.64-.87-.83,2.24-1.57,3.5-3.75,3.82-6.94h-1.22c-.87,0-1.12.03-1.2.03-.15,0-.17-.01-.17-.17v-1.09c0-.14.01-.15.17-.15.08,0,.34.03,1.2.03h1.25Z"/><path class="cls-1" d="M99.57,10.07c.03-.31.03-.57-.01-.95.73.18,1.29.39,1.62.6.13.07.2.25.1.38-.08.18-.18.34-.22.55-.11.59-.25,1.2-.39,1.81.8.41,1.67.95,2.18,1.34.14.08.13.15.08.29-.14.34-.43.92-.6,1.2-.04.07-.08.1-.13.1-.06,0-.11-.04-.17-.1-.62-.53-1.18-.94-1.83-1.32-.71,1.61-1.47,2.63-2.83,3.68-.13.1-.2.15-.28.15-.06,0-.11-.03-.21-.1-.38-.31-.73-.45-1.22-.57,1.75-1.22,2.6-2.38,3.14-3.79-.77-.39-1.76-.7-2.77-.85-.74,1.54-1.15,2.24-1.71,2.8-.52.55-1.08.77-1.79.77-.81,0-1.67-.56-1.67-1.92,0-1.74,1.79-3.09,4.13-3.09.46-1.16.81-2.14,1.16-3.32-.77.08-1.47.17-1.93.22-.2.03-.41.07-.63.15-.07.03-.17.06-.25.06-.11,0-.18-.06-.22-.15-.13-.28-.27-.83-.41-1.53.42.08.81.1,1.23.08.67,0,1.37-.07,2.17-.18.35-.06.5-.13.69-.24.06-.04.13-.06.18-.06.07,0,.14.01.2.06.35.21.69.49.95.77.08.08.13.15.13.24s-.06.15-.14.24c-.21.2-.27.46-.38.73-.36.95-.76,2.04-1.18,3.05.88.11,1.71.32,2.72.7.14-.64.24-1.18.29-1.81ZM92.17,13.98c0,.45.15.64.49.64.27,0,.53-.18.81-.53.32-.41.66-.97,1.02-1.71-1.43.06-2.32.8-2.32,1.6Z"/><polygon class="cls-1" points="17.59 19.73 1.6 19.73 1.6 7.75 7.75 7.75 7.75 1.6 17.59 1.6 17.59 3.18 19.19 1.64 19.19 0 7.75 0 1.6 6.16 0 7.75 0 21.33 19.19 21.33 19.19 11.91 17.59 13.58 17.59 19.73"/><path class="cls-1" d="M23.91,4.21l-2.41-2.41c-.21-.21-.56-.21-.77,0l-10.19,9.78c-.06.06-.11.14-.14.23l-1.23,4.05c-.13.42.26.81.68.68l4.18-1.27,9.88-10.28c.21-.21.21-.56,0-.77ZM11.47,15.05l-.79-.87.55-1.81,1.37.74.74,1.37-1.86.57ZM22.38,3.83l-8.68,8.73-.55-.55L21.88,3.33l.5.5s0,0,0,0Z"/></g></svg>