<?xml version="1.0" encoding="UTF-8"?><svg id="_レイヤー_2" xmlns="http://www.w3.org/2000/svg" viewBox="0 0 18.9 18.9"><defs><style>.cls-1{fill:#161616;}</style></defs><g id="_レイヤー_1-2"><path class="cls-1" d="M16.82,3.88c-.17-.44-.38-.76-.71-1.09-.33-.33-.65-.54-1.09-.71-.33-.13-.83-.28-1.75-.33-1-.05-1.3-.06-3.82-.06s-2.82,0-3.82.06c-.92.04-1.42.2-1.75.33-.44.17-.76.38-1.09.71-.33.33-.54.65-.71,1.09-.13.33-.28.83-.33,1.75-.05,1-.06,1.3-.06,3.82s0,2.82.06,3.82c.04.92.2,1.42.33,1.75.17.44.38.76.71,1.09.33.33.65.54,1.09.71.33.13.83.28,1.75.33,1,.05,1.3.06,3.82.06s2.82,0,3.82-.06c.92-.04,1.42-.2,1.75-.33.44-.17.76-.38,1.09-.71.33-.33.54-.65.71-1.09.13-.33.28-.83.33-1.75.05-1,.06-1.3.06-3.82s0-2.82-.06-3.82c-.04-.92-.2-1.42-.33-1.75ZM9.45,14.3c-2.68,0-4.85-2.17-4.85-4.85s2.17-4.85,4.85-4.85,4.85,2.17,4.85,4.85-2.17,4.85-4.85,4.85ZM14.49,5.54c-.63,0-1.13-.51-1.13-1.13s.51-1.13,1.13-1.13,1.13.51,1.13,1.13-.51,1.13-1.13,1.13ZM9.45,6.3c-1.74,0-3.15,1.41-3.15,3.15s1.41,3.15,3.15,3.15,3.15-1.41,3.15-3.15-1.41-3.15-3.15-3.15ZM18.84,13.35c-.05,1.01-.21,1.69-.44,2.29-.24.62-.56,1.15-1.09,1.67-.53.53-1.05.85-1.67,1.09-.6.23-1.29.39-2.29.44-1.01.05-1.33.06-3.9.06s-2.89-.01-3.9-.06c-1.01-.05-1.69-.21-2.29-.44-.62-.24-1.15-.56-1.67-1.09-.53-.53-.85-1.05-1.09-1.67-.23-.6-.39-1.29-.44-2.29-.05-1.01-.06-1.33-.06-3.9s.01-2.89.06-3.9c.05-1.01.21-1.69.44-2.29.24-.62.56-1.15,1.09-1.67.53-.53,1.05-.85,1.67-1.09.6-.23,1.29-.39,2.29-.44,1.01-.05,1.33-.06,3.9-.06s2.89.01,3.9.06c1.01.05,1.69.21,2.29.44.62.24,1.15.56,1.67,1.09.53.53.85,1.05,1.09,1.67.23.6.39,1.29.44,2.29.05,1.01.06,1.33.06,3.9s-.01,2.89-.06,3.9Z"/></g></svg>