<?xml version="1.0" encoding="UTF-8"?><svg id="_レイヤー_2" xmlns="http://www.w3.org/2000/svg" viewBox="0 0 199.06 36.57"><defs><style>.cls-1{fill:#fff;stroke-width:0px;}</style></defs><g id="_レイヤー_1-2"><polygon class="cls-1" points="97.9 33.81 97.9 36.3 97.04 36.3 97.04 30.44 102.51 30.44 101.95 31.24 97.9 31.24 97.9 33.06 102.21 33.06 101.69 33.81 97.9 33.81"/><rect class="cls-1" x="107.05" y="30.44" width=".85" height="5.87"/><polygon class="cls-1" points="115.03 36.3 115.03 31.24 112.23 31.24 112.81 30.44 118.92 30.44 118.36 31.24 115.9 31.24 115.9 36.3 115.03 36.3"/><path class="cls-1" d="M123.09,31.75v4.55h-.86v-5.35c0-.42.22-.6.47-.6.11,0,.24.03.37.18l4.17,4.43v-4.54h.86v5.32c0,.42-.23.6-.48.6-.11,0-.23-.03-.36-.18l-4.17-4.43Z"/><polygon class="cls-1" points="132.79 36.3 132.79 30.44 138.39 30.44 137.83 31.24 133.64 31.24 133.64 33.01 138.15 33.01 137.66 33.71 133.64 33.71 133.64 35.5 138.43 35.5 137.87 36.3 132.79 36.3"/><path class="cls-1" d="M142.02,36.3l.56-.8h4.15c.81,0,1.21-.32,1.21-.93,0-.77-.58-.87-1.56-.87h-2.13c-1.33,0-1.96-.57-1.96-1.6s.65-1.67,2.1-1.67h4.27l-.55.81h-3.78c-.81,0-1.21.32-1.21.93,0,.75.56.83,1.56.83h2.13c1.29,0,1.95.52,1.95,1.58,0,1.12-.64,1.72-2.09,1.72h-4.64Z"/><path class="cls-1" d="M152.32,36.3l.56-.8h4.15c.81,0,1.21-.32,1.21-.93,0-.77-.58-.87-1.56-.87h-2.13c-1.33,0-1.96-.57-1.96-1.6s.65-1.67,2.1-1.67h4.27l-.55.81h-3.78c-.81,0-1.21.32-1.21.93,0,.75.56.83,1.56.83h2.13c1.29,0,1.95.52,1.95,1.58,0,1.12-.64,1.72-2.09,1.72h-4.64Z"/><path class="cls-1" d="M170.46,36.3c-1.75,0-3.04-1.29-3.04-2.99s1.29-2.88,3.04-2.88h3.4l-.55.81h-2.84c-1.26,0-2.19.82-2.19,2.11s.92,2.15,2.19,2.15h2.34v-1.85h-3.08l.52-.72h3.41v3.37h-3.19Z"/><polygon class="cls-1" points="180.11 36.3 180.11 34.13 177.19 30.44 178.17 30.44 180.55 33.41 182.88 30.44 183.84 30.44 180.96 34.13 180.96 36.3 180.11 36.3"/><path class="cls-1" d="M194.56,36.3l-1.48-4.72-1.76,4.43c-.13.32-.31.37-.51.37-.13,0-.25-.02-.36-.12-.05-.05-.1-.13-.15-.24l-1.76-4.43-1.48,4.72h-.84l1.74-5.5c.09-.29.27-.45.49-.45s.39.14.49.35l1.89,4.61,1.89-4.61c.08-.21.25-.35.48-.35s.4.16.5.45l1.71,5.5h-.85Z"/><polygon class="cls-1" points="161.37 13.04 166.19 7.05 170.3 7.05 163.27 16.19 163.27 24.69 159.61 24.69 159.61 16.19 152.5 7.06 156.6 7.06 161.37 13.04"/><path class="cls-1" d="M116.78,7.04l-6.36,14.42c-.66,1.49.4,3.2,2.03,3.23.03,0,.05,0,.08,0l7.92-17.65h-3.67Z"/><path class="cls-1" d="M111.09,16.23l-4.01-9.19h-3.15l-6.36,14.43c-.66,1.49.4,3.2,2.03,3.23.03,0,.05,0,.08,0l5.82-13.11,3.8,8.7,1.78-4.06Z"/><polygon class="cls-1" points="98.15 16.44 94.21 7.05 90.52 7.05 96.27 20.71 98.15 16.44"/><polygon class="cls-1" points="137.43 7.04 134.07 7.05 125.97 24.68 129.69 24.68 135.73 11.08 142.02 24.68 145.74 24.68 137.43 7.04"/><polygon class="cls-1" points="199.06 24.68 194.54 24.68 188.72 18.06 182.93 24.68 178.41 24.68 193.93 7.05 198.39 7.05 190.98 15.53 199.06 24.68"/><polygon class="cls-1" points="183.45 7.05 178.9 7.05 185.45 14.4 187.65 11.88 183.45 7.05"/><path class="cls-1" d="M10.74,0H0l20.67,36.57,5.73-10.12L11.69.47c-.16-.29-.54-.47-.95-.47"/><path class="cls-1" d="M33.6,0h-10.74l20.67,36.57,5.73-10.12L34.55.47c-.16-.29-.54-.47-.95-.47"/><path class="cls-1" d="M56.47,0h-10.74l9.24,16.34,5.71-10.11-3.26-5.76c-.16-.29-.54-.47-.95-.47"/><polygon class="cls-1" points="56.13 18.31 56.12 18.31 56.12 18.31 56.13 18.31"/><path class="cls-1" d="M68.48,18.31l10.32,18.26h-11.42l-10.33-18.25h0s0-.02,0-.02L67.38.05h9.87c.74,0,1.24.56.95,1.07l-9.71,17.19Z"/><polygon class="cls-1" points="57.05 18.32 57.04 18.32 57.04 18.31 57.05 18.32"/></g></svg>