<?xml version="1.0" encoding="UTF-8"?><svg id="_レイヤー_2" xmlns="http://www.w3.org/2000/svg" viewBox="0 0 19.3 13.6"><defs><style>.cls-1{fill:#161616;}.cls-1,.cls-2{stroke-width:0px;}.cls-2{fill:#fff;}</style></defs><g id="_レイヤー_1-2"><path class="cls-1" d="M18.9,2.12c-.22-.84-.88-1.49-1.71-1.72-1.51-.41-7.54-.41-7.54-.41,0,0-6.04,0-7.54.41-.83.22-1.48.88-1.71,1.72-.4,1.51-.4,4.68-.4,4.68,0,0,0,3.16.4,4.68.22.84.88,1.49,1.71,1.72,1.51.41,7.54.41,7.54.41,0,0,6.04,0,7.54-.41.83-.22,1.48-.88,1.71-1.72.4-1.51.4-4.68.4-4.68,0,0,0-3.16-.4-4.68"/><polygon class="cls-2" points="7.68 9.67 12.72 6.8 7.68 3.93 7.68 9.67"/></g></svg>