<?xml version="1.0" encoding="UTF-8"?><svg id="_レイヤー_2" xmlns="http://www.w3.org/2000/svg" viewBox="0 0 25.89 18.24"><defs><style>.cls-1{fill:#ed1c24;stroke-width:0px;}</style></defs><g id="_レイヤー_1-2"><path class="cls-1" d="M25.35,2.85c-.3-1.12-1.18-2-2.29-2.3-2.02-.54-10.12-.54-10.12-.54,0,0-8.1,0-10.12.54C1.72.84.84,1.73.54,2.85c-.54,2.03-.54,6.27-.54,6.27,0,0,0,4.24.54,6.27.3,1.12,1.18,2,2.29,2.3,2.02.54,10.12.54,10.12.54,0,0,8.1,0,10.12-.54,1.11-.3,1.99-1.18,2.29-2.3.54-2.03.54-6.27.54-6.27,0,0,0-4.24-.54-6.27ZM10.3,12.97v-7.7l6.77,3.85-6.77,3.85Z"/></g></svg>